<svg width="70" height="70" viewBox="0 0 70 70" fill="none" xmlns="http://www.w3.org/2000/svg">
<path d="M50.0938 20.0312C50.0938 19.7412 49.9785 19.463 49.7734 19.2579C49.5683 19.0527 49.2901 18.9375 49 18.9375H48.3077C47.6609 16.9465 46.5832 15.1226 45.1511 13.5956C43.7191 12.0687 41.968 10.8763 40.0225 10.1033C39.7849 9.48566 39.3662 8.95429 38.8212 8.57893C38.2762 8.20358 37.6305 8.00177 36.9688 8H32.5938C31.932 8.00177 31.2863 8.20358 30.7413 8.57893C30.1963 8.95429 29.7776 9.48566 29.54 10.1033C27.5945 10.8763 25.8434 12.0687 24.4114 13.5956C22.9793 15.1226 21.9016 16.9465 21.2548 18.9375H20.5625C20.2724 18.9375 19.9942 19.0527 19.7891 19.2579C19.584 19.463 19.4688 19.7412 19.4688 20.0312C19.4688 20.3213 19.584 20.5995 19.7891 20.8046C19.9942 21.0098 20.2724 21.125 20.5625 21.125H20.7331C20.2547 24.182 20.789 27.3115 22.2546 30.0366C23.7202 32.7616 26.0367 34.9327 28.8509 36.2188C24.5608 37.4932 20.7973 40.1196 18.1212 43.7067C15.4451 47.2939 13.9995 51.6496 14 56.125V59.4062C14 60.2765 14.3457 61.1111 14.9611 61.7264C15.5764 62.3418 16.411 62.6875 17.2812 62.6875H52.2812C53.1515 62.6875 53.9861 62.3418 54.6014 61.7264C55.2168 61.1111 55.5625 60.2765 55.5625 59.4062V56.125C55.5628 51.6497 54.1172 47.294 51.4411 43.7069C48.765 40.1198 45.0016 37.4933 40.7116 36.2188C43.5258 34.9327 45.8423 32.7616 47.3079 30.0366C48.7735 27.3115 49.3078 24.182 48.8294 21.125H49C49.2901 21.125 49.5683 21.0098 49.7734 20.8046C49.9785 20.5995 50.0938 20.3213 50.0938 20.0312ZM29.3125 12.6003V16.75C29.3125 17.0401 29.4277 17.3183 29.6329 17.5234C29.838 17.7285 30.1162 17.8438 30.4062 17.8438C30.6963 17.8438 30.9745 17.7285 31.1796 17.5234C31.3848 17.3183 31.5 17.0401 31.5 16.75V11.2812C31.5 10.9912 31.6152 10.713 31.8204 10.5079C32.0255 10.3027 32.3037 10.1875 32.5938 10.1875H36.9688C37.2588 10.1875 37.537 10.3027 37.7421 10.5079C37.9473 10.713 38.0625 10.9912 38.0625 11.2812V16.75C38.0625 17.0401 38.1777 17.3183 38.3829 17.5234C38.588 17.7285 38.8662 17.8438 39.1562 17.8438C39.4463 17.8438 39.7245 17.7285 39.9296 17.5234C40.1348 17.3183 40.25 17.0401 40.25 16.75V12.6003C42.8699 13.9424 44.9083 16.1964 45.9812 18.9375H23.5813C24.6542 16.1964 26.6926 13.9424 29.3125 12.6003ZM37.5725 37.7566L34.7812 41.25L31.99 37.7598C32.9134 37.6138 33.8464 37.5374 34.7812 37.5312C35.7161 37.5371 36.6491 37.6131 37.5725 37.7588V37.7566ZM34.7812 45.4456L39.5938 55.0641C39.7051 55.2842 39.7383 55.5357 39.6878 55.7772C39.6373 56.0187 39.5062 56.2359 39.3159 56.393L34.7812 60.1719L30.2488 56.3952C30.0586 56.2375 29.9275 56.0201 29.8767 55.7784C29.8258 55.5367 29.8583 55.285 29.9688 55.0641L34.7812 45.4456ZM16.1875 59.4062V56.125C16.1885 52.0985 17.4964 48.1812 19.9148 44.9619C22.3331 41.7426 25.7311 39.3952 29.598 38.2728L33.4895 43.1367L28.0142 54.0863C27.6812 54.7472 27.5824 55.5017 27.734 56.2261C27.8856 56.9506 28.2786 57.6021 28.8488 58.0741L31.7592 60.5H17.2812C16.9912 60.5 16.713 60.3848 16.5079 60.1796C16.3027 59.9745 16.1875 59.6963 16.1875 59.4062ZM53.375 56.125V59.4062C53.375 59.6963 53.2598 59.9745 53.0546 60.1796C52.8495 60.3848 52.5713 60.5 52.2812 60.5H37.8022L40.7127 58.0741C41.2828 57.6021 41.6759 56.9506 41.8277 56.2263C41.9795 55.5019 41.881 54.7474 41.5483 54.0863L36.073 43.1367L39.9645 38.2728C43.8314 39.3952 47.2294 41.7426 49.6477 44.9619C52.0661 48.1812 53.374 52.0985 53.375 56.125ZM46.8125 23.3125C46.8187 24.9888 46.4745 26.6479 45.802 28.1835C45.1295 29.719 44.1435 31.097 42.9073 32.2292C41.6711 33.3615 40.212 34.2228 38.6234 34.7582C37.0348 35.2935 35.3519 35.4909 33.6826 35.3378C32.0133 35.1848 30.3944 34.6845 28.9297 33.8692C27.465 33.0539 26.1868 31.9415 25.1772 30.6033C24.1675 29.2651 23.4486 27.7307 23.0666 26.0985C22.6846 24.4663 22.6479 22.7722 22.9589 21.125H46.6036C46.7401 21.8462 46.81 22.5785 46.8125 23.3125Z" fill="white"/>
<path d="M25.5621 26.7707C26.2649 28.6484 27.5242 30.2668 29.1718 31.4093C30.8193 32.5518 32.7764 33.164 34.7813 33.164C36.7862 33.164 38.7434 32.5518 40.3909 31.4093C42.0384 30.2668 43.2978 28.6484 44.0005 26.7707C44.0948 26.5007 44.0797 26.2045 43.9582 25.9456C43.8368 25.6867 43.6188 25.4856 43.3509 25.3855C43.083 25.2854 42.7865 25.2942 42.5251 25.41C42.2636 25.5258 42.0578 25.7394 41.952 26.0051C41.4054 27.4656 40.4259 28.7244 39.1445 29.6131C37.863 30.5018 36.3408 30.978 34.7813 30.978C33.2219 30.978 31.6996 30.5018 30.4182 29.6131C29.1368 28.7244 28.1573 27.4656 27.6107 26.0051C27.5627 25.8676 27.4877 25.7411 27.3901 25.633C27.2926 25.5249 27.1744 25.4373 27.0426 25.3755C26.9107 25.3136 26.7679 25.2788 26.6224 25.2729C26.4768 25.267 26.3316 25.2902 26.1952 25.3412C26.0588 25.3922 25.934 25.4699 25.828 25.5697C25.722 25.6696 25.637 25.7897 25.5781 25.9228C25.5191 26.056 25.4873 26.1995 25.4846 26.3451C25.4818 26.4907 25.5082 26.6354 25.5621 26.7707Z" fill="white"/>
</svg>
