<svg width="70" height="70" viewBox="0 0 70 70" fill="none" xmlns="http://www.w3.org/2000/svg">
<path d="M62.2773 23.0739C62.4055 22.9713 62.509 22.8411 62.58 22.6931C62.651 22.545 62.6877 22.3828 62.6875 22.2186V12.3749C62.6875 12.1609 62.6247 11.9516 62.5069 11.7729C62.389 11.5942 62.2214 11.454 62.0247 11.3697L54.3684 8.08847C54.2021 8.01716 54.0206 7.98825 53.8404 8.00432C53.6601 8.0204 53.4866 8.08096 53.3355 8.18058C53.1844 8.2802 53.0604 8.41577 52.9745 8.57512C52.8887 8.73447 52.8438 8.91264 52.8438 9.09363V17.2596L50.6562 18.7186L48.4688 17.2596V9.09363C48.4687 8.91264 48.4238 8.73447 48.338 8.57512C48.2521 8.41577 48.1281 8.2802 47.977 8.18058C47.8259 8.08096 47.6524 8.0204 47.4721 8.00432C47.2919 7.98825 47.1104 8.01716 46.9441 8.08847L39.2878 11.3697C39.0911 11.454 38.9235 11.5942 38.8056 11.7729C38.6878 11.9516 38.625 12.1609 38.625 12.3749V22.2186C38.6249 22.3827 38.6618 22.5446 38.7328 22.6925C38.8038 22.8403 38.9071 22.9703 39.0352 23.0728L40.7031 24.4061H37.9534C37.286 24.4086 36.635 24.6135 36.0865 24.9937C35.538 25.3739 35.1177 25.9116 34.8811 26.5357L32.3983 33.1561H9.09375C8.80367 33.1561 8.52547 33.2714 8.32035 33.4765C8.11523 33.6816 8 33.9598 8 34.2499C8 34.54 8.11523 34.8182 8.32035 35.0233C8.52547 35.2284 8.80367 35.3436 9.09375 35.3436H18.9375V52.8436H9.09375C8.80367 52.8436 8.52547 52.9589 8.32035 53.164C8.11523 53.3691 8 53.6473 8 53.9374C8 54.2275 8.11523 54.5057 8.32035 54.7108C8.52547 54.9159 8.80367 55.0311 9.09375 55.0311H24.4062C25.2765 55.0311 26.1111 54.6854 26.7264 54.0701C27.3418 53.4547 27.6875 52.6201 27.6875 51.7499H29.9669C30.7503 51.7522 31.52 51.9561 32.2018 52.3421C32.8836 52.7281 33.4545 53.2832 33.8595 53.9538C34.4595 54.9475 35.3053 55.77 36.3155 56.3418C37.3256 56.9137 38.4661 57.2156 39.6269 57.2186H44.0938V59.4061C44.0938 60.2764 44.4395 61.111 45.0548 61.7263C45.6702 62.3417 46.5048 62.6874 47.375 62.6874H53.9375C54.8077 62.6874 55.6423 62.3417 56.2577 61.7263C56.873 61.111 57.2188 60.2764 57.2188 59.4061V57.2186H59.4062C60.2765 57.2186 61.1111 56.8729 61.7264 56.2576C62.3418 55.6422 62.6875 54.8076 62.6875 53.9374V32.0624C62.6875 31.1921 62.3418 30.3575 61.7264 29.7422C61.1111 29.1268 60.2765 28.7811 59.4062 28.7811H57.2188V27.1208L62.2773 23.0739ZM25.5 51.7499C25.5 52.04 25.3848 52.3182 25.1796 52.5233C24.9745 52.7284 24.6963 52.8436 24.4062 52.8436H21.125V35.3436H25.5V51.7499ZM55.0312 59.4061C55.0312 59.6962 54.916 59.9744 54.7109 60.1795C54.5058 60.3846 54.2276 60.4999 53.9375 60.4999H47.375C47.0849 60.4999 46.8067 60.3846 46.6016 60.1795C46.3965 59.9744 46.2812 59.6962 46.2812 59.4061V57.2186H55.0312V59.4061ZM59.4062 30.9686C59.6963 30.9686 59.9745 31.0839 60.1796 31.289C60.3848 31.4941 60.5 31.7723 60.5 32.0624V35.3436H55.0312C54.7412 35.3436 54.463 35.4589 54.2579 35.664C54.0527 35.8691 53.9375 36.1473 53.9375 36.4374C53.9375 36.7275 54.0527 37.0057 54.2579 37.2108C54.463 37.4159 54.7412 37.5311 55.0312 37.5311H60.5V41.9061H55.0312C54.7412 41.9061 54.463 42.0214 54.2579 42.2265C54.0527 42.4316 53.9375 42.7098 53.9375 42.9999C53.9375 43.29 54.0527 43.5682 54.2579 43.7733C54.463 43.9784 54.7412 44.0936 55.0312 44.0936H60.5V48.4686H55.0312C54.7412 48.4686 54.463 48.5839 54.2579 48.789C54.0527 48.9941 53.9375 49.2723 53.9375 49.5624C53.9375 49.8525 54.0527 50.1307 54.2579 50.3358C54.463 50.5409 54.7412 50.6561 55.0312 50.6561H60.5V53.9374C60.5 54.2275 60.3848 54.5057 60.1796 54.7108C59.9745 54.9159 59.6963 55.0311 59.4062 55.0311H39.6269C38.8435 55.0291 38.0739 54.8253 37.3921 54.4395C36.7103 54.0537 36.1393 53.4988 35.7342 52.8283C35.1343 51.8344 34.2886 51.0118 33.2784 50.4398C32.2682 49.8678 31.1278 49.5656 29.9669 49.5624H27.6875V35.3436H33.1562C33.379 35.3438 33.5966 35.2759 33.7797 35.149C33.9629 35.0222 34.1029 34.8424 34.1811 34.6338L36.9286 27.3057C37.0074 27.0974 37.1476 26.9179 37.3305 26.7909C37.5135 26.664 37.7307 26.5956 37.9534 26.5947H43.4375L44.0938 27.1208V28.7811H43C42.7099 28.7811 42.4317 28.8964 42.2266 29.1015C42.0215 29.3066 41.9062 29.5848 41.9062 29.8749C41.9062 30.165 42.0215 30.4432 42.2266 30.6483C42.4317 30.8534 42.7099 30.9686 43 30.9686H59.4062ZM55.4414 25.7405C55.3135 25.8429 55.2102 25.9727 55.1393 26.1204C55.0683 26.2681 55.0314 26.4298 55.0312 26.5936V28.7811H46.2812V26.5936C46.2811 26.4298 46.2442 26.2681 46.1732 26.1204C46.1023 25.9727 45.999 25.8429 45.8711 25.7405L40.8125 21.6947V13.0968L46.2812 10.7539V17.8436C46.2812 18.0237 46.3256 18.2009 46.4105 18.3596C46.4954 18.5184 46.6182 18.6537 46.768 18.7536L50.0492 20.9411C50.229 21.061 50.4402 21.125 50.6562 21.125C50.8723 21.125 51.0835 21.061 51.2633 20.9411L54.5445 18.7536C54.6943 18.6537 54.8171 18.5184 54.902 18.3596C54.9869 18.2009 55.0313 18.0237 55.0312 17.8436V10.7539L60.5 13.0968V21.6947L55.4414 25.7405Z" fill="white"/>
</svg>
