<svg width="70" height="70" viewBox="0 0 70 70" fill="none" xmlns="http://www.w3.org/2000/svg">
<path d="M60.5 30.8752V21.0315C60.5 20.1612 60.1543 19.3266 59.5389 18.7113C58.9236 18.0959 58.089 17.7502 57.2188 17.7502H53.9375V10.094C53.9375 9.93177 53.9015 9.77158 53.832 9.62503C53.7625 9.47847 53.6612 9.34921 53.5356 9.24661C53.41 9.144 53.2631 9.07063 53.1056 9.0318C52.9481 8.99297 52.7839 8.98966 52.625 9.0221L8.875 17.7721C8.63473 17.8356 8.4207 17.9735 8.26354 18.166C8.10637 18.3586 8.01413 18.5958 8 18.844V57.1252C8 57.9955 8.3457 58.8301 8.96106 59.4454C9.57641 60.0608 10.411 60.4065 11.2812 60.4065H57.2188C58.089 60.4065 58.9236 60.0608 59.5389 59.4454C60.1543 58.8301 60.5 57.9955 60.5 57.1252V47.2815C61.0802 47.2815 61.6366 47.051 62.0468 46.6408C62.457 46.2305 62.6875 45.6741 62.6875 45.094V33.0627C62.6875 32.4826 62.457 31.9262 62.0468 31.5159C61.6366 31.1057 61.0802 30.8752 60.5 30.8752ZM51.75 11.4283V17.7502H20.1406L51.75 11.4283ZM58.3125 52.7502H51.75C51.4599 52.7502 51.1817 52.8655 50.9766 53.0706C50.7715 53.2757 50.6562 53.5539 50.6562 53.844C50.6562 54.1341 50.7715 54.4123 50.9766 54.6174C51.1817 54.8225 51.4599 54.9377 51.75 54.9377H58.3125V57.1252C58.3125 57.4153 58.1973 57.6935 57.9921 57.8986C57.787 58.1037 57.5088 58.219 57.2188 58.219H11.2812C10.9912 58.219 10.713 58.1037 10.5079 57.8986C10.3027 57.6935 10.1875 57.4153 10.1875 57.1252V54.9377H16.75C17.0401 54.9377 17.3183 54.8225 17.5234 54.6174C17.7285 54.4123 17.8438 54.1341 17.8438 53.844C17.8438 53.5539 17.7285 53.2757 17.5234 53.0706C17.3183 52.8655 17.0401 52.7502 16.75 52.7502H10.1875V25.4065H16.75C17.0401 25.4065 17.3183 25.2912 17.5234 25.0861C17.7285 24.881 17.8438 24.6028 17.8438 24.3127C17.8438 24.0226 17.7285 23.7444 17.5234 23.5393C17.3183 23.3342 17.0401 23.219 16.75 23.219H10.1875V19.9377H57.2188C57.5088 19.9377 57.787 20.053 57.9921 20.2581C58.1973 20.4632 58.3125 20.7414 58.3125 21.0315V23.219H51.75C51.4599 23.219 51.1817 23.3342 50.9766 23.5393C50.7715 23.7444 50.6562 24.0226 50.6562 24.3127C50.6562 24.6028 50.7715 24.881 50.9766 25.0861C51.1817 25.2912 51.4599 25.4065 51.75 25.4065H58.3125V30.8752H51.2031C49.0275 30.8752 46.941 31.7395 45.4026 33.2779C43.8643 34.8162 43 36.9027 43 39.0784C43 41.254 43.8643 43.3405 45.4026 44.8788C46.941 46.4172 49.0275 47.2815 51.2031 47.2815H58.3125V52.7502ZM51.2031 45.094C49.6077 45.094 48.0776 44.4602 46.9494 43.332C45.8213 42.2039 45.1875 40.6738 45.1875 39.0784C45.1875 37.4829 45.8213 35.9528 46.9494 34.8247C48.0776 33.6965 49.6077 33.0627 51.2031 33.0627H60.5V45.094H51.2031Z" fill="white"/>
<path d="M52.8438 36.3442C52.5537 36.3442 52.2755 36.4595 52.0704 36.6646C51.8652 36.8697 51.75 37.1479 51.75 37.438V40.7192C51.75 41.0093 51.8652 41.2875 52.0704 41.4926C52.2755 41.6978 52.5537 41.813 52.8438 41.813C53.1338 41.813 53.412 41.6978 53.6171 41.4926C53.8223 41.2875 53.9375 41.0093 53.9375 40.7192V37.438C53.9375 37.1479 53.8223 36.8697 53.6171 36.6646C53.412 36.4595 53.1338 36.3442 52.8438 36.3442Z" fill="white"/>
<path d="M26.5938 52.7505H22.2188C21.9287 52.7505 21.6505 52.8657 21.4454 53.0708C21.2402 53.276 21.125 53.5542 21.125 53.8442C21.125 54.1343 21.2402 54.4125 21.4454 54.6176C21.6505 54.8228 21.9287 54.938 22.2188 54.938H26.5938C26.8838 54.938 27.162 54.8228 27.3671 54.6176C27.5723 54.4125 27.6875 54.1343 27.6875 53.8442C27.6875 53.5542 27.5723 53.276 27.3671 53.0708C27.162 52.8657 26.8838 52.7505 26.5938 52.7505Z" fill="white"/>
<path d="M36.4375 52.7505H32.0625C31.7724 52.7505 31.4942 52.8657 31.2891 53.0708C31.084 53.276 30.9688 53.5542 30.9688 53.8442C30.9688 54.1343 31.084 54.4125 31.2891 54.6176C31.4942 54.8228 31.7724 54.938 32.0625 54.938H36.4375C36.7276 54.938 37.0058 54.8228 37.2109 54.6176C37.416 54.4125 37.5312 54.1343 37.5312 53.8442C37.5312 53.5542 37.416 53.276 37.2109 53.0708C37.0058 52.8657 36.7276 52.7505 36.4375 52.7505Z" fill="white"/>
<path d="M46.2812 52.7505H41.9062C41.6162 52.7505 41.338 52.8657 41.1329 53.0708C40.9277 53.276 40.8125 53.5542 40.8125 53.8442C40.8125 54.1343 40.9277 54.4125 41.1329 54.6176C41.338 54.8228 41.6162 54.938 41.9062 54.938H46.2812C46.5713 54.938 46.8495 54.8228 47.0546 54.6176C47.2598 54.4125 47.375 54.1343 47.375 53.8442C47.375 53.5542 47.2598 53.276 47.0546 53.0708C46.8495 52.8657 46.5713 52.7505 46.2812 52.7505Z" fill="white"/>
<path d="M26.5938 23.2192H22.2188C21.9287 23.2192 21.6505 23.3345 21.4454 23.5396C21.2402 23.7447 21.125 24.0229 21.125 24.313C21.125 24.6031 21.2402 24.8813 21.4454 25.0864C21.6505 25.2915 21.9287 25.4067 22.2188 25.4067H26.5938C26.8838 25.4067 27.162 25.2915 27.3671 25.0864C27.5723 24.8813 27.6875 24.6031 27.6875 24.313C27.6875 24.0229 27.5723 23.7447 27.3671 23.5396C27.162 23.3345 26.8838 23.2192 26.5938 23.2192Z" fill="white"/>
<path d="M36.4375 23.2192H32.0625C31.7724 23.2192 31.4942 23.3345 31.2891 23.5396C31.084 23.7447 30.9688 24.0229 30.9688 24.313C30.9688 24.6031 31.084 24.8813 31.2891 25.0864C31.4942 25.2915 31.7724 25.4067 32.0625 25.4067H36.4375C36.7276 25.4067 37.0058 25.2915 37.2109 25.0864C37.416 24.8813 37.5312 24.6031 37.5312 24.313C37.5312 24.0229 37.416 23.7447 37.2109 23.5396C37.0058 23.3345 36.7276 23.2192 36.4375 23.2192Z" fill="white"/>
<path d="M41.9062 25.4067H46.2812C46.5713 25.4067 46.8495 25.2915 47.0546 25.0864C47.2598 24.8813 47.375 24.6031 47.375 24.313C47.375 24.0229 47.2598 23.7447 47.0546 23.5396C46.8495 23.3345 46.5713 23.2192 46.2812 23.2192H41.9062C41.6162 23.2192 41.338 23.3345 41.1329 23.5396C40.9277 23.7447 40.8125 24.0229 40.8125 24.313C40.8125 24.6031 40.9277 24.8813 41.1329 25.0864C41.338 25.2915 41.6162 25.4067 41.9062 25.4067Z" fill="white"/>
</svg>
