<svg width="70" height="70" viewBox="0 0 70 70" fill="none" xmlns="http://www.w3.org/2000/svg">
<path d="M58.4177 10.802L53.6118 8.7414C53.279 8.59874 52.916 8.54092 52.5553 8.57312C52.1947 8.60533 51.8477 8.72655 51.5454 8.92592C51.2432 9.12529 50.9951 9.39657 50.8236 9.71542C50.652 10.0343 50.5622 10.3907 50.5624 10.7528V21.5995L46.1874 24.2245L41.8124 21.5995V10.7528C41.8125 10.3909 41.7227 10.0346 41.5512 9.71584C41.3797 9.39712 41.1318 9.12593 40.8297 8.92659C40.5276 8.72725 40.1807 8.60598 39.8202 8.57366C39.4597 8.54134 39.0968 8.59898 38.7641 8.7414L33.9516 10.802C33.3625 11.0558 32.8607 11.4767 32.5083 12.0126C32.1559 12.5486 31.9682 13.1761 31.9686 13.8175V27.6108C31.9673 28.1518 32.1 28.6847 32.355 29.1619C32.61 29.6391 32.9793 30.0456 33.4299 30.3452L38.5311 33.7412V54.2567C38.5264 55.6795 38.9203 57.0752 39.6683 58.2855C40.4162 59.4959 41.4882 60.4725 42.7629 61.1047C43.827 61.6335 44.9991 61.9086 46.1874 61.9086C47.3757 61.9086 48.5478 61.6335 49.6119 61.1047C50.8865 60.4725 51.9586 59.4959 52.7065 58.2855C53.4544 57.0752 53.8484 55.6795 53.8436 54.2567V33.7412L58.9449 30.3408C59.3948 30.0417 59.7637 29.6358 60.0187 29.1595C60.2737 28.6831 60.4068 28.1511 60.4061 27.6108V13.8175C60.4061 13.1754 60.2176 12.5475 59.8642 12.0115C59.5107 11.4755 59.0078 11.055 58.4177 10.802ZM58.2186 27.6108C58.2187 27.7908 58.1743 27.968 58.0893 28.1268C58.0044 28.2855 57.8817 28.4209 57.7319 28.5208L52.1429 32.2461C51.9931 32.346 51.8703 32.4813 51.7854 32.6401C51.7005 32.7988 51.6561 32.9761 51.6561 33.1561V54.2567C51.6561 55.7071 51.08 57.0981 50.0544 58.1237C49.0288 59.1493 47.6378 59.7255 46.1874 59.7255C44.737 59.7255 43.346 59.1493 42.3204 58.1237C41.2948 57.0981 40.7186 55.7071 40.7186 54.2567V33.1561C40.7187 32.9761 40.6743 32.7988 40.5894 32.6401C40.5044 32.4813 40.3817 32.346 40.2319 32.2461L34.6429 28.5208C34.4931 28.4209 34.3703 28.2855 34.2854 28.1268C34.2005 27.968 34.1561 27.7908 34.1561 27.6108V13.8175C34.1559 13.6034 34.2184 13.394 34.336 13.2151C34.4537 13.0362 34.6212 12.8958 34.8179 12.8112L39.6249 10.7528V22.2186C39.6249 22.4073 39.6738 22.5928 39.7667 22.7571C39.8597 22.9213 39.9936 23.0587 40.1554 23.1559L45.6241 26.4372C45.7942 26.5394 45.9889 26.5934 46.1874 26.5934C46.3858 26.5934 46.5806 26.5394 46.7507 26.4372L52.2194 23.1559C52.3812 23.0587 52.5151 22.9213 52.608 22.7571C52.701 22.5928 52.7499 22.4073 52.7499 22.2186V10.7517L57.5558 12.8123C57.7527 12.8967 57.9205 13.0371 58.0383 13.216C58.1561 13.3948 58.2188 13.6044 58.2186 13.8186V27.6108Z" fill="white"/>
<path d="M46.1875 50.6562C45.8974 50.6562 45.6192 50.7715 45.4141 50.9766C45.209 51.1817 45.0938 51.4599 45.0938 51.75V55.0312C45.0938 55.3213 45.209 55.5995 45.4141 55.8046C45.6192 56.0098 45.8974 56.125 46.1875 56.125C46.4776 56.125 46.7558 56.0098 46.9609 55.8046C47.166 55.5995 47.2812 55.3213 47.2812 55.0312V51.75C47.2812 51.4599 47.166 51.1817 46.9609 50.9766C46.7558 50.7715 46.4776 50.6562 46.1875 50.6562Z" fill="white"/>
<path d="M9.32047 41.133C9.11534 41.338 9.00006 41.6162 9 41.9062V55.0312C9.0026 57.061 9.81008 59.0069 11.2453 60.4422C12.6806 61.8774 14.6265 62.6849 16.6562 62.6875H23.2188C25.2485 62.6849 27.1944 61.8774 28.6297 60.4422C30.0649 59.0069 30.8724 57.061 30.875 55.0312V41.9062C30.8749 41.6162 30.7597 41.338 30.5545 41.133L27.5938 38.1722V36.4375H29.7812C30.0713 36.4375 30.3495 36.3223 30.5546 36.1171C30.7598 35.912 30.875 35.6338 30.875 35.3438C30.875 35.0537 30.7598 34.7755 30.5546 34.5704C30.3495 34.3652 30.0713 34.25 29.7812 34.25H21.0312V19.3903L23.992 16.4295C24.1972 16.2245 24.3124 15.9463 24.3125 15.6562V9.09375C24.3125 8.80367 24.1973 8.52547 23.9921 8.32035C23.787 8.11523 23.5088 8 23.2188 8H16.6562C16.3662 8 16.088 8.11523 15.8829 8.32035C15.6777 8.52547 15.5625 8.80367 15.5625 9.09375V15.6562C15.5626 15.9463 15.6778 16.2245 15.883 16.4295L18.8438 19.3903V34.25H10.0938C9.80367 34.25 9.52547 34.3652 9.32035 34.5704C9.11523 34.7755 9 35.0537 9 35.3438C9 35.6338 9.11523 35.912 9.32035 36.1171C9.52547 36.3223 9.80367 36.4375 10.0938 36.4375H12.2812V38.1722L9.32047 41.133ZM17.75 10.1875H22.125V15.2034L19.9375 17.3909L17.75 15.2034V10.1875ZM25.4062 36.4375V38.625C25.4063 38.9151 25.5216 39.1932 25.7267 39.3983L28.6875 42.3591V55.0312C28.6858 56.4811 28.109 57.8711 27.0838 58.8963C26.0586 59.9215 24.6686 60.4983 23.2188 60.5H16.6562C15.2064 60.4983 13.8164 59.9215 12.7912 58.8963C11.766 57.8711 11.1892 56.4811 11.1875 55.0312V42.3591L14.1483 39.3983C14.3534 39.1932 14.4687 38.9151 14.4688 38.625V36.4375H25.4062Z" fill="white"/>
<path d="M16.6562 56.125C16.9463 56.125 17.2245 56.0098 17.4296 55.8046C17.6348 55.5995 17.75 55.3213 17.75 55.0312V44.0938C17.75 43.8037 17.6348 43.5255 17.4296 43.3204C17.2245 43.1152 16.9463 43 16.6562 43C16.3662 43 16.088 43.1152 15.8829 43.3204C15.6777 43.5255 15.5625 43.8037 15.5625 44.0938V55.0312C15.5625 55.3213 15.6777 55.5995 15.8829 55.8046C16.088 56.0098 16.3662 56.125 16.6562 56.125Z" fill="white"/>
<path d="M23.2188 56.125C23.5088 56.125 23.787 56.0098 23.9921 55.8046C24.1973 55.5995 24.3125 55.3213 24.3125 55.0312V44.0938C24.3125 43.8037 24.1973 43.5255 23.9921 43.3204C23.787 43.1152 23.5088 43 23.2188 43C22.9287 43 22.6505 43.1152 22.4454 43.3204C22.2402 43.5255 22.125 43.8037 22.125 44.0938V55.0312C22.125 55.3213 22.2402 55.5995 22.4454 55.8046C22.6505 56.0098 22.9287 56.125 23.2188 56.125Z" fill="white"/>
</svg>
