<svg width="70" height="70" viewBox="0 0 70 70" fill="none" xmlns="http://www.w3.org/2000/svg">
<path d="M8.93156 39.7658L13.8996 40.2443C14.4311 42.3562 15.2809 44.3749 16.4199 46.231L13.2569 50.0505C13.1049 50.234 13.0268 50.4677 13.038 50.7057C13.0491 50.9438 13.1487 51.1692 13.3172 51.3377L18.6964 56.7167C18.8649 56.8853 19.0903 56.9849 19.3283 56.9961C19.5664 57.0072 19.8001 56.9292 19.9836 56.7772L23.8096 53.6087C25.6666 54.7425 27.682 55.5936 29.7895 56.1342L30.268 61.0855C30.2917 61.3204 30.4027 61.5379 30.5791 61.6949C30.7555 61.8518 30.9844 61.9369 31.2205 61.9331H38.8467C39.0828 61.9369 39.3117 61.8518 39.4881 61.6949C39.6645 61.5379 39.7756 61.3204 39.7992 61.0855L40.2778 56.126C42.3894 55.5962 44.4081 54.748 46.2644 53.6104L50.0838 56.7755C50.2672 56.9277 50.5008 57.0059 50.7389 56.995C50.9769 56.984 51.2023 56.8846 51.371 56.7162L56.7502 51.3377C56.9186 51.1692 57.0182 50.9439 57.0293 50.7059C57.0405 50.4679 56.9624 50.2343 56.8105 50.0507L53.6427 46.2247C54.7765 44.3674 55.6277 42.3518 56.1683 40.244L61.0695 39.7655C61.3061 39.7424 61.5256 39.6321 61.6854 39.4561C61.8451 39.28 61.9336 39.0509 61.9336 38.8131V31.187C61.9336 30.9491 61.845 30.7197 61.685 30.5435C61.5251 30.3674 61.3053 30.2572 61.0684 30.2343L56.1004 29.7558C55.5689 27.6439 54.7191 25.6253 53.5801 23.7692L56.7431 19.9497C56.8944 19.7669 56.9725 19.5345 56.9621 19.2974C56.9518 19.0604 56.8537 18.8357 56.687 18.6668L51.3759 13.2876C51.2077 13.1173 50.9818 13.0162 50.7428 13.0042C50.5037 12.9922 50.2688 13.0703 50.0845 13.223L46.2585 16.3914C44.4015 15.2577 42.3861 14.4065 40.2786 13.8659L39.8001 8.91467C39.7764 8.67973 39.6653 8.46224 39.489 8.30526C39.3126 8.14828 39.0836 8.06325 38.8475 8.06701H31.2214C30.9853 8.06325 30.7564 8.14828 30.58 8.30526C30.4036 8.46224 30.2925 8.67973 30.2688 8.91467L29.7903 13.8741C27.6787 14.4039 25.6601 15.2522 23.804 16.3898L19.9836 13.2251C19.8002 13.073 19.5666 12.9947 19.3286 13.0056C19.0905 13.0166 18.8651 13.116 18.6964 13.2843L13.3172 18.663C13.1488 18.8315 13.0493 19.0568 13.0381 19.2948C13.027 19.5328 13.105 19.7664 13.2569 19.9499L16.4254 23.7755C15.2917 25.6325 14.4406 27.6478 13.8999 29.7553L8.93156 30.2338C8.69465 30.2566 8.47474 30.3669 8.31478 30.5432C8.15481 30.7194 8.06626 30.949 8.06641 31.187V38.8131C8.0664 39.0511 8.15501 39.2805 8.31496 39.4566C8.47491 39.6327 8.69474 39.743 8.93156 39.7658ZM9.98047 32.0562L14.7669 31.5949C14.9689 31.5755 15.1595 31.4923 15.3111 31.3574C15.4627 31.2225 15.5675 31.0429 15.6104 30.8445C16.1352 28.4843 17.0826 26.2386 18.407 24.2158C18.5173 24.0449 18.5703 23.8433 18.5582 23.6402C18.5462 23.4372 18.4697 23.2432 18.34 23.0865L15.2868 19.4005L19.4339 15.2534L23.1205 18.3067C23.2791 18.438 23.4758 18.5147 23.6814 18.5254C23.887 18.536 24.0905 18.4801 24.2618 18.3659C26.2753 17.0335 28.5193 16.0877 30.879 15.5768C31.0762 15.5377 31.2555 15.4362 31.3906 15.2874C31.5258 15.1385 31.6095 14.9502 31.6295 14.7502L32.0902 9.98053H37.9779L38.4392 14.7498C38.4589 14.9508 38.5424 15.1403 38.6774 15.2905C38.8124 15.4407 38.9918 15.5439 39.1896 15.5849C41.5495 16.1081 43.7953 17.0542 45.8183 18.3772C45.9894 18.4872 46.1912 18.5398 46.3942 18.5274C46.5973 18.515 46.7911 18.4381 46.9476 18.3081L50.63 15.2579L54.7168 19.3965L51.66 23.0879C51.5287 23.2465 51.4521 23.4431 51.4415 23.6487C51.4308 23.8543 51.4867 24.0578 51.6009 24.2291C52.9333 26.2426 53.8791 28.4866 54.39 30.8463C54.4329 31.0446 54.5377 31.2242 54.6894 31.3591C54.841 31.4939 55.0316 31.5771 55.2336 31.5966L60.0195 32.0562V37.945L55.3001 38.4053C55.0983 38.425 54.908 38.5083 54.7566 38.6431C54.6052 38.778 54.5005 38.9574 54.4577 39.1556C53.9329 41.5158 52.9854 43.7615 51.6611 45.7843C51.5508 45.9552 51.4978 46.1568 51.5099 46.3599C51.5219 46.563 51.5984 46.7569 51.7281 46.9136L54.7813 50.5997L50.6343 54.7468L46.9476 51.6936C46.789 51.5622 46.5923 51.4856 46.3867 51.4749C46.1811 51.4642 45.9776 51.5201 45.8063 51.6344C43.7928 52.9668 41.5488 53.9126 39.1891 54.4234C38.9919 54.4626 38.8126 54.5641 38.6774 54.7129C38.5423 54.8617 38.4586 55.05 38.4386 55.25L37.9779 60.0196H32.0902L31.6289 55.2503C31.6092 55.0493 31.5257 54.8599 31.3907 54.7096C31.2557 54.5594 31.0762 54.4562 30.8785 54.4152C28.5185 53.892 26.2728 52.946 24.2498 51.6229C24.0787 51.5129 23.8769 51.4603 23.6738 51.4727C23.4708 51.4852 23.2769 51.562 23.1205 51.6921L19.4339 54.7462L15.2868 50.5997L18.34 46.9132C18.4713 46.7546 18.5479 46.558 18.5585 46.3524C18.5692 46.1468 18.5133 45.9433 18.3991 45.772C17.0667 43.7585 16.1209 41.5145 15.61 39.1548C15.5671 38.9565 15.4623 38.7769 15.3106 38.642C15.159 38.5071 14.9684 38.424 14.7664 38.4045L9.98047 37.9439V32.0562Z" fill="white"/>
<path d="M35.0341 50.8047C38.1599 50.8047 41.2156 49.8777 43.8146 48.141C46.4137 46.4044 48.4394 43.936 49.6356 41.0481C50.8318 38.1602 51.1448 34.9824 50.5349 31.9166C49.9251 28.8508 48.4198 26.0347 46.2095 23.8244C43.9991 21.614 41.183 20.1088 38.1172 19.499C35.0514 18.8892 31.8736 19.2022 28.9857 20.3984C26.0978 21.5946 23.6294 23.6203 21.8928 26.2194C20.1562 28.8185 19.2292 31.8741 19.2292 35C19.234 39.1902 20.9007 43.2074 23.8637 46.1704C26.8266 49.1333 30.8438 50.7999 35.0341 50.8047ZM35.0341 21.1094C37.7814 21.1094 40.467 21.9241 42.7512 23.4504C45.0355 24.9768 46.8159 27.1462 47.8672 29.6844C48.9186 32.2226 49.1936 35.0155 48.6576 37.71C48.1216 40.4045 46.7987 42.8796 44.856 44.8222C42.9134 46.7648 40.4383 48.0878 37.7438 48.6237C35.0493 49.1597 32.2564 48.8846 29.7182 47.8332C27.18 46.7819 25.0106 45.0015 23.4843 42.7172C21.958 40.4329 21.1433 37.7473 21.1433 35C21.1475 31.3173 22.6124 27.7866 25.2165 25.1825C27.8206 22.5784 31.3513 21.1136 35.0341 21.1094Z" fill="white"/>
<path d="M32.5711 39.5472C32.7498 39.7217 32.9898 39.8195 33.2396 39.8195C33.4895 39.8195 33.7294 39.7217 33.9082 39.5472L41.8209 31.8219C41.9119 31.7344 41.9847 31.6297 42.0351 31.5139C42.0855 31.3981 42.1125 31.2734 42.1145 31.1472C42.1165 31.0209 42.0934 30.8955 42.0467 30.7781C42 30.6608 41.9306 30.5539 41.8423 30.4635C41.7541 30.3731 41.6489 30.3011 41.5327 30.2516C41.4165 30.2021 41.2917 30.1761 41.1654 30.1751C41.0391 30.174 40.9138 30.198 40.7969 30.2456C40.6799 30.2932 40.5735 30.3635 40.4838 30.4524L33.2396 37.525L29.5162 33.8897C29.4263 33.8019 29.32 33.7326 29.2033 33.6859C29.0866 33.6392 28.9618 33.616 28.8362 33.6175C28.7105 33.619 28.5864 33.6453 28.4708 33.6947C28.3553 33.7442 28.2506 33.816 28.1629 33.9059C28.0751 33.9959 28.0058 34.1022 27.9591 34.2189C27.9124 34.3356 27.8892 34.4603 27.8907 34.586C27.8922 34.7117 27.9185 34.8358 27.9679 34.9513C28.0174 35.0669 28.0892 35.1715 28.1791 35.2593L32.5711 39.5472Z" fill="white"/>
</svg>
