<svg width="70" height="70" viewBox="0 0 70 70" fill="none" xmlns="http://www.w3.org/2000/svg">
<path d="M59 10H29C27.1441 10.0021 25.3649 10.7403 24.0526 12.0526C22.7403 13.3649 22.0021 15.1441 22 17V46H13C12.2044 46 11.4413 46.3161 10.8787 46.8787C10.3161 47.4413 10 48.2043 10 49V53C10.0021 54.8559 10.7403 56.6351 12.0526 57.9474C13.3649 59.2597 15.1441 59.9979 17 60H47C48.8558 59.9976 50.6349 59.2594 51.9471 57.9471C53.2594 56.6349 53.9976 54.8558 54 53V17C54.0016 15.6744 54.5289 14.4036 55.4662 13.4662C56.4036 12.5289 57.6744 12.0016 59 12C59.2652 12 59.5196 11.8946 59.7071 11.7071C59.8946 11.5196 60 11.2652 60 11C60 10.7348 59.8946 10.4804 59.7071 10.2929C59.5196 10.1054 59.2652 10 59 10ZM17 58C15.6744 57.9984 14.4036 57.4711 13.4662 56.5338C12.5289 55.5964 12.0016 54.3256 12 53V49C12 48.7348 12.1054 48.4804 12.2929 48.2929C12.4804 48.1054 12.7348 48 13 48H39C39.2652 48 39.5196 48.1054 39.7071 48.2929C39.8946 48.4804 40 48.7348 40 49V53C39.9987 53.9314 40.1839 54.8536 40.5446 55.7123C40.9052 56.571 41.4341 57.3488 42.1 58H17ZM52 17V53C52 54.3261 51.4732 55.5979 50.5355 56.5355C49.5979 57.4732 48.3261 58 47 58C45.6739 58 44.4021 57.4732 43.4645 56.5355C42.5268 55.5979 42 54.3261 42 53V49C42 48.2043 41.6839 47.4413 41.1213 46.8787C40.5587 46.3161 39.7956 46 39 46H24V17C24.0016 15.6744 24.5289 14.4036 25.4662 13.4662C26.4036 12.5289 27.6744 12.0016 29 12H54.1C53.4341 12.6512 52.9052 13.429 52.5446 14.2877C52.1839 15.1464 51.9987 16.0686 52 17Z" fill="white"/>
<path d="M32 18H44C44.2652 18 44.5196 17.8946 44.7071 17.7071C44.8946 17.5196 45 17.2652 45 17C45 16.7348 44.8946 16.4804 44.7071 16.2929C44.5196 16.1054 44.2652 16 44 16H32C31.7348 16 31.4804 16.1054 31.2929 16.2929C31.1054 16.4804 31 16.7348 31 17C31 17.2652 31.1054 17.5196 31.2929 17.7071C31.4804 17.8946 31.7348 18 32 18Z" fill="white"/>
<path d="M28 23C28 23.2652 28.1054 23.5196 28.2929 23.7071C28.4804 23.8946 28.7348 24 29 24H47C47.2652 24 47.5196 23.8946 47.7071 23.7071C47.8946 23.5196 48 23.2652 48 23C48 22.7348 47.8946 22.4804 47.7071 22.2929C47.5196 22.1054 47.2652 22 47 22H29C28.7348 22 28.4804 22.1054 28.2929 22.2929C28.1054 22.4804 28 22.7348 28 23Z" fill="white"/>
<path d="M47 28H29C28.7348 28 28.4804 28.1054 28.2929 28.2929C28.1054 28.4804 28 28.7348 28 29C28 29.2652 28.1054 29.5196 28.2929 29.7071C28.4804 29.8946 28.7348 30 29 30H47C47.2652 30 47.5196 29.8946 47.7071 29.7071C47.8946 29.5196 48 29.2652 48 29C48 28.7348 47.8946 28.4804 47.7071 28.2929C47.5196 28.1054 47.2652 28 47 28Z" fill="white"/>
<path d="M47 34H29C28.7348 34 28.4804 34.1054 28.2929 34.2929C28.1054 34.4804 28 34.7348 28 35C28 35.2652 28.1054 35.5196 28.2929 35.7071C28.4804 35.8946 28.7348 36 29 36H47C47.2652 36 47.5196 35.8946 47.7071 35.7071C47.8946 35.5196 48 35.2652 48 35C48 34.7348 47.8946 34.4804 47.7071 34.2929C47.5196 34.1054 47.2652 34 47 34Z" fill="white"/>
<path d="M47 40H29C28.7348 40 28.4804 40.1054 28.2929 40.2929C28.1054 40.4804 28 40.7348 28 41C28 41.2652 28.1054 41.5196 28.2929 41.7071C28.4804 41.8946 28.7348 42 29 42H47C47.2652 42 47.5196 41.8946 47.7071 41.7071C47.8946 41.5196 48 41.2652 48 41C48 40.7348 47.8946 40.4804 47.7071 40.2929C47.5196 40.1054 47.2652 40 47 40Z" fill="white"/>
</svg>
