<svg width="60" height="60" viewBox="0 0 60 60" fill="none" xmlns="http://www.w3.org/2000/svg">
<g clip-path="url(#clip0)">
<path d="M12.6433 52.5001V31.8954H39.4119C40.059 31.8954 40.5837 31.3708 40.5837 30.7235C40.5837 30.0763 40.059 29.5517 39.4119 29.5517H11.4714C10.8242 29.5517 10.2996 30.0763 10.2996 30.7235V53.672C10.2996 54.3192 10.8242 54.8439 11.4714 54.8439H39.4119C40.059 54.8439 40.5837 54.3192 40.5837 53.672C40.5837 53.0248 40.059 52.5001 39.4119 52.5001H12.6433Z" fill="white"/>
<path d="M53.6854 36.2598H52.3805V25.567C52.3805 24.9198 51.8558 24.3952 51.2087 24.3952H50.1608L53.2658 17.8473C54.0161 16.2649 53.3487 14.3689 51.7785 13.6031L35.5519 4.79883C35.5333 4.78875 35.5143 4.77914 35.4952 4.77C35.0015 4.53586 34.4656 4.43754 33.939 4.46848V3.1977C33.9389 1.43449 32.5044 0 30.7412 0H10.161C8.39784 0 6.96335 1.43449 6.96335 3.1977V24.8152C5.88019 25.4043 5.14331 26.5527 5.14331 27.8701V56.5252C5.14331 58.4412 6.70214 60 8.61815 60H51.2088C51.8559 60 52.3807 59.4754 52.3807 58.8281V48.1354H53.6855C54.3326 48.1354 54.8574 47.6107 54.8574 46.9635V37.4317C54.8573 36.7846 54.3326 36.2598 53.6854 36.2598ZM34.4681 6.87727L50.6858 15.6768C50.7044 15.6868 50.7234 15.6964 50.7425 15.7056C51.168 15.9074 51.3501 16.4176 51.1483 16.8431L47.5671 24.3953H33.9389V6.82617C34.1136 6.78738 34.2993 6.8032 34.4681 6.87727ZM9.3071 3.1977C9.3071 2.72684 9.69019 2.34375 10.161 2.34375H30.7412C31.2121 2.34375 31.5951 2.72684 31.5951 3.1977V24.3953H28.7826V9.50215C28.7826 8.85492 28.258 8.33027 27.6107 8.33027C26.5067 8.33027 25.6086 7.43215 25.6086 6.32812C25.6086 5.6809 25.0839 5.15625 24.4367 5.15625H16.6461C15.9989 5.15625 15.4742 5.6809 15.4742 6.32812C15.4742 7.43215 14.5761 8.33027 13.4721 8.33027C13.4332 8.33027 13.3946 8.3291 13.3564 8.32699C13.0355 8.30918 12.7201 8.42449 12.486 8.64586C12.2521 8.86723 12.1196 9.17508 12.1196 9.49711V24.3953H9.3071V3.1977ZM26.4389 24.3953H14.4633V10.56C16.0044 10.1991 17.2326 9.0157 17.6575 7.5H23.4254C23.8335 8.95605 24.9829 10.1053 26.4389 10.5135V24.3953ZM50.0369 57.6562H8.61815C7.99448 57.6562 7.48706 57.1488 7.48706 56.5252V27.8701C7.48706 27.2757 7.94784 26.787 8.53108 26.7423C8.5319 26.7423 8.53284 26.7422 8.53366 26.7422C8.54222 26.7416 8.55089 26.741 8.55944 26.7405C8.56366 26.7403 8.568 26.7402 8.57222 26.7401C8.57772 26.7398 8.58323 26.7396 8.58874 26.7395C8.59858 26.7393 8.60843 26.7391 8.61815 26.7391H50.0369V36.26H39.4119C38.7648 36.26 38.24 36.7847 38.24 37.4319V46.9637C38.24 47.6109 38.7648 48.1356 39.4119 48.1356H50.0369V57.6562ZM52.5135 45.7916H40.5837V38.6036H52.5137V45.7916H52.5135Z" fill="white"/>
<path d="M44.5342 43.3999H46.4378C47.0849 43.3999 47.6096 42.8752 47.6096 42.228C47.6096 41.5808 47.0849 41.0561 46.4378 41.0561H44.5342C43.8871 41.0561 43.3623 41.5808 43.3623 42.228C43.3623 42.8752 43.8871 43.3999 44.5342 43.3999Z" fill="white"/>
</g>
<defs>
<clipPath id="clip0">
<rect width="60" height="60" fill="white"/>
</clipPath>
</defs>
</svg>
