<svg width="60" height="60" viewBox="0 0 60 60" fill="none" xmlns="http://www.w3.org/2000/svg">
<g clip-path="url(#clip0)">
<path d="M56.4139 2.6357H12.0559C10.0786 2.6357 8.46984 4.24445 8.46984 6.22176V18.6037H3.58605C1.60875 18.6037 0 20.2123 0 22.1897V53.7778C0 55.7551 1.60875 57.3639 3.58605 57.3639H47.944C49.9213 57.3639 51.53 55.7551 51.53 53.7778V41.3959H56.4139C58.3914 41.3959 60 39.7872 60 37.8098V6.22176C60 4.24445 58.3912 2.6357 56.4139 2.6357ZM3.58605 20.9474H47.944C48.6289 20.9474 49.1863 21.5048 49.1863 22.1898V23.796H2.34375V22.1898C2.34375 21.5048 2.90109 20.9474 3.58605 20.9474ZM2.34375 26.1398H49.1863V29.5557H2.34375V26.1398ZM47.9441 55.0201H3.58605C2.90109 55.0201 2.34375 54.4628 2.34375 53.7778V31.8994H49.1863V53.7778C49.1863 54.4628 48.6291 55.0201 47.9441 55.0201ZM57.6562 37.8099C57.6562 38.495 57.0989 39.0523 56.4139 39.0523H51.53V22.1897C51.53 20.2123 49.9213 18.6036 47.944 18.6036H10.8137V6.22176C10.8137 5.5368 11.3709 4.97945 12.056 4.97945H56.4139C57.0989 4.97945 57.6562 5.5368 57.6562 6.22176V37.8099Z" fill="white"/>
<path d="M23.9549 7.82793H14.3555C13.7082 7.82793 13.1836 8.3527 13.1836 8.99981V14.7593C13.1836 15.4064 13.7082 15.9312 14.3555 15.9312H23.9549C24.6021 15.9312 25.1268 15.4064 25.1268 14.7593V8.99981C25.1268 8.35258 24.6021 7.82793 23.9549 7.82793ZM22.783 13.5875H15.5273V10.1717H22.783V13.5875Z" fill="white"/>
<path d="M54.1146 7.82793H31.4949C30.8476 7.82793 30.323 8.3527 30.323 8.99981V13.5875C30.323 14.2346 30.8476 14.7593 31.4949 14.7593H54.1145C54.7617 14.7593 55.2864 14.2346 55.2864 13.5875V8.99981C55.2865 8.35258 54.7619 7.82793 54.1146 7.82793ZM52.9428 12.4156H32.6667V10.1717H52.9426V12.4156H52.9428Z" fill="white"/>
<path d="M7.26196 45.1254H16.8663C17.5135 45.1254 18.0382 44.6006 18.0382 43.9535V38.6627C18.0382 38.0156 17.5135 37.4908 16.8663 37.4908H7.26196C6.61474 37.4908 6.09009 38.0156 6.09009 38.6627V43.9535C6.09009 44.6007 6.61474 45.1254 7.26196 45.1254ZM8.43384 39.8346H15.6944V42.7816H8.43384V39.8346Z" fill="white"/>
<path d="M37.5981 35.5436C33.3649 35.5436 29.9211 38.9875 29.9211 43.2207C29.9211 47.4539 33.3651 50.8978 37.5981 50.8978H37.6031C41.8363 50.8978 45.2801 47.4539 45.2801 43.2207C45.2801 38.9875 41.8363 35.5436 37.5981 35.5436ZM37.6031 48.5539H37.5981C34.6574 48.5539 32.2649 46.1614 32.2649 43.2206C32.2649 40.2798 34.6574 37.8873 37.6031 37.8873C40.5438 37.8873 42.9364 40.2798 42.9364 43.2206C42.9364 46.1614 40.544 48.5539 37.6031 48.5539Z" fill="white"/>
<path d="M21.858 48.5539H7.26196C6.61474 48.5539 6.09009 49.0786 6.09009 49.7257C6.09009 50.3728 6.61474 50.8976 7.26196 50.8976H21.858C22.5052 50.8976 23.0299 50.3728 23.0299 49.7257C23.0299 49.0786 22.5052 48.5539 21.858 48.5539Z" fill="white"/>
</g>
<defs>
<clipPath id="clip0">
<rect width="60" height="60" fill="white"/>
</clipPath>
</defs>
</svg>
