<svg width="60" height="60" viewBox="0 0 60 60" fill="none" xmlns="http://www.w3.org/2000/svg">
<g clip-path="url(#clip0)">
<path d="M23.0726 52.6172H20.6267C19.9795 52.6172 19.4548 53.142 19.4548 53.7891C19.4548 54.4362 19.9795 54.9609 20.6267 54.9609H23.0726C23.7199 54.9609 24.2445 54.4362 24.2445 53.7891C24.2445 53.142 23.7199 52.6172 23.0726 52.6172Z" fill="white"/>
<path d="M50.1584 19.9773H41.1346C40.4874 19.9773 39.9628 20.5021 39.9628 21.1492V26.1203C39.9628 26.7674 40.4874 27.2922 41.1346 27.2922H50.1584C50.8057 27.2922 51.3303 26.7674 51.3303 26.1203V21.1492C51.3303 20.502 50.8057 19.9773 50.1584 19.9773ZM48.9866 24.9484H42.3065V22.3211H48.9866V24.9484Z" fill="white"/>
<path d="M36.4452 16.898H50.1589C50.8062 16.898 51.3308 16.3733 51.3308 15.7261C51.3308 15.079 50.8062 14.5543 50.1589 14.5543H36.4452C35.798 14.5543 35.2733 15.079 35.2733 15.7261C35.2733 16.3733 35.798 16.898 36.4452 16.898Z" fill="white"/>
<path d="M53.6122 8.47875H40.7526V6.98672C40.7526 3.13418 37.6183 0 33.7659 0H9.93374C6.0812 0 2.9469 3.13418 2.9469 6.98672V53.0133C2.9469 56.8658 6.0812 60 9.93362 60H33.7658C37.6183 60 40.7525 56.8658 40.7525 53.0133V43.9365H53.6121C55.509 43.9365 57.0521 42.3933 57.0521 40.4965V11.9188C57.0524 10.022 55.5091 8.47875 53.6122 8.47875ZM54.7086 11.9188V30.2019H22.8258V29.0279C26.2881 28.4667 28.94 25.4562 28.94 21.838C28.94 18.2203 26.289 15.2102 22.8258 14.6483V10.8225H53.6122C54.2168 10.8225 54.7086 11.3143 54.7086 11.9188ZM54.7086 36.7144H22.8258V32.5457H54.7086V36.7144ZM22.8258 17.0378C24.9871 17.5644 26.5963 19.5169 26.5963 21.838C26.5963 24.1591 24.9871 26.1116 22.8258 26.6382V17.0378ZM33.7659 57.6562H9.93374C7.37354 57.6562 5.29077 55.5735 5.29077 53.0133V50.3832H38.4089V53.0133C38.4089 55.5735 36.326 57.6562 33.7659 57.6562ZM38.4089 48.0395H5.29065V6.98672C5.29065 4.42652 7.37354 2.34375 9.93374 2.34375H33.7659C36.3261 2.34375 38.4089 4.42652 38.4089 6.98672V8.47863H21.6539C21.0067 8.47863 20.482 9.0034 20.482 9.65051V42.7645C20.482 43.4116 21.0067 43.9364 21.6539 43.9364H38.4089V48.0395ZM53.6122 41.5928H22.8258V39.0581H54.7086V40.4964C54.7086 41.1009 54.2168 41.5928 53.6122 41.5928Z" fill="white"/>
</g>
<defs>
<clipPath id="clip0">
<rect width="60" height="60" fill="white"/>
</clipPath>
</defs>
</svg>
