<svg width="60" height="60" viewBox="0 0 60 60" fill="none" xmlns="http://www.w3.org/2000/svg">
<g clip-path="url(#clip0)">
<path d="M28.92 53.5481V53.7322C28.92 54.3793 29.4447 54.9041 30.0919 54.9041C30.7391 54.9041 31.2638 54.3793 31.2638 53.7322V53.6379C33.8974 53.3112 35.0461 51.6029 35.2398 50.0783C35.5104 47.9478 34.1151 45.9001 31.8467 45.0983C31.6418 45.0259 31.4476 44.9565 31.2638 44.8902V41.0226C31.7536 41.1669 32.0926 41.4144 32.2575 41.6495C32.6292 42.1793 33.3601 42.3075 33.8899 41.9355C34.4197 41.5638 34.5478 40.833 34.1761 40.3031C33.6148 39.5032 32.595 38.836 31.2638 38.6233V38.3552C31.2638 37.7081 30.7391 37.1833 30.0919 37.1833C29.4447 37.1833 28.92 37.7081 28.92 38.3552V38.713C28.7346 38.7538 28.5461 38.8026 28.3548 38.8603C26.8676 39.3083 25.7448 40.7533 25.6246 42.3743C25.5059 43.9744 26.3582 45.365 27.9046 46.0942C28.1268 46.1988 28.4758 46.3438 28.9201 46.5169V51.14C28.294 50.9568 27.7172 50.6456 27.344 50.1824C26.938 49.6783 26.2003 49.5989 25.6962 50.0047C25.1922 50.4108 25.1127 51.1485 25.5186 51.6525C26.3871 52.731 27.6714 53.3057 28.92 53.5481ZM32.9147 49.7829C32.818 50.5442 32.2245 51.0697 31.2638 51.2646V47.3844C32.5377 47.9184 33.0162 48.9834 32.9147 49.7829ZM28.9038 43.9742C28.067 43.5797 27.9297 42.9806 27.9618 42.5477C28.007 41.9375 28.4104 41.3564 28.9199 41.1443V43.9817C28.9145 43.9792 28.9091 43.9767 28.9038 43.9742Z" fill="white"/>
<path d="M48.5568 32.0671H47.1443C47.1443 32.0671 47.1439 8.21858 47.1438 8.21729C47.1438 8.21518 47.1436 8.20733 47.1432 8.19514C47.1358 7.90346 47.0142 7.62643 46.8048 7.42323C46.8026 7.42112 46.8013 7.41983 46.8009 7.41948L39.7249 0.343359C39.7235 0.341953 39.7062 0.324961 39.6797 0.299179C39.4828 0.107344 39.2181 -0.000233992 38.9432 3.82163e-07C38.9148 3.82163e-07 38.8944 3.82164e-07 38.8869 0.000117569H14.0277C13.3805 0.000117569 12.8559 0.524765 12.8559 1.17199V28.5714H11.2423C9.1163 28.5714 7.39282 30.2949 7.39282 32.4209V55.9496C7.39282 58.1866 9.2063 60.0001 11.4433 60.0001H48.5567C50.7937 60.0001 52.6072 58.1866 52.6072 55.9496V36.1175C52.6073 33.8805 50.7938 32.0671 48.5568 32.0671ZM40.0681 4.00113L43.1433 7.07624H40.0681V4.00113ZM15.1996 2.34386H37.7244V8.24811C37.7244 8.89522 38.2491 9.41998 38.8963 9.41998H44.8005V32.0671H22.7039L21.5038 30.2773C20.7878 29.2092 19.5925 28.5714 18.3065 28.5714H15.1995V2.34386H15.1996ZM9.73657 55.9496V32.4208C9.73657 31.5905 10.412 30.9151 11.2423 30.9151H18.3065C18.8094 30.9151 19.2769 31.1644 19.5571 31.5823L21.1054 33.8915C21.3229 34.216 21.688 34.4108 22.0787 34.4108H22.3315C18.5574 36.9071 16.063 41.1894 16.063 46.0435C16.063 50.8846 18.5441 55.1571 22.3015 57.6562H11.4433C10.5023 57.6562 9.73657 56.8907 9.73657 55.9496ZM30 34.4502C36.3926 34.4502 41.5933 39.651 41.5933 46.0436C41.5933 52.4361 36.3926 57.6369 30 57.6369C23.6074 57.6369 18.4067 52.4361 18.4067 46.0436C18.4067 39.651 23.6076 34.4502 30 34.4502ZM50.2636 55.9496C50.2636 56.8907 49.498 57.6562 48.5568 57.6562H37.6987C41.4561 55.1571 43.9372 50.8846 43.9372 46.0435C43.9372 41.1894 41.4429 36.9072 37.6687 34.4108H48.557C49.4981 34.4108 50.2637 35.1763 50.2637 36.1173V55.9496H50.2636Z" fill="white"/>
<path d="M22.9088 13.8826H37.0909C37.7382 13.8826 38.2628 13.3578 38.2628 12.7107C38.2628 12.0636 37.7382 11.5389 37.0909 11.5389H22.9088C22.2616 11.5389 21.7369 12.0636 21.7369 12.7107C21.7369 13.3578 22.2616 13.8826 22.9088 13.8826Z" fill="white"/>
<path d="M20.5651 21.1314H39.4347C40.0819 21.1314 40.6066 20.6066 40.6066 19.9595C40.6066 19.3124 40.0819 18.7877 39.4347 18.7877H20.5651C19.9178 18.7877 19.3932 19.3124 19.3932 19.9595C19.3932 20.6066 19.9178 21.1314 20.5651 21.1314Z" fill="white"/>
<path d="M20.5651 25.89H39.4347C40.0819 25.89 40.6066 25.3652 40.6066 24.7181C40.6066 24.071 40.0819 23.5462 39.4347 23.5462H20.5651C19.9178 23.5462 19.3932 24.071 19.3932 24.7181C19.3932 25.3652 19.9178 25.89 20.5651 25.89Z" fill="white"/>
</g>
<defs>
<clipPath id="clip0">
<rect width="60" height="60" fill="white"/>
</clipPath>
</defs>
</svg>
