<svg width="70" height="70" viewBox="0 0 70 70" fill="none" xmlns="http://www.w3.org/2000/svg">
<path d="M56.4 38.7153V17.7786C56.399 16.8948 56.051 16.0474 55.4324 15.4224C54.8137 14.7974 53.9749 14.4459 53.1 14.4449H50.9V11.1112C50.9 10.8165 50.7841 10.5339 50.5778 10.3255C50.3715 10.1171 50.0917 10 49.8 10C49.5082 10 49.2284 10.1171 49.0221 10.3255C48.8159 10.5339 48.7 10.8165 48.7 11.1112V14.4449H42.1V11.1112C42.1 10.8165 41.9841 10.5339 41.7778 10.3255C41.5715 10.1171 41.2917 10 41 10C40.7082 10 40.4284 10.1171 40.2222 10.3255C40.0159 10.5339 39.9 10.8165 39.9 11.1112V14.4449H33.3V11.1112C33.3 10.8165 33.1841 10.5339 32.9778 10.3255C32.7715 10.1171 32.4917 10 32.2 10C31.9082 10 31.6285 10.1171 31.4222 10.3255C31.2159 10.5339 31.1 10.8165 31.1 11.1112V14.4449H24.5V11.1112C24.5 10.8165 24.3841 10.5339 24.1778 10.3255C23.9715 10.1171 23.6917 10 23.4 10C23.1082 10 22.8285 10.1171 22.6222 10.3255C22.4159 10.5339 22.3 10.8165 22.3 11.1112V14.4449H15.7V11.1112C15.7 10.8165 15.5841 10.5339 15.3778 10.3255C15.1715 10.1171 14.8917 10 14.6 10C14.3083 10 14.0285 10.1171 13.8222 10.3255C13.6159 10.5339 13.5 10.8165 13.5 11.1112V14.4449H11.3C10.4251 14.4459 9.58626 14.7974 8.9676 15.4224C8.34894 16.0474 8.00096 16.8948 8 17.7786V51.1157C8.00096 51.9996 8.34894 52.8469 8.9676 53.4719C9.58626 54.0969 10.4251 54.4484 11.3 54.4494H42.4885C43.358 55.97 44.572 57.2606 46.0309 58.2154C47.4898 59.1701 49.1521 59.7617 50.8812 59.9416C52.6104 60.1215 54.3571 59.8845 55.978 59.2502C57.599 58.6159 59.0479 57.6023 60.2058 56.2927C61.3638 54.983 62.1978 53.4145 62.6394 51.7161C63.081 50.0177 63.1175 48.2377 62.7461 46.5222C62.3747 44.8067 61.6058 43.2046 60.5026 41.8475C59.3995 40.4905 57.9934 39.417 56.4 38.7153ZM11.3 16.6674H13.5V17.7786C13.5 18.0734 13.6159 18.356 13.8222 18.5644C14.0285 18.7728 14.3083 18.8899 14.6 18.8899C14.8917 18.8899 15.1715 18.7728 15.3778 18.5644C15.5841 18.356 15.7 18.0734 15.7 17.7786V16.6674H22.3V17.7786C22.3 18.0734 22.4159 18.356 22.6222 18.5644C22.8285 18.7728 23.1082 18.8899 23.4 18.8899C23.6917 18.8899 23.9715 18.7728 24.1778 18.5644C24.3841 18.356 24.5 18.0734 24.5 17.7786V16.6674H31.1V17.7786C31.1 18.0734 31.2159 18.356 31.4222 18.5644C31.6285 18.7728 31.9082 18.8899 32.2 18.8899C32.4917 18.8899 32.7715 18.7728 32.9778 18.5644C33.1841 18.356 33.3 18.0734 33.3 17.7786V16.6674H39.9V17.7786C39.9 18.0734 40.0159 18.356 40.2222 18.5644C40.4284 18.7728 40.7082 18.8899 41 18.8899C41.2917 18.8899 41.5715 18.7728 41.7778 18.5644C41.9841 18.356 42.1 18.0734 42.1 17.7786V16.6674H48.7V17.7786C48.7 18.0734 48.8159 18.356 49.0221 18.5644C49.2284 18.7728 49.5082 18.8899 49.8 18.8899C50.0917 18.8899 50.3715 18.7728 50.5778 18.5644C50.7841 18.356 50.9 18.0734 50.9 17.7786V16.6674H53.1C53.3916 16.6676 53.6713 16.7847 53.8776 16.9931C54.0838 17.2015 54.1998 17.484 54.2 17.7786V21.1124H10.2V17.7786C10.2002 17.484 10.3162 17.2015 10.5224 16.9931C10.7286 16.7848 11.0083 16.6676 11.3 16.6674ZM11.3 52.2269C11.0083 52.2267 10.7286 52.1096 10.5224 51.9012C10.3162 51.6929 10.2002 51.4104 10.2 51.1157V23.3348H54.2V38.0049C53.4759 37.8558 52.7389 37.7807 52 37.7809C51.6287 37.7809 51.2619 37.8007 50.9 37.8372V28.891C50.8992 28.3018 50.6672 27.7369 50.2548 27.3203C49.8423 26.9037 49.2832 26.6693 48.7 26.6685H15.7C15.1168 26.6693 14.5576 26.9037 14.1452 27.3203C13.7328 27.7369 13.5008 28.3018 13.5 28.891V46.6708C13.5008 47.26 13.7328 47.8248 14.1452 48.2414C14.5576 48.6581 15.1168 48.8925 15.7 48.8932H41C40.9995 50.0241 41.1707 51.1484 41.5074 52.2269H11.3ZM33.3 46.6708V38.8921H39.9V46.6708H33.3ZM24.5 46.6708V38.8921H31.1V46.6708H24.5ZM15.7 46.6708V38.8921H22.3V46.6708H15.7ZM31.1 28.891V36.6696H24.5V28.891H31.1ZM39.9 28.891V36.6696H33.3V28.891H39.9ZM48.7 28.891V36.6696H42.1V28.891H48.7ZM22.3 36.6696H15.7V28.891H22.3V36.6696ZM42.1 44.0819V38.8921H47.2372C44.9949 39.9879 43.1846 41.8166 42.1 44.0819ZM52 57.7831C50.2595 57.7831 48.5581 57.2617 47.111 56.2849C45.6638 55.3081 44.5359 53.9196 43.8698 52.2952C43.2038 50.6708 43.0295 48.8834 43.3691 47.1589C43.7086 45.4344 44.5467 43.8504 45.7774 42.6071C47.0081 41.3639 48.5761 40.5172 50.2832 40.1742C51.9902 39.8311 53.7596 40.0072 55.3676 40.68C56.9756 41.3529 58.3499 42.4923 59.3169 43.9543C60.2838 45.4162 60.8 47.135 60.8 48.8932C60.7973 51.2501 59.8693 53.5098 58.2196 55.1763C56.5698 56.8429 54.333 57.7804 52 57.7831Z" fill="white"/>
<path d="M53.1004 48.4334V43.3232C53.1004 43.0285 52.9845 42.7459 52.7782 42.5375C52.5719 42.3291 52.2921 42.212 52.0004 42.212C51.7087 42.212 51.4289 42.3291 51.2226 42.5375C51.0163 42.7459 50.9004 43.0285 50.9004 43.3232V48.8935C50.9004 49.0394 50.9288 49.1839 50.9841 49.3187C51.0394 49.4536 51.1205 49.576 51.2227 49.6792L54.5227 53.0129C54.7295 53.2187 55.0084 53.3336 55.2987 53.3326C55.589 53.3315 55.8671 53.2145 56.0724 53.0072C56.2777 52.7998 56.3935 52.5188 56.3946 52.2256C56.3956 51.9323 56.2819 51.6505 56.0781 51.4416L53.1004 48.4334Z" fill="white"/>
</svg>
