<svg width="60" height="60" viewBox="0 0 60 60" fill="none" xmlns="http://www.w3.org/2000/svg">
<g clip-path="url(#clip0)">
<path d="M13.6224 26.5155H5.67562C5.02846 26.5155 4.50366 27.0403 4.50366 27.6875V35.0534C4.50366 35.7006 5.02846 36.2254 5.67562 36.2254H13.6225C14.2697 36.2254 14.7945 35.7006 14.7945 35.0534V27.6875C14.7944 27.0402 14.2697 26.5155 13.6224 26.5155ZM12.4505 33.8814H6.84758V28.8593H12.4506V33.8814H12.4505Z" fill="white"/>
<path d="M25.9977 26.5155H18.0507C17.4036 26.5155 16.8788 27.0403 16.8788 27.6875V35.0534C16.8788 35.7006 17.4036 36.2254 18.0507 36.2254H25.9977C26.6448 36.2254 27.1696 35.7006 27.1696 35.0534V27.6875C27.1696 27.0402 26.6448 26.5155 25.9977 26.5155ZM24.8257 33.8814H19.2227V28.8593H24.8257V33.8814Z" fill="white"/>
<path d="M58.8856 43.2825C60.3728 41.5604 60.3701 40.1798 58.8855 38.4607C58.6569 38.1752 58.3724 37.8201 58.3195 37.6223C58.2598 37.399 58.327 36.9507 58.3865 36.5552C58.5028 35.7799 58.6477 34.815 58.1549 33.9632C57.6562 33.1013 56.741 32.7439 56.0056 32.4566C55.0112 32.0777 54.9858 32.0518 54.607 31.0579C54.3198 30.3226 53.9622 29.4073 53.1006 28.9086C53.037 28.8718 52.9727 28.8397 52.908 28.8097V8.56709C52.908 6.77412 51.4494 5.3155 49.6564 5.3155H3.2516C1.45862 5.3155 0 6.77412 0 8.56709V38.3546C0 40.1476 1.45862 41.6062 3.2516 41.6062H32.4912C32.6915 42.2729 33.1289 42.8198 33.4993 43.2823C33.728 43.5678 34.0125 43.9231 34.0654 44.1211C34.1252 44.3444 34.0579 44.7927 33.9986 45.1881C33.8822 45.9633 33.7374 46.9283 34.2302 47.7799C34.7288 48.6418 35.6441 48.9994 36.3797 49.2868C36.7465 49.4301 37.1622 49.5924 37.3171 49.7473C37.472 49.9023 37.6345 50.3182 37.7778 50.6851C38.0651 51.4205 38.4226 52.336 39.2845 52.8345C40.1365 53.3275 41.1012 53.1825 41.8764 53.0663C42.2719 53.0069 42.7202 52.9396 42.9433 52.9994C43.1412 53.0523 43.4964 53.3368 43.7817 53.5655C44.4039 54.0639 45.1783 54.6842 46.1925 54.6842C47.2067 54.6842 47.981 54.0639 48.6031 53.5655C48.8886 53.3368 49.2437 53.0523 49.4416 52.9994C49.665 52.9395 50.1133 53.0069 50.5086 53.0663C51.2839 53.1828 52.2488 53.3275 53.1006 52.8346C53.9624 52.336 54.3199 51.4207 54.6071 50.6851C54.7505 50.3183 54.9128 49.9025 55.0678 49.7475C55.2228 49.5925 55.6386 49.4301 56.0055 49.2866C56.7408 48.9994 57.6561 48.6418 58.1548 47.7801C58.6476 46.9282 58.5027 45.9633 58.3865 45.188C58.327 44.7925 58.2598 44.3443 58.3195 44.121C58.3724 43.9231 58.6569 43.5677 58.8856 43.2825ZM2.34391 12.9755H50.5642V17.5486H2.34391V12.9755ZM3.2516 7.65941H49.6565C50.1571 7.65941 50.5642 8.06667 50.5642 8.56709V10.6316H2.34391V8.56709C2.34391 8.06667 2.75117 7.65941 3.2516 7.65941ZM2.34391 38.3546V19.8927H50.5642V28.6686C50.5457 28.6713 50.5268 28.6741 50.5086 28.6769C50.113 28.7364 49.665 28.8034 49.4416 28.744C49.2438 28.691 48.8886 28.4065 48.6032 28.1778C47.981 27.6794 47.2068 27.0591 46.1925 27.0591H31.6087C30.0538 27.1211 30.055 29.3416 31.6087 29.403H38.6796C38.2323 29.8978 37.9862 30.5247 37.7779 31.0578C37.6345 31.4247 37.4722 31.8406 37.317 31.9956C37.1621 32.1505 36.7463 32.3131 36.3794 32.4564C35.9717 32.6157 35.5088 32.797 35.0922 33.0735H31.6087C30.0538 33.1355 30.055 35.3561 31.6087 35.4175H33.8854C33.8883 35.8166 33.946 36.2051 33.9986 36.555C34.0579 36.9505 34.1252 37.3989 34.0654 37.6223C34.0125 37.8202 33.728 38.1755 33.4993 38.4609C33.3054 38.7032 33.0933 38.9687 32.9061 39.2623H3.2516C2.75117 39.2623 2.34391 38.8552 2.34391 38.3546ZM57.0563 41.8171C55.9892 43.0668 55.7828 43.9329 56.0686 45.5359C56.1172 45.8605 56.2079 46.4647 56.1259 46.6064C56.0384 46.7576 55.4839 46.9743 55.1527 47.1035C53.5971 47.663 52.9828 48.2789 52.4239 49.8324C52.2945 50.1637 52.0778 50.7184 51.9269 50.8058C51.7854 50.8876 51.1813 50.7971 50.8566 50.7484C50.2351 50.655 49.5306 50.5493 48.8365 50.7349C48.1628 50.9151 47.6182 51.3514 47.1377 51.7363C46.8374 51.9769 46.3836 52.3403 46.1926 52.3403C46.0016 52.3403 45.5477 51.9766 45.2474 51.7363C44.7669 51.3513 44.2224 50.9151 43.5486 50.7349C42.8894 50.5546 42.1682 50.6492 41.5285 50.7484C41.2041 50.7971 40.6001 50.8881 40.4583 50.8057C40.3071 50.7183 40.0904 50.1637 39.9611 49.8323C39.734 49.2511 39.4767 48.5924 38.9746 48.0901C38.4725 47.588 37.8138 47.3308 37.2326 47.1036C36.9013 46.9743 36.3466 46.7576 36.2591 46.6063C36.1773 46.4647 36.2679 45.8607 36.3166 45.536C36.4099 44.9145 36.5156 44.2102 36.33 43.5158C36.15 42.842 35.7136 42.2974 35.3289 41.8171C35.0883 41.5168 34.7249 41.0629 34.7249 40.8716C34.7249 40.6804 35.0884 40.2266 35.3289 39.9263C35.7136 39.4458 36.1498 38.9013 36.33 38.2277C36.5156 37.5332 36.4099 36.8287 36.3166 36.2072C36.2679 35.8826 36.1773 35.2785 36.2591 35.137C36.3466 34.9858 36.9012 34.7691 37.2326 34.6397C38.7879 34.0804 39.4026 33.4642 39.9613 31.9107C40.0907 31.5794 40.3072 31.0248 40.4583 30.9374C40.5999 30.8554 41.204 30.9461 41.5285 30.995C42.1502 31.0882 42.8547 31.194 43.5488 31.0083C44.2224 30.8283 44.767 30.392 45.2473 30.0072C45.5475 29.7666 46.0014 29.4031 46.1926 29.4031C46.3837 29.4031 46.8375 29.7666 47.1378 30.0071C47.6182 30.392 48.1626 30.8283 48.8364 31.0084C49.5307 31.194 50.2351 31.0881 50.8566 30.995C51.1809 30.9462 51.7852 30.8554 51.9266 30.9374C52.0778 31.0248 52.2945 31.5795 52.4239 31.9108C52.651 32.4923 52.9084 33.151 53.4106 33.6531C53.9126 34.1554 54.5715 34.4126 55.1528 34.6399C55.484 34.7693 56.0385 34.9858 56.126 35.1369C56.2079 35.2786 56.1172 35.8827 56.0686 36.2074C55.9753 36.8288 55.8696 37.5332 56.0551 38.2276C56.2352 38.9012 56.6714 39.4458 57.0562 39.9262C57.2968 40.2265 57.6603 40.6805 57.6603 40.8716C57.6603 41.0628 57.2968 41.5167 57.0563 41.8171Z" fill="white"/>
<path d="M49.357 41.1112C48.3313 41.1112 47.416 41.6401 46.8215 42.4631L49.6922 35.6223C49.9428 35.0256 49.6619 34.3387 49.065 34.0882C48.4684 33.838 47.7814 34.1186 47.5309 34.7155L46.1596 37.9834C46.7374 35.8409 45.1487 33.4261 43.0285 33.4765C38.7278 33.6707 38.7288 40.4391 43.0286 40.6327C44.1353 40.6327 45.1137 40.0173 45.6991 39.0808L42.8451 45.8818C42.5945 46.4785 42.8754 47.1654 43.4723 47.4159C44.0543 47.6647 44.7559 47.3916 45.0064 46.7886L46.1753 44.0032C45.7605 46.1124 47.3297 48.3062 49.3573 48.2674C53.6579 48.0735 53.6567 41.3047 49.357 41.1112ZM43.0284 38.2889C42.5413 38.2889 42.1298 37.7238 42.1298 37.0547C42.1298 36.3856 42.5413 35.8205 43.0284 35.8205C43.5154 35.8205 43.927 36.3856 43.927 37.0547C43.927 37.7238 43.5155 38.2889 43.0284 38.2889ZM49.357 45.9236C48.87 45.9236 48.4585 45.3585 48.4585 44.6894C48.4585 44.0204 48.87 43.4551 49.357 43.4551C49.8441 43.4551 50.2556 44.0204 50.2556 44.6894C50.2556 45.3585 49.8442 45.9236 49.357 45.9236Z" fill="white"/>
</g>
<defs>
<clipPath id="clip0">
<rect width="60" height="60" fill="white"/>
</clipPath>
</defs>
</svg>
