<svg width="90" height="27" viewBox="0 0 90 27" fill="none" xmlns="http://www.w3.org/2000/svg">
<path d="M90 26.1908C89.7195 26.2375 89.4389 26.331 89.1584 26.331C79.9247 26.3427 70.6909 26.3427 61.4688 26.3427C41.2948 26.3427 21.1091 26.3427 0.935065 26.3427C0.61948 26.3427 0.315584 26.3193 0 26.3076C0 24.7882 0 23.2687 0 21.7492C0.245454 21.7141 0.490909 21.6557 0.748052 21.6557C30.2026 21.6557 59.6688 21.6557 89.1234 21.6557C89.4156 21.6557 89.7078 21.644 90 21.6323C90 23.1518 90 24.6713 90 26.1908ZM51.6156 24.0167C51.5338 24.4375 51.4519 24.8466 51.3584 25.2674C52.2701 25.5128 52.2467 24.5193 52.8195 24.2739C52.6675 24.6128 52.5156 24.9167 52.2935 25.4076C52.6675 25.2791 52.9831 25.2674 53.0649 25.1271C53.4857 24.3674 53.8364 23.5843 54.2221 22.7778C53.626 22.6025 53.2052 22.6726 52.9013 23.1752C52.7143 23.4908 52.4571 23.7596 52.1766 24.1336C52.2818 23.596 52.3519 23.1869 52.4571 22.6258C52.0247 22.731 51.5805 22.7076 51.4636 22.8947C51.0195 23.631 50.6805 24.4375 50.2597 25.2908C51.3584 25.431 51.1247 24.3557 51.6156 24.0167ZM38.7117 24.2973C38.7818 24.2622 38.8403 24.2154 38.9104 24.1804C39.3545 23.9349 39.6935 23.596 39.5532 23.07C39.413 22.5557 38.9104 22.7661 38.548 22.7193C38.4662 22.7076 38.3844 22.7076 38.3143 22.7193C38.0805 22.7661 37.7182 22.7544 37.6364 22.8947C37.2039 23.6544 36.8416 24.4609 36.4558 25.244C37.461 25.6765 37.3675 24.6596 37.8584 24.2973C37.9169 24.6596 37.9753 24.9635 38.0338 25.2908C38.2909 25.2908 38.548 25.2908 38.8519 25.2908C38.7935 24.9167 38.7584 24.6128 38.7117 24.2973ZM59.7039 24.2622C59.774 24.6596 59.8325 24.9635 59.8909 25.2908C60.148 25.2908 60.3935 25.2908 60.6506 25.2908C60.6623 25.1856 60.6974 25.0921 60.6857 25.0336C60.5104 24.531 60.639 24.2038 61.1065 23.8999C61.3169 23.7713 61.4104 23.3154 61.3753 23.0349C61.3636 22.8947 60.9312 22.7661 60.674 22.7077C60.4169 22.6492 60.1247 22.6726 59.8558 22.7077C59.7039 22.731 59.4935 22.8128 59.4351 22.9297C59.0377 23.6778 58.687 24.4492 58.3013 25.2206C59.2714 25.6531 59.2364 24.7064 59.7039 24.2622ZM79.2935 24.3089C79.4922 24.157 79.7493 24.0635 79.8545 23.8882C80.0065 23.6427 80.1584 23.3038 80.0883 23.0583C80.0532 22.8947 79.6441 22.7778 79.387 22.7193C79.1299 22.6609 78.8377 22.6843 78.5688 22.7193C78.4169 22.7427 78.2065 22.8245 78.148 22.9414C77.7506 23.6895 77.3883 24.4609 77.0143 25.2323C78.0078 25.7115 77.926 24.6479 78.3584 24.3557C78.7558 25.396 78.7558 25.396 79.387 25.2674C79.3636 24.9518 79.3286 24.6479 79.2935 24.3089ZM76.2078 23.444C76.2195 22.9414 75.8454 22.6375 75.2727 22.6609C74.4662 22.7076 73.6714 23.3973 73.426 24.2856C73.239 24.9752 73.613 25.431 74.3377 25.3843C75.2143 25.3375 76.1844 24.3323 76.2078 23.444ZM48.6234 22.6726C47.8286 22.6726 46.987 23.3739 46.7416 24.2388C46.5195 25.0102 46.9519 25.5012 47.7467 25.3843C48.5415 25.2674 49.3597 24.4375 49.4766 23.631C49.5467 22.9999 49.2545 22.6726 48.6234 22.6726ZM63.7714 23.6427C63.7597 23.5726 63.7597 23.5025 63.748 23.4323C64.0403 23.3973 64.3325 23.3271 64.6247 23.3388C65.0221 23.3505 65.2441 23.2102 65.2325 22.731C64.648 22.731 64.0987 22.7193 63.5377 22.7427C63.4441 22.7427 63.3039 22.8245 63.2571 22.9063C62.8597 23.6778 62.4857 24.4492 62.1 25.244C63.4792 25.583 64.2623 25.396 64.3441 24.718C63.9818 24.6947 63.6312 24.6713 63.2454 24.6479C63.374 24.1102 63.7714 24.2739 64.0636 24.2739C64.426 24.2622 64.7182 24.2388 64.7065 23.7362C64.4026 23.6895 64.087 23.6661 63.7714 23.6427ZM32.8325 22.6609C32.4467 22.731 32.0727 22.6843 31.9208 22.8479C31.2429 23.596 30.6117 24.4025 29.9688 25.1973C30.0039 25.2674 30.039 25.3375 30.0857 25.396C30.3662 25.2791 30.6584 25.1739 30.939 25.057C31.2312 24.9401 31.5234 24.6596 31.7571 25.1739C31.8039 25.2674 32.0493 25.3258 32.2013 25.3141C32.3182 25.3025 32.4935 25.1622 32.5052 25.0687C32.6221 24.3206 32.7156 23.5726 32.8325 22.6609ZM54.6078 25.3843C55.0052 25.3025 55.426 25.3141 55.4727 25.1973C55.6948 24.5076 56.2208 24.4025 56.8286 24.2622C57.1441 24.1921 57.3896 23.7362 57.6234 23.4089C57.6935 23.3038 57.6467 23.0466 57.5649 22.918C57.3195 22.5323 55.9519 22.6258 55.7532 23.0349C55.3792 23.7596 55.0403 24.4726 54.6078 25.3843ZM67.4532 23.4557C67.4649 23.3856 67.4883 23.3038 67.5 23.2336C67.6403 23.2804 67.7805 23.3622 67.9325 23.3856C68.1545 23.4206 68.3883 23.4206 68.6221 23.4323C68.6221 23.2687 68.6571 22.9882 68.5987 22.9765C68.2597 22.8479 67.8857 22.696 67.535 22.7193C67.0675 22.7544 66.7052 23.0583 66.6 23.5492C66.5065 23.97 66.8338 24.1102 67.1377 24.2739C67.2429 24.3323 67.3247 24.4492 67.4182 24.531C67.348 24.6128 67.2662 24.7531 67.1961 24.7531C67.0675 24.7531 66.9389 24.6596 66.8104 24.6128C66.6351 24.5427 66.4714 24.4375 66.2961 24.4375C66.2026 24.4375 66.0273 24.6479 66.0389 24.7297C66.074 24.9167 66.1909 25.2206 66.3078 25.244C66.7052 25.3025 67.1844 25.3843 67.5234 25.2323C67.839 25.0921 68.1428 24.683 68.2364 24.344C68.2831 24.157 67.8623 23.8531 67.6519 23.6076C67.5935 23.5375 67.5234 23.5025 67.4532 23.4557ZM71.1 24.4843C70.8779 24.8115 70.7026 24.8817 70.4221 24.6362C70.2818 24.5193 70.0597 24.4609 69.8727 24.4375C69.8026 24.4258 69.639 24.6362 69.6506 24.7063C69.7091 24.9051 69.7909 25.1622 69.9545 25.2674C70.4571 25.5947 71.3571 25.3258 71.7078 24.7999C72.0117 24.344 71.9416 24.0167 71.474 23.7245C71.3221 23.631 71.1818 23.5258 71.0299 23.4323C71.0649 23.3739 71.0883 23.3038 71.1234 23.2453C71.2636 23.2921 71.4039 23.3505 71.5441 23.3856C71.7545 23.4323 71.9649 23.4791 72.1753 23.4791C72.2221 23.4791 72.3273 23.257 72.3039 23.2102C72.1987 23.0466 72.0818 22.8362 71.9065 22.7661C71.3688 22.5557 70.8662 22.696 70.4688 23.0934C70.0597 23.5141 70.1299 23.9232 70.6441 24.2271C70.7961 24.2973 70.9363 24.3908 71.1 24.4843ZM82.5312 24.4843C82.1805 24.8583 82.1221 24.8349 81.8649 24.6245C81.7247 24.5076 81.4909 24.4609 81.3039 24.4375C81.2337 24.4375 81.0818 24.6362 81.0935 24.718C81.1402 24.9051 81.2221 25.1388 81.3623 25.244C81.7364 25.5245 82.5078 25.4077 82.9286 25.0453C83.4896 24.5544 83.4545 24.0518 82.8117 23.6544C82.7065 23.5843 82.6013 23.5025 82.5078 23.4323C82.5312 23.3739 82.5662 23.3038 82.5896 23.2453C82.7415 23.3154 82.8818 23.4206 83.0338 23.4323C83.2675 23.4557 83.5013 23.4206 83.7234 23.4089C83.6299 23.1986 83.6065 22.918 83.4428 22.8012C83.0338 22.5089 82.2506 22.6843 81.9 23.0934C81.5026 23.5375 81.5727 23.9232 82.087 24.2271C82.2389 24.2973 82.3792 24.3908 82.5312 24.4843ZM45.1753 24.4726C44.8247 24.2388 44.5792 24.2388 44.2987 24.5193C44.1935 24.6362 43.9714 24.6362 43.7961 24.6947C43.7961 24.496 43.7493 24.2973 43.7961 24.1102C43.8312 23.9466 43.9364 23.783 44.0649 23.6661C44.2987 23.4557 44.5325 23.0583 44.8948 23.5843C44.9532 23.6778 45.3039 23.6544 45.4675 23.5726C45.5493 23.5375 45.5727 23.1284 45.5026 23.0934C45.2104 22.918 44.8714 22.6843 44.5558 22.7077C43.7377 22.7544 42.9078 23.7012 42.861 24.5427C42.826 25.0453 43.0831 25.3609 43.5974 25.3843C44.287 25.4193 44.7896 25.0921 45.1753 24.4726ZM33.9779 25.1973C34.013 25.2557 34.0364 25.3025 34.0714 25.3609C34.3169 25.3025 34.6909 25.3141 34.7844 25.1622C35.2169 24.4025 35.5792 23.6077 35.9649 22.8245C35.9182 22.7661 35.8597 22.7076 35.813 22.6375C35.5675 22.7427 35.2052 22.7895 35.0883 22.9765C34.6675 23.7012 34.3403 24.4609 33.9779 25.1973Z" fill="white"/>
<path d="M46.1454 19.9727C43.7726 19.9727 41.47 19.9727 39.1791 19.9727C38.7233 19.9727 38.5246 19.6922 38.4077 19.3182C38.2207 18.7104 38.0454 18.0909 37.87 17.4714C37.7064 16.9104 37.3441 16.6299 36.7597 16.6416C35.7077 16.6533 34.6558 16.6416 33.6038 16.6416C32.9843 16.6416 32.6337 16.9338 32.4701 17.5299C32.3064 18.126 32.1077 18.7221 31.9441 19.3182C31.8155 19.774 31.5701 19.9961 31.0675 19.9844C29.1623 19.9727 27.2454 19.9844 25.3402 19.9727C24.7441 19.9727 24.4753 19.6805 24.5571 19.0844C24.5921 18.8039 24.709 18.5234 24.8142 18.2546C26.8363 12.8078 28.8584 7.36105 30.8688 1.92598C31.3246 0.698708 31.6285 0.47663 32.9259 0.47663C34.5272 0.47663 36.1168 0.464942 37.7181 0.47663C38.5947 0.47663 39.0506 0.792214 39.3545 1.6104C41.5869 7.64157 43.8194 13.661 46.0518 19.6922C46.0869 19.7623 46.1103 19.8325 46.1454 19.9727ZM35.1584 12.7494C35.3921 12.7494 35.6259 12.7494 35.8597 12.7494C36.5843 12.7377 36.8882 12.3987 36.7012 11.7208C36.409 10.6571 36.0934 9.59351 35.7428 8.54156C35.6726 8.33118 35.3454 8.06234 35.1584 8.07403C34.9597 8.08572 34.6675 8.36624 34.5856 8.58832C34.3051 9.37144 34.1415 10.2013 33.8493 10.9844C33.2532 12.6208 33.6973 12.8312 35.1584 12.7494Z" fill="white"/>
<path d="M56.1739 8.95059C56.6298 9.37137 57.1324 9.75708 57.5181 10.2246C59.096 12.1532 59.3882 14.3272 58.3713 16.5597C57.3544 18.7922 55.496 19.9259 53.0298 19.9493C51.3116 19.9727 49.6051 19.9493 47.8869 19.961C47.5363 19.961 47.3375 19.9025 47.1973 19.5168C45.6427 15.2623 44.0531 11.0311 42.4986 6.77657C42.3583 6.40254 42.3466 5.98176 42.3466 5.57267C42.3233 4.42722 42.335 3.27007 42.335 2.12462C42.335 1.04929 42.9194 0.45319 43.983 0.45319C46.9635 0.45319 49.944 0.429813 52.9246 0.464878C54.9934 0.488255 56.5246 1.45838 57.3194 3.37527C58.0908 5.2454 57.822 7.03371 56.4427 8.58825C56.3609 8.67007 56.2791 8.75189 56.209 8.8454C56.1856 8.89215 56.1856 8.92721 56.1739 8.95059ZM50.0726 12.1298C49.722 12.1298 49.3713 12.1181 49.0207 12.1415C48.5648 12.1649 48.296 12.422 48.2843 12.8779C48.2609 13.5207 48.2609 14.1636 48.2843 14.8064C48.296 15.2857 48.5765 15.5662 49.0674 15.5779C49.7103 15.6012 50.3531 15.6246 50.996 15.5662C51.9661 15.4844 52.6674 14.6779 52.6207 13.7662C52.5739 12.8194 51.8025 12.1298 50.7739 12.1298C50.5401 12.1298 50.3064 12.1298 50.0726 12.1298ZM48.3427 6.75319C48.3427 7.02202 48.3544 7.30254 48.3427 7.57137C48.3077 8.01553 48.5765 8.26098 48.9505 8.27267C49.6285 8.29605 50.3181 8.29605 50.9726 8.17916C51.6622 8.05059 52.0596 7.3376 51.9778 6.61293C51.9077 5.9467 51.3466 5.39734 50.657 5.35059C50.3648 5.32721 50.0726 5.35059 49.7804 5.3389C48.3311 5.32722 48.3311 5.32721 48.3427 6.75319Z" fill="white"/>
<path d="M75.4715 19.9609C73.0987 19.9609 70.7728 19.9726 68.4351 19.9375C68.213 19.9375 67.9091 19.622 67.8039 19.3765C67.5585 18.7687 67.3948 18.1259 67.2195 17.483C67.0676 16.9103 66.7052 16.6297 66.1208 16.6297C65.0455 16.6181 63.9819 16.6181 62.9065 16.6181C62.3221 16.6181 61.9598 16.8986 61.8078 17.4713C61.6442 18.0674 61.4689 18.6635 61.3052 19.2596C61.1767 19.7272 60.8961 19.9726 60.3819 19.9609C59.2364 19.9375 58.1026 19.9492 56.8286 19.9492C58.3013 18.9207 59.2948 17.67 59.739 16.0687C60.4637 13.4622 59.8793 11.1362 58.0325 9.16092C57.7403 8.84533 57.7052 8.61157 57.8689 8.21416C58.6754 6.11027 59.4468 3.99468 60.2299 1.8791C60.6741 0.675203 60.978 0.453125 62.2403 0.453125C63.8533 0.453125 65.478 0.453125 67.091 0.453125C67.9442 0.453125 68.3884 0.75702 68.6806 1.55183C70.9247 7.59468 73.1689 13.6492 75.413 19.6921C75.4364 19.7739 75.4364 19.8557 75.4715 19.9609ZM60.078 10.283C60.0546 10.3414 60.0195 10.4116 59.9961 10.47C60.6624 10.9609 61.3052 11.4869 61.9948 11.9194C62.4858 12.2349 62.5559 12.5388 62.3572 13.0648C62.0533 13.8246 61.8429 14.631 61.539 15.5778C61.8312 15.4025 61.9598 15.3323 62.0767 15.2505C62.626 14.8531 63.2104 14.4908 63.7247 14.0466C64.1689 13.6609 64.5078 13.7077 64.9286 14.0583C65.4078 14.4557 65.9221 14.8064 66.4247 15.1687C66.5767 15.2856 66.752 15.3791 66.9156 15.4726C66.9507 15.4375 66.9858 15.4025 67.0208 15.3674C66.7052 14.3622 66.378 13.357 66.0624 12.3518C66.5182 12.0246 66.939 11.709 67.3598 11.4051C67.7806 11.0895 68.1897 10.7739 68.6104 10.4583C68.5871 10.3999 68.5637 10.3414 68.5286 10.283C68.0845 10.283 67.652 10.2947 67.2078 10.283C66.6117 10.2713 65.852 10.47 65.4546 10.1778C65.0572 9.88559 65.0221 9.10248 64.8234 8.54144C64.6832 8.12066 64.5312 7.69988 64.391 7.2791C64.3325 7.2791 64.2741 7.29079 64.2156 7.29079C63.9468 8.13235 63.6546 8.9739 63.4091 9.81546C63.3039 10.1778 63.1286 10.3064 62.7546 10.2947C61.8546 10.2596 60.9663 10.283 60.078 10.283Z" fill="white"/>
<path d="M89.9062 12.235C89.5673 13.7779 89.0413 15.1337 88.1062 16.3142C85.3829 19.774 81.8296 20.9779 77.54 20.1714C77.0258 20.0779 76.7102 19.8441 76.5115 19.3064C74.8167 14.6545 73.0868 10.0142 71.3453 5.38567C71.1699 4.91813 71.2401 4.57917 71.5323 4.20515C74.0453 0.944111 77.353 -0.470174 81.4205 0.137618C85.6634 0.768786 88.3634 3.29346 89.6842 7.32592C89.7192 7.4545 89.7309 7.58307 89.766 7.75839C89.5322 7.77008 89.3452 7.78177 89.1582 7.78177C87.1712 7.78177 85.1842 7.77008 83.1972 7.79346C82.8231 7.79346 82.6244 7.69995 82.4257 7.36099C81.0933 5.05839 77.8323 5.0467 76.5232 7.36099C75.3777 9.38306 75.4011 11.4636 76.4998 13.4857C77.2011 14.7714 78.3699 15.4493 79.8426 15.2857C81.3387 15.1103 82.3673 14.222 82.7881 12.7493C82.905 12.3285 83.0686 12.1532 83.5361 12.1649C85.4881 12.1883 87.4283 12.1766 89.3803 12.1766C89.5088 12.1883 89.6608 12.2233 89.9062 12.235Z" fill="white"/>
<path d="M19.8116 19.9728C19.5194 19.9728 19.2272 19.9728 18.935 19.9728C18.3739 19.9612 18.2804 19.8443 18.4791 19.3066C18.9583 17.9975 19.4492 16.6767 19.9402 15.3677C21.6817 10.669 23.435 5.97025 25.1531 1.25986C25.3752 0.640379 25.6791 0.383237 26.3337 0.453367C26.7895 0.511808 27.2687 0.465055 27.7363 0.465055C28.3791 0.465055 28.4726 0.593626 28.2505 1.20142C27.4908 3.25856 26.7194 5.3157 25.9479 7.37285C24.5337 11.1832 23.1194 14.9819 21.7051 18.7923C21.2609 19.9728 21.2492 19.9728 19.8116 19.9728Z" fill="white"/>
<path d="M24.1363 0.464996C24.0428 0.874087 23.996 1.15461 23.9025 1.42344C21.6934 7.39616 19.4727 13.3572 17.2753 19.3299C17.0999 19.7858 16.8779 20.0429 16.3519 19.9728C16.0246 19.926 15.6856 19.9611 15.3584 19.9728C14.809 19.9845 14.7973 19.704 14.9493 19.2949C15.4869 17.8572 16.0129 16.4195 16.5506 14.9819C18.2454 10.4001 19.9636 5.81824 21.6467 1.22474C21.8454 0.675386 22.1142 0.383178 22.7337 0.464996C23.1428 0.51175 23.5753 0.464996 24.1363 0.464996Z" fill="white"/>
<path d="M12.5765 19.9728C11.5713 19.9611 11.583 19.9728 11.9103 19.0961C14.1077 13.1936 16.2934 7.30264 18.4791 1.40004C18.8298 0.4416 18.8298 0.4416 19.835 0.476665C20.4194 0.500041 20.4661 0.558483 20.2557 1.1429C19.6363 2.81433 19.0168 4.49744 18.3856 6.16887C16.7726 10.5169 15.148 14.865 13.5467 19.2247C13.3597 19.7624 13.1493 20.1364 12.5765 19.9728Z" fill="white"/>
<path d="M8.76611 19.8791C8.81287 19.657 8.82455 19.4349 8.90637 19.2245C11.1388 13.1817 13.383 7.13884 15.6272 1.09598C15.896 0.382993 16.0713 0.312863 17.1817 0.558317C17.1233 0.792083 17.0999 1.03754 17.0181 1.25962C14.7973 7.26741 12.5648 13.2752 10.3323 19.283C10.0518 20.0544 9.92326 20.1129 8.76611 19.8791Z" fill="white"/>
<path d="M4.979 19.8909C5.04913 19.5987 5.09589 19.3299 5.18939 19.0844C7.39849 13.0883 9.61927 7.10391 11.84 1.1078C12.1089 0.394817 12.4946 0.266245 13.3011 0.640271C12.9855 1.49352 12.6699 2.37014 12.3543 3.23508C10.3673 8.6117 8.36862 13.9766 6.3816 19.3533C6.12446 20.0078 6.05433 20.0429 4.979 19.8909Z" fill="white"/>
<path d="M0.712891 19.891C0.771332 19.6689 0.806397 19.4468 0.888215 19.2364C3.12068 13.2169 5.35315 7.18578 7.59731 1.16629C7.66744 0.967593 7.71419 0.675385 7.86614 0.605255C8.11159 0.500061 8.41549 0.535126 8.69601 0.523438C8.68432 0.722139 8.73107 0.932528 8.66094 1.10785C6.41679 7.1624 4.17263 13.2286 1.92848 19.2949C1.65964 20.0312 1.62458 20.0546 0.712891 19.891Z" fill="white"/>
<path d="M75.413 23.7831C75.4013 24.1689 74.9805 24.6013 74.5948 24.6247C74.2792 24.6481 74.1156 24.4494 74.1974 24.1455C74.3026 23.7598 74.6533 23.4559 75.0039 23.4442C75.2494 23.4208 75.413 23.5611 75.413 23.7831Z" fill="white"/>
<path d="M48.6818 23.7831C48.6701 24.1689 48.2493 24.6013 47.8636 24.6247C47.548 24.6481 47.3844 24.4494 47.4662 24.1455C47.5714 23.7598 47.9221 23.4559 48.2727 23.4442C48.5299 23.4208 48.6818 23.5611 48.6818 23.7831Z" fill="white"/>
<path d="M56.2792 23.2219L55.9986 23.7245C55.9753 23.7712 55.9285 23.9232 55.987 23.9232C56.1857 23.9466 56.7116 23.8998 56.8168 23.818C56.9688 23.7128 57.1675 23.3505 57.074 23.2453C56.9921 23.1634 56.5012 23.1751 56.3493 23.1751C56.3142 23.1751 56.2909 23.1985 56.2792 23.2219Z" fill="white"/>
<path d="M78.6388 23.2219L78.3583 23.7245C78.3349 23.7712 78.2881 23.9232 78.3466 23.9232C78.5453 23.9466 79.0712 23.8998 79.1764 23.818C79.3284 23.7128 79.5271 23.3505 79.4336 23.2453C79.3517 23.1634 78.8609 23.1751 78.7089 23.1751C78.6855 23.1751 78.6622 23.1985 78.6388 23.2219Z" fill="white"/>
<path d="M59.879 23.2219L59.5985 23.7245C59.5751 23.7712 59.5284 23.9232 59.5868 23.9232C59.7855 23.9466 60.3115 23.8998 60.4167 23.818C60.5686 23.7128 60.7673 23.3505 60.6738 23.2453C60.592 23.1634 60.1011 23.1751 59.9492 23.1751C59.9141 23.1751 59.8907 23.1985 59.879 23.2219Z" fill="white"/>
<path d="M38.1039 23.2219L37.8234 23.7245C37.8 23.7712 37.7532 23.9232 37.8117 23.9232C38.0104 23.9466 38.5363 23.8998 38.6415 23.818C38.7935 23.7128 38.9922 23.3505 38.8987 23.2453C38.8168 23.1634 38.3259 23.1751 38.174 23.1751C38.1389 23.1751 38.1156 23.1985 38.1039 23.2219Z" fill="white"/>
<path d="M31.874 23.6662L31.4065 24.3558L31.9558 24.4493L32.0026 23.5493L31.874 23.6662Z" fill="white"/>
</svg>
