<svg width="83" height="28" viewBox="0 0 83 28" fill="none" xmlns="http://www.w3.org/2000/svg">
<path d="M0 18.6982C0.56101 17.2633 0.938613 15.7744 1.39174 14.3072C2.31956 11.2756 3.22581 8.23317 4.13206 5.20155C4.23994 4.82395 4.42335 4.71606 4.81174 4.71606C7.81099 4.73764 10.821 4.73764 13.8203 4.71606C14.2087 4.71606 14.3489 4.84553 14.4568 5.19077C15.8377 9.52781 17.2295 13.8648 18.6212 18.2019C18.6644 18.3421 18.7075 18.4716 18.7507 18.6119C18.8154 18.8276 18.7723 18.9463 18.5025 18.9355C16.8087 18.9247 15.1257 18.9247 13.4319 18.9355C13.173 18.9355 13.0974 18.8061 13.0327 18.6011C12.8277 17.9861 12.6119 17.3819 12.407 16.767C12.3314 16.5404 12.2235 16.4325 11.9538 16.4325C10.3895 16.4433 8.82512 16.4433 7.26077 16.4325C6.98026 16.4325 6.8508 16.5081 6.77528 16.7886C6.62424 17.3604 6.41925 17.9214 6.25742 18.4824C6.17111 18.8061 6.03086 18.9355 5.67483 18.9355C3.77603 18.9031 1.88802 18.9139 0 18.9139C0 18.8384 0 18.7737 0 18.6982ZM9.46165 7.59664C9.4185 7.59664 9.37534 7.60742 9.33219 7.60742C8.78197 9.60333 8.23175 11.5992 7.67074 13.6059C7.606 13.8217 7.71389 13.8972 7.91887 13.8972C8.97616 13.8864 10.0335 13.8864 11.1015 13.8864C11.4036 13.8864 11.4144 13.7785 11.3389 13.5304C11.1447 12.9478 10.9721 12.3652 10.7887 11.7826C10.3355 10.4017 9.8932 8.99916 9.46165 7.59664Z" fill="white"/>
<path d="M43.5645 4.71596C46.553 4.71596 49.5306 4.71596 52.5191 4.71596C52.9183 4.71596 53.3067 4.73754 53.6951 4.80227C55.0652 5.02884 55.9175 5.94587 56.1225 7.38076C56.1657 7.71521 56.1872 8.06045 56.1872 8.40569C56.1872 11.7286 56.1872 15.0515 56.198 18.3852C56.198 18.8167 56.0901 18.9354 55.6586 18.9246C54.1698 18.8923 52.6701 18.9031 51.1813 18.9246C50.7713 18.9354 50.6742 18.806 50.6742 18.4068C50.6958 15.2565 50.685 12.117 50.685 8.9667C50.685 8.1036 50.5124 7.93099 49.6493 7.9202C49.1962 7.90941 48.7431 7.94177 48.3007 7.90941C47.8584 7.87704 47.7613 8.04966 47.7613 8.45963C47.7829 11.7502 47.7613 15.0407 47.7829 18.3313C47.7829 18.806 47.675 18.9354 47.1895 18.9246C45.6791 18.8923 44.1687 18.9031 42.6583 18.9246C42.2699 18.9354 42.1836 18.806 42.1836 18.4391C42.1943 15.2889 42.1943 12.1494 42.1943 8.99906C42.1943 8.04966 42.0649 7.9202 41.1047 7.9202C40.6516 7.9202 40.2092 7.94177 39.7561 7.90941C39.3461 7.87704 39.249 8.03887 39.249 8.42726C39.2706 11.1999 39.2598 13.9618 39.2598 16.7345C39.2598 17.3279 39.249 17.9213 39.2706 18.5147C39.2814 18.806 39.2059 18.9246 38.893 18.9246C37.3071 18.9138 35.7319 18.9138 34.146 18.9246C33.8439 18.9246 33.7468 18.8383 33.7468 18.5254C33.7576 14.0482 33.7576 9.57086 33.7468 5.09357C33.7468 4.65123 34.0058 4.71596 34.2755 4.71596C37.3826 4.71596 40.4682 4.71596 43.5645 4.71596Z" fill="white"/>
<path d="M76.3406 18.9138C74.4202 18.9138 72.489 18.9138 70.5687 18.9138C68.5512 18.9138 67.4831 17.8996 67.4615 15.893C67.4292 13.1742 67.4292 10.4663 67.4615 7.74751C67.4831 5.80556 68.4217 4.78063 70.3637 4.74827C73.5463 4.68354 76.729 4.72669 79.9116 4.7159C80.1921 4.7159 80.2892 4.813 80.2785 5.0935C80.2569 5.90265 80.2569 6.7118 80.2677 7.52095C80.2785 7.8554 80.1598 7.94171 79.8361 7.94171C78.056 7.92013 76.2759 7.93092 74.4957 7.93092C73.5032 7.93092 73.1687 8.26537 73.1687 9.25793C73.1687 11.0057 73.1687 12.7427 73.1687 14.4904C73.1687 15.3967 73.4492 15.688 74.3447 15.6988C75.3157 15.7095 76.2867 15.6988 77.2576 15.7095C77.5921 15.7203 77.6892 15.6124 77.6676 15.278C77.6352 14.6846 77.6568 14.0912 77.6784 13.4979C77.6892 13.2174 77.6029 13.1095 77.3116 13.1203C76.8584 13.1311 76.4161 13.1095 75.963 13.1311C75.6717 13.1418 75.5422 13.0663 75.553 12.7427C75.5746 11.9335 75.5746 11.1244 75.553 10.3152C75.5422 10.0347 75.6393 9.93761 75.9198 9.93761C78.1531 9.9484 80.3756 9.9484 82.6088 9.93761C82.9001 9.93761 82.9756 10.0455 82.9756 10.3152C82.9648 13.0663 82.9648 15.8174 82.9756 18.5685C82.9756 18.9785 82.7383 18.9246 82.4901 18.9246C80.4403 18.9138 78.3904 18.9138 76.3406 18.9138Z" fill="white"/>
<path d="M20.3582 11.7393C20.3582 9.54918 20.369 7.35908 20.3475 5.15819C20.3475 4.80217 20.4338 4.69428 20.7898 4.70507C22.4405 4.72665 24.0911 4.72665 25.7526 4.70507C26.1518 4.70507 26.2165 4.84532 26.2165 5.20135C26.2057 8.65372 26.2165 12.1061 26.1949 15.5477C26.1949 15.9792 26.2812 16.1303 26.7451 16.1195C28.3419 16.0871 29.9386 16.1195 31.5461 16.0979C31.8697 16.0979 32.0208 16.1303 31.9884 16.5294C31.9453 17.1552 31.9668 17.7917 31.9992 18.4175C32.0208 18.7735 31.9453 18.9137 31.5353 18.9137C27.9642 18.8922 24.3824 18.8922 20.8114 18.9137C20.4122 18.9137 20.3367 18.7843 20.3367 18.4175C20.3475 16.1842 20.3475 13.9617 20.3475 11.7285C20.3475 11.7393 20.3475 11.7393 20.3582 11.7393Z" fill="white"/>
<path d="M58.9815 13.4224C58.9815 11.7286 58.9923 10.0455 58.9707 8.35173C58.9707 7.9957 59.0894 7.93097 59.4022 7.94176C61.0529 7.95255 62.7144 7.95255 64.365 7.94176C64.6995 7.94176 64.8397 8.02807 64.8289 8.39488C64.8182 11.7609 64.8182 15.1162 64.8289 18.4823C64.8289 18.8275 64.7426 18.9354 64.3758 18.9354C62.7036 18.9138 61.0313 18.9246 59.3591 18.9354C59.057 18.9354 58.9707 18.8707 58.9707 18.5578C58.9923 16.8532 58.9815 15.1378 58.9815 13.4332C58.9815 13.4224 58.9815 13.4224 58.9815 13.4224Z" fill="white"/>
<path d="M58.4746 3.34586C58.4638 2.67696 58.658 2.0728 59.014 1.52257C59.165 1.28522 59.3161 1.19891 59.6289 1.29601C61.3012 1.80308 62.9842 2.27778 64.6673 2.76327C64.9801 2.84958 65.1959 2.96825 65.1743 3.37822C65.1527 3.7774 64.9801 3.91766 64.6241 4.02554C62.9734 4.48945 61.3336 4.97494 59.6937 5.48201C59.3808 5.57911 59.2406 5.50359 59.0787 5.26624C58.6795 4.67286 58.453 4.04712 58.4746 3.34586Z" fill="white"/>
<path d="M68.2275 25.5165C67.7204 25.5165 67.2242 25.5273 66.7171 25.5165C66.0914 25.4949 65.7353 25.1929 65.6706 24.5887C65.6059 24.0385 65.6059 23.4775 65.703 22.9272C65.7893 22.4741 66.059 22.1612 66.5337 22.1504C67.6989 22.1181 68.864 22.1073 70.0292 22.1397C70.601 22.1612 70.9786 22.6467 71.0002 23.3048C71.0218 24.2542 71.0218 25.2036 71.0002 26.1638C70.9786 26.8651 70.5363 27.3074 69.8458 27.329C68.8425 27.3614 67.8391 27.329 66.825 27.3398C66.5121 27.3398 66.4798 27.1995 66.4798 26.9406C66.469 26.6493 66.5984 26.5738 66.8681 26.5738C67.7852 26.5846 68.7022 26.563 69.6192 26.5846C70.1047 26.5954 70.1587 26.3472 70.1695 25.9481C70.1803 25.5165 69.9861 25.4841 69.6408 25.4949C69.1661 25.5381 68.6914 25.5165 68.2275 25.5165ZM68.3893 24.7289C68.5296 24.7289 68.6806 24.7289 68.8209 24.7289C70.1587 24.7289 70.1371 24.7289 70.1371 23.4019C70.1371 22.938 69.9213 22.8086 69.5114 22.8086C68.918 22.8193 68.3246 22.8193 67.7312 22.8193C66.4258 22.8086 66.415 22.8193 66.4582 24.1248C66.469 24.5563 66.6739 24.7289 67.0947 24.7289C67.5263 24.7289 67.9578 24.7289 68.3893 24.7289Z" fill="white"/>
<path d="M80.1167 22.1073C80.6885 22.1073 81.2711 22.0965 81.8429 22.1073C82.447 22.1181 82.8354 22.4633 82.8678 23.0567C82.8894 23.4667 82.9541 23.8874 82.7599 24.2758C82.7167 24.3621 82.6844 24.4484 82.7491 24.524C83.1159 25.0418 82.9757 25.6352 82.9649 26.1962C82.9541 26.9622 82.5873 27.3074 81.8321 27.3182C80.6993 27.329 79.5665 27.3182 78.4336 27.329C78.1424 27.329 78.0237 27.2535 78.0237 26.9406C78.0237 26.6277 78.1424 26.5414 78.4336 26.5414C79.437 26.5522 80.4403 26.5522 81.4545 26.5522C82.0694 26.5522 82.0802 26.4875 82.1126 25.6783C82.1342 25.1713 81.9507 25.0095 81.4653 25.031C80.6777 25.0634 79.8793 25.0202 79.0918 25.0526C78.7034 25.0634 78.7249 24.8476 78.7034 24.5779C78.6818 24.265 78.7897 24.1787 79.0918 24.1787C79.9009 24.2003 80.7101 24.1679 81.5192 24.1895C82.0263 24.2111 82.1126 23.9414 82.1126 23.5206C82.1126 23.0891 82.0047 22.8409 81.5084 22.8625C80.5051 22.8841 79.5017 22.8625 78.4876 22.8733C78.1855 22.8733 78.0345 22.8086 78.0345 22.4633C78.0237 22.0749 78.2395 22.0857 78.5092 22.0857C79.0378 22.1073 79.5772 22.0965 80.1167 22.1073C80.1167 22.0965 80.1167 22.0965 80.1167 22.1073Z" fill="white"/>
<path d="M74.528 27.3399C73.8052 27.3399 73.0931 27.3291 72.3703 27.3399C72.1222 27.3399 71.9927 27.2859 72.0358 27.0162C72.0358 26.9946 72.0358 26.9838 72.0358 26.9623C71.9711 25.344 72.0358 24.6751 74.0857 24.3622C74.6467 24.2759 75.2077 24.1356 75.7687 24.017C76.0924 23.9414 76.2974 23.7472 76.2326 23.4128C76.1679 23.0783 75.9521 22.9057 75.5745 22.9165C74.6791 22.9381 73.7728 22.9165 72.8774 22.9273C72.6292 22.9273 72.3811 22.992 72.3919 22.5713C72.3919 22.1613 72.5645 22.1074 72.9097 22.1182C73.8052 22.1397 74.7114 22.1289 75.6069 22.1182C76.3837 22.1182 76.9339 22.5605 77.0526 23.2833C77.1605 23.9846 76.7613 24.6103 75.9953 24.8045C75.2185 25.0095 74.4201 25.1498 73.6218 25.3116C73.1579 25.4087 72.8989 25.646 72.8881 26.1531C72.8774 26.4876 72.9852 26.5847 73.3197 26.5739C74.3986 26.5523 75.4774 26.5739 76.5563 26.5631C76.8476 26.5631 77.0202 26.5847 77.0202 26.9515C77.0202 27.3075 76.88 27.3614 76.5671 27.3507C75.8982 27.3183 75.2185 27.3399 74.528 27.3399Z" fill="white"/>
<path d="M55.8744 25.8184C55.3026 25.8184 54.72 25.8184 54.1482 25.8184C53.9432 25.8184 53.7058 25.7537 53.7166 26.1205C53.7274 26.4226 53.8245 26.5952 54.159 26.5844C54.8387 26.5736 55.5291 26.5844 56.2088 26.5844C56.4462 26.5844 56.6727 26.5952 56.9101 26.5736C57.1798 26.5521 57.2877 26.6492 57.2985 26.9297C57.2985 27.2318 57.2014 27.3289 56.8993 27.3289C55.8959 27.3181 54.8818 27.3396 53.8785 27.3181C53.1772 27.3073 52.8859 27.016 52.8643 26.3363C52.8428 25.689 52.8428 25.0417 52.8643 24.3943C52.8859 23.7794 53.1556 23.4989 53.7706 23.4773C54.9034 23.4557 56.0362 23.4665 57.169 23.4773C57.6653 23.4881 57.9458 23.7686 58.0213 24.2649C58.2371 25.6998 58.1616 25.7969 56.7375 25.7969C56.4462 25.8184 56.1657 25.8184 55.8744 25.8184ZM55.4428 25.074C55.9283 25.074 56.4138 25.0632 56.8993 25.074C57.1366 25.0848 57.2229 24.9769 57.2014 24.7504C57.1798 24.5562 57.2769 24.2649 56.9424 24.2541C55.9715 24.2433 55.0005 24.2433 54.0295 24.2541C53.6843 24.2541 53.7382 24.5346 53.7166 24.7719C53.6951 25.074 53.8785 25.074 54.0942 25.074C54.5474 25.074 54.9897 25.074 55.4428 25.074Z" fill="white"/>
<path d="M35.635 27.3292C35.1495 27.3292 34.664 27.3076 34.1785 27.3399C33.8441 27.3615 33.7578 27.2428 33.747 26.9084C33.7362 26.5308 33.952 26.5739 34.2001 26.5739C35.1171 26.5739 36.0342 26.5739 36.9512 26.5847C37.2425 26.5847 37.523 26.5524 37.5446 26.1963C37.5662 25.808 37.2641 25.7972 36.9836 25.7972C36.2607 25.7972 35.5487 25.808 34.8258 25.7972C34.0275 25.7864 33.4988 25.2901 33.5204 24.6104C33.542 23.9523 34.0598 23.4992 34.8366 23.4884C35.7537 23.4776 36.6707 23.4992 37.5877 23.4776C37.9114 23.4668 38.0301 23.5639 38.0301 23.8984C38.0301 24.2652 37.8359 24.2436 37.5769 24.2436C36.6815 24.2436 35.786 24.2436 34.8798 24.2436C34.5885 24.2436 34.308 24.276 34.3188 24.6536C34.3403 25.0096 34.6316 24.988 34.8798 24.988C35.6026 24.988 36.3147 24.9772 37.0375 24.988C37.8575 24.9988 38.3322 25.4411 38.3214 26.1856C38.3106 26.8868 37.8251 27.3184 37.0375 27.3292C36.5736 27.3399 36.1097 27.3292 35.635 27.3292Z" fill="white"/>
<path d="M43.6725 23.4776C44.2874 23.4776 44.8916 23.4668 45.5065 23.4776C46.2186 23.4884 46.4883 23.7581 46.4991 24.4593C46.5099 25.2901 46.4775 26.11 46.5099 26.9407C46.5207 27.3183 46.3588 27.3399 46.0676 27.3399C45.7547 27.3399 45.6252 27.2644 45.636 26.9192C45.6576 26.1855 45.6252 25.4411 45.6576 24.7075C45.6684 24.3191 45.5173 24.222 45.1505 24.222C44.3198 24.2436 43.4999 24.2436 42.6691 24.222C42.3023 24.2112 42.1513 24.3407 42.1621 24.7183C42.1836 25.4411 42.1621 26.1532 42.1836 26.876C42.1944 27.1673 42.1728 27.3507 41.7952 27.3291C41.4932 27.3075 41.299 27.3183 41.3098 26.9084C41.3421 25.905 41.3313 24.8909 41.3098 23.8875C41.3098 23.5639 41.3961 23.4452 41.7305 23.456C42.3778 23.4884 43.0251 23.4776 43.6725 23.4776Z" fill="white"/>
<path d="M50.1025 27.329C49.617 27.329 49.1315 27.3505 48.646 27.329C47.9016 27.2966 47.578 26.9514 47.5672 26.207C47.5564 25.6459 47.5564 25.0957 47.5672 24.5347C47.5888 23.909 47.9016 23.5314 48.5166 23.5098C49.5199 23.4666 50.5233 23.499 51.5374 23.4882C51.8287 23.4882 51.8395 23.6608 51.8395 23.8766C51.8395 24.0924 51.8287 24.265 51.5266 24.2542C50.739 24.2434 49.9407 24.2758 49.1531 24.2434C48.646 24.2218 48.4303 24.4052 48.4411 24.9231C48.4734 26.8974 48.2253 26.5738 50.0809 26.5953C50.5664 26.6061 51.0519 26.6061 51.5374 26.5953C51.8503 26.5846 51.8826 26.7464 51.8826 26.9945C51.8826 27.2319 51.8287 27.3613 51.5482 27.3505C51.0735 27.3182 50.588 27.329 50.1025 27.329Z" fill="white"/>
<path d="M64.4084 24.3946C64.4084 24.9017 64.4084 25.3979 64.4084 25.905C64.4084 26.261 64.2789 26.6818 64.9262 26.6171C65.1851 26.5847 65.0665 26.8868 65.0988 27.0486C65.1204 27.1996 65.0881 27.3399 64.8831 27.3399C64.2681 27.3399 63.6639 27.3399 63.049 27.3399C62.7685 27.3399 62.8116 27.1349 62.8116 26.9515C62.8009 26.7573 62.8224 26.5631 63.0814 26.5955C63.5561 26.6602 63.5453 26.3797 63.5453 26.0453C63.5345 25.2361 63.5237 24.427 63.5453 23.6178C63.5561 23.2941 63.4913 23.0892 63.1137 23.1431C62.9735 23.1647 62.8009 23.1755 62.8009 22.9597C62.8009 22.7871 62.7361 22.5929 62.9519 22.485C63.1245 22.3987 63.2971 22.3016 63.4805 22.2153C64.1818 21.8916 64.4191 22.0427 64.4191 22.7871C64.4084 23.3157 64.4084 23.8552 64.4084 24.3946Z" fill="white"/>
<path d="M64.991 2.37483C63.1785 1.8354 61.4846 1.33912 59.78 0.832057C60.2439 0.120005 61.4307 -0.106557 62.3262 0.0444842C63.5884 0.271046 64.4731 1.01546 64.991 2.37483Z" fill="white"/>
<path d="M64.9262 4.4248C64.1926 6.56096 61.4846 7.34853 59.78 5.93522C61.4954 5.42815 63.1677 4.94266 64.9262 4.4248Z" fill="white"/>
<path d="M40.1123 25.4301C40.1123 25.948 40.1015 26.4766 40.1123 26.9945C40.123 27.3182 39.9504 27.3505 39.7023 27.3289C39.4865 27.3182 39.2168 27.4153 39.2168 27.0269C39.2276 25.948 39.2276 24.8691 39.2168 23.7903C39.2168 23.4235 39.4757 23.4774 39.7023 23.4774C39.9504 23.4666 40.123 23.5098 40.1123 23.8226C40.1123 24.3513 40.123 24.8907 40.1123 25.4301Z" fill="white"/>
<path d="M39.6914 22.9057C39.4001 22.9596 39.2167 22.9057 39.2275 22.5389C39.2383 22.226 39.303 22.0857 39.6483 22.0965C39.9396 22.1073 40.1122 22.1397 40.1122 22.4957C40.1014 22.8086 40.0367 22.9812 39.6914 22.9057Z" fill="white"/>
</svg>
