<svg width="94" height="29" viewBox="0 0 94 29" fill="none" xmlns="http://www.w3.org/2000/svg">
<path d="M0 18.0352C1.19688 16.5142 2.28156 15.1053 3.40363 13.7214C5.90961 10.6295 8.42805 7.55002 10.9465 4.45808C12.7667 2.22639 14.9236 0.580675 17.9034 0.306389C18.8135 0.219117 19.7236 0.106909 20.6213 0.0944417C23.7756 0.0695067 26.9299 0.0819744 30.0841 0.0819744C30.2462 0.0819744 30.4083 0.106909 30.6202 0.119376C30.6202 6.06639 30.6202 11.9885 30.6202 17.9729C28.1392 17.9729 25.6582 17.9729 23.1023 17.9729C23.1023 16.9879 23.0774 16.0404 23.1148 15.0929C23.1273 14.6191 22.9652 14.4944 22.5039 14.4944C19.3745 14.5069 16.2327 14.4944 13.1034 14.5194C12.8166 14.5194 12.4551 14.6939 12.2556 14.8934C11.3704 15.8035 10.5475 16.7635 9.6748 17.6861C9.52519 17.8482 9.26337 17.9978 9.05142 17.9978C6.10909 18.0352 3.14182 18.0352 0 18.0352ZM15.5969 10.3801C15.8587 10.43 15.9584 10.4674 16.0457 10.4674C18.24 10.4674 20.4467 10.455 22.641 10.4674C23.0899 10.4674 23.1397 10.2181 23.1397 9.86898C23.1273 8.43521 23.1397 7.01392 23.1397 5.58015C23.1397 5.06898 23.1397 4.55782 23.1397 4.05911C21.3943 3.8347 19.9979 4.23366 19.0254 5.72976C18.614 6.36561 18.1028 6.95158 17.654 7.57496C16.9808 8.48509 16.3325 9.38275 15.5969 10.3801Z" fill="white"/>
<path d="M62.5373 0.131885C65.1181 0.131885 67.624 0.131885 70.1549 0.131885C70.1674 0.331366 70.1923 0.493444 70.1923 0.655522C70.1923 4.60773 70.13 8.54748 70.2173 12.4997C70.2796 15.3797 68.4594 17.0129 66.6142 17.6987C65.4298 18.135 64.1331 18.4093 62.8615 18.4966C60.8791 18.6213 58.8718 18.6462 56.902 18.509C54.7077 18.3594 52.6007 17.7735 51.0173 16.0529C50.3939 15.3797 49.9451 14.5818 49.9451 13.6592C49.9077 9.29553 49.9202 4.93189 49.9077 0.568249C49.9077 0.206691 50.0573 0.10695 50.3939 0.10695C52.6381 0.119417 54.8822 0.119418 57.1264 0.0944824C57.675 0.0944824 57.65 0.406171 57.65 0.780197C57.65 4.43319 57.65 8.09864 57.65 11.7516C57.65 12.0384 57.6376 12.3376 57.675 12.6244C57.8869 14.7812 59.1212 15.0805 60.8666 14.7812C61.9887 14.5942 62.5373 13.7838 62.5373 12.562C62.5373 8.73449 62.5373 4.91942 62.5373 1.09189C62.5373 0.792665 62.5373 0.505912 62.5373 0.131885Z" fill="white"/>
<path d="M73.6208 17.973C73.6208 12.0135 73.6208 6.11637 73.6208 0.14443C74.3315 0.0945594 75.0172 0.0197543 75.7154 0.0197543C78.7699 0.00728676 81.8245 -0.0176483 84.879 0.0197543C86.2006 0.0322218 87.5595 0.0197545 88.8312 0.318975C91.8858 1.05456 93.5814 3.38599 93.4941 6.5278C93.4318 8.79689 92.3221 10.48 90.3024 11.5023C88.6068 12.3626 86.7492 12.587 84.8666 12.6494C83.8318 12.6743 82.7845 12.6743 81.7497 12.6369C81.3008 12.6244 81.1762 12.7865 81.1762 13.2104C81.1886 14.6442 81.1762 16.0779 81.1886 17.5117C81.1886 17.8608 81.1138 18.0478 80.7149 18.0353C78.4707 18.0229 76.2266 18.0229 73.9824 18.0229C73.8827 18.0229 73.7829 17.9979 73.6208 17.973ZM82.2608 3.78495C81.8868 3.90962 81.2884 3.49819 81.2884 4.30858C81.3008 5.5678 81.3008 6.83949 81.2884 8.09871C81.2884 8.4852 81.438 8.63481 81.812 8.59741C82.4479 8.53507 83.0962 8.53507 83.7195 8.4104C85.1907 8.13611 85.7019 7.56261 85.7268 6.32832C85.7518 5.04417 85.1907 4.37092 83.7694 4.02183C83.2707 3.90962 82.7471 3.85975 82.2608 3.78495Z" fill="white"/>
<path d="M34.0862 17.9731C34.0862 17.6989 34.0862 17.4744 34.0862 17.25C34.0862 11.7892 34.0987 6.32847 34.0737 0.867698C34.0737 0.219386 34.2607 0.0697766 34.8717 0.0822442C36.9288 0.119647 38.9859 0.0947115 41.0431 0.0947115C41.2426 0.0947115 41.4545 0.0947115 41.7662 0.0947115C41.7662 0.431335 41.7662 0.70562 41.7662 0.992373C41.7662 5.16899 41.7787 9.34561 41.7537 13.5098C41.7537 14.0583 41.9033 14.2204 42.4519 14.2079C44.3594 14.183 46.267 14.2204 48.187 14.183C48.7979 14.1705 48.9724 14.37 48.935 14.956C48.8851 15.8038 48.9101 16.664 48.9225 17.5118C48.9225 17.8609 48.8353 18.0355 48.4363 18.0355C43.761 18.023 39.0981 18.023 34.4228 18.023C34.348 18.023 34.2607 17.9981 34.0862 17.9731Z" fill="white"/>
<path d="M42.9633 26.8001C42.9633 25.8276 42.9633 24.905 42.9633 23.97C42.9633 23.0848 42.7388 22.7606 42.1529 22.7481C41.4672 22.7357 41.0308 23.2094 41.0183 24.0198C41.0059 24.7055 41.0183 25.3913 41.0183 26.077C41.0183 26.9123 41.0183 26.9123 40.2079 26.8874C40.0708 26.8874 39.9212 26.8624 39.7217 26.85C39.7217 25.8401 39.7217 24.8427 39.7217 23.8577C39.7217 23.0474 39.5222 22.7855 38.9487 22.7606C38.3129 22.7357 37.8391 23.1346 37.8017 23.8203C37.7643 24.6681 37.7892 25.5159 37.7768 26.3762C37.7768 26.5133 37.7643 26.6629 37.7518 26.85C37.3404 26.85 36.9664 26.85 36.53 26.85C36.53 25.2541 36.53 23.6583 36.53 22.0125C36.8791 22.0125 37.2033 22.0125 37.5648 22.0125C37.6147 22.1746 37.6646 22.3616 37.6895 22.4738C38.2879 22.2868 38.849 22.025 39.435 21.9751C39.7965 21.9377 40.2329 22.1497 40.5446 22.3741C40.8313 22.5736 40.9685 22.5985 41.2801 22.4115C41.6417 22.1871 42.103 22.0001 42.5269 21.9751C43.5991 21.9128 44.0853 22.3866 44.1352 23.4713C44.1726 24.2816 44.1726 25.092 44.1726 25.9024C44.1851 26.9996 44.1726 27.012 42.9633 26.8001Z" fill="white"/>
<path d="M29.4484 26.8749C28.8874 26.8749 28.4635 26.9248 28.0645 26.8624C27.865 26.8375 27.6406 26.638 27.5284 26.4635C26.93 25.5409 26.3689 24.6058 25.7954 23.6832C24.9227 24.0448 24.424 24.7554 24.4365 25.5908C24.4365 25.6905 24.4365 25.8027 24.4365 25.9024C24.4365 27.012 24.3741 27.0495 23.1648 26.8001C23.1648 24.5934 23.1648 22.3866 23.1648 20.13C23.5513 20.13 23.9378 20.13 24.3741 20.13C24.3741 21.09 24.3741 22.05 24.3741 23.1596C24.611 23.01 24.7482 22.9476 24.8479 22.8479C25.4962 22.1996 26.1819 21.5887 26.743 20.878C27.3788 20.0676 28.1518 19.9554 29.1741 20.1549C28.5383 20.7908 27.9523 21.4141 27.3289 21.9876C26.5684 22.6858 26.5684 22.6734 27.1669 23.5211C27.9024 24.5809 28.6256 25.6656 29.4484 26.8749Z" fill="white"/>
<path d="M45.7061 21.975C46.0676 21.975 46.3668 21.975 46.7035 21.975C46.7658 22.1745 46.8157 22.3615 46.8531 22.4737C47.4016 22.2742 47.9003 21.9875 48.424 21.9376C49.4338 21.8379 50.157 22.3116 50.4811 23.2841C50.7928 24.2192 50.8053 25.1667 50.2567 26.0394C49.5835 27.0992 48.3616 27.3111 47.3518 26.5631C47.252 26.4883 47.1523 26.4384 46.9403 26.3013C46.9403 27.174 46.9403 27.9595 46.9403 28.7948C46.4915 28.7948 46.13 28.7948 45.7185 28.7948C45.7061 26.5506 45.7061 24.3065 45.7061 21.975ZM46.8281 24.2192C46.8905 24.6181 46.9154 24.8675 46.9777 25.1044C47.1648 25.7527 47.6385 26.1392 48.212 26.1392C48.7731 26.1267 49.2718 25.7153 49.359 25.0296C49.4214 24.5558 49.4089 24.0197 49.2593 23.5709C48.9725 22.6483 47.8006 22.4613 47.2271 23.2218C47.0027 23.5335 46.9279 23.9574 46.8281 24.2192Z" fill="white"/>
<path d="M32.7398 26.9995C31.119 26.9995 30.1091 26.0021 30.1091 24.4312C30.1091 22.8478 31.1439 21.9003 32.8395 21.9127C34.3356 21.9252 35.4078 22.9725 35.4078 24.4312C35.4078 25.9398 34.2982 27.012 32.7398 26.9995ZM34.1112 24.4686C34.1112 23.5709 33.8244 23.0847 33.1387 22.8603C32.5528 22.6608 32.079 22.8727 31.6925 23.2966C31.2935 23.7579 31.2686 24.9673 31.6177 25.4784C31.9917 26.0146 32.5652 26.214 33.2011 26.0146C33.787 25.84 34.1112 25.279 34.1112 24.4686Z" fill="white"/>
<path d="M75.0795 21.9252C76.6504 21.9127 77.8099 22.9974 77.7974 24.4436C77.7725 25.9148 76.6504 26.9995 75.1667 27.0119C73.4836 27.0244 72.4862 26.0644 72.4862 24.4436C72.4737 22.8852 73.4711 21.9252 75.0795 21.9252ZM76.4883 24.5059C76.5008 23.521 75.9148 22.7729 75.1044 22.7729C74.3189 22.7729 73.7205 23.4462 73.708 24.3563C73.6831 25.4161 74.1818 26.0395 75.067 26.0519C75.9522 26.0769 76.4758 25.5158 76.4883 24.5059Z" fill="white"/>
<path d="M60.1809 24.7428C59.0339 24.7428 57.9243 24.7428 56.7898 24.7428C56.6526 25.3787 56.877 25.8026 57.4007 26.0519C57.8994 26.2888 58.3731 26.2514 58.7347 25.7777C59.1461 25.2415 59.595 25.6654 60.0313 25.6654C59.7446 26.8499 58.236 27.2239 57.0765 26.8873C55.8048 26.5257 55.1565 25.254 55.4807 23.7953C55.7924 22.374 56.8396 21.7008 58.3607 21.9252C59.5202 22.1122 60.2807 23.2343 60.1809 24.7428ZM58.9342 24.0322C58.8843 23.147 58.448 22.6982 57.7622 22.748C57.1389 22.7979 56.7399 23.3091 56.8022 24.0322C57.5004 24.0322 58.1986 24.0322 58.9342 24.0322Z" fill="white"/>
<path d="M87.2354 24.7554C86.0759 24.7554 84.9663 24.7554 83.8442 24.7554C83.732 25.3413 83.9315 25.7403 84.3803 26.0146C84.8167 26.2764 85.3278 26.3263 85.6395 25.9273C86.0884 25.3538 86.5621 25.5658 87.0733 25.678C86.8115 26.6878 85.6271 27.2364 84.3304 26.9621C83.0587 26.7003 82.2733 25.4411 82.5226 24.0447C82.7969 22.4489 83.7819 21.7258 85.3902 21.9252C86.5871 22.0873 87.3725 23.2343 87.2354 24.7554ZM86.0135 24.0696C85.9512 23.1969 85.6146 22.7855 84.9912 22.7481C84.4676 22.7107 83.9938 23.0722 83.8442 23.5959C83.7569 23.9076 83.8317 24.0696 84.1808 24.0696C84.7793 24.0696 85.3652 24.0696 86.0135 24.0696Z" fill="white"/>
<path d="M91.9607 26.7875C91.9607 25.8275 91.9607 24.8924 91.9607 23.9698C91.9607 23.122 91.6865 22.7729 91.0506 22.748C90.34 22.7231 89.8413 23.147 89.7914 23.92C89.7415 24.7927 89.7789 25.6654 89.7665 26.5381C89.7665 26.6254 89.754 26.7002 89.7415 26.8124C89.6667 26.8374 89.5919 26.8748 89.5171 26.8872C88.5447 26.9496 88.5447 26.9496 88.5447 26.002C88.5447 24.9423 88.5447 23.8826 88.5447 22.8353C88.5447 21.9002 88.5696 21.8877 89.5919 22.0374C89.6293 22.1994 89.6667 22.374 89.7291 22.6483C89.9161 22.5361 90.0657 22.4488 90.2028 22.349C90.7763 21.9002 91.4246 21.8503 92.0979 21.9875C92.7711 22.1246 93.1451 22.5485 93.1576 23.2467C93.1825 24.3065 93.1825 25.3662 93.1701 26.4135C93.1576 26.9246 92.9706 26.987 91.9607 26.7875Z" fill="white"/>
<path d="M61.041 25.6157C61.627 25.5783 62.1631 25.2292 62.587 25.9523C62.7865 26.3014 63.8587 26.3138 64.2203 26.052C64.3574 25.9523 64.507 25.7154 64.4945 25.5658C64.4821 25.4162 64.2826 25.2042 64.1205 25.1544C63.547 24.9673 62.961 24.8551 62.3875 24.6806C61.5273 24.4188 61.1034 23.9076 61.1782 23.2468C61.253 22.5486 61.9262 21.9627 62.774 21.9502C63.3849 21.9502 64.0332 21.9502 64.6192 22.1123C64.9933 22.2245 65.28 22.6234 65.5543 22.9725C64.9933 23.1471 64.5569 23.3341 64.0332 22.8853C63.7465 22.6359 63.0982 22.7855 62.6244 22.8105C62.5247 22.8105 62.3626 23.0598 62.3751 23.172C62.4 23.3216 62.5371 23.5211 62.6743 23.571C63.0732 23.7206 63.5096 23.8079 63.921 23.9325C64.2951 24.0447 64.6816 24.132 65.0431 24.2941C65.8286 24.6681 65.9907 25.5658 65.4795 26.2764C64.7065 27.3362 61.4898 27.3611 61.041 25.6157Z" fill="white"/>
<path d="M71.1397 23.0598C70.6535 23.1346 70.2171 23.3465 69.6935 22.8977C69.3943 22.6483 68.7709 22.773 68.2847 22.7855C68.1724 22.7855 67.9854 23.0099 67.9979 23.1221C68.0104 23.2717 68.1475 23.4837 68.2847 23.5335C68.6836 23.6956 69.12 23.7829 69.5314 23.9076C69.868 24.0073 70.2171 24.0696 70.5413 24.2068C71.5886 24.6556 71.7506 25.6655 70.9278 26.4385C70.0426 27.2738 67.8234 27.1741 67.0254 26.2515C66.8883 26.1019 66.8135 25.9024 66.6265 25.6032C67.2124 25.6281 67.6987 25.1294 68.1475 25.84C68.4218 26.2764 69.6062 26.3013 69.9927 25.9647C70.3169 25.6904 70.2296 25.2541 69.7808 25.1045C69.3943 24.9673 68.9704 24.9174 68.5714 24.8052C68.3345 24.7429 68.0976 24.6681 67.8608 24.5808C67.1626 24.319 66.7885 23.8328 66.826 23.2717C66.8634 22.6733 67.3122 22.0748 67.9979 22C68.721 21.9128 69.494 21.9252 70.2047 22.0748C70.5912 22.1496 70.9153 22.586 71.2644 22.8603C71.2145 22.9351 71.1771 22.9974 71.1397 23.0598Z" fill="white"/>
<path d="M52.9123 21.9503C52.9621 22.1623 53.012 22.3243 53.0868 22.6111C53.6603 21.9628 54.2837 21.6885 55.0816 22.1124C54.9819 22.3991 54.8697 22.6859 54.7699 22.9602C53.4234 22.8978 53.1242 23.1846 53.1118 24.5186C53.1118 25.2792 53.1118 26.0397 53.1118 26.8376C52.6505 26.8376 52.264 26.8376 51.8151 26.8376C51.8151 25.3041 51.8027 23.7955 51.8276 22.2869C51.8276 22.1747 52.0146 22.0002 52.1518 21.9628C52.3762 21.9129 52.6131 21.9503 52.9123 21.9503Z" fill="white"/>
<path d="M78.9446 26.8373C78.9446 25.1916 78.9446 23.5957 78.9446 21.975C79.3186 21.975 79.6303 21.975 79.9669 21.975C80.0168 22.1744 80.0667 22.349 80.1165 22.5485C81.3259 21.8129 81.4132 21.788 82.1238 22.137C82.0241 22.4113 81.9119 22.6856 81.8121 22.9599C80.4906 22.8851 80.1789 23.1718 80.1539 24.4934C80.1415 25.2165 80.1415 25.9396 80.129 26.6752C80.129 26.7126 80.1041 26.75 80.0791 26.8373C79.73 26.8373 79.356 26.8373 78.9446 26.8373Z" fill="white"/>
</svg>
