<svg width="127" height="22" viewBox="0 0 127 22" fill="none" xmlns="http://www.w3.org/2000/svg">
<path d="M2.33205 21.4645C1.47716 21.4645 0.728009 21.0178 0.300863 20.2378C-0.12629 19.4578 -0.0734155 18.5099 0.300863 17.7851C3.34795 12.2656 6.39564 6.74612 9.49617 1.22606C9.87046 0.501204 10.6725 0 11.528 0C12.3829 0 13.132 0.501824 13.5592 1.22606C16.6062 6.74551 19.6539 12.265 22.7545 17.7851C23.1822 18.5099 23.1822 19.4572 22.7545 20.2378C22.3267 21.0748 21.5253 21.4645 20.7762 21.4645H20.7227H20.4553L10.9392 4.34853C9.06842 7.74915 7.19705 11.0947 5.32568 14.4953C4.84447 15.3868 4.84447 16.4462 5.32568 17.2826L6.60892 19.5687L8.05255 17.0038L7.41092 15.8887L10.2447 10.7595L16.1791 21.4639H2.33205V21.4645Z" fill="white"/>
<path d="M94.5537 15.945C93.6981 15.945 92.8424 15.945 91.9872 15.945C91.9872 14.328 91.9872 12.6553 91.9872 11.0389H85.0908C85.0908 12.6553 85.0908 14.328 85.0908 15.945C84.2891 15.945 83.4334 15.945 82.6313 15.945C82.6313 12.0983 82.6313 8.251 82.6313 4.4043C83.4334 4.4043 84.2891 4.4043 85.0908 4.4043C85.0908 6.02064 85.0908 7.694 85.0908 9.31039H91.9872C91.9872 7.694 91.9872 6.02064 91.9872 4.4043C92.8424 4.4043 93.6981 4.4043 94.5537 4.4043C94.5537 8.19525 94.5537 12.0419 94.5537 15.945Z" fill="white"/>
<path d="M72.5271 4.34863C75.4671 4.34863 78.4611 4.34863 81.4015 4.34863C81.4015 4.90558 81.4015 5.51956 81.4015 6.07651C78.729 6.07651 75.9485 6.07651 73.2216 6.07651H73.168C73.1148 6.07651 73.1148 6.07651 73.0613 6.07651C73.0077 6.07651 72.9541 6.13288 72.9001 6.13288C72.7933 6.18867 72.6862 6.3553 72.633 6.46684C72.633 6.5232 72.633 6.57895 72.633 6.63474C72.633 7.47109 72.633 8.30687 72.633 9.19959C75.3599 9.19959 76.9097 9.19959 79.6366 9.19959C79.6366 9.92444 79.6366 10.2027 79.6366 10.9275C76.9097 10.9275 75.3599 10.9275 72.633 10.9275V12.656V13.4924C72.633 13.5482 72.633 13.6045 72.633 13.6603C72.633 13.716 72.6862 13.7718 72.6862 13.8276C72.7397 13.939 72.9001 14.0506 73.0077 14.1063C73.0613 14.1063 73.0613 14.1063 73.1148 14.1063H73.168C75.6278 14.1063 78.8353 14.1063 81.3475 14.1063C81.3475 14.7197 81.3475 15.2773 81.3475 15.8906C78.4075 15.8906 75.4139 15.8906 72.4731 15.8906C71.19 15.8906 70.1208 14.7754 70.1208 13.4372V6.74562C70.1753 5.46381 71.1904 4.34863 72.5271 4.34863Z" fill="white"/>
<path d="M54.0831 6.68987C54.0831 6.63412 54.0831 6.57833 54.0831 6.52258C54.0831 6.46622 54.0299 6.41047 54.0299 6.35468C54.0299 6.29893 53.9763 6.24319 53.9227 6.24319C53.8692 6.18744 53.8692 6.18744 53.816 6.13164C53.7624 6.13164 53.7088 6.07528 53.6552 6.07528C53.6021 6.07528 53.6021 6.07528 53.5485 6.07528H48.0419V10.3129H53.5485C53.6021 10.3129 53.6021 10.3129 53.6552 10.3129C53.7088 10.3129 53.7624 10.2572 53.816 10.2572C53.9763 10.145 54.0831 9.97834 54.0831 9.75469C54.0831 8.7529 54.0831 7.74926 54.0831 6.68987ZM54.1367 12.0984H48.0419C48.0419 13.3802 48.0419 14.6069 48.0419 15.8893C47.1863 15.8893 46.331 15.8893 45.4753 15.8893C45.4753 12.3208 45.4753 8.7529 45.4753 5.18503V4.79471V4.51592V4.34863H54.1367C54.1902 4.34863 54.2434 4.34863 54.3506 4.34863C55.6336 4.34863 56.7024 5.46381 56.7024 6.80137V9.5893C56.7024 10.9269 55.6332 12.042 54.3506 12.042L54.1367 12.0984Z" fill="white"/>
<path d="M61.0861 4.34863H65.6838H68.998C68.998 4.90558 68.998 5.51956 68.998 6.07651C66.5391 6.07651 64.0796 6.07651 61.5671 6.07651H61.5139C61.4603 6.07651 61.4067 6.07651 61.4067 6.07651C61.3 6.07651 61.1928 6.13288 61.0861 6.18867C60.7654 6.35591 60.5515 6.63474 60.4443 7.02502C60.4443 7.13656 60.3912 7.19231 60.3912 7.3038V7.3596C60.3912 9.19959 60.3912 11.0948 60.3912 12.9348V12.9905V13.0463V13.1015V13.1572C60.3912 13.213 60.4443 13.3251 60.4443 13.3802C60.4979 13.436 60.4979 13.5475 60.5515 13.6033C60.7654 13.8815 61.0325 14.1051 61.3536 14.1602C61.4067 14.1602 61.4067 14.1602 61.4603 14.1602H61.5139C63.759 14.1602 66.6462 14.1602 68.9445 14.1602C68.9445 14.7736 68.9445 15.3312 68.9445 15.9445C66.5391 15.9445 63.4915 15.9445 61.0325 15.9445C60.8722 15.9445 60.7118 15.9445 60.5515 15.8887C60.284 15.833 60.0701 15.7766 59.803 15.6657H59.7494C59.5355 15.5542 59.3752 15.4985 59.2148 15.3312C58.9473 15.1639 58.7334 14.9408 58.5731 14.7742C58.0385 14.1609 57.771 13.3802 57.771 12.5439V7.80501C57.825 5.90923 59.2688 4.34863 61.0861 4.34863Z" fill="white"/>
<path d="M111.073 15.9449C112.998 12.4886 114.923 8.97577 116.848 5.51939C117.168 4.96178 117.863 4.51575 118.451 4.45996C118.504 4.45996 118.558 4.45996 118.611 4.45996C118.611 4.45996 118.665 4.45996 118.719 4.45996C118.772 4.45996 118.88 4.45996 118.933 4.45996C118.985 4.45996 118.986 4.45996 119.039 4.45996C119.093 4.45996 119.147 4.45996 119.2 4.45996C119.842 4.5715 120.483 4.96178 120.804 5.51939C122.728 8.97577 124.653 12.4886 126.578 15.9449H123.584L118.345 6.46667L113.106 15.9449H111.073Z" fill="white"/>
<path d="M103.963 9.25464H100.862L102.412 6.46671L103.963 9.25464ZM110.913 10.9831L111.876 9.25464H107.01L104.925 5.46368C104.818 5.24065 104.605 5.01761 104.391 4.85033C104.23 4.73883 104.124 4.62795 103.963 4.57154C103.856 4.51579 103.75 4.46005 103.589 4.46005C103.428 4.4043 103.268 4.4043 103.161 4.4043C103.161 4.4043 103.108 4.4043 103.054 4.4043C102.894 4.4043 102.733 4.4043 102.572 4.46005C101.984 4.57154 101.289 4.96186 100.969 5.51943C99.0443 8.97585 97.1195 12.4886 95.1951 15.945H97.2262L99.9527 11.0389H104.978L107.705 15.945H110.698C109.79 14.328 108.881 12.6553 107.972 11.0389H110.912V10.9831H110.913Z" fill="white"/>
<path d="M36.4411 6.46645L34.8905 9.25433H37.9911L36.4411 6.46645ZM29.17 15.889C30.0255 14.3835 30.8276 12.8222 31.6824 11.3168L31.7359 11.261V11.2053V11.1495L31.7894 11.038V10.9823H28.8486L27.8862 9.25372H32.7512L32.9116 8.97493L33.3928 8.08341V8.02766L34.8365 5.40763C35.1573 4.79432 35.9058 4.34824 36.6009 4.29248H36.6544C36.7078 4.29248 36.7078 4.29248 36.7613 4.29248C36.8148 4.29248 36.8148 4.29248 36.8683 4.29248C36.9217 4.29248 36.9752 4.29248 37.0821 4.29248C37.1356 4.29248 37.189 4.29248 37.2425 4.29248C37.8307 4.40399 38.4723 4.79432 38.7931 5.35127L39.9159 7.35855C41.413 10.0344 42.91 12.7665 44.4066 15.4423L44.6205 15.7768H41.6269L38.9 10.8707H33.8746L32.2712 13.7701L31.1484 15.7768L29.17 15.889Z" fill="white"/>
<path d="M64.2407 18.5652H64.1336V18.6767V21.3525V21.4646H64.2407C64.4015 21.4646 64.5078 21.4646 64.7217 21.4646H64.7753L64.8285 21.4083L66.112 19.2343V21.3525V21.4646H66.2187H66.4862H66.5938V21.3525V18.6767V18.5652H66.4862C66.2723 18.5652 66.2187 18.5652 66.0048 18.5652H65.9517L65.8981 18.6209L64.615 20.7955V18.6767V18.5652H64.5078H64.2407ZM56.7558 18.5652C56.3279 18.5652 55.9537 18.9555 55.9537 19.4015V20.6834C55.9537 21.13 56.3279 21.5204 56.7558 21.5204H57.5043C57.9321 21.5204 58.3063 21.13 58.3063 20.6834V19.4015C58.3063 18.9555 57.9321 18.5652 57.5043 18.5652H56.7558ZM46.3312 18.5652C45.9034 18.5652 45.5291 18.9555 45.5291 19.4015V20.6834C45.5291 21.13 45.9034 21.5204 46.3312 21.5204H47.0797C47.5075 21.5204 47.8818 21.13 47.8818 20.6834V19.4015C47.8818 18.9555 47.5075 18.5652 47.0797 18.5652H46.3312ZM49.2712 19.067H49.7526C50.0197 19.067 50.2336 19.2901 50.2336 19.5695V19.7367H50.715V19.458C50.715 19.0119 50.3408 18.6773 49.913 18.6773H49.1645C48.7366 18.6773 48.416 19.0676 48.416 19.5137V20.7961C48.416 21.2422 48.7902 21.5767 49.2176 21.5767H49.9665C50.394 21.5767 50.715 21.1865 50.715 20.7404V20.4616H50.2336V20.5731C50.2336 20.8519 50.0197 21.0755 49.7526 21.0755H49.2712C49.0041 21.0755 48.7902 20.8525 48.7902 20.5731V19.5701C48.7902 19.2901 49.0041 19.067 49.2712 19.067ZM67.6086 19.7919V19.067H68.8916H68.9984V18.9555V18.6767V18.5652H68.8916H67.2347H67.1272V18.6767V21.3525V21.4646H67.2347H68.8916H68.9984V21.3525V21.0743V20.9622H68.8916H67.6086V20.1815H68.8381H68.9984V20.07V19.7913H68.8381H67.6086V19.7919ZM29.8113 18.6209V18.5652H29.7578C29.3301 18.5652 29.5974 18.5652 29.2766 18.5652H29.1697V18.6767V21.3525V21.4646H29.2766H29.5439H29.6509V21.3525V19.4015L30.4529 21.3525V21.4083H30.5063H30.7737H30.8272V21.3525L31.6292 19.3458V21.2967V21.4646H31.7361H32.0035H32.1104V21.3525V18.6767V18.5652H32.0035C31.6292 18.5652 31.95 18.5652 31.5223 18.5652H31.4688V18.6209L30.6668 20.6834L29.8113 18.6209ZM32.3772 21.3525L32.3237 21.4646H32.4841H32.8049H32.8584V21.4083L33.0187 20.9064H34.1944L34.3549 21.4083V21.4646H34.4083H34.7292H34.8896L34.8361 21.2967L33.8737 18.6209V18.5652H33.8202H33.3924H33.339V18.6209L32.3772 21.3525ZM34.0881 20.461H33.2326L33.6604 19.2349L34.0881 20.461ZM36.9748 18.5652H36.8679V18.6767V21.0179H35.745V18.6767V18.5652H35.6381H35.3708H35.2638V18.6767V21.3525V21.4646H35.3708H38.8462H38.9531V21.3525V18.6767V18.5652H38.8462H38.5789H38.4719V18.6767V21.0179H37.3491V18.6767V18.5652H37.2422H36.9748ZM39.7551 18.5652H39.6482V18.6767V21.3525V21.4646H39.7551C39.969 21.4646 39.9156 21.4646 40.2364 21.4646H40.2898L40.3433 21.4083L41.6265 19.2343V21.3525V21.4646H41.7335H42.0008H42.1077V21.3525V18.6767V18.5652H42.0008C41.7869 18.5652 41.7335 18.5652 41.5196 18.5652H41.4661L41.4126 18.6209L40.1294 20.7955V18.6767V18.5652H40.0225H39.7551ZM43.1765 19.7919V18.6767V18.5652H43.0697H42.8022H42.6955V18.6767V21.3525V21.4646H42.8022H43.0697H43.1765V21.3525V20.2373H44.5131V21.3525V21.4646H44.6203H44.8874H44.9946V21.3525V18.6767V18.5652H44.8874H44.6203H44.5131V18.6767V19.7919H43.1765ZM51.6775 21.4083V21.4646H51.7842H52.0517H52.1584V21.3525V19.0113H52.9069H53.0141V18.8997V18.6209V18.5094H52.9069H50.929H50.8218V18.6767V18.9555V19.067H50.929H51.6775V21.4083ZM53.9225 20.4052H54.5639C54.7246 20.4052 54.8849 20.4052 54.9917 20.3494C55.0989 20.2931 55.2056 20.2373 55.3123 20.1815C55.3659 20.1258 55.4731 20.0143 55.4731 19.847C55.5263 19.7355 55.5263 19.5688 55.5263 19.4009C55.5263 19.2336 55.5263 19.1221 55.4731 19.0106C55.4195 18.8991 55.3659 18.7876 55.3123 18.7318C55.2592 18.6761 55.152 18.6203 55.0453 18.5646C54.9381 18.5088 54.8314 18.5088 54.7246 18.5088H53.4947H53.3875V18.6761V21.3519V21.464H53.4947H53.7622H53.8689V21.3519V20.4046H53.9225V20.4052ZM53.9225 19.9592V19.067H54.7246C54.7778 19.067 54.8314 19.067 54.8849 19.067C54.9381 19.067 54.9381 19.1228 54.9917 19.1228C54.9917 19.1785 55.0453 19.1785 55.0453 19.2349C55.0453 19.2907 55.0453 19.4022 55.0453 19.4573C55.0453 19.5695 55.0453 19.6252 54.9917 19.7361C54.9917 19.7919 54.9381 19.8476 54.9381 19.8476C54.8849 19.8476 54.8849 19.9034 54.7778 19.9034C54.7246 19.9034 54.6174 19.9034 54.4571 19.9034H53.9225V19.9592ZM59.2688 19.7919V19.067H60.5518H60.6586V18.9555V18.6767V18.5652H60.5518H58.8945H58.7873V18.6767V21.3525V21.4646H58.8945H60.5518H60.6586V21.3525V21.0743V20.9622H60.5518H59.2688V20.1815H60.5518H60.6586V20.07V19.7913H60.5518H59.2688V19.7919ZM46.438 19.067H46.9725C47.1865 19.067 47.4004 19.2901 47.4004 19.5131V20.5725C47.4004 20.7955 47.1865 21.0186 46.9725 21.0186H46.438C46.224 21.0186 46.0101 20.7961 46.0101 20.5725V19.5131C46.0097 19.2343 46.2236 19.067 46.438 19.067ZM56.8629 19.067H57.3979C57.6119 19.067 57.8253 19.2901 57.8253 19.5131V20.5725C57.8253 20.7955 57.6119 21.0186 57.3979 21.0186H56.8629C56.6494 21.0186 56.4355 20.7961 56.4355 20.5725V19.5131C56.4347 19.2343 56.6494 19.067 56.8629 19.067ZM61.7282 19.7919V18.6767V18.5652H61.621H61.3539H61.2468V18.6767V21.3525V21.4646H61.3539H61.621H61.7282V21.3525V20.2373H63.0648V21.3525V21.4646H63.1716H63.4391H63.5463V21.3525V18.6767V18.5652H63.4391H63.1716H63.0648V18.6767V19.7919H61.7282Z" fill="white"/>
</svg>
