<svg width="79" height="39" viewBox="0 0 79 39" fill="none" xmlns="http://www.w3.org/2000/svg">
<g clip-path="url(#clip0)">
<path d="M39.6026 11.163C70.4555 11.163 95.4668 8.50076 95.4668 5.21674C95.4668 1.93273 70.4555 -0.729492 39.6026 -0.729492C8.74957 -0.729492 -16.2617 1.93273 -16.2617 5.21674C-16.2617 8.50076 8.74957 11.163 39.6026 11.163Z" fill="white"/>
<path d="M0.102539 29.8831C0.287214 29.8932 0.47189 29.9134 0.666825 29.9134C26.624 29.9134 52.5811 29.9134 78.5485 29.9134C78.7332 29.9134 78.9179 29.8932 79.1128 29.8831C79.1128 32.689 79.1128 35.4849 79.1128 38.2909C52.7761 38.2909 26.4496 38.2909 0.112799 38.2909C0.102539 35.4849 0.102539 32.689 0.102539 29.8831Z" fill="white"/>
<path d="M0.102539 23.2986C1.10799 24.3622 2.80085 23.6126 3.1702 22.2654C3.44721 21.2625 3.71397 20.2495 4.0115 19.2467C4.52449 17.4841 5.28371 15.8734 6.74059 14.6578C7.81786 13.7461 9.10033 13.2802 10.4854 13.1991C11.9628 13.1181 13.4505 13.1789 14.9381 13.1789C14.7842 14.05 14.774 14.0906 13.9019 14.0298C13.3068 13.9893 13.0914 14.1817 12.9375 14.7389C12.2911 17.1903 11.5934 19.6417 10.9368 22.0932C10.8445 22.4578 10.6906 22.9035 11.1112 23.1568C11.5421 23.4202 11.9731 23.2074 12.3321 22.9238C13.2145 22.2248 13.7377 21.2929 14.1584 20.2799C14.4354 19.6215 14.5996 18.9326 14.7534 18.2539C14.8253 17.9602 14.774 17.788 14.4149 17.8386C14.261 17.8589 14.0968 17.869 13.9532 17.8386C13.7685 17.7981 13.4299 18.0007 13.4299 17.6867C13.4299 17.3929 13.3786 16.937 13.9532 16.9573C15.3896 16.9978 16.2206 16.1064 16.9183 15.0326C17.1337 14.6983 17.3492 14.4552 17.8109 14.516C18.0776 14.5464 18.1699 14.5768 18.0879 14.8706C17.9237 15.3973 17.8314 15.9544 17.6775 16.4812C17.5851 16.8054 17.6159 16.9472 18.0058 16.9168C18.4162 16.8864 18.8266 16.9067 19.2164 16.9067C19.2267 16.9573 19.237 16.9776 19.237 16.9877C19.0728 17.8386 19.0728 17.8386 18.1905 17.8386C18.0673 17.8386 17.9442 17.8589 17.8314 17.8386C17.421 17.7778 17.2773 17.9602 17.1953 18.3451C16.9285 19.5809 16.5284 20.7763 16.354 22.0324C16.2411 22.863 16.6412 23.177 17.4312 22.8732C17.9545 22.6706 18.3444 22.2957 18.6727 21.85C19.5037 20.756 19.8628 19.4796 20.1911 18.1932C20.4476 17.17 20.7041 16.1368 20.9708 15.1137C21.1145 14.5667 21.1145 14.5667 20.5194 14.5667C20.4168 14.5667 20.304 14.597 20.2116 14.5565C20.0064 14.4755 19.6371 14.7895 19.6063 14.3641C19.5653 13.8272 19.7807 13.6144 20.2834 13.6144C21.3094 13.6144 22.3354 13.6347 23.3614 13.6043C23.7923 13.5942 23.8641 13.7157 23.7615 14.1007C23.1254 16.5926 22.4996 19.0947 21.8737 21.5867C21.8121 21.8298 21.7711 22.083 21.7403 22.3363C21.7198 22.5591 21.7301 22.8022 21.9353 22.9238C22.161 23.0656 22.3559 22.8934 22.5303 22.7719C22.9407 22.4781 23.228 22.0729 23.4742 21.6474C23.8641 20.9789 24.2334 20.29 24.6028 19.6113C25.0645 18.7503 25.6493 17.9906 26.4598 17.4233C27.6705 16.5724 28.7683 16.5926 29.9789 17.5347C29.9379 16.8054 30.4303 16.9067 30.8818 16.9168C31.405 16.9269 31.9385 16.9168 32.5028 16.9168C32.0719 18.6389 31.6512 20.3204 31.2409 22.002C31.1485 22.3667 30.9741 22.782 31.4871 23.0048C31.7538 23.1264 32.4515 22.7415 32.5849 22.4072C32.6464 22.2552 32.6362 22.083 32.6772 21.9108C32.7696 21.455 33.0773 21.2119 33.539 21.1815C33.9597 21.1511 34.3188 21.3131 34.4932 21.7183C34.6676 22.1235 34.5753 22.5085 34.2162 22.7516C33.7545 23.0757 34.0315 23.2783 34.3085 23.4708C34.7599 23.7848 35.6012 23.7443 36.0527 23.41C36.5349 23.0454 36.6067 22.4376 36.186 22.002C35.9911 21.7994 35.7449 21.6373 35.5089 21.455C35.2934 21.2929 35.0575 21.1409 34.8625 20.9687C34.2162 20.4015 33.6724 19.743 33.8981 18.8212C34.1341 17.8589 34.8112 17.2713 35.7654 16.9877C36.6272 16.7344 37.4788 16.6939 38.3303 17.008C39.1819 17.322 39.6128 18.0615 39.4076 18.8212C39.2537 19.3885 38.7305 19.6822 38.1867 19.4999C37.7147 19.3378 37.448 18.7098 37.7353 18.2337C37.9815 17.8285 37.7968 17.7373 37.448 17.6867C36.9863 17.636 36.5451 17.6867 36.3092 18.1628C36.0732 18.6389 36.2681 19.0339 36.6272 19.3378C37.0684 19.7126 37.5403 20.0469 38.0123 20.3812C39.6025 21.4752 39.0896 22.863 38.0944 23.6734C36.8632 24.6763 35.4576 24.7674 33.9905 24.3015C33.6314 24.19 33.3544 23.9368 33.1799 23.6329C32.9953 23.2986 32.8722 23.3695 32.6259 23.5721C32.0514 24.0685 31.3947 24.4129 30.6253 24.5142C29.8353 24.6256 29.3325 24.4028 29.0042 23.6937C28.8401 23.3391 28.7477 23.41 28.5323 23.6228C28.0398 24.109 27.4447 24.423 26.7368 24.5142C25.7109 24.656 24.8285 24.2103 24.3976 23.2783C24.295 23.0555 24.2232 22.8124 24.1308 22.5794C23.9462 22.5693 23.9154 22.7313 23.8333 22.8225C23.1254 23.6532 22.2841 24.3015 21.1658 24.4838C20.0167 24.6763 19.4319 24.2913 19.1446 23.177C19.1241 23.0859 19.0831 22.9947 19.042 22.863C18.1597 23.7443 17.1542 24.342 15.9231 24.5041C14.774 24.656 14.0968 24.2204 13.7993 23.0454C13.6044 23.2277 13.4299 23.3999 13.2453 23.5519C12.1475 24.4028 10.8958 24.6864 9.5415 24.4534C8.62838 24.2913 8.12566 23.5519 8.25903 22.63C8.39241 21.7487 8.7002 20.908 8.94643 20.0469C9.02851 19.7531 8.99773 19.6519 8.67968 19.662C8.1154 19.6822 7.55111 19.6822 6.98682 19.662C6.68929 19.6519 6.57644 19.7633 6.51488 20.0368C6.2276 21.1916 5.78644 22.2654 4.9041 23.1365C3.63189 24.4129 2.15449 24.889 0.400072 24.5344C0.307734 24.5142 0.205136 24.5142 0.102539 24.5142C0.102539 24.109 0.102539 23.7038 0.102539 23.2986ZM26.665 21.6576C26.665 21.8095 26.6547 21.9615 26.665 22.1134C26.6855 22.4983 26.7471 22.9035 27.137 23.0454C27.5679 23.2074 27.927 22.9744 28.2245 22.6503C28.4502 22.4072 28.5938 22.1337 28.7272 21.8399C29.0042 21.222 29.1992 20.5737 29.3223 19.9152C29.4044 19.4796 29.4249 19.0441 29.3531 18.6085C29.2299 17.8994 28.7272 17.6664 28.0809 18.0007C27.7115 18.1931 27.496 18.5274 27.3319 18.8719C26.9215 19.7633 26.6855 20.6851 26.665 21.6576ZM8.10514 18.7402C8.38215 18.7402 8.65916 18.7098 8.92592 18.7503C9.25423 18.7908 9.36708 18.6287 9.4389 18.3552C9.78773 17.0586 10.1468 15.762 10.5264 14.4654C10.629 14.1209 10.5367 14.0399 10.1981 14.1108C9.4902 14.2729 8.92592 14.6477 8.47449 15.215C7.81786 16.0355 7.43825 16.9877 7.09968 17.9602C6.82267 18.7402 6.83293 18.7503 7.69475 18.7503C7.83838 18.7402 7.97176 18.7402 8.10514 18.7402Z" fill="white"/>
<path d="M79.1025 20.3611C78.8563 20.6042 78.8973 20.9486 78.7947 21.2424C78.2612 22.8125 77.2762 23.9369 75.6347 24.413C73.6546 24.9803 72.3105 24.1294 71.9925 22.1237C71.7975 22.073 71.777 22.2554 71.6949 22.3466C70.6998 23.4608 69.5917 24.3725 68.022 24.5447C66.6472 24.6967 65.5288 23.8458 65.3544 22.4884C65.2929 22.0427 65.3544 21.5969 65.2416 21.0702C64.8209 21.5058 64.4208 21.9515 63.9796 22.3769C63.323 23.0151 62.5843 23.5723 61.7738 24.018C60.6657 24.6258 59.5577 24.9094 58.4291 23.9369C58.1931 24.9195 57.9571 25.8211 57.752 26.7328C57.6801 27.0468 57.5673 27.1785 57.2184 27.1684C56.5721 27.138 55.9257 27.1582 55.2281 27.1582C55.7616 25.0816 56.2848 23.0455 56.8081 21.0094C56.5926 20.9486 56.5618 21.131 56.4797 21.212C55.3307 22.4479 54.12 23.6027 52.5092 24.251C51.9449 24.4738 51.3704 24.6156 50.7651 24.565C49.5236 24.4637 49.0106 23.9673 48.4874 22.4073C47.9642 23.0556 47.3896 23.6229 46.6817 24.0281C44.5477 25.2336 42.2392 24.3117 41.5928 21.9819C41.4082 21.3336 41.3774 20.6751 41.4595 20.0268C41.7878 17.3627 42.9266 15.1645 45.3171 13.7463C46.7125 12.9156 48.1488 12.8245 49.5236 13.8577C49.7083 13.9894 49.7801 13.9489 49.8725 13.7969C49.9853 13.6247 50.0777 13.4728 50.3342 13.4627C51.0216 13.4221 51.0421 13.4323 50.8677 14.0704C50.6112 14.9923 50.3239 15.9141 50.0879 16.8359C49.9545 17.3525 49.5647 17.079 49.2979 17.1195C48.9286 17.1702 49.0825 16.8663 49.0825 16.6941C49.0722 16.1369 49.0722 15.5798 48.867 15.053C48.5695 14.2427 48.036 14.0401 47.2562 14.4554C46.8048 14.6985 46.456 15.0429 46.179 15.4481C44.9375 17.2614 44.2091 19.2468 44.3117 21.4653C44.3425 22.1541 44.4348 22.8834 45.2043 23.1468C46.0148 23.4203 46.6612 22.9949 47.1947 22.4175C47.8821 21.678 48.3232 20.7764 48.8362 19.9255C49.3903 19.0037 50.0469 18.1629 50.9497 17.545C51.4935 17.1702 52.0988 16.9473 52.7452 16.846C54.2329 16.6232 55.4127 17.6362 55.5256 19.2468C55.5666 19.7938 55.5666 20.351 55.4538 20.9081C56.3874 20.0775 57.0953 19.1151 57.5468 17.9704C57.6186 17.7982 57.5468 17.7172 57.3621 17.7273C57.1569 17.7375 56.9517 17.7273 56.7465 17.7273C56.7978 16.9372 56.7978 16.9372 57.5365 16.9372C58.2342 16.9372 58.9421 16.9473 59.6397 16.9372C59.9886 16.9271 60.3271 16.8866 60.1425 17.4741C60.6247 17.2006 61.0351 16.9676 61.507 16.8764C62.5946 16.6536 63.5179 17.1195 63.9488 18.1427C64.2977 18.9733 64.2772 19.8141 64.113 20.6751C64.0925 20.7764 64.072 20.8676 64.0617 20.9689C64.0617 20.9892 64.0925 21.0195 64.1438 21.1107C64.6875 20.5333 65.2313 19.9863 65.7546 19.4089C66.5343 18.5479 67.3038 17.6868 68.3708 17.1803C69.0992 16.8359 69.8584 16.684 70.6485 16.9271C71.6231 17.231 72.1566 18.2946 71.8078 19.2367C71.5924 19.8242 70.9665 20.1382 70.4125 19.9255C69.9713 19.7533 69.7456 19.1658 69.9303 18.6795C70.0739 18.3047 70.4227 18.2136 70.7613 18.0819C70.433 17.6564 70.0226 17.5754 69.602 17.8286C69.2531 18.0414 69.0274 18.3655 68.853 18.7099C68.2579 19.885 67.8783 21.1208 68.0425 22.4479C68.1451 23.2481 68.6888 23.4811 69.4173 23.1063C70.2278 22.6808 70.7716 21.9819 71.3256 21.293C71.9412 20.513 72.5055 19.6723 73.1313 18.9024C73.8803 17.9907 74.701 17.1601 75.9322 16.8967C77.4917 16.5624 78.6203 17.2512 79.0204 18.7808C79.0409 18.872 78.9999 18.9936 79.1333 19.0341C79.1025 19.4798 79.1025 19.9255 79.1025 20.3611ZM50.7651 22.3567C50.7753 22.9037 50.7343 23.3494 51.2062 23.5824C51.5653 23.7647 52.1399 23.5419 52.5195 23.1266C52.6118 23.0253 52.7042 22.924 52.7657 22.8125C53.5455 21.5564 53.9353 20.2092 53.7712 18.7302C53.7301 18.3149 53.6378 17.8894 53.1658 17.7679C52.7144 17.6463 52.3964 17.9502 52.1194 18.2642C52.0065 18.3959 51.9039 18.5276 51.8321 18.6795C51.2268 19.8749 50.8984 21.1512 50.7651 22.3567ZM77.3994 19.2975C77.3891 19.1253 77.3994 18.872 77.3481 18.6188C77.2865 18.244 77.1736 17.8692 76.753 17.7577C76.3631 17.6564 76.0656 17.8793 75.8194 18.1528C75.686 18.3047 75.5424 18.4567 75.45 18.639C74.7831 19.9458 74.3522 21.3133 74.3727 22.7923C74.383 23.6027 75.0294 23.9167 75.7065 23.4608C76.0759 23.2076 76.3426 22.8632 76.5581 22.4681C77.0916 21.5058 77.3583 20.4725 77.3994 19.2975ZM61.7738 19.3582C61.7738 19.2266 61.784 19.0847 61.7738 18.953C61.743 18.5681 61.6712 18.1832 61.2608 18.0414C60.8607 17.9097 60.5426 18.1427 60.2758 18.4263C59.9065 18.8315 59.6397 19.3076 59.5064 19.8343C59.2704 20.6954 59.096 21.5666 58.8497 22.4276C58.7369 22.8227 58.8497 23.0759 59.1268 23.3089C59.4345 23.5621 59.7731 23.5723 60.1322 23.4203C60.5836 23.2177 60.8299 22.8328 61.0351 22.4175C61.4968 21.4551 61.7225 20.432 61.7738 19.3582Z" fill="white"/>
</g>
<defs>
<clipPath id="clip0">
<rect width="79" height="39" fill="white"/>
</clipPath>
</defs>
</svg>
