<svg width="88" height="39" viewBox="0 0 88 39" fill="none" xmlns="http://www.w3.org/2000/svg">
<path d="M73.1817 30.8688C70.2129 30.8688 67.232 30.8567 64.2632 30.8688C62.8391 30.8808 61.4151 30.9412 59.991 30.9532C59.5686 30.9532 59.279 31.1101 59.0255 31.436C56.805 34.2962 53.981 36.3478 50.6139 37.6512C48.8519 38.327 47.0175 38.7011 45.1228 38.8459C43.1194 39.0028 41.1523 38.8339 39.2093 38.3753C36.325 37.6995 33.7182 36.4202 31.4131 34.5375C30.2304 33.56 29.1443 32.498 28.2392 31.255C27.9495 30.8567 27.6237 30.7119 27.1289 30.7119C23.5084 30.7602 19.8879 30.8326 16.2794 30.7964C14.0951 30.7722 11.8866 30.8929 9.72632 30.5791C8.27812 30.3619 7.01094 29.6378 6.56441 28.1293C6.2627 27.0793 5.68342 26.5724 4.70589 26.15C2.28015 25.1122 0.578512 23.3623 0.107846 20.6348C-0.29041 18.2573 0.421623 16.254 2.12326 14.5644C3.1008 13.5869 4.23522 12.8266 5.47826 12.2714C6.06961 12.0059 6.44373 11.656 6.66096 11.0405C7.34886 9.09747 8.91774 8.02338 11.0176 8.03545C13.7934 8.04752 16.5691 8.02338 19.3448 7.99925C22.0843 7.97511 24.8118 7.9389 27.5392 7.92684C27.8771 7.92684 28.0943 7.80615 28.2995 7.55272C29.4581 6.09245 30.7735 4.78907 32.2941 3.69085C34.6716 1.97714 37.2904 0.854784 40.1627 0.323777C42.2385 -0.0624102 44.3142 -0.0986151 46.39 0.191025C50.3242 0.746169 53.7758 2.36333 56.7325 5.01836C57.5532 5.75453 58.3014 6.57518 58.9893 7.43203C59.2186 7.70961 59.4479 7.81822 59.7979 7.83029C64.5166 7.9027 69.2474 7.99925 73.9661 8.08372C75.1368 8.10786 76.3074 8.05959 77.4539 8.18027C78.6607 8.31302 79.6262 8.95265 80.2296 10.0388C80.4106 10.3646 80.6037 10.7267 80.6641 11.0887C80.7727 11.837 81.2434 12.1266 81.883 12.368C83.6329 13.0197 85.1173 14.0576 86.0828 15.6747C87.6396 18.2935 87.4344 21.7572 85.069 24.0743C84.0191 25.1001 82.8364 25.8966 81.5209 26.5121C80.9658 26.7655 80.6158 27.1517 80.3986 27.731C79.7469 29.4206 78.6004 30.4946 76.7057 30.6515C75.535 30.7481 74.3523 30.6395 73.1817 30.8688ZM18.7896 30.2654C21.5292 30.2654 24.2566 30.2895 26.9961 30.2412C27.7444 30.2291 28.2271 30.4705 28.6495 31.0498C29.8684 32.7032 31.3528 34.0669 33.0665 35.2013C35.9629 37.1202 39.1248 38.1943 42.6126 38.3873C45.5935 38.5563 48.4537 38.0736 51.1932 36.9029C54.1137 35.6478 56.6239 33.8376 58.5428 31.2429C58.929 30.7239 59.4117 30.4584 60.16 30.4464C65.5062 30.3981 70.8525 30.2654 76.1988 30.205C78.2021 30.1809 79.4572 29.2033 80.0969 27.2724C80.2537 26.7897 80.5434 26.4759 80.9779 26.2707C81.7261 25.9207 82.4502 25.5466 83.1381 25.076C85.2138 23.676 86.6138 21.902 86.6017 19.2469C86.5896 17.3281 85.9138 15.6747 84.5501 14.4075C83.5967 13.5266 82.3898 12.8749 81.0865 12.5369C80.652 12.4283 80.4106 12.1025 80.3503 11.7042C80.2537 11.0284 79.9762 10.4371 79.6262 9.88191C79.1193 9.07333 78.2866 8.66301 77.4177 8.63887C71.5283 8.48198 65.639 8.38543 59.7496 8.28889C59.2669 8.27682 59.0014 8.21648 58.6514 7.74581C56.5032 4.84941 53.631 2.85813 50.276 1.60302C47.4761 0.553076 44.5797 0.263435 41.623 0.565144C39.161 0.818579 36.8318 1.55475 34.6475 2.72538C32.2579 4.01669 30.2304 5.74247 28.5771 7.89063C28.2874 8.27682 27.9978 8.3975 27.503 8.3975C21.9636 8.48198 16.4122 8.44578 10.8728 8.54232C8.99015 8.57853 7.46954 9.77329 7.02301 11.3542C6.86612 11.9215 6.50407 12.2956 5.93686 12.549C4.23522 13.3093 2.70254 14.311 1.58018 15.8557C-0.0249058 18.0642 0.180256 21.733 2.03878 23.7364C3.1008 24.8949 4.42832 25.607 5.87652 26.138C6.38339 26.319 6.66096 26.6328 6.73337 27.1759C6.99887 29.0947 8.76085 30.0843 10.1728 30.1688C13.0451 30.3619 15.9174 30.3016 18.7896 30.2654Z" fill="white"/>
<path d="M18.7896 30.2652C15.9173 30.3015 13.033 30.3618 10.1607 30.1928C8.74871 30.1084 6.98673 29.1187 6.72122 27.1999C6.64881 26.6568 6.37124 26.343 5.86437 26.162C4.41617 25.631 3.08865 24.919 2.02663 23.7604C0.168109 21.745 -0.0370528 18.0883 1.56804 15.8798C2.69039 14.335 4.22307 13.3334 5.92471 12.573C6.47986 12.3196 6.85397 11.9455 7.01086 11.3783C7.45739 9.78526 8.978 8.59049 10.8607 8.56635C16.4 8.46981 21.9515 8.51808 27.4909 8.42153C27.9857 8.40946 28.2632 8.30085 28.5649 7.91466C30.2183 5.7665 32.2458 4.04072 34.6353 2.74941C36.8197 1.57878 39.1489 0.84261 41.6108 0.589175C44.5676 0.287466 47.476 0.589175 50.2638 1.62705C53.6309 2.88216 56.4911 4.87344 58.6393 7.76984C58.9892 8.22844 59.2547 8.30085 59.7375 8.31292C65.6268 8.40947 71.5162 8.50601 77.4055 8.6629C78.2745 8.68704 79.1072 9.09736 79.6141 9.90594C79.964 10.4611 80.2416 11.0524 80.3382 11.7283C80.3985 12.1265 80.6399 12.4403 81.0743 12.561C82.3777 12.8989 83.5845 13.5506 84.5379 14.4316C85.9017 15.6867 86.5775 17.3521 86.5896 19.271C86.6016 21.926 85.2017 23.7121 83.1259 25.1C82.438 25.5586 81.714 25.9448 80.9657 26.2948C80.5312 26.4999 80.2416 26.8137 80.0847 27.2964C79.4451 29.2274 78.1779 30.2049 76.1866 30.229C70.8404 30.2894 65.4941 30.4221 60.1478 30.4704C59.3996 30.4704 58.9168 30.7359 58.5306 31.2669C56.6238 33.8616 54.1136 35.6598 51.181 36.927C48.4415 38.1097 45.5813 38.5803 42.6004 38.4114C39.1247 38.2183 35.9508 37.1442 33.0544 35.2253C31.3527 34.0909 29.8562 32.7272 28.6373 31.0738C28.215 30.4945 27.7322 30.2532 26.984 30.2652C24.2565 30.3015 21.5291 30.2652 18.7896 30.2652ZM38.992 16.5435C39.354 17.4969 39.3661 18.39 39.5471 19.2468C40.1023 21.9502 40.5488 24.6655 41.0436 27.3809C41.0798 27.5861 41.0677 27.755 41.3815 27.7309C42.0574 27.6947 42.7452 27.7068 43.4331 27.7068C43.6624 27.7068 43.8797 27.7068 43.94 27.4171C44.2779 26.0293 44.8331 24.7017 45.2313 23.3259C45.8468 21.1898 46.6433 19.1141 47.2347 16.978C47.2829 16.797 47.3312 16.628 47.4881 16.5435C47.4036 18.5831 47.3191 20.6226 47.2467 22.6743C47.1864 24.219 47.1381 25.7637 47.0778 27.3206C47.0657 27.6585 47.0899 27.7792 47.5122 27.7309C48.1881 27.6585 48.876 27.6826 49.5639 27.7188C50.0345 27.743 50.1793 27.5861 50.1914 27.1154C50.2397 25.2689 50.3362 23.4225 50.4207 21.576C50.5655 18.3055 50.7224 15.035 50.8793 11.7524C50.9034 11.3662 50.8069 11.2214 50.3966 11.2335C49.1535 11.2576 47.8984 11.2576 46.6554 11.2335C46.2933 11.2335 46.1485 11.3421 46.0278 11.6921C44.9779 14.7333 43.9038 17.7504 42.8418 20.7795C42.7935 20.9243 42.8056 21.1416 42.5642 21.1657C42.0453 18.0279 41.5384 14.8902 41.0315 11.7524C40.9712 11.3662 40.8264 11.2093 40.4161 11.2214C39.2937 11.2455 38.1593 11.2335 37.0369 11.2335C36.7352 11.2335 36.3611 11.149 36.1559 11.2938C36.0111 11.4024 36.1197 11.8248 36.0956 12.1144C35.7939 16.266 35.4922 20.4175 35.1905 24.569C35.118 25.631 35.0577 26.6809 34.9974 27.7068C35.9146 27.7068 36.7714 27.6947 37.6283 27.7188C37.9662 27.7309 38.0869 27.6102 38.111 27.2844C38.2075 25.9448 38.3282 24.6052 38.4368 23.2535C38.6179 21.0692 38.7989 18.8727 38.992 16.5435ZM65.0234 19.0537C64.9872 17.2797 64.8183 15.6384 64.1062 14.1178C63.2494 12.2955 61.8736 11.1369 59.8099 10.9921C57.7341 10.8473 56.0808 11.6317 54.886 13.3816C53.7516 15.0471 53.3413 16.9418 53.1723 18.8969C53.0033 20.9847 53.1602 23.0363 54.0895 24.9552C54.9826 26.8016 56.4428 27.8998 58.4944 28.0085C60.4978 28.105 62.1029 27.3085 63.2373 25.5948C64.6131 23.5552 64.9389 21.2743 65.0234 19.0537ZM11.2227 27.7068C12.0192 27.7068 12.7795 27.6947 13.5398 27.7068C13.9502 27.7188 14.1915 27.574 14.3364 27.1516C14.6381 26.2223 15.0122 25.3052 15.326 24.3759C15.4346 24.0621 15.5794 23.9897 15.8811 23.9897C17.0517 24.0018 18.2103 24.0018 19.3809 23.9897C19.6826 23.9897 19.7912 24.0742 19.8516 24.3759C20.0688 25.3534 20.3223 26.331 20.5636 27.3085C20.6119 27.4895 20.5998 27.7188 20.9015 27.7188C21.686 27.7068 22.4704 27.7188 23.2549 27.7068C23.5204 27.7068 23.6773 27.6102 23.5807 27.2602C23.4359 26.7413 23.3393 26.1982 23.2307 25.6672C22.2532 21.033 21.2998 16.3866 20.4309 11.7283C20.3705 11.4024 20.2378 11.2455 19.8757 11.2576C19.1758 11.2817 18.4637 11.2697 17.7638 11.2697C16.6897 11.2697 16.6897 11.2697 16.3638 12.3196C14.7708 17.4607 12.9968 22.5536 11.2227 27.7068ZM70.0559 27.8636C71.7455 27.7912 72.6506 27.5016 73.7247 26.5965C75.4625 25.1603 75.7884 23.2415 75.4505 21.1416C75.2091 19.5968 74.2798 18.5469 72.8799 17.8831C72.3489 17.6297 71.8179 17.4245 71.2869 17.1711C70.7318 16.9056 70.2611 16.5315 70.3456 15.8556C70.4421 15.0471 70.6593 14.2626 71.5283 13.9006C71.6369 13.8523 71.7576 13.8282 71.8782 13.8402C72.8316 13.9126 73.8213 13.8644 74.6902 14.3471C74.9195 14.4798 74.9919 14.4316 75.0401 14.1661C75.1608 13.4782 75.2936 12.7782 75.4505 12.1024C75.5229 11.7765 75.4263 11.6076 75.1126 11.5231C74.5695 11.3903 74.0264 11.2455 73.4833 11.1128C71.5886 10.6421 69.8749 11.0042 68.6439 12.5248C67.7267 13.6592 67.3164 15.0833 67.3405 16.5677C67.3526 17.6538 67.7991 18.5469 68.5594 19.3072C69.0905 19.8261 69.6577 20.3089 70.2852 20.7192C70.8766 21.1054 71.4679 21.4674 71.9869 21.9381C72.5903 22.4812 72.6989 23.1449 72.3368 24.0259C72.011 24.8224 71.4679 25.1483 70.6593 25.1C69.5853 25.0396 68.6198 24.6535 67.7267 24.1104C67.3526 23.8811 67.2681 24.038 67.2319 24.3397C67.1233 25.1362 67.0268 25.9327 66.9182 26.7292C66.9061 26.874 66.894 26.9947 67.0871 27.0551C68.0526 27.405 68.9698 27.9602 70.0559 27.8636ZM29.1201 11.2576C27.7564 11.2576 26.3806 11.2576 25.0168 11.2697C24.8841 11.2697 24.6307 11.1007 24.6427 11.499C24.6669 12.3196 24.6669 13.1523 24.5944 13.9609C24.5462 14.4557 24.7151 14.5402 25.1496 14.516C25.753 14.4798 26.3564 14.5281 26.9598 14.4919C27.346 14.4678 27.4909 14.5885 27.4546 14.9988C27.3702 16.3384 27.3098 17.69 27.2495 19.0296C27.1167 21.7812 26.984 24.5328 26.8392 27.2844C26.815 27.6464 26.9236 27.7309 27.2616 27.7188C27.9494 27.6947 28.6253 27.6947 29.3132 27.7188C29.7597 27.743 29.9045 27.5499 29.9287 27.1154C30.0131 25.4138 30.1218 23.7001 30.2304 21.9984C30.3752 19.6934 30.5321 17.3883 30.6528 15.0833C30.6769 14.6005 30.8459 14.4678 31.3045 14.4919C31.9079 14.5281 32.5113 14.4919 33.1147 14.516C33.4647 14.5281 33.5612 14.3833 33.5733 14.0575C33.5854 13.2971 33.6216 12.5248 33.6819 11.7645C33.7181 11.3541 33.5733 11.2455 33.175 11.2576C31.8234 11.2697 30.4717 11.2576 29.1201 11.2576ZM43.3969 8.46981C43.3969 8.45774 43.3969 8.45774 43.3969 8.44567C47.6933 8.44567 52.0017 8.44567 56.298 8.44567C56.4911 8.44567 56.6963 8.45774 56.8894 8.42153C57.3238 8.36119 57.4445 8.09569 57.1549 7.78191C56.6842 7.26297 56.2135 6.74403 55.6946 6.27337C54.2584 4.94585 52.6413 3.87177 50.8431 3.08732C48.1036 1.89256 45.2434 1.40982 42.2625 1.61498C39.1851 1.82015 36.3852 2.77355 33.7785 4.41484C32.2941 5.35617 31.0752 6.61128 29.7838 7.78191C29.5545 7.98707 29.6873 8.08362 29.6873 8.22844C29.6752 8.51808 29.8925 8.46981 30.0614 8.46981C34.5146 8.46981 38.9558 8.46981 43.3969 8.46981ZM43.4452 30.2652C39.1006 30.2652 34.7681 30.2652 30.4235 30.2652C30.2666 30.2652 30.0976 30.2532 29.9407 30.2773C29.7476 30.3014 29.639 30.4221 29.5545 30.6032C29.4097 30.8807 29.7235 30.7963 29.7838 30.9049C29.8562 31.0255 29.9769 31.11 30.0614 31.2186C31.232 32.5582 32.5958 33.6806 34.1164 34.5857C37.5438 36.6132 41.2488 37.4218 45.2072 37.0477C48.0795 36.7701 50.7104 35.8288 53.1482 34.2961C54.6326 33.3547 55.8394 32.0996 57.1307 30.929C57.2755 30.7963 57.2273 30.6514 57.1428 30.4945C56.9859 30.1808 56.7083 30.2652 56.4549 30.2652C52.1224 30.2652 47.7777 30.2652 43.4452 30.2652ZM82.7398 19.1986C82.7277 17.9917 81.6536 16.9539 80.4347 16.978C79.2761 17.0021 78.1779 18.1003 78.19 19.2348C78.2021 20.3571 79.3968 21.5519 80.5071 21.5278C81.6777 21.4916 82.7518 20.3813 82.7398 19.1986ZM8.92973 19.3796C8.95387 18.1607 7.74703 17.0987 6.66088 17.1107C5.52646 17.1349 4.37996 18.2331 4.34376 19.3434C4.30755 20.4295 5.5868 21.6846 6.70915 21.6605C7.84358 21.6364 8.9418 20.514 8.92973 19.3796Z" fill="white"/>
<path d="M56.3707 19.9951C56.431 18.2331 56.6362 16.5194 57.5655 14.9625C57.7465 14.6608 57.9999 14.4315 58.2654 14.2264C59.1223 13.5747 60.2929 13.8764 60.8239 14.9746C62.26 17.9314 62.0911 20.8881 60.5946 23.7604C60.0033 24.8948 58.9171 25.3413 58.0723 24.9069C57.312 24.5207 56.9862 23.7604 56.7569 22.9759C56.4793 22.0105 56.3586 21.0088 56.3707 19.9951Z" fill="white"/>
<path d="M18.9947 20.4897C19.043 20.7673 18.9102 20.8518 18.6568 20.8397C17.993 20.8276 17.3293 20.8276 16.6655 20.8397C16.3517 20.8397 16.3517 20.7069 16.4241 20.4656C16.8707 18.9812 17.2931 17.4968 17.7396 16.0244C17.7879 15.8796 17.7637 15.602 18.0172 15.6382C18.2103 15.6624 18.1741 15.8917 18.1982 16.0365C18.4758 17.533 18.7292 19.0053 18.9947 20.4897Z" fill="white"/>
</svg>
