<svg width="97" height="22" viewBox="0 0 97 22" fill="none" xmlns="http://www.w3.org/2000/svg">
<path d="M56.8147 20.6544C56.1664 20.6295 55.5306 20.6295 54.8823 20.6295C54.8823 19.6695 54.8823 19.6695 55.8049 19.657C55.8922 19.657 55.967 19.657 56.0542 19.657C56.1914 19.657 56.3036 19.6071 56.3036 19.4575C56.316 19.2705 56.1914 19.2082 56.0293 19.2082C55.7799 19.2082 55.5306 19.1957 55.2813 19.2082C54.9945 19.2207 54.8698 19.1334 54.8698 18.8217C54.8698 18.51 54.9446 18.3604 55.2813 18.3853C55.7425 18.4103 56.1914 18.4103 56.6527 18.3853C56.8646 18.3729 57.2386 18.5599 57.2262 18.1484C57.2137 17.7869 56.8771 17.9739 56.6901 17.949C56.4657 17.924 56.2288 17.924 56.0044 17.949C55.4683 17.9864 54.795 17.7121 54.4584 18.0736C54.1467 18.3978 54.3711 19.0586 54.3711 19.5822C54.3587 21.0908 54.3711 21.1033 55.8797 21.0783C56.3285 21.0658 56.8147 21.2653 57.2262 20.9412C57.276 20.5297 56.9893 20.6669 56.8147 20.6544Z" fill="white"/>
<path d="M34.7098 18.4479C34.7098 18.2734 34.8345 17.9991 34.5228 17.9368C34.261 17.8869 34.1613 18.0988 34.0491 18.2734C33.675 18.8219 33.3135 19.358 32.9145 19.9565C32.4532 19.3082 32.0293 18.7347 31.6054 18.1487C31.5057 18.0116 31.381 17.8869 31.194 17.9368C30.9945 17.9866 31.0568 18.1736 31.0568 18.2983C31.0568 19.0838 31.0568 19.8692 31.0568 20.6671C31.0568 20.8417 30.9945 21.0786 31.3186 21.0287C31.5181 20.9788 31.4558 20.8043 31.4558 20.6796C31.4558 20.0562 31.4433 19.4204 31.4433 18.797C31.8423 18.8593 31.9046 19.2334 32.0916 19.4952C32.927 20.6547 32.902 20.6422 33.7 19.4952C33.8745 19.2458 33.9244 18.8469 34.3233 18.797C34.3607 19.5451 34.1488 20.2931 34.4356 21.0287C34.7971 21.0786 34.7098 20.8043 34.7098 20.6173C34.7223 19.8941 34.7223 19.171 34.7098 18.4479Z" fill="white"/>
<path d="M71.3891 19.2457C71.1148 19.2457 70.853 19.2457 70.5787 19.2457C69.6935 19.2457 69.6935 19.2457 69.7309 18.3355C70.3917 18.3231 71.04 18.3231 71.7008 18.3106C71.9252 18.3729 71.6883 18.7719 72.0125 18.747C72.0748 18.747 72.187 18.6721 72.1995 18.6098C72.2618 18.3729 72.2369 18.161 71.9751 18.0488C71.9501 18.0238 71.9252 18.0114 71.8878 18.0238C71.2395 17.7994 70.5787 17.949 69.9304 17.9366C69.3195 17.9241 69.2572 18.348 69.2572 18.8218C69.2572 19.2955 69.332 19.707 69.9554 19.682C70.3418 19.6695 70.7408 19.7194 71.1273 19.6695C71.7507 19.5823 71.9501 19.8316 71.8504 20.4176C71.8379 20.4799 71.8504 20.5423 71.8504 20.6046C71.1023 20.6669 70.3668 20.6545 69.6187 20.6171C69.5938 20.4675 69.706 20.268 69.5065 20.1682C69.3943 20.1184 69.2447 20.1558 69.1699 20.268C69.0577 20.4301 69.1699 20.5921 69.2322 20.7418C69.332 21.0036 69.5564 21.041 69.7933 21.041C70.292 21.041 70.7907 21.0534 71.2894 21.041C72.187 21.041 72.2618 20.9662 72.2494 20.0934C72.2369 19.3329 72.1746 19.2581 71.3891 19.2457Z" fill="white"/>
<path d="M95.5388 20.106C95.5388 19.707 95.5762 19.2706 94.9902 19.2582C94.5788 19.2457 94.1549 19.2457 93.7435 19.2457C92.8708 19.2457 92.8334 19.1958 93.0328 18.3231C93.6936 18.3231 94.3544 18.3231 95.0152 18.3231C95.1773 18.4228 95.0027 18.7345 95.2645 18.747C95.3767 18.747 95.5139 18.6846 95.5014 18.5226C95.4889 18.3106 95.4141 18.0987 95.2022 18.0239C95.0526 17.9615 94.878 17.9366 94.716 17.9366C94.2796 17.9241 93.8432 17.9241 93.4069 17.9366C92.6588 17.9491 92.5092 18.0987 92.5092 18.8592C92.5217 19.5574 92.6588 19.6821 93.4193 19.6945C93.6936 19.6945 93.9554 19.6945 94.2297 19.6945C95.1897 19.6945 95.1897 19.6945 95.0152 20.667C94.3045 20.667 93.6063 20.6545 92.8957 20.6545C92.8209 20.5049 92.983 20.2431 92.7087 20.1932C92.6214 20.1808 92.4718 20.2306 92.4469 20.293C92.3471 20.4924 92.4219 20.7044 92.5466 20.8789C92.6339 21.0036 92.7835 21.0535 92.9331 21.0535C93.6188 21.0535 94.3045 21.0784 94.9902 21.0535C95.6136 21.0161 95.5388 20.5174 95.5388 20.106Z" fill="white"/>
<path d="M12.0063 16.3533C12.0063 15.6676 12.0063 14.9694 12.0063 14.2837C12.1934 14.9694 12.2058 15.6676 12.0063 16.3533Z" fill="white"/>
<path d="M18.3026 19.9188C17.9784 19.8814 18.0906 20.1432 18.0657 20.3053C18.0407 20.43 18.0033 20.5422 17.9784 20.6669C17.3176 20.6669 16.6569 20.6544 15.9961 20.6544C15.9961 19.8939 15.9961 19.1209 15.9961 18.3604C16.6569 18.3604 17.3176 18.3479 17.9784 18.3479C18.0033 18.4102 18.0283 18.4601 18.0532 18.5225C18.1405 18.697 17.9161 19.071 18.2776 19.0336C18.6766 18.9838 18.4896 18.6097 18.4771 18.3604C18.4522 18.0487 18.1904 17.9614 17.9285 17.9614C17.3052 17.949 16.6818 17.9365 16.0584 17.9614C15.6719 17.9739 15.46 18.1983 15.4724 18.6097C15.4849 19.2082 15.4849 19.8066 15.4724 20.4175C15.4724 20.8539 15.6844 21.0783 16.1083 21.0783C16.6943 21.0783 17.2678 21.0783 17.8537 21.0783C18.3275 21.0783 18.5394 20.8414 18.502 20.3801C18.4896 20.1806 18.5893 19.9438 18.3026 19.9188Z" fill="white"/>
<path d="M5.51074 21.303C5.88477 21.091 6.25879 21.0785 6.63282 21.3154C6.25879 21.4027 5.88477 21.3902 5.51074 21.303Z" fill="white"/>
<path d="M64.4947 19.52C64.3575 19.2457 64.0957 19.2581 63.8464 19.2581C63.3851 19.2581 62.9362 19.2457 62.4749 19.2581C62.1258 19.2706 62.0012 19.1459 62.0012 18.7968C62.0012 18.4353 62.1258 18.3231 62.4749 18.3355C62.8864 18.3605 63.2978 18.3355 63.7217 18.348C63.8962 18.348 64.1206 18.2981 64.1206 18.5974C64.1206 18.7594 64.2079 18.8218 64.3575 18.7594C64.5071 18.7096 64.6069 18.6098 64.557 18.4353C64.4697 18.0987 64.2453 17.949 63.9212 17.949C63.3601 17.9366 62.7991 17.9366 62.238 17.949C61.6271 17.949 61.5648 18.3605 61.5648 18.8467C61.5648 19.3329 61.6521 19.7194 62.263 19.707C62.8614 19.6945 63.4599 19.6945 64.0583 19.6945C64.1456 20.0187 64.1331 20.3428 64.0583 20.6794C63.3601 20.6919 62.6619 20.6919 61.9513 20.7044C61.9139 20.6545 61.8765 20.6171 61.8391 20.5672C61.7767 20.455 61.9139 20.2555 61.7019 20.2181C61.6396 20.2057 61.5523 20.2805 61.5025 20.3303C61.4027 20.455 61.4152 20.5922 61.5149 20.7168C61.5773 20.7916 61.6521 20.8665 61.7144 20.9413C62.5747 21.1657 63.4225 21.1657 64.2827 20.9413C64.3326 20.8914 64.3825 20.8415 64.4323 20.7792C64.6942 20.3428 64.6817 19.9314 64.4947 19.52Z" fill="white"/>
<path d="M93.3071 2.78849C93.2323 2.78849 92.5341 2.72615 92.2723 2.72615C88.7814 2.71368 85.303 2.71368 81.8121 2.72615C81.3134 2.72615 80.8147 2.77602 80.3284 2.83835C78.8199 3.03783 78.0469 3.77342 77.9347 5.30693C77.7227 7.8877 77.8474 10.4934 77.8723 13.0742C77.8848 14.1339 78.184 15.1438 79.331 15.6051C80.0915 15.9043 80.877 16.0165 81.6874 15.9417H92.2723C92.8583 16.0041 93.4193 15.9168 93.9804 15.7796C95.1897 15.4929 95.8006 14.7698 95.9004 13.5729C95.9378 13.548 95.9752 13.548 96.0126 13.548C96.0126 11.7651 96.0126 9.96978 96.0126 8.18692C95.9752 8.18692 95.9378 8.19939 95.9004 8.19939C95.9004 8.18692 95.9004 8.17446 95.9004 8.16199C95.6136 7.93757 95.2645 7.98744 94.9404 7.98744C92.397 7.98744 89.8411 7.98744 87.2978 7.98744C87.0734 7.98744 86.8365 7.98744 86.6121 8.02485C86.425 8.06225 86.2131 8.12459 86.1882 8.33654C86.0884 9.07212 85.9263 9.82017 86.2505 10.5433C86.2879 10.6306 86.3752 10.6929 86.4624 10.6929C86.7243 10.7054 87.2354 10.7303 87.3975 10.7303C88.956 10.7552 90.5269 10.6804 92.0978 10.7677C92.1601 10.7926 92.21 10.83 92.2598 10.8799C92.4095 11.628 92.4344 12.3635 92.2474 13.1116C92.1975 13.149 92.1476 13.1864 92.0853 13.2238C91.9856 13.2487 91.8858 13.2612 91.7861 13.2612C88.6193 13.2612 85.4526 13.2612 82.2858 13.2612C82.1237 13.2612 81.9492 13.2737 81.7996 13.1989C81.6999 13.1615 81.6126 13.1116 81.5378 13.0368C81.5128 12.9869 81.4879 12.9246 81.4879 12.8622C81.4879 10.643 81.4879 8.42381 81.4879 6.20459C81.4879 6.01757 81.463 5.81809 81.6624 5.70589C81.9617 5.63108 82.2734 5.64355 82.585 5.64355C85.4526 5.64355 88.3076 5.64355 91.1752 5.64355C91.4869 5.64355 91.7985 5.61861 92.1102 5.68095C92.4219 5.79316 92.3471 6.06744 92.3471 6.29186C92.3471 6.429 92.3845 6.80303 92.3721 6.8529C92.3596 7.11472 94.8905 6.8903 95.7383 6.75316C95.8879 6.72822 96.0126 6.59108 96.0126 6.44147C96.0126 6.15472 96.0126 5.8555 96.0126 5.56874C96.0126 5.29446 95.9627 5.03264 95.8754 4.78329C95.3767 3.38693 94.7284 2.86329 93.3071 2.78849Z" fill="white"/>
<path d="M10.6348 11.3912C10.373 11.067 10.4727 10.9548 10.6847 10.693C11.7569 9.40884 12.4177 7.9252 12.2556 6.24209C12.0062 3.67377 10.6847 1.82858 8.22857 0.85611C7.84208 0.7065 7.41818 0.75637 7.03169 0.619227C6.93195 0.581824 6.81974 0.556889 6.70753 0.556889C6.2587 0.507019 5.80987 0.507019 5.36104 0.594292C5.13662 0.60676 5.04935 0.681565 4.89974 0.7065C2.53091 1.1304 1.10961 2.6265 0.324156 4.80832C0.249351 5.0078 0.19948 5.16988 0.124675 5.39429C0.0872727 5.49403 0.0623377 5.60624 0.0498701 5.71845L0.0374026 5.75585C0.0124675 5.90546 0 6.06754 0 6.21715C0 6.55378 0.0124675 6.97767 0.0249351 7.22702C0.0249351 7.40157 0.0498701 7.57611 0.0748052 7.75066C0.261818 8.8478 0.660779 9.8452 1.4587 10.6681C1.69558 10.9049 1.58338 11.1169 1.4213 11.3288C0.673247 12.239 0.162078 13.2488 0.0249351 14.4333C0.0249351 14.4707 0.0249351 14.5205 0.0249351 14.5579C0.0124675 14.72 0.0748052 15.7423 0.0748052 15.9792C0.0748052 16.0665 0.0872727 16.1538 0.0872727 16.2286C0.14961 16.4281 0.211948 16.6774 0.274286 16.9018C0.897662 19.3829 3.3413 21.2779 5.51065 21.2904C5.88467 21.2405 6.2587 21.2281 6.63273 21.3029C8.77714 21.2655 11.6571 19.1834 12.0062 16.3533C12.081 15.6675 12.081 14.9694 12.0062 14.2836C11.8442 13.174 11.3205 12.239 10.6348 11.3912ZM11.5325 8.79793C11.1834 9.62079 10.6847 10.3439 10.0114 10.9548C9.78701 11.1543 9.61247 11.1792 9.37558 10.9798C9.07636 10.7179 8.78961 10.4561 8.57766 10.1195C8.1413 9.43377 7.94182 8.72313 8.34078 7.95014C8.75221 7.17715 9.48779 7.00261 10.1486 6.9652C11.8192 6.97767 12.1184 7.41403 11.5325 8.79793ZM3.98961 11.5533C4.06441 10.8426 4.3387 10.2068 4.84987 9.69559C5.53558 9.00988 6.52052 8.96001 7.26857 9.57092C7.92935 10.1195 8.20363 10.8675 8.34078 11.6779C8.36571 11.84 8.32831 11.9772 8.16623 12.027C7.96675 12.0894 7.92935 11.9148 7.89195 11.7777C7.70493 11.1668 7.49299 10.5559 7.06909 10.0572C6.42078 9.25923 5.76 9.2717 5.12416 10.0696C4.7626 10.5309 4.55065 11.067 4.36364 11.6156C4.31377 11.7527 4.32623 12.0021 4.11429 11.9772C3.90234 11.9522 4.00208 11.7153 3.98961 11.5533ZM4.3761 6.60364C4.3761 5.56884 5.13662 4.79585 6.1839 4.79585C7.20623 4.79585 8.00415 5.56884 8.00415 6.59118C8.00415 7.58858 7.19377 8.41144 6.19636 8.41144C5.17403 8.4239 4.3761 7.61351 4.3761 6.60364ZM9.12623 2.52676C9.66234 1.96572 9.82441 1.96572 10.3481 2.5517C11.0338 3.31221 11.52 4.16001 11.7943 5.16988C11.9439 5.75585 11.8192 6.03014 11.2582 6.12988C10.934 6.19222 10.6099 6.25455 10.4229 6.29196C8.56519 6.30442 7.69247 4.88312 8.50286 3.36208C8.65247 3.0504 8.87688 2.77611 9.12623 2.52676ZM4.78753 0.968318C4.94961 0.930916 5.11169 0.893513 5.2613 0.85611C5.3361 0.831175 5.42338 0.818707 5.51065 0.80624C5.94701 0.75637 6.38338 0.75637 6.81974 0.793772C6.95688 0.80624 7.08156 0.843643 7.20623 0.881046C7.41818 0.955851 7.61766 1.03066 7.82961 1.05559C8.40312 1.1304 8.44052 1.45455 8.32831 1.92832C8.02909 3.17507 7.2187 4.02286 6.27117 4.0478C5.31117 4.07273 4.42597 3.22494 4.11429 1.97819C3.92727 1.18027 3.95221 1.14286 4.78753 0.968318ZM0.461299 5.23222C0.822857 4.11014 1.33403 3.07533 2.26909 2.30234C2.54338 2.07793 2.75532 2.04053 3.02961 2.25247C3.54078 2.6639 3.93974 3.17507 4.12675 3.79845C4.52571 5.14494 3.65299 6.19222 2.10701 6.19222C1.65818 6.21715 1.24675 6.09248 0.835325 5.98027C0.411428 5.85559 0.349091 5.59377 0.461299 5.23222ZM1.48364 10.0821C0.91013 9.44624 0.748052 8.63585 0.448831 7.87533C0.324156 7.57611 0.411429 7.27689 0.81039 7.15222C1.23429 7.01507 1.64571 6.91533 2.09455 6.91533C2.85506 6.9278 3.55325 7.08988 3.95221 7.82546C4.35117 8.54858 4.25143 9.3091 3.79013 9.94494C2.73039 11.4535 2.65558 11.3787 1.48364 10.0821ZM0.585974 13.7101C0.835325 12.9496 1.19688 12.239 1.69558 11.6031C1.96987 11.2416 2.23169 11.1792 2.61818 11.5034C2.94234 11.7777 3.35377 11.9772 3.74026 12.1642C3.96467 12.2764 4.22649 12.3262 4.12675 12.6753C4.03948 12.9496 4.07688 13.2613 3.62805 13.3361C2.54338 13.4982 1.50857 13.8223 0.635844 14.533C0.598441 14.5704 0.536104 14.5579 0.511169 14.5081C0.336623 14.2462 0.511169 13.9221 0.585974 13.7101ZM0.523636 16.079C1.3839 16.8146 2.39377 17.1636 3.46597 17.3257C3.92727 17.4005 4.06442 17.6249 4.13922 18.0488C4.31377 19.0836 4.63792 20.0686 5.39844 20.9413C3.07948 21.0785 0.374026 18.373 0.523636 16.079ZM6.10909 17.1636C5.11169 17.1636 4.28883 16.3657 4.27636 15.3559C4.2639 14.346 5.07429 13.5481 6.09662 13.5481C7.1439 13.5481 7.90441 14.2961 7.90441 15.3434C7.90441 16.3657 7.13143 17.1636 6.10909 17.1636ZM6.85714 20.9538C7.63013 20.0062 7.96675 18.9091 8.15376 17.7621C8.19117 17.5501 8.29091 17.4504 8.50286 17.4005C9.64987 17.1886 10.7595 16.8769 11.7444 16.0665C11.4826 18.6224 9.08883 20.879 6.85714 20.9538ZM8.59013 13.3236C8.24104 13.2613 8.1787 13.0618 8.12883 12.7751C8.06649 12.4634 8.19117 12.3138 8.46545 12.2265C8.91428 12.0769 9.33818 11.84 9.71221 11.5408C10.0364 11.279 10.2358 11.3164 10.4727 11.6281C11.1335 12.4883 11.6322 13.4109 11.7693 14.6577C10.7595 13.8099 9.69974 13.4982 8.59013 13.3236Z" fill="white"/>
<path d="M32.7397 7.7629C33.9865 6.92758 34.3106 6.39147 34.3356 5.10732C34.348 4.60862 34.3356 4.10992 34.3356 3.61121C34.3231 1.24238 33.226 0.132773 30.8322 0.0704356C25.6956 -0.0667073 20.5465 0.0455005 15.3974 0.0080979C15.2602 0.0080979 15.0857 -0.0293049 15.1106 0.207578C15.0982 2.55147 15.0857 4.8829 15.0857 7.2268C15.0857 10.0819 15.0982 12.9369 15.1106 15.792C15.1356 16.0289 15.3226 15.9541 15.4348 15.9541C20.0602 15.9541 24.6857 15.9416 29.3111 15.9416C30.3335 16.0039 31.3309 15.8543 32.2909 15.5177C33.7371 15.0065 34.4228 13.9967 34.4228 12.4382C34.4228 12.0393 34.4104 11.6528 34.4228 11.2538C34.5101 9.79511 34.161 8.52342 32.7397 7.7629ZM18.988 2.8881C19.0753 2.70108 19.2374 2.77589 19.3745 2.77589C22.5662 2.77589 25.7579 2.81329 28.9496 2.77589C29.6104 2.76342 30.4956 3.07511 30.3709 4.29693C30.346 4.52134 30.3709 4.75823 30.3709 4.98264C30.3834 6.04238 30.2587 6.19199 29.2239 6.20446C25.9449 6.2294 22.6784 6.21693 19.3995 6.2294C19.0753 6.2294 18.9631 6.15459 18.9756 5.81797C19.0005 4.83303 18.988 3.86056 18.988 2.8881ZM30.5454 11.7774C30.5205 12.7499 30.2587 13.0242 29.2737 13.0491C28.3137 13.0741 21.7932 13.0491 19.4867 13.0741C19.0878 13.0741 18.9506 12.9868 18.9631 12.5629C19.0005 11.5655 18.988 10.5681 18.9631 9.57069C18.9506 9.17173 19.0504 9.04706 19.4743 9.04706C21.1324 9.07199 22.8031 9.05953 24.4613 9.05953C26.0447 9.05953 27.6156 9.04706 29.1989 9.05953C30.2587 9.07199 30.533 9.35875 30.5454 10.3936C30.5579 10.8549 30.5579 11.3161 30.5454 11.7774Z" fill="white"/>
<path d="M75.8401 15.63C74.0573 14.2835 72.2619 12.9495 70.4791 11.5905C70.2921 11.4534 70.0178 11.3786 69.9679 11.0918C70.3793 11.0793 70.7908 11.0669 71.2022 11.0544C72.8729 11.0419 73.8703 10.269 74.0199 8.72298C74.1445 7.4887 74.157 6.24194 74.0074 5.00766C73.8453 3.6487 72.9851 2.91311 71.5887 2.82584C71.2895 2.70116 70.9778 2.71363 70.6661 2.71363C66.664 2.71363 62.6619 2.71363 58.6723 2.71363C58.5227 2.71363 58.3357 2.61389 58.236 2.82584C58.2235 2.95051 58.1861 3.06272 58.1861 3.1874C58.1861 7.31415 58.1861 11.4284 58.1861 15.5552C58.1861 15.6674 58.1362 15.8045 58.2484 15.9043C59.4079 16.0165 60.5674 15.9916 61.7393 15.9167C61.9388 15.7547 61.8266 15.5427 61.8266 15.3557C61.8516 13.9344 61.864 12.5256 61.8765 11.1043C62.9861 11.0918 64.0957 11.0918 65.2053 11.0793C65.5419 11.3412 65.891 11.6154 66.2277 11.8773C67.8983 13.2113 69.4942 14.6575 71.2271 15.9167C72.8853 15.9167 74.5435 15.9167 76.3388 15.9167C76.077 15.7796 75.9648 15.7048 75.8401 15.63ZM62.2256 8.54844C62.0012 8.54844 61.8141 8.54844 61.8266 8.23675C61.8516 7.27675 61.864 6.32922 61.8765 5.36922C61.9762 5.21961 62.1383 5.26948 62.2754 5.26948C64.5445 5.26948 66.8261 5.26948 69.0952 5.26948C69.2199 5.26948 69.3445 5.24454 69.4443 5.34428C70.4542 5.58117 70.4542 5.58117 70.4542 6.65337C70.4542 6.96506 70.4542 7.27675 70.4542 7.58844C70.4542 8.37389 70.3544 8.5235 69.5814 8.5235C67.1253 8.54844 64.6817 8.54844 62.2256 8.54844Z" fill="white"/>
<path d="M54.5455 13.2988C50.8925 13.3237 47.2395 13.2988 43.5865 13.3237C43.0753 13.3237 42.826 13.2614 42.8883 12.663C42.9507 12.1144 42.9382 11.5409 42.8883 10.9799C42.8509 10.5435 43.0005 10.4313 43.4369 10.4313C45.5314 10.4562 47.626 10.4313 49.7205 10.4562C50.107 10.4562 50.2317 10.3565 50.2068 9.96998C50.1694 9.40894 50.1694 8.84791 50.2068 8.28687C50.2442 7.82557 50.0571 7.75076 49.6457 7.75076C47.9875 7.7757 46.3294 7.76323 44.6587 7.75076C44.0852 7.75076 43.3122 8.00011 42.9881 7.63856C42.7013 7.32687 42.9382 6.56635 42.8883 6.01778C42.8509 5.53154 42.9881 5.3944 43.4868 5.40687C47.1148 5.4318 50.7553 5.41933 54.3834 5.41933C54.5704 5.41933 54.7948 5.53154 54.9569 5.33206C55.0317 4.50921 55.0068 3.67388 54.9694 2.83856C54.8945 2.58921 54.6826 2.72635 54.5579 2.72635C49.6083 2.71388 44.6587 2.71388 39.7091 2.72635C39.572 2.72635 39.3725 2.60167 39.2852 2.83856C39.2727 2.90089 39.2603 2.96323 39.2603 3.02557C39.2603 7.20219 39.2603 11.3788 39.2478 15.543C39.2478 15.917 39.3849 15.9669 39.7091 15.9669C44.6961 15.9544 49.6831 15.9669 54.6577 15.9544C54.8073 15.9544 55.0442 16.0791 55.119 15.7923C55.1314 15.1689 55.1065 14.5456 55.1688 13.9347C55.2312 13.4235 55.0691 13.2988 54.5455 13.2988ZM54.8821 3.0131C54.8821 3.00063 54.8821 2.9757 54.8696 2.96323C54.8696 2.96323 54.8696 2.96323 54.8821 2.96323C54.8821 2.9757 54.8821 3.00063 54.8821 3.0131Z" fill="white"/>
<path d="M87.0234 19.8566C87.198 19.8316 87.2603 19.8067 87.3102 19.8192C88.0333 19.8815 88.0333 19.4077 88.0458 18.8841C88.0458 18.348 87.9959 17.9116 87.3102 17.9241C86.6619 17.9366 86.026 17.9241 85.3777 17.9241C85.1533 17.9241 84.9663 17.9241 84.9663 18.2358C84.9788 19.0836 84.9663 19.9438 84.9663 20.7916C84.9663 20.9662 85.0411 21.0534 85.2281 21.0534C85.4027 21.0534 85.5024 20.9911 85.5024 20.8041C85.5024 20.642 85.5273 20.4675 85.5024 20.3054C85.4401 19.8566 85.6645 19.7818 86.051 19.8067C86.6619 19.8316 86.8614 20.3927 87.2479 20.7168C87.6593 21.0534 87.6344 21.0784 88.1829 20.9662C87.8089 20.6046 87.4598 20.268 87.0234 19.8566ZM86.0884 19.4451C85.6146 19.495 85.4899 19.3205 85.5024 18.8592C85.5149 18.4602 85.6146 18.2732 86.026 18.3355C86.1881 18.3605 86.3502 18.3355 86.5247 18.3355C86.7118 18.3355 86.8988 18.348 87.0858 18.3355C87.4972 18.3106 87.5595 18.5599 87.5595 18.8841C87.5595 19.2207 87.4972 19.4576 87.0858 19.4327C86.7492 19.4202 86.4125 19.4077 86.0884 19.4451Z" fill="white"/>
<path d="M48.8604 19.869C49.0224 19.8316 49.0723 19.8191 49.1346 19.8191C49.8328 19.7692 49.8702 19.682 49.8827 18.7718C49.8952 18.2108 49.7082 17.8991 49.0972 17.9116C48.4739 17.924 47.8505 17.9116 47.2271 17.9116C47.0152 17.9116 46.8032 17.8866 46.8032 18.2108C46.8157 19.0586 46.8032 19.9188 46.8032 20.7666C46.8032 20.9412 46.8656 21.0409 47.0526 21.0409C47.2396 21.0409 47.3144 20.9536 47.3144 20.7791C47.3144 20.6295 47.3393 20.4799 47.3144 20.3427C47.2271 19.8066 47.5513 19.7568 47.9378 19.8066C48.4614 19.8814 48.6734 20.3801 49.0224 20.6794C49.3092 20.9287 49.5585 21.1656 50.0323 20.9536C49.6458 20.6046 49.2967 20.2804 48.8604 19.869ZM48.6734 19.4326C48.5487 19.4201 48.424 19.4326 48.2993 19.4326C48.1497 19.4326 48.0126 19.4201 47.863 19.4326C47.4515 19.4825 47.2895 19.3453 47.2895 18.8965C47.2895 18.4227 47.4391 18.2607 47.9004 18.323C48.1497 18.3479 48.3991 18.3355 48.6359 18.323C49.0224 18.323 49.3715 18.2856 49.384 18.8716C49.3965 19.4451 49.0723 19.4575 48.6734 19.4326Z" fill="white"/>
<path d="M80.3284 18.6098C80.3409 18.136 80.0915 17.9241 79.6427 17.9241C78.957 17.9241 78.2713 17.9241 77.5855 17.9241C77.1243 17.9241 76.8874 18.1734 76.8749 18.6098C76.85 19.1334 76.85 19.6446 76.8624 20.1682C76.8749 20.9163 77.0245 21.0534 77.7975 21.0659C78.0718 21.0659 78.3336 21.0659 78.6079 21.0659C78.9445 21.0659 79.2687 21.0659 79.6053 21.0659C80.079 21.0784 80.3409 20.8789 80.3284 20.3677C80.3159 19.7693 80.3159 19.1833 80.3284 18.6098ZM79.8172 20.642C79.0318 20.642 78.2463 20.6545 77.4609 20.6545C77.3113 19.869 77.3237 19.096 77.4484 18.3106C78.2339 18.3106 79.0193 18.323 79.8048 18.323C79.8671 19.1085 79.8671 19.869 79.8172 20.642Z" fill="white"/>
<path d="M42.4273 18.5225C42.4896 18.136 42.2403 17.949 41.8663 17.9365C41.1556 17.9241 40.4574 17.9365 39.7468 17.9241C39.5099 17.9241 39.4102 18.0113 39.4102 18.2482C39.4226 19.0836 39.4102 19.9064 39.4102 20.7417C39.4102 20.9287 39.4476 21.0659 39.6844 21.0534C39.9338 21.0409 39.9213 20.8789 39.9213 20.7043C39.9213 20.4176 39.9213 20.1184 39.9213 19.8316C40.6195 19.8191 41.3302 19.7942 42.0283 19.7817C42.7639 19.5573 42.3525 18.9589 42.4273 18.5225ZM39.9089 18.8841C39.9089 18.3854 40.0959 18.2856 40.5322 18.323C40.7566 18.348 40.9811 18.3355 41.2179 18.323C41.6294 18.3106 41.9909 18.2981 41.9785 18.909C41.966 19.5074 41.5795 19.4202 41.2179 19.4202C41.1182 19.4202 41.006 19.4202 40.9063 19.4202C40.7816 19.4202 40.6569 19.4077 40.5322 19.4202C40.1083 19.4825 39.9089 19.3828 39.9089 18.8841Z" fill="white"/>
<path d="M26.2194 18.1237C26.157 18.0738 26.0947 17.9865 26.0324 17.9865C25.1596 17.8868 24.2994 17.9117 23.4266 17.9616C23.0776 17.9865 22.9529 18.2608 22.9529 18.585C22.9529 19.1834 22.9529 19.7943 22.9529 20.3928C22.9529 20.8167 23.1648 21.0536 23.6012 21.0536C24.3243 21.0536 25.0599 21.0536 25.783 21.0536C25.995 21.0536 26.1944 21.0161 26.3067 20.7917C26.3815 19.8941 26.5311 18.9964 26.2194 18.1237ZM25.9825 20.5424V20.5299C25.995 20.5299 25.995 20.5299 25.9825 20.5424C25.995 20.5424 25.9825 20.5424 25.9825 20.5424ZM23.4765 18.3481C24.262 18.3356 25.035 18.3232 25.8204 18.3107C25.8703 18.3481 25.9077 18.3855 25.9576 18.4229C25.9576 19.1211 25.9576 19.8193 25.9576 20.5174C25.1472 20.7793 24.2994 20.5923 23.4765 20.6297C23.4765 19.8691 23.4765 19.1086 23.4765 18.3481ZM25.7705 20.7045H25.783C25.783 20.7045 25.783 20.7045 25.7705 20.7045Z" fill="white"/>
</svg>
