<svg width="111" height="25" viewBox="0 0 111 25" fill="none" xmlns="http://www.w3.org/2000/svg">
<path fill-rule="evenodd" clip-rule="evenodd" d="M0 24.463H20.9082L34.1165 17.6015H44.9556C44.0079 17.0048 42.5864 15.8711 42.1718 14.6182H32.7542L20.9082 16.8855H0V24.463Z" fill="white"/>
<path fill-rule="evenodd" clip-rule="evenodd" d="M0 0H20.9082L34.1165 6.86157H44.9556C43.8302 7.21957 42.5864 8.77088 42.1718 9.84487H32.7542L20.9082 7.57756H0V0Z" fill="white"/>
<path fill-rule="evenodd" clip-rule="evenodd" d="M0 8.53223H20.9082L32.695 10.7399H41.8756V10.8592L41.7571 11.5155L41.6979 12.2315L41.7571 12.8878L41.8756 13.5442V13.7232H32.695L20.9082 15.9905H0V8.53223Z" fill="white"/>
<path fill-rule="evenodd" clip-rule="evenodd" d="M105.489 10.0836C106.614 10.0836 107.562 11.0383 107.562 12.1719C107.562 13.3056 106.614 14.2602 105.489 14.2602C104.363 14.2602 103.416 13.3056 103.416 12.1719C103.416 11.0383 104.363 10.0836 105.489 10.0836ZM105.489 6.802C108.45 6.802 110.819 9.18864 110.819 12.1719C110.819 15.1552 108.45 17.5419 105.489 17.5419C102.527 17.5419 100.158 15.1552 100.158 12.1719C100.158 9.2483 102.527 6.802 105.489 6.802Z" fill="white"/>
<path fill-rule="evenodd" clip-rule="evenodd" d="M77.4728 10.0835C78.4205 10.0835 79.1905 10.6802 79.4866 11.5752L82.152 9.6062C81.2635 7.93556 79.4866 6.86157 77.4728 6.86157C74.5113 6.86157 72.1421 9.24821 72.1421 12.2315C72.1421 15.2148 74.5113 17.6014 77.4728 17.6014C79.3681 17.6014 81.0266 16.5871 81.9743 15.0955L79.3682 13.1265C79.0128 13.8425 78.302 14.2601 77.532 14.2601C76.4067 14.2601 75.459 13.3055 75.459 12.1718C75.3997 11.0382 76.3474 10.0835 77.4728 10.0835Z" fill="white"/>
<path fill-rule="evenodd" clip-rule="evenodd" d="M67.463 10.0835C68.4107 10.0835 69.1807 10.6802 69.4768 11.5752L72.1422 9.6062C71.2537 7.93556 69.4768 6.86157 67.463 6.86157C64.5015 6.86157 62.1323 9.24821 62.1323 12.2315C62.1323 15.2148 64.5015 17.6014 67.463 17.6014C69.3584 17.6014 71.0168 16.5871 71.9645 15.0955L69.3584 13.1265C69.003 13.8425 68.2922 14.2601 67.5223 14.2601C66.3969 14.2601 65.4492 13.3055 65.4492 12.1718C65.39 11.0382 66.2784 10.0835 67.463 10.0835Z" fill="white"/>
<path fill-rule="evenodd" clip-rule="evenodd" d="M47.7394 10.0835C48.6871 10.0835 49.4571 10.6802 49.7532 11.5752L52.4186 9.6062C51.5301 7.93556 49.7532 6.86157 47.7394 6.86157C44.7779 6.86157 42.4087 9.24821 42.4087 12.2315C42.4087 15.2148 44.7779 17.6014 47.7394 17.6014C49.6348 17.6014 51.2932 16.5871 52.2409 15.0955L49.6348 13.1265C49.2794 13.8425 48.5686 14.2601 47.7986 14.2601C46.6733 14.2601 45.7256 13.3055 45.7256 12.1718C45.6663 11.0382 46.5548 10.0835 47.7394 10.0835Z" fill="white"/>
<path fill-rule="evenodd" clip-rule="evenodd" d="M52.7739 6.802H61.5992V10.1433H56.0908V10.7399H60.1777V13.7232H56.0908V14.3199H61.5992V17.6015H52.7739V6.802Z" fill="white"/>
<path fill-rule="evenodd" clip-rule="evenodd" d="M85.3504 6.86157H88.9042L92.695 17.6014H89.2004L88.9635 17.0048H85.1135L84.8766 17.6014H81.5005L85.3504 6.86157ZM86.4758 13.6038H87.7789L87.0681 11.8735L86.4758 13.6038Z" fill="white"/>
<path fill-rule="evenodd" clip-rule="evenodd" d="M91.155 6.802H99.9211V10.1433H97.1965V17.6015H93.9388V10.1433H91.155V6.802Z" fill="white"/>
</svg>
