<svg width="117" height="19" viewBox="0 0 117 19" fill="none" xmlns="http://www.w3.org/2000/svg">
<path d="M71.6285 15.5433C71.6285 16.662 71.6285 17.6581 71.6285 18.7002C69.4218 18.7002 67.261 18.7002 65.0083 18.7002C65.0083 17.2903 65.0083 15.8804 65.0083 14.4399C64.1041 14.7311 63.3072 15.1602 62.4644 15.2368C60.7174 15.4054 58.955 15.436 57.1927 15.436C56.5031 15.436 56.2425 15.6046 56.2885 16.3249C56.3498 17.0911 56.3038 17.8573 56.3038 18.6849C52.8251 18.6849 49.3924 18.6849 45.8677 18.6849C45.8677 17.9646 45.8677 17.2137 45.8677 16.4628C45.8218 16.4321 45.7605 16.3862 45.7145 16.3555C44.6877 17.796 43.4158 18.7155 41.5922 18.6695C39.7532 18.6389 38.5425 17.5968 37.3625 16.2942C37.3625 17.0911 37.3625 17.888 37.3625 18.7155C35.1251 18.7155 32.995 18.7155 30.7423 18.7155C30.7423 18.1485 30.7423 17.6121 30.7423 16.8612C28.6275 18.5929 26.2828 18.7615 23.8768 18.7615C21.5015 18.7615 19.1875 18.6695 17.088 17.0451C17.0574 17.7347 17.0267 18.1945 17.0114 18.6695C16.9041 18.7002 16.8428 18.7462 16.7662 18.7462C13.594 18.7308 10.4371 18.8075 7.28021 18.6389C3.38774 18.4397 0.338129 15.2828 0.0316359 11.3903C-0.259533 7.63577 1.47216 4.50954 4.69034 3.22226C5.59449 2.85447 6.60592 2.6246 7.5867 2.60928C10.6976 2.53265 13.8085 2.57863 16.996 2.57863C17.0114 3.02304 17.042 3.46746 17.0727 3.9885C17.3025 3.89655 17.5018 3.83525 17.655 3.7433C19.0955 2.8698 20.674 2.53265 22.3444 2.54798C23.647 2.5633 24.9496 2.53265 26.2522 2.60928C28.1984 2.71655 29.9148 3.45213 31.3246 4.83135C31.4012 4.78538 31.4779 4.75473 31.5238 4.70876C33.8072 1.70512 37.8223 1.84304 39.8451 5.0459C40.4581 6.02668 40.8259 7.17603 41.3163 8.23343C41.3929 8.41733 41.4849 8.60122 41.6535 8.95369C42.1285 7.83499 42.5576 6.88486 42.9407 5.90408C43.3545 4.87733 43.9522 4.00382 44.8563 3.37551C45.8371 2.70122 46.9558 2.47135 48.1358 2.57863C48.7641 2.6246 49.3924 2.63992 50.036 2.60928C53.8825 2.502 57.7444 2.53265 61.5909 2.67058C62.6942 2.70122 63.7976 3.19161 64.947 3.48278C64.9776 3.28356 65.0083 2.96174 65.0389 2.6246C65.2535 2.60928 65.4527 2.59395 65.6519 2.59395C69.0999 2.59395 72.548 2.57863 75.996 2.59395C77.4366 2.60928 78.8464 2.90045 80.0877 3.66668C81.988 4.83136 82.9688 6.56304 83.0914 8.78512C83.122 9.24486 83.0914 9.7046 83.0914 10.3636C83.3366 10.0264 83.5205 9.8272 83.6431 9.61265C84.5625 8.11084 85.4667 6.59369 86.3709 5.09187C86.4935 4.89265 86.6007 4.69343 86.7386 4.50954C88.6236 1.87369 91.8111 1.91967 93.5888 4.63213C94.2324 5.61291 94.7841 6.62434 95.4124 7.68174C95.9028 6.90019 96.2706 6.13395 96.7763 5.49031C98.3241 3.51343 100.454 2.63993 102.922 2.59395C104.714 2.54798 106.492 2.5633 108.285 2.59395C108.837 2.60928 109.128 2.47135 109.404 1.95032C110.124 0.571095 111.35 -0.0572175 112.867 0.00408121C114.4 0.0653799 115.549 0.81629 116.147 2.25681C116.698 3.62071 116.514 4.9233 115.549 6.05733C114.676 7.09941 113.511 7.43655 112.101 7.32928C112.101 11.1145 112.101 14.869 112.101 18.7002C111.794 18.7155 111.58 18.7462 111.35 18.7462C105.787 18.7462 100.209 18.7462 94.6462 18.7615C94.1711 18.7615 93.8493 18.6542 93.6041 18.2098C93.2057 17.4742 92.7766 16.7386 92.2862 16.0643C92.1176 15.8191 91.7498 15.5893 91.4586 15.574C90.4166 15.5127 89.1906 15.2215 88.3631 15.6506C87.5508 16.0643 87.1064 17.229 86.5854 18.1179C86.2789 18.6236 85.9418 18.7921 85.3594 18.7768C82.8308 18.7462 80.3023 18.7768 77.7737 18.7462C77.3906 18.7462 76.9462 18.5316 76.655 18.2864C75.996 17.7194 75.3677 17.1064 74.816 16.4475C74.2184 15.7425 73.5288 15.4207 72.6093 15.5433C72.3335 15.574 72.027 15.5433 71.6285 15.5433ZM31.6311 17.796C33.2862 17.796 34.8493 17.796 36.489 17.796C36.489 15.9264 36.489 14.1028 36.489 12.2945C36.8262 12.7542 37.0254 13.2446 37.2706 13.7197C37.6537 14.4706 37.9909 15.2521 38.4659 15.9417C40.3355 18.6236 43.569 18.409 45.0709 15.5127C45.5459 14.5779 45.9597 13.6277 46.4041 12.6776C46.4807 12.5243 46.5727 12.3711 46.6646 12.2179C46.7106 12.2332 46.7566 12.2485 46.8179 12.2638C46.8179 14.1181 46.8179 15.9724 46.8179 17.8114C49.7142 17.8114 52.534 17.8114 55.4457 17.8114C55.4457 16.7233 55.4457 15.6966 55.4457 14.5932C57.0701 14.5932 58.6025 14.5779 60.1197 14.5932C62.1579 14.6085 64.0122 14.1488 65.5293 12.6929C65.5906 12.6316 65.6825 12.601 65.8664 12.509C65.8664 14.3327 65.8664 16.049 65.8664 17.8114C67.5062 17.8114 69.0846 17.8114 70.7244 17.8114C70.7244 16.754 70.7244 15.7272 70.7244 14.6545C71.7971 14.6545 72.7932 14.6238 73.774 14.6698C74.0958 14.6851 74.4636 14.8537 74.6935 15.0682C75.5057 15.8038 76.2259 16.6467 77.0535 17.3669C77.3599 17.6428 77.835 17.842 78.2335 17.842C80.0418 17.888 81.8654 17.7501 83.6737 17.9033C85.1449 18.0259 86.1256 17.6275 86.6314 16.2176C87.1064 14.8384 88.0872 14.4553 89.4818 14.6391C90.4625 14.7617 91.6579 14.348 92.4088 14.7771C93.1903 15.2215 93.5888 16.3862 94.0945 17.2597C94.355 17.7041 94.6462 17.888 95.1825 17.888C100.24 17.8573 105.297 17.8727 110.354 17.8727C110.599 17.8727 110.844 17.8727 111.181 17.8727C111.181 13.9342 111.181 10.0877 111.181 6.24123C113.848 6.56304 115.043 5.99603 115.457 4.27967C115.779 2.96174 114.967 1.5059 113.633 1.06148C111.994 0.509796 110.798 1.24538 109.71 3.48278C107.473 3.48278 105.236 3.46746 102.983 3.48278C99.4734 3.49811 96.761 5.75083 96.102 9.16824C96.0407 9.47473 95.9794 9.78123 95.8722 10.241C95.6576 9.90382 95.5197 9.68928 95.3971 9.47473C94.5542 8.04954 93.742 6.59369 92.8532 5.19915C91.428 2.91577 88.9454 2.90045 87.4283 5.12252C87.3516 5.2298 87.2903 5.33707 87.229 5.44434C86.2483 7.06876 85.2828 8.67785 84.302 10.3023C83.3825 11.8347 82.4631 13.3519 81.5742 14.8077C81.0379 14.3327 80.5322 13.8729 80.0264 13.4285C82.3098 11.1758 82.8155 8.69317 81.467 6.3485C80.3176 4.35629 78.4174 3.57473 76.2566 3.51343C72.8698 3.42148 69.4677 3.49811 66.0657 3.49811C66.0197 3.49811 65.9737 3.54408 65.8205 3.63603C65.8205 4.20304 65.8205 4.83135 65.8205 5.65889C64.242 4.00382 62.4184 3.45213 60.4109 3.43681C57.2693 3.42148 54.1277 3.43681 50.9862 3.43681C50.8636 3.43681 50.741 3.46746 50.6031 3.48278C50.5724 3.85058 50.5418 4.18772 50.4958 4.58616C50.174 4.38694 49.9441 4.23369 49.7142 4.08045C48.1971 3.11499 46.2662 3.20694 44.9789 4.44824C44.4272 4.9846 44.0288 5.70486 43.707 6.4098C42.9867 7.98824 42.3431 9.59733 41.6381 11.2371C41.5309 11.1145 41.4849 11.0685 41.4696 11.0378C40.8872 9.62798 40.3509 8.18746 39.7072 6.79291C39.3394 6.02668 38.9103 5.2298 38.3127 4.63213C36.7036 2.97707 34.2363 3.03837 32.6732 4.73941C32.2288 5.2298 31.9223 5.87343 31.5392 6.48642C31.3859 6.31785 31.2327 6.1646 31.0948 5.99603C30.0067 4.67811 28.6275 3.78928 26.9418 3.6207C25.2407 3.45213 23.5244 3.45213 21.8233 3.46746C19.7698 3.49811 17.9922 4.24902 16.5823 5.78149C16.475 5.90408 16.3371 5.99603 16.0766 6.21057C16.0766 5.19915 16.0766 4.35629 16.0766 3.46746C13.2109 3.46746 10.4371 3.45213 7.66332 3.48278C7.06566 3.48278 6.43735 3.59005 5.85501 3.75863C2.52956 4.69343 0.659948 7.55915 0.905142 11.2677C1.11969 14.5472 3.66358 17.4436 6.94306 17.7041C9.91605 17.9493 12.9044 17.8114 15.8927 17.842C15.9386 17.842 15.9846 17.796 16.0919 17.7347C16.0919 16.8766 16.0919 15.9724 16.0919 14.9303C16.3677 15.1755 16.5516 15.2981 16.6896 15.4667C18.0688 17.0298 19.8464 17.7807 21.8999 17.8573C23.2792 17.9033 24.6584 17.8727 26.0376 17.8114C28.0605 17.7041 29.7002 16.8306 31.0028 15.2828C31.156 15.0989 31.3399 14.961 31.6005 14.7004C31.6311 15.7885 31.6311 16.754 31.6311 17.796Z" fill="white"/>
<path d="M81.7428 16.4626C82.3251 15.4819 82.8921 14.5624 83.4591 13.6276C84.9763 11.1143 86.4934 8.60108 88.0105 6.08784C88.0412 6.04186 88.0718 5.99589 88.0872 5.96524C89.3285 3.97303 90.9682 3.95771 92.1635 5.96524C94.2017 9.38264 96.2092 12.8154 98.2321 16.2481C98.324 16.4013 98.3853 16.5546 98.5233 16.8151C97.3892 16.8151 96.3472 16.8304 95.3204 16.7998C95.1212 16.7845 94.8913 16.5699 94.7687 16.386C94.3243 15.7271 93.8799 15.0681 93.5274 14.3632C93.2209 13.7195 92.7918 13.5816 92.1329 13.5969C90.8916 13.6429 89.635 13.6123 88.2404 13.6123C88.8227 12.6774 89.2672 11.7733 89.8955 11.0377C90.1254 10.7619 90.7843 10.8385 91.3513 10.7312C90.9529 10.0876 90.5698 9.45927 90.11 8.70836C89.6809 9.39797 89.2978 9.99563 88.9453 10.5933C87.7807 12.4936 86.616 14.3785 85.4973 16.2787C85.2368 16.7078 84.9456 16.8458 84.4552 16.8458C82.463 16.8151 80.4708 16.8458 78.4786 16.8151C78.1415 16.8151 77.743 16.6312 77.4825 16.4167C76.8542 15.865 76.2565 15.2673 75.6895 14.639C75.0919 13.9647 74.4789 13.4743 73.4674 13.5969C72.6399 13.7042 71.7971 13.6123 70.9082 13.6123C70.9082 12.6774 70.9082 11.8039 70.9082 10.8232C72.41 10.8232 73.8812 10.8385 75.3524 10.8232C75.8887 10.8232 76.4251 10.7772 76.9461 10.6699C77.835 10.4707 78.2794 9.87303 78.2641 9.03018C78.2487 8.14134 77.8503 7.66628 76.9155 7.43641C76.7469 7.39043 76.563 7.34446 76.3944 7.34446C74.203 7.34446 72.0116 7.34446 69.7589 7.34446C69.7589 10.5167 69.7589 13.6276 69.7589 16.7845C68.8087 16.7845 67.9352 16.7845 66.9851 16.7845C66.9851 12.7541 66.9851 8.70836 66.9851 4.58602C67.2456 4.57069 67.5061 4.55537 67.782 4.55537C70.5098 4.55537 73.2529 4.54004 75.9807 4.57069C76.655 4.58602 77.3599 4.67797 78.0189 4.86186C79.9345 5.42888 81.0378 6.76212 81.1911 8.64706C81.3596 10.6086 80.5628 12.0645 78.8157 12.9839C78.7085 13.0452 78.6012 13.1065 78.5092 13.1525C79.5513 14.2252 80.6241 15.3133 81.7428 16.4626Z" fill="white"/>
<path d="M41.6226 13.9343C42.6954 11.3904 43.7068 8.98441 44.7182 6.59376C45.3925 4.99999 46.4959 4.27974 47.9517 4.46363C49.3922 4.64753 50.5263 5.7509 50.5722 7.31402C50.6489 10.4249 50.6029 13.5358 50.6029 16.708C49.6987 16.708 48.8099 16.708 47.8598 16.708C47.8598 13.6738 47.8598 10.6548 47.8598 7.63584C47.7985 7.62051 47.7372 7.60519 47.6759 7.58986C47.3081 8.38674 46.9403 9.1683 46.5725 9.96519C45.8063 11.6356 45.0554 13.306 44.2431 14.961C43.0938 17.2904 40.6112 17.4896 39.2473 15.2675C38.2972 13.7351 37.6229 12.034 36.8413 10.3943C36.4122 9.49012 35.9985 8.57064 35.4468 7.68181C35.4468 10.6701 35.4468 13.6738 35.4468 16.7234C34.4967 16.7234 33.6231 16.7234 32.719 16.7234C32.6883 16.6161 32.6577 16.5241 32.6577 16.4322C32.6577 13.4132 32.6424 10.4096 32.6577 7.39064C32.673 6.0574 33.4239 5.04597 34.5886 4.6322C35.738 4.21844 37.0252 4.54025 37.8374 5.53636C38.2359 6.02675 38.573 6.59376 38.8182 7.16077C39.6611 9.15298 40.458 11.1758 41.2855 13.1834C41.3621 13.3826 41.4541 13.5971 41.6226 13.9343Z" fill="white"/>
<path d="M110.17 4.52488C110.17 5.50566 110.17 6.36384 110.17 7.31397C109.434 7.31397 108.714 7.31397 108.009 7.31397C106.4 7.31397 104.791 7.29864 103.182 7.31397C101.159 7.34462 99.7796 8.78514 99.795 10.7773C99.8103 12.6623 101.22 14.0108 103.212 14.0262C104.53 14.0415 105.864 14.0262 107.258 14.0262C107.258 13.4438 107.258 12.8921 107.258 12.2638C105.588 12.2638 103.917 12.2638 102.186 12.2638C102.186 11.2984 102.186 10.4249 102.186 9.50539C104.837 9.50539 107.473 9.50539 110.154 9.50539C110.154 11.9267 110.154 14.3173 110.154 16.7693C109.894 16.7846 109.649 16.8153 109.404 16.8153C107.258 16.8153 105.113 16.8153 102.967 16.8153C99.5498 16.8153 97.0059 14.1488 97.0059 10.5781C97.0059 7.03812 99.4272 4.5402 102.906 4.52488C105.312 4.50955 107.718 4.52488 110.17 4.52488Z" fill="white"/>
<path d="M23.7233 16.953C22.4666 16.7998 21.164 16.7845 19.9534 16.432C17.2103 15.6351 15.6165 12.7541 15.9843 9.5359C16.2908 6.82344 18.4362 4.72395 21.2407 4.54006C22.9111 4.43279 24.6121 4.40214 26.2825 4.54006C29.7765 4.83123 31.784 7.39045 31.6155 11.1143C31.4776 14.2712 28.903 16.7538 25.7155 16.8151C25.0565 16.8305 24.3822 16.8151 23.7233 16.8151C23.7386 16.8611 23.7233 16.9071 23.7233 16.953ZM23.7539 14.072C24.5508 14.026 25.3477 14.0414 26.1292 13.9341C27.7996 13.7042 28.8877 12.325 28.857 10.5933C28.8111 8.86162 27.5851 7.43642 25.93 7.32915C24.5355 7.2372 23.1256 7.25253 21.7311 7.32915C20.0607 7.4211 18.804 8.83097 18.7274 10.532C18.6508 12.2484 19.7848 13.6736 21.4859 13.9341C22.2214 14.0414 22.9877 14.026 23.7539 14.072Z" fill="white"/>
<path d="M55.5834 13.5663C55.5834 12.6315 55.5834 11.7733 55.5834 10.8231C55.8593 10.8078 56.1198 10.7772 56.3803 10.7772C57.8055 10.7772 59.246 10.8385 60.6712 10.7465C61.2995 10.7006 62.0044 10.5013 62.4795 10.1182C63.307 9.47458 63.1232 8.17198 62.1883 7.66627C61.8206 7.46704 61.3761 7.32912 60.9624 7.3138C58.8169 7.28315 56.6715 7.29847 54.4187 7.29847C54.4187 10.44 54.4187 13.5816 54.4187 16.7691C53.4379 16.7691 52.5491 16.7691 51.6296 16.7691C51.6296 12.6928 51.6296 8.63172 51.6296 4.57068C51.6909 4.54003 51.7522 4.46341 51.8289 4.46341C55.047 4.47874 58.2652 4.37146 61.4681 4.55536C64.625 4.72393 66.4486 7.23718 65.759 10.1335C65.3146 11.9878 64.012 12.938 62.2496 13.367C61.8359 13.4743 61.3915 13.5356 60.9624 13.5356C59.1847 13.5663 57.407 13.5663 55.5834 13.5663Z" fill="white"/>
<path d="M15.0497 4.52482C15.0497 5.4443 15.0497 6.30249 15.0497 7.26794C14.2681 7.26794 13.5019 7.26794 12.751 7.26794C11.1419 7.28327 9.53281 7.23729 7.92371 7.31392C6.03878 7.40586 4.79748 8.70846 4.70553 10.5474C4.61358 12.3404 5.80891 13.7962 7.70917 13.9495C9.60943 14.1027 11.5403 14.0108 13.4406 14.0414C13.9463 14.0414 14.452 14.0414 15.019 14.0414C15.019 14.9762 15.019 15.8498 15.019 16.8152C14.5133 16.8152 14.0076 16.8152 13.5019 16.8152C11.2645 16.7692 8.99644 16.8918 6.77436 16.6466C4.0619 16.3555 1.79384 13.8116 1.90112 10.3482C1.99306 7.03807 4.10787 4.72405 7.24943 4.54015C9.82397 4.40223 12.4138 4.52482 15.0497 4.52482Z" fill="white"/>
<path d="M15.0651 12.9535C12.6591 12.9535 10.1612 12.9995 7.67859 12.9382C6.54456 12.9076 5.80898 12.0187 5.73236 10.8541C5.65573 9.62809 6.34534 8.61666 7.4334 8.37147C7.78586 8.29484 8.13833 8.27952 8.4908 8.27952C10.6976 8.26419 12.9196 8.27952 15.0651 8.27952C15.0651 9.85796 15.0651 11.3598 15.0651 12.9535ZM14.069 9.18367C12.0461 9.18367 10.0386 9.1377 8.03106 9.199C7.09625 9.22965 6.59054 9.87328 6.63651 10.7621C6.66716 11.5896 7.1882 12.0647 8.16898 12.08C9.87002 12.1107 11.5711 12.0954 13.2874 12.0954C13.5633 12.0954 13.8238 12.0954 14.069 12.0954C14.069 11.0686 14.069 10.1645 14.069 9.18367Z" fill="white"/>
<path d="M55.4915 9.71996C55.4915 9.19892 55.4915 8.78516 55.4915 8.34075C57.4224 8.34075 59.292 8.32542 61.1769 8.35607C61.606 8.35607 62.0657 8.57062 61.9278 9.07633C61.8512 9.33685 61.4221 9.68931 61.1309 9.68931C59.2767 9.75061 57.4224 9.71996 55.4915 9.71996Z" fill="white"/>
<path d="M70.77 9.76581C70.77 9.26009 70.77 8.86165 70.77 8.35593C71.7508 8.35593 72.7162 8.35593 73.6664 8.35593C74.5399 8.35593 75.3981 8.34061 76.2716 8.35593C76.7313 8.37126 77.2677 8.38658 77.2523 9.04555C77.2523 9.67386 76.716 9.75049 76.2716 9.76581C74.4633 9.78113 72.655 9.76581 70.77 9.76581Z" fill="white"/>
<path d="M114.537 3.68189C114.522 4.70865 113.695 5.49021 112.653 5.45956C111.626 5.42891 110.89 4.66268 110.906 3.65124C110.921 2.62449 111.656 1.93488 112.744 1.9502C113.771 1.93488 114.553 2.68579 114.537 3.68189ZM111.902 4.54008C112.484 5.15307 112.944 5.13774 113.587 4.52475C114.093 3.81982 114.047 3.1302 113.48 2.65514C112.944 2.22605 112.223 2.30267 111.779 2.80838C111.304 3.3754 111.35 3.98839 111.902 4.54008Z" fill="white"/>
<path d="M23.7847 12.9687C23.1411 12.9687 22.5128 12.9994 21.8691 12.9687C20.6585 12.9074 19.8463 12.1258 19.7697 10.9612C19.6624 9.58195 20.3367 8.47857 21.5933 8.38663C23.0645 8.26403 24.5509 8.26403 26.0068 8.38663C27.2634 8.4939 27.8764 9.52065 27.7998 10.9765C27.7385 12.0952 26.9569 12.8921 25.7769 12.9687C25.1026 13.0147 24.4437 12.9687 23.7847 12.9687ZM23.7541 12.0645C24.413 12.0645 25.072 12.0952 25.7309 12.0492C26.4665 11.9879 26.865 11.5282 26.9109 10.8079C26.9569 9.98039 26.5891 9.32143 25.8689 9.27545C24.4743 9.19883 23.0798 9.21416 21.7006 9.27545C21.0416 9.3061 20.6278 10.0264 20.6432 10.7466C20.6738 11.4822 21.1182 12.0032 21.8538 12.0645C22.4668 12.0952 23.1104 12.0645 23.7541 12.0645Z" fill="white"/>
<path d="M113.342 4.35631H112.928L112.668 3.86592H112.53V4.35631H112.147V2.85449H112.744C112.898 2.85449 113.02 2.90047 113.128 3.00774C113.235 3.09969 113.281 3.22228 113.281 3.37553C113.281 3.46748 113.265 3.5441 113.219 3.62073C113.173 3.69735 113.112 3.75865 113.036 3.80462L113.342 4.35631ZM112.744 3.20696H112.53V3.5441H112.744C112.79 3.5441 112.836 3.52878 112.867 3.49813C112.898 3.46748 112.913 3.4215 112.913 3.37553C112.913 3.32956 112.898 3.28358 112.867 3.25293C112.836 3.22229 112.79 3.20696 112.744 3.20696Z" fill="white"/>
</svg>
