<svg width="105" height="31" viewBox="0 0 105 31" fill="none" xmlns="http://www.w3.org/2000/svg">
<path d="M46.8981 16C45.0135 16 43.2527 16 41.5056 16C40.9966 16 41.0517 15.6654 41.0517 15.3309C41.0517 12.9749 41.0517 10.605 41.0517 8.24906C41.0517 7.73326 41.0654 7.2314 41.0517 6.7156C41.0241 5.97675 40.6115 5.53065 39.8686 5.58641C39.3184 5.64217 38.7406 5.79552 38.2454 6.03251C38.0528 6.11615 37.929 6.56225 37.929 6.82712C37.9015 9.65705 37.9015 12.473 37.9015 15.303C37.9015 15.6236 37.9702 15.9861 37.4613 15.9861C35.6867 15.9861 33.8984 15.9861 32.055 15.9861C32.0413 15.7212 32.0138 15.4981 32.0138 15.2751C32.0138 10.5492 32.0275 5.8234 32 1.09756C32 0.470232 32.1788 0.316886 32.7841 0.330826C34.201 0.372648 35.6179 0.344767 37.0348 0.344767C37.929 0.344767 37.9565 0.358707 37.9427 1.27878C37.9427 1.47395 37.9427 1.68306 37.9427 1.97581C40.9279 -0.129212 43.8167 -1.24446 46.5404 2.24068C47.0907 1.83641 47.696 1.3206 48.37 0.930269C49.9657 0.0241336 51.6715 -0.226796 53.4461 0.358707C54.7254 0.776923 55.427 1.75276 55.6746 3.02135C55.8535 3.96931 55.9635 4.94515 55.9773 5.90705C56.0185 8.96002 55.991 12.0269 55.991 15.0799C55.991 15.9721 55.991 15.9721 55.0831 15.9721C53.6387 15.9721 52.208 15.9582 50.7636 15.9861C50.2546 16 50.0896 15.8188 50.1033 15.3169C50.1171 12.5427 50.1171 9.75464 50.1171 6.98047C50.1171 5.7537 49.4843 5.27972 48.3012 5.60035C46.9394 5.97675 46.9394 5.97675 46.9394 7.41262C46.9394 9.97769 46.9394 12.5567 46.9394 15.1217C46.8981 15.4145 46.8981 15.6515 46.8981 16Z" fill="white"/>
<path d="M16.5068 22.0159C21.7396 22.0159 26.9582 22.031 32.1911 22.0008C32.7867 22.0008 33.0136 22.1369 32.9994 22.8322C32.9427 24.5556 32.9427 26.294 32.9852 28.0325C33.0136 28.7884 32.8292 29 32.0918 29C25.3132 28.9698 18.5347 28.9849 11.7561 28.9849C8.08322 28.9849 4.41032 28.9698 0.737416 28.9849C0.184354 28.9849 0 28.8186 0 28.229C0.0283622 26.3999 0.0283622 24.5707 0 22.7264C0 22.1822 0.12763 21.9857 0.680692 22.0008C5.95605 22.031 11.2314 22.0159 16.5068 22.0159Z" fill="white"/>
<path d="M67.8606 13.7331C66.963 14.8993 65.7754 15.4207 64.4911 15.7225C62.9307 16.0793 61.3426 16.2028 59.865 15.407C58.4979 14.6661 58.1941 13.3078 58.0422 11.922C57.9732 11.3458 57.987 10.7283 58.0974 10.1521C58.5255 7.87453 59.6717 6.73574 62.0055 6.42017C63.4969 6.22809 65.0159 6.22809 66.5211 6.11833C66.8111 6.09089 67.1011 5.92624 67.3911 5.81648C67.1701 5.50091 67.0182 4.97954 66.7282 4.89722C66.0378 4.70514 65.2921 4.63653 64.574 4.66397C63.2069 4.73258 61.8398 4.89722 60.4726 5.04814C60.0584 5.0893 59.8236 4.97954 59.7269 4.55421C59.5336 3.66239 59.285 2.78429 59.1193 1.89247C59.0779 1.68667 59.2712 1.3025 59.4507 1.22018C61.895 0.259758 64.4221 -0.179292 67.0459 0.0676734C68.2335 0.177436 69.4625 0.36952 70.581 0.781129C72.6386 1.52203 73.0943 3.31939 73.1219 5.26767C73.1496 6.8455 73.1219 8.40962 73.1219 9.98745C73.1219 11.2086 73.2738 11.4006 74.4891 11.5927C74.8619 11.6476 75 11.7985 75 12.169C74.9862 13.0334 75.0276 13.8977 74.9586 14.7621C74.9448 15.0228 74.71 15.3933 74.4891 15.4756C73.0391 16.0107 71.5201 16.0107 70.0287 15.7363C69.1449 15.5716 68.5096 15.0365 68.1368 14.1996C68.1092 14.0761 68.0125 13.9801 67.8606 13.7331ZM65.9963 9.56213C65.9963 9.53468 65.9825 9.50724 65.9825 9.46608C65.4992 9.56212 65.0021 9.60328 64.5464 9.78165C64.063 9.97373 63.8007 10.7695 64.1183 11.2497C64.2978 11.5104 64.7949 11.7437 65.1126 11.7025C65.7202 11.6202 66.314 11.3869 66.8801 11.1262C67.4601 10.8656 67.2806 10.2893 67.1839 9.86397C67.1425 9.71305 66.6868 9.63073 66.4106 9.5484C66.2725 9.53468 66.1344 9.56213 65.9963 9.56213Z" fill="white"/>
<path d="M89 7.86166C89.1716 6.6504 89.2289 5.41162 89.5292 4.22789C90.1872 1.72278 92.0609 0.291298 94.8929 0.0985975C96.7095 -0.0252812 98.526 -0.107867 100.342 0.33259C102.431 0.841869 103.847 2.01184 104.419 4.00766C105.191 6.63664 105.191 9.27938 104.433 11.9084C103.775 14.2208 102.059 15.4596 99.6988 15.7899C97.6535 16.0789 95.5938 16.1065 93.5484 15.6385C91.3028 15.1292 90.0012 13.6702 89.4863 11.6056C89.1859 10.3943 89.1573 9.12798 89 7.86166ZM95.2648 8.05436C95.2934 8.67376 95.3077 9.1968 95.3506 9.71984C95.4222 10.6421 95.9085 11.055 96.8811 11.0687C97.9968 11.0825 98.6404 10.6558 98.6833 9.74737C98.7405 8.56364 98.7405 7.37991 98.6833 6.19618C98.6547 5.3015 98.197 4.97116 97.1529 4.95739C95.9514 4.92987 95.4651 5.24645 95.3793 6.16865C95.2934 6.82934 95.2934 7.49003 95.2648 8.05436Z" fill="white"/>
<path d="M30 8.0115C29.8998 9.59213 29.7422 11.1312 29.1264 12.6147C28.2672 14.6529 26.5916 15.6512 24.4722 15.8592C22.7537 16.0256 20.9922 16.0672 19.288 15.8592C16.5957 15.5126 14.9918 14.237 14.3474 11.2698C13.8891 9.17618 13.8891 7.06867 14.3187 4.96117C15.0204 1.49488 16.8678 0.399529 19.732 0.0944956C21.4791 -0.0996167 23.2979 0.0251689 25.0307 0.288607C27.9521 0.732292 29.0835 2.45157 29.6277 4.89184C29.8425 5.89013 29.8711 6.95775 30 8.0115ZM23.7848 7.98377C23.6988 7.23505 23.6702 6.51407 23.4984 5.83467C23.4268 5.52964 23.1117 5.12755 22.8253 5.05822C22.2668 4.93344 21.651 4.97503 21.0638 5.05822C20.8204 5.09982 20.5053 5.39099 20.4337 5.62669C19.9754 7.17959 19.9898 8.76022 20.3907 10.327C20.5483 10.9093 21.1641 11.1866 22.1092 11.0896C22.725 11.0341 23.3695 10.9371 23.484 10.1467C23.5986 9.41189 23.6988 8.6909 23.7848 7.98377Z" fill="white"/>
<path d="M7.81671 15.9967C6.48107 15.7628 5.07438 15.8178 3.79558 15.4188C1.49374 14.7034 0.683829 12.8048 0.27177 10.686C-0.0834531 8.82867 -0.111871 6.9438 0.314397 5.11397C0.911171 2.48616 1.76371 1.05532 4.776 0.353651C7.73145 -0.334256 10.6301 0.0372138 13.4576 0.986526C13.8129 1.11035 13.9976 1.23417 13.8555 1.72947C13.5571 2.76133 13.415 3.83446 13.2303 4.88008C13.1451 5.3341 12.9461 5.45792 12.463 5.40289C11.1274 5.27907 9.79175 5.15524 8.4419 5.14149C6.87892 5.11397 6.28214 5.65054 6.19689 7.15017C6.15426 7.92063 6.2111 8.69109 6.29635 9.46154C6.39581 10.3145 6.99259 10.8649 7.84512 10.8374C9.3939 10.7961 10.9285 10.6998 12.4772 10.576C12.9603 10.5347 13.2587 10.6172 13.3582 11.0988C13.5713 12.1306 13.756 13.1625 13.9692 14.1806C14.0828 14.7172 13.8839 14.9373 13.344 15.1024C11.5679 15.694 9.7207 16.0379 7.81671 15.9967Z" fill="white"/>
<path d="M82.3284 2.71982C82.7542 2.38403 82.9891 2.16017 83.2534 1.97828C84.5896 1.01287 86.1166 0.425228 87.7317 0.0334683C88.2016 -0.0784632 88.3631 0.0894346 88.4071 0.551152C88.5687 2.03424 88.7595 3.50334 88.9798 4.97244C89.0679 5.57407 88.877 5.82592 88.231 5.95184C86.469 6.31562 84.7364 6.77734 82.9891 7.14111C82.4312 7.26704 82.3137 7.54686 82.3137 8.02257C82.3284 10.4151 82.299 12.8076 82.3284 15.2002C82.3431 15.8018 82.1669 16.0257 81.5061 15.9977C79.891 15.9557 78.2905 15.9697 76.6754 15.9977C76.1615 16.0117 76 15.8438 76 15.3541C76.0147 10.541 76.0147 5.74197 76 0.92892C76 0.453211 76.1615 0.271323 76.6754 0.285314C78.3346 0.313297 79.9938 0.313297 81.653 0.285314C82.1815 0.285314 82.3431 0.481194 82.3284 0.956902C82.3137 1.48858 82.3284 2.00626 82.3284 2.71982Z" fill="white"/>
<path d="M50.5176 22.7187C52.3593 21.6047 53.5355 21.9141 54.4022 22.827C55.0368 22.5794 55.6558 22.239 56.3058 22.0843C57.8535 21.7285 58.8904 22.5175 58.9678 24.0956C59.0297 25.5344 58.9833 26.9733 58.9833 28.4121C58.9833 28.8453 58.813 29.0155 58.3797 28.9845C57.9464 28.9691 57.6213 28.9226 57.6368 28.3657C57.6523 27.128 57.6368 25.9057 57.6368 24.668C57.6368 24.0647 57.513 23.5232 56.9094 23.2602C56.3987 23.0281 55.0368 23.353 54.7427 23.7707C54.6498 23.9099 54.6498 24.1575 54.6498 24.3431C54.6498 25.6582 54.6498 26.9578 54.6498 28.2729C54.6498 28.7215 54.5725 29 54.0153 28.9845C53.5046 28.9691 53.3343 28.7525 53.3343 28.2883C53.3343 27.0042 53.3343 25.7201 53.2879 24.436C53.2569 23.5077 52.901 23.1828 52.0807 23.1983C51.0128 23.2137 50.3319 23.7398 50.3164 24.5597C50.3009 25.7974 50.3164 27.0197 50.3164 28.2574C50.3164 28.6751 50.2854 29 49.7128 29C49.1711 29 48.9854 28.7989 49.0009 28.2729C49.0164 26.4937 48.9854 24.7299 49.0318 22.9507C49.0318 22.6877 49.264 22.239 49.4342 22.2236C49.7747 22.1926 50.1307 22.3783 50.4866 22.4711C50.5021 22.5485 50.5176 22.6258 50.5176 22.7187Z" fill="white"/>
<path d="M61 26.5413C61 25.3475 61 24.1537 61 22.9599C61 22.2264 61.2485 22.0394 61.8894 22.2264C62.1379 22.2983 62.4648 22.3271 62.7002 22.2264C64.492 21.4929 65.9699 22.6004 65.9961 24.7003C66.0092 25.8078 66.0353 26.9009 65.2114 27.7495C64.5313 28.4542 63.7073 28.6844 62.818 28.5693C62.2686 28.4974 61.994 28.67 62.0725 29.3316C62.1117 29.6624 62.0594 29.9932 62.0855 30.3384C62.1117 30.7699 61.994 31 61.5493 31C61.0915 31 61 30.7699 61 30.3384C61.0131 29.0727 61 27.807 61 26.5413ZM62.0725 25.4482C62.0725 25.9516 62.0463 26.455 62.0855 26.944C62.0986 27.1454 62.2294 27.4187 62.3733 27.4906C63.0272 27.8358 64.0343 27.5193 64.479 26.8577C65.0675 25.9804 64.976 25.0023 64.7536 24.0531C64.5574 23.2332 63.8381 22.9312 62.9487 23.1325C62.2163 23.2908 62.0855 23.5065 62.0855 24.4989C62.0725 24.8441 62.0725 25.1462 62.0725 25.4482Z" fill="white"/>
<path d="M92.0895 22C93.8723 22.1047 94.7779 23.0471 94.976 25.2311C95.0892 26.4578 94.8203 27.6245 93.7874 28.3874C92.7828 29.1354 91.6933 29.1653 90.5755 28.6567C89.8681 28.3426 89.5002 27.7442 89.2455 27.0112C88.6512 25.276 89.1606 23.3463 90.5048 22.5385C90.9717 22.2543 91.5518 22.1645 92.0895 22ZM90.3067 25.5004C90.3067 25.6949 90.2926 25.9043 90.3067 26.0987C90.4765 27.5498 91.6792 28.3127 92.8394 27.7143C93.4478 27.4002 93.8157 26.2932 93.6884 25.2012C93.5893 24.3336 93.4478 23.4959 92.4998 23.2416C91.2123 22.8676 90.3209 23.81 90.3067 25.5004Z" fill="white"/>
<path d="M72.5309 25.8177C72.2631 27.4172 73.4604 27.8548 74.5946 27.8699C75.0515 27.885 75.5241 27.7039 75.9809 27.719C76.2172 27.719 76.4378 27.9755 76.6741 28.1113C76.5323 28.3226 76.422 28.6847 76.233 28.73C74.9255 29.0921 73.5864 29.1525 72.3577 28.5187C71.1446 27.9001 71.0186 26.7533 71.0029 25.6065C70.9871 25.0934 71.0344 24.5351 71.1919 24.0522C71.7748 22.3622 73.7124 21.5625 75.4453 22.2415C76.5166 22.664 77.3357 24.4748 76.8631 25.5008C76.7844 25.6668 76.4063 25.8026 76.17 25.8026C74.9727 25.8328 73.7755 25.8177 72.5309 25.8177ZM73.9172 24.9274C73.9172 24.9124 73.9172 24.9124 73.9172 24.9274C74.2008 24.9274 74.5001 24.8973 74.7837 24.9274C75.4768 24.9878 75.6029 24.6407 75.4453 24.0975C75.272 23.5241 74.894 23.0111 74.2796 23.0413C73.7755 23.0714 73.2241 23.3732 72.8303 23.7052C72.594 23.9014 72.6097 24.3842 72.4994 24.7313C72.8145 24.7916 73.1296 24.8671 73.4446 24.9124C73.6022 24.9425 73.7597 24.9274 73.9172 24.9274Z" fill="white"/>
<path d="M45.097 22C46.7554 22.1194 47.7592 22.9103 47.9483 24.5667C48.0501 25.4173 48.0065 26.3575 47.7737 27.1782C47.41 28.4019 46.0426 29.1182 44.7624 28.9839C43.2494 28.8198 42.2893 28.0139 42.0856 26.5366C41.8674 25.0144 41.9838 23.5221 43.424 22.5969C43.9186 22.2835 44.5442 22.194 45.097 22ZM43.2931 25.5367C43.2931 25.7307 43.2785 25.9396 43.2931 26.1336C43.4094 27.1484 44.1077 27.8796 44.9951 27.9095C45.9698 27.9393 46.5808 27.3872 46.7117 26.2381C46.7699 25.6561 46.7408 25.0592 46.639 24.4772C46.479 23.5371 45.6934 23.0297 44.7624 23.1789C43.7877 23.3431 43.264 24.1787 43.2931 25.5367Z" fill="white"/>
<path d="M79.3922 28.9846C79.1642 28.9538 78.7969 28.9231 78.4549 28.8615C78.1129 28.7846 77.8976 28.5076 78.0496 28.1075C78.1256 27.9229 78.4169 27.769 78.6196 27.769C78.9869 27.7536 79.3669 27.9229 79.7342 27.9075C80.0129 27.9075 80.3169 27.7998 80.5702 27.6305C80.9756 27.369 81.0009 26.8304 80.5956 26.5227C80.2156 26.2303 79.7722 26.0457 79.3416 25.8303C78.2269 25.2455 77.8089 24.2608 78.2269 23.1375C78.4929 22.4143 79.0122 22.0758 79.6329 22.0142C80.1269 21.9681 80.6336 22.045 81.1276 22.0912C81.4062 22.1219 81.6849 22.1989 81.6089 22.6913C81.5456 23.1837 81.2922 23.199 80.9629 23.1683C80.5576 23.1221 80.1269 23.0913 79.7342 23.1683C79.5316 23.2144 79.2656 23.5068 79.2402 23.7222C79.2149 23.953 79.3922 24.3069 79.5822 24.4608C79.9496 24.7531 80.3676 24.9224 80.7729 25.1532C81.7356 25.7071 82.1282 26.4457 81.9636 27.3843C81.8116 28.246 81.0769 28.9077 80.1649 29C79.9369 29 79.7342 28.9846 79.3922 28.9846Z" fill="white"/>
<path d="M101.747 29C101.408 28.9377 100.843 28.891 100.31 28.7354C100.149 28.6887 99.9716 28.3462 100.004 28.175C100.036 27.9882 100.31 27.7392 100.488 27.7236C100.843 27.6925 101.214 27.817 101.586 27.8637C101.795 27.8948 102.021 27.9104 102.231 27.8793C102.78 27.7859 103.506 27.7392 103.522 27.101C103.522 26.7896 102.957 26.3849 102.57 26.1514C102.037 25.8245 101.392 25.6533 100.859 25.3264C100.149 24.9061 99.9393 24.2212 100.068 23.4429C100.181 22.7113 100.666 22.1665 101.408 22.0731C102.296 21.9486 103.2 22.0109 104.087 22.0576C104.232 22.0576 104.491 22.4934 104.442 22.6179C104.362 22.8203 104.055 23.0538 103.845 23.0694C103.345 23.1161 102.828 22.9604 102.344 23.0382C102.037 23.0849 101.602 23.3807 101.553 23.6142C101.505 23.8788 101.779 24.2991 102.037 24.4703C102.473 24.7505 103.006 24.8906 103.49 25.1085C104.636 25.6377 105.12 26.3071 104.975 27.1476C104.814 28.1439 104.071 28.7821 102.861 28.9533C102.554 28.9844 102.263 28.9844 101.747 29Z" fill="white"/>
<path d="M84.8574 29C84.4502 28.9537 83.9291 28.9382 83.4405 28.7993C83.2288 28.7375 82.9845 28.3669 83.0008 28.1661C83.0171 27.9963 83.4079 27.7646 83.6359 27.7492C84.0268 27.7183 84.434 27.9036 84.8248 27.9036C85.2157 27.9036 85.6391 27.8573 85.9974 27.7029C86.2417 27.5948 86.486 27.2705 86.5186 27.0234C86.5349 26.8227 86.2906 26.4984 86.0626 26.3903C85.5251 26.1124 84.9225 25.9271 84.3688 25.68C83.4079 25.2476 82.9193 24.5064 83.0171 23.7034C83.1311 22.8232 83.7662 22.1592 84.8411 22.0357C85.574 21.9431 86.3394 22.0512 87.0886 22.1284C87.2678 22.1438 87.5772 22.5299 87.5446 22.5762C87.3981 22.8078 87.17 23.1012 86.942 23.1321C86.372 23.1939 85.7694 23.0549 85.1994 23.1321C84.9225 23.163 84.5317 23.4718 84.4991 23.7034C84.4665 23.9505 84.7271 24.352 84.9714 24.491C85.4437 24.7844 85.9974 24.9233 86.5023 25.155C87.6749 25.68 88.1309 26.344 87.9681 27.2705C87.8215 28.1661 87.0072 28.8147 85.8346 28.9537C85.5577 28.9691 85.2483 28.9691 84.8574 29Z" fill="white"/>
<path d="M39.5007 29C38.2537 28.9087 37.0364 28.7718 36.413 27.4788C35.8934 26.3987 35.8934 25.1969 36.2497 24.0864C36.9474 21.9414 39.2186 21.6828 40.7773 22.2761C40.9109 22.3217 41.0297 22.6868 40.9852 22.839C40.9109 23.0367 40.6883 23.204 40.4804 23.2801C40.3171 23.341 40.0945 23.2345 39.9015 23.1888C39.0553 23.0367 38.2686 23.1128 37.749 23.9343C37.2146 24.7861 37.2146 26.4443 37.7341 27.1137C38.4022 27.9656 39.3077 27.8591 40.2281 27.783C40.4804 27.7678 40.7328 27.9656 41 28.072C40.8812 28.3307 40.8219 28.711 40.6437 28.8022C40.3023 28.9696 39.8866 28.9391 39.5007 29Z" fill="white"/>
<path d="M68.5154 22.4993C69.2112 22.3123 69.8297 22.094 70.4637 22.0005C70.6183 21.9849 70.943 22.3279 70.9894 22.5305C71.0358 22.8423 70.943 23.2164 70.4482 23.1696C70.2163 23.1384 69.9843 23.154 69.7524 23.1696C68.9329 23.2631 68.438 23.8399 68.438 24.6661C68.438 25.8352 68.438 26.9887 68.438 28.1578C68.438 28.641 68.3917 29.0151 67.7422 28.9995C67.1546 28.9839 67 28.7189 67 28.1734C67.0155 26.521 66.9845 24.8687 67.0155 23.2008C67.0155 22.8579 67.1082 22.3279 67.3247 22.2187C67.7731 22.0005 68.3143 22.0473 68.5154 22.4993Z" fill="white"/>
<path d="M97.4556 22.501C98.1112 22.3295 98.7668 22.1114 99.4381 22.0023C99.6098 21.9711 100 22.2672 100 22.4075C99.9844 22.7503 100.016 23.249 99.3912 23.1711C99.2195 23.1555 99.0322 23.1555 98.8449 23.1711C97.9083 23.2334 97.2839 23.9035 97.2839 24.823C97.2839 25.9606 97.2839 27.0982 97.2995 28.2358C97.2995 28.7033 97.2527 29.015 96.6283 28.9994C96.0507 28.9839 96.0039 28.6722 96.0039 28.2514C96.0039 26.4593 95.9883 24.6827 96.0195 22.8906C96.0195 22.6412 96.2068 22.1737 96.3473 22.1737C96.7063 22.1425 97.0654 22.2984 97.44 22.3763C97.44 22.423 97.4556 22.4698 97.4556 22.501Z" fill="white"/>
</svg>
