<svg width="112" height="12" viewBox="0 0 112 12" fill="none" xmlns="http://www.w3.org/2000/svg">
<path d="M107.885 5.70295C107.885 4.13204 107.928 2.66295 107.87 1.2084C107.841 0.481129 108.001 0.161128 108.801 0.248401C109.514 0.321128 110.256 0.277493 110.983 0.262947C111.288 0.262947 111.405 0.35022 111.405 0.67022C111.39 4.11749 111.39 7.55022 111.405 10.9975C111.405 11.3029 111.332 11.4193 110.997 11.4193C110.081 11.4048 109.15 11.4048 108.234 11.4339C107.768 11.4484 107.608 11.1284 107.405 10.8375C106.605 9.61567 105.994 8.30658 105.281 7.02658C105.121 6.72113 105.019 6.35749 104.467 6.12477C104.467 7.66658 104.423 9.10658 104.481 10.5466C104.51 11.2593 104.336 11.5357 103.579 11.4484C102.939 11.3757 102.27 11.3902 101.616 11.4484C101.092 11.492 100.947 11.2593 100.932 10.8084C100.83 8.8884 100.888 6.98295 100.888 5.06295C100.888 3.63749 100.932 2.21204 100.932 0.772038C100.932 0.364765 101.063 0.233855 101.47 0.248401C102.314 0.292037 103.157 0.32113 104.016 0.306584C104.452 0.306584 104.728 0.452038 104.932 0.844766C105.659 2.18295 106.401 3.52113 107.143 4.84477C107.303 5.13567 107.434 5.45567 107.885 5.70295Z" fill="white"/>
<path d="M0.0156073 5.86288C0.0156073 4.21924 0.0301527 2.56106 0.00106182 0.917425C-0.0134836 0.42288 0.117425 0.233788 0.641062 0.248333C2.40106 0.29197 4.17561 0.146515 5.92106 0.539242C8.24833 1.04833 9.86288 2.98288 10.0229 5.47015C10.1829 7.95743 8.8447 10.1247 6.63379 10.9247C4.88833 11.5502 3.05561 11.5211 1.25197 11.4483C0.00106173 11.4047 0.00106182 11.3902 0.00106182 10.1683C0.0156073 8.72834 0.0156073 7.28833 0.0156073 5.86288ZM3.73924 5.8047C3.73924 6.41561 3.75379 7.01197 3.73924 7.62288C3.73924 7.89924 3.78288 8.07379 4.11743 8.08834C5.29561 8.16106 6.34288 7.14288 6.35743 5.92106C6.37197 4.62652 5.38288 3.60833 4.14652 3.63742C3.82652 3.65197 3.7247 3.75379 3.7247 4.05924C3.75379 4.64106 3.73924 5.22288 3.73924 5.8047Z" fill="white"/>
<path d="M43.0119 2.82302C42.081 3.40484 41.0483 3.69574 40.0737 4.10302C39.7828 4.21938 39.681 4.01574 39.521 3.88483C38.1974 2.76483 36.8156 3.27392 36.4665 4.97574C36.2919 5.86302 36.3065 6.7212 36.7719 7.50665C37.2956 8.39393 38.401 8.69938 39.1574 8.20483C39.4047 8.04484 39.681 7.82665 39.6083 7.5212C39.5356 7.24483 39.1719 7.37574 38.9683 7.40484C38.1828 7.5212 38.0083 7.2012 38.0374 6.45938C38.0956 4.87393 38.0519 4.87393 39.6665 4.87393C40.8592 4.87393 42.0374 4.90302 43.2301 4.85938C43.7392 4.84484 43.7974 5.03393 43.8119 5.47029C43.8701 7.62302 43.2156 9.4412 41.4119 10.7212C38.3283 12.9176 33.9938 11.3903 32.8883 7.76847C31.4919 3.17211 34.8374 -0.0715285 38.5319 0.00119877C40.5247 0.0448351 42.0228 1.04847 43.0119 2.82302Z" fill="white"/>
<path d="M86.0373 11.463C84.8737 11.463 83.8555 11.4194 82.8373 11.4776C82.1682 11.5212 81.79 11.2303 81.5282 10.6776C81.2227 10.0521 80.9318 9.41212 80.6264 8.77212C80.4955 8.5103 80.3937 8.20485 80.03 7.89939C80.03 8.9903 80.0009 9.9503 80.0446 10.9103C80.0591 11.3758 79.9137 11.4776 79.4773 11.463C78.6046 11.4339 77.7318 11.4339 76.8591 11.463C76.51 11.4776 76.3936 11.3612 76.4082 11.0121C76.4227 7.57939 76.4227 4.13212 76.4082 0.699395C76.4082 0.437576 76.4082 0.233939 76.7718 0.248485C78.59 0.292121 80.3937 0.0884847 82.2118 0.393939C84.5682 0.786666 85.6591 2.22667 85.3537 4.59758C85.2373 5.51394 84.8446 6.28485 83.9573 6.64848C83.39 6.88121 83.4773 7.14303 83.7391 7.56485C84.4809 8.81576 85.2228 10.0812 86.0373 11.463ZM79.9573 4.01576C79.9573 4.13212 79.9427 4.26303 79.9573 4.3794C80.0009 4.6703 79.7827 5.06303 80.1027 5.23758C80.4955 5.45576 80.9027 5.26667 81.2664 5.06303C81.4409 4.96121 81.6155 4.80121 81.7173 4.61212C81.9646 4.20485 81.95 3.79758 81.63 3.41939C81.2518 2.98303 80.7282 2.79394 80.2046 2.92485C79.7246 3.04121 80.0591 3.5503 79.9573 3.85576C79.9573 3.91394 79.9573 3.97212 79.9573 4.01576Z" fill="white"/>
<path d="M60.9027 6.92466C60.9027 8.33557 60.8882 9.58648 60.9173 10.8374C60.9318 11.3028 60.8155 11.4774 60.3209 11.4483C59.5064 11.4192 58.6773 11.4483 57.8482 11.4774C57.4991 11.4919 57.3828 11.361 57.3682 11.0265C57.1937 7.59375 57.1937 4.16102 57.3682 0.713748C57.3828 0.379202 57.4846 0.248292 57.8337 0.262837C58.7064 0.291928 59.5791 0.291928 60.4518 0.262837C60.8591 0.248292 60.9318 0.422837 60.9318 0.771928C60.9173 2.06647 60.9318 3.37557 60.9318 4.75738C61.2955 4.58284 61.3973 4.35011 61.5137 4.13193C62.0809 3.01193 62.6482 1.89193 63.2009 0.757382C63.39 0.3792 63.6373 0.248291 64.0591 0.248291C65.2082 0.277382 66.3573 0.262837 67.6373 0.262837C66.6482 1.9792 65.7318 3.59375 64.7864 5.19375C64.5391 5.60102 64.5391 5.87739 64.8009 6.2992C65.8627 7.95739 66.8955 9.64466 67.9573 11.3756C66.5609 11.3756 65.2373 11.361 63.9137 11.3756C63.5791 11.3756 63.4482 11.1574 63.3318 10.9247C62.8227 9.96466 62.3282 8.99011 61.8191 8.03011C61.6009 7.65193 61.4264 7.2883 60.9027 6.92466Z" fill="white"/>
<path d="M23.5209 5.81919C23.5209 4.17555 23.55 2.53191 23.5064 0.888276C23.4918 0.350094 23.6809 0.248275 24.1755 0.262821C24.99 0.306457 25.8191 0.306457 26.6482 0.262821C27.1428 0.23373 27.2446 0.393729 27.2446 0.87373C27.23 2.99737 27.2737 5.13555 27.2591 7.25919C27.2591 7.73919 27.39 7.88464 27.8555 7.85555C28.5973 7.81191 29.3537 7.88464 30.11 7.84101C30.7355 7.79737 31.0409 7.94282 30.9682 8.6701C30.8955 9.44101 30.9391 10.2119 30.9537 10.9974C30.9682 11.3465 30.8518 11.4483 30.5027 11.4483C28.3209 11.4337 26.1391 11.4337 23.9718 11.4628C23.5209 11.4628 23.5209 11.2446 23.5355 10.9246C23.5209 9.20828 23.5209 7.50646 23.5209 5.81919Z" fill="white"/>
<path d="M12.83 11.4049C12.3209 11.2885 11.4918 11.6812 11.2009 11.2158C10.9973 10.8812 11.4191 10.1394 11.5791 9.58667C12.4082 6.70667 13.4845 3.89939 14.2118 0.990302C14.3573 0.408483 14.7064 0.103027 15.2736 0.103027C16.1464 0.103027 17.0045 0.132119 17.8773 0.190301C18.3864 0.219392 18.0955 0.553937 18.0373 0.757573C17.3245 3.14303 16.6118 5.52849 15.87 7.8994C15.5791 8.84485 15.2155 9.77576 14.9536 10.7212C14.7936 11.2594 14.5318 11.4776 13.9791 11.3903C13.63 11.3612 13.2664 11.4049 12.83 11.4049Z" fill="white"/>
<path d="M51.3464 0.190187C50.2264 3.85564 49.121 7.41928 48.0446 10.9684C47.9574 11.2447 47.8555 11.4193 47.5064 11.4047C46.4155 11.3756 45.3392 11.3902 44.1755 11.3902C44.7428 9.572 45.281 7.812 45.8192 6.06655C46.3719 4.26291 46.9537 2.45928 47.4774 0.655641C47.5937 0.292005 47.7392 0.161095 48.1319 0.175641C49.1646 0.204732 50.2119 0.190187 51.3464 0.190187Z" fill="white"/>
<path d="M87.9429 11.4046C88.4811 9.68823 88.9756 8.04459 89.4847 6.4155C90.081 4.4955 90.6774 2.59005 91.2592 0.670046C91.3611 0.306409 91.5065 0.1755 91.8992 0.190045C92.932 0.219136 93.9792 0.204591 95.1138 0.204591C94.6338 1.76096 94.1974 3.23005 93.7465 4.69914C93.121 6.7355 92.4665 8.75732 91.8847 10.7937C91.7392 11.3173 91.492 11.4482 90.9829 11.4337C89.9938 11.3755 89.0192 11.4046 87.9429 11.4046Z" fill="white"/>
<path d="M73.5574 5.86285C73.5574 7.50648 73.5429 9.16467 73.572 10.8083C73.5865 11.3319 73.4265 11.4628 72.9174 11.4338C72.0447 11.3901 71.172 11.3901 70.2992 11.4192C69.9211 11.4338 69.8047 11.3174 69.8047 10.9247C69.8338 7.53558 69.8483 4.13194 69.8629 0.742848C69.8629 0.379211 69.9356 0.233755 70.3429 0.248301C71.2447 0.277392 72.132 0.291937 73.0338 0.248301C73.5138 0.233755 73.5865 0.422847 73.5865 0.844665C73.5574 2.51739 73.572 4.19012 73.5574 5.86285C73.572 5.86285 73.572 5.86285 73.5574 5.86285Z" fill="white"/>
<path d="M18.9101 0.539307C20.0156 4.05931 21.0919 7.46295 22.0228 10.8957C22.1392 11.332 22.0228 11.4339 21.5865 11.4339C19.7247 11.4193 17.8628 11.4193 16.001 11.4193C15.681 11.4193 15.4192 11.4484 15.5647 10.9684C16.5537 7.6084 17.4556 4.21931 18.6919 0.932036C18.7356 0.815672 18.7937 0.728398 18.9101 0.539307Z" fill="white"/>
<path d="M51.9719 0.524658C53.1065 3.97194 54.1683 7.39012 55.1428 10.8374C55.2738 11.2883 55.2301 11.4338 54.721 11.4192C52.8301 11.3901 50.9392 11.3901 49.0483 11.3756C48.7428 11.3756 48.481 11.4192 48.641 10.9247C49.7028 7.56467 50.7501 4.19012 51.7974 0.815568C51.8265 0.728295 51.8992 0.655567 51.9719 0.524658Z" fill="white"/>
<path d="M95.7391 0.37915C96.8591 4.14642 97.9355 7.73915 99.041 11.4337C98.3864 11.4337 97.8046 11.4337 97.2082 11.4337C95.7537 11.4337 94.2991 11.4337 92.8591 11.4482C92.5391 11.4482 92.3064 11.4773 92.4373 10.9973C93.3973 7.46279 94.5028 3.98642 95.7391 0.37915Z" fill="white"/>
<path d="M3.73924 5.80461C3.73924 5.22279 3.75378 4.64097 3.73924 4.05916C3.72469 3.7537 3.84106 3.63734 4.16106 3.63734C5.39742 3.60824 6.38651 4.61188 6.37196 5.92097C6.35742 7.14279 5.2956 8.16098 4.13196 8.08825C3.79742 8.07371 3.73924 7.89916 3.75378 7.6228C3.73924 7.01189 3.73924 6.40098 3.73924 5.80461Z" fill="white"/>
<path d="M79.9573 4.01561C79.9573 3.97198 79.9428 3.91379 79.9573 3.87016C80.0446 3.55016 79.7246 3.05561 80.2046 2.93925C80.7282 2.80834 81.2518 2.99743 81.63 3.43379C81.95 3.81198 81.9646 4.21925 81.7173 4.62652C81.6155 4.80107 81.4409 4.97561 81.2664 5.07743C80.9028 5.28107 80.4955 5.45561 80.1028 5.25198C79.7828 5.07743 80.001 4.6847 79.9573 4.39379C79.9428 4.26288 79.9573 4.14652 79.9573 4.01561Z" fill="white"/>
</svg>
