<svg width="61" height="30" viewBox="0 0 61 30" fill="none" xmlns="http://www.w3.org/2000/svg">
<path d="M15.6224 15.3416C15.6224 12.1611 15.6305 9.76963 15.6144 7.38625C15.6063 6.85483 15.5338 6.3234 15.4372 5.80002C15.3003 5.04314 14.6642 4.50366 13.8912 4.37483C12.2245 4.09301 10.5497 4.21379 8.87488 4.20573C8.42397 4.20573 8.60111 4.54392 8.63332 4.72106C8.7702 5.45379 8.67358 6.16236 8.46422 6.85483C8.17435 7.83716 7.55436 8.6021 6.78942 9.25431C6.47539 9.52807 6.18552 9.82599 5.8715 10.0998C5.28371 10.6231 5.38033 11.1143 5.8715 11.6538C6.40293 12.2335 7.00682 12.7569 7.5141 13.3689C8.31124 14.3351 8.64137 15.4301 8.64137 16.6621C8.64137 18.2161 7.98111 19.4078 6.78137 20.3418C6.47539 20.5834 6.17747 20.833 5.90371 21.0987C5.37228 21.614 5.32397 22.2582 5.72656 22.8782C5.96812 23.2486 6.29825 23.5546 6.61228 23.8605C7.62682 24.8509 8.3515 26.0104 8.65747 27.4114C8.74604 27.8301 8.79436 28.2488 8.84267 28.6756C8.86682 28.8688 8.80241 28.9413 8.60916 28.9413C6.95851 28.9252 5.30786 28.9091 3.65721 28.893C3.48812 28.893 3.41565 28.8286 3.39955 28.6595C3.31098 27.7094 2.7876 27.0008 2.11929 26.3727C1.31409 25.6159 0.573315 24.8107 0.259289 23.7156C-0.344607 21.5818 0.106302 19.3837 2.03877 17.9021C2.23202 17.7572 2.40916 17.5961 2.60241 17.4512C3.33513 16.8956 3.37539 16.2676 2.73124 15.5912C2.17565 15.0114 1.57176 14.472 1.06448 13.8439C-0.360711 12.0966 -0.441231 9.25431 1.35435 7.53119C1.78916 7.11249 2.24812 6.71794 2.68293 6.30729C3.41565 5.61483 3.34319 5.09145 2.73124 4.32651C2.21591 3.69041 1.57176 3.17509 1.04033 2.54703C0.484743 1.89483 0.146562 1.1621 0.00967846 0.324696C-0.0386332 0.0428776 0.0982499 0.0187218 0.323705 0.0187218C1.99046 0.0267737 3.65721 -0.0376419 5.31591 0.0348256C8.31929 0.155605 11.3227 0.0106698 14.326 0.123397C15.7351 0.179761 17.1523 0.308592 18.505 0.775605C20.4697 1.46807 21.5728 2.90132 22.0559 4.87405C22.4102 6.3395 22.539 7.82911 22.539 9.32677C22.539 13.3286 22.5632 17.3224 22.5149 21.3242C22.4988 22.685 22.2411 24.0296 21.6211 25.2777C20.832 26.872 19.439 27.6772 17.8286 28.1925C15.6868 28.8769 13.4645 28.9333 11.2421 28.9574C10.9523 28.9574 10.9603 28.8125 10.9603 28.6031C10.9684 27.4598 10.9764 26.3244 10.9523 25.1811C10.9442 24.8831 11.0247 24.7865 11.3307 24.7946C12.2406 24.8268 13.1505 24.8107 14.0281 24.5127C14.9621 24.1907 15.4614 23.5385 15.5338 22.5561C15.7432 19.8909 15.5499 17.2177 15.6224 15.3416Z" fill="white"/>
<path d="M34.0051 26.2844C33.6589 26.7514 33.3771 27.2345 33.0148 27.6613C32.282 28.5389 31.3641 29.0059 30.2368 29.167C29.1337 29.32 28.0789 29.2314 27.0644 28.7805C25.7761 28.2007 25.0755 27.162 24.8179 25.8174C24.5844 24.6096 24.7293 23.3857 24.7132 22.1698C24.7051 21.4371 24.6568 20.7044 24.7857 19.9636C25.0031 18.7477 25.7036 17.8862 26.6457 17.1696C27.8212 16.2758 29.1579 15.6558 30.4703 15.0116C31.3722 14.5688 32.2498 14.0937 33.055 13.4898C33.6267 13.0631 33.9166 12.4753 33.981 11.7828C34.0213 11.3722 34.0374 10.9535 33.9005 10.5509C33.6911 9.89866 33.2724 9.6571 32.3787 9.69736C31.8714 9.72151 31.4285 10.1402 31.3238 10.6877C31.1548 11.5251 31.2514 12.3706 31.2433 13.2161C31.2433 13.5301 31.1628 13.6187 30.8407 13.6187C28.9324 13.6026 27.0322 13.6026 25.1238 13.6187C24.7535 13.6187 24.6729 13.5059 24.689 13.1597C24.7373 12.121 24.6166 11.0742 24.8742 10.0436C25.2446 8.57008 26.0981 7.49112 27.4025 6.75034C28.7392 5.98541 30.1805 5.62307 31.7103 5.51034C33.675 5.36541 35.5672 5.63112 37.3628 6.48463C39.255 7.38645 40.334 8.8519 40.5433 10.9535C40.5916 11.4446 40.6158 11.9439 40.6158 12.435C40.6158 17.7896 40.6077 23.1441 40.6239 28.4987C40.6239 28.861 40.5353 28.9818 40.1568 28.9737C38.2485 28.9576 36.3483 28.9576 34.44 28.9737C34.0535 28.9818 33.9649 28.8529 33.981 28.4906C34.0213 27.7498 34.0051 27.0171 34.0051 26.2844ZM34.0213 17.2018C33.4415 17.5883 32.9262 17.8942 32.4431 18.2566C31.6298 18.8605 31.195 19.6496 31.2433 20.6963C31.2755 21.421 31.2433 22.1457 31.2514 22.8703C31.2514 23.6433 31.6459 24.1506 32.3464 24.207C33.1355 24.2633 33.7153 24.0137 33.8683 23.1924C33.9166 22.9187 33.989 22.6368 33.989 22.3631C34.0132 20.9057 34.0132 19.4402 34.0213 17.9828C34.0213 17.7493 34.0213 17.5239 34.0213 17.2018Z" fill="white"/>
<path d="M44.8753 0.0268508C45.6966 0.0268508 46.5099 0.0268508 47.3312 0.0268508C47.46 0.0268508 47.5888 0.0107469 47.7016 0.123474C48.5551 1.02529 49.5213 1.82244 50.1252 2.94166C50.9867 4.53594 50.9626 6.8549 49.7065 8.36062C49.167 9.00477 48.4906 9.49594 47.927 10.0998C47.4197 10.6474 47.4036 11.0822 47.9109 11.6378C48.4745 12.2497 49.0945 12.7972 49.626 13.4414C51.0995 15.2128 51.2605 18.5866 48.853 20.3258C48.5389 20.5513 48.2491 20.8089 47.9673 21.0827C47.4197 21.6141 47.3714 22.2905 47.7982 22.9346C48.0075 23.2487 48.2813 23.5144 48.5551 23.772C49.8112 24.9476 50.568 26.3728 50.8418 28.0718C50.9787 28.9092 50.9626 28.9656 50.1332 28.9575C48.7 28.9494 47.2587 28.9172 45.8255 28.9253C45.5517 28.9253 45.447 28.8287 45.4229 28.571C45.3343 27.7256 44.8673 27.0894 44.2795 26.5097C43.5387 25.777 42.7577 25.0604 42.4114 24.0378C41.8075 22.2663 41.8961 20.5674 43.0153 19.0053C43.4421 18.4014 44.0218 17.9344 44.6177 17.4915C45.3987 16.9037 45.439 16.2837 44.7545 15.5752C44.0299 14.8263 43.2166 14.158 42.6933 13.224C41.6948 11.4365 41.8156 9.09334 43.3777 7.57153C43.8125 7.15283 44.2634 6.75023 44.6982 6.33958C45.439 5.63101 45.439 5.02711 44.7384 4.26218C44.0782 3.5375 43.3213 2.9175 42.7577 2.10425C42.3792 1.56477 42.194 0.960877 42.0652 0.332825C42.0088 0.0671105 42.1457 0.0187988 42.3792 0.0187988C43.2166 0.0268508 44.046 0.0268508 44.8753 0.0268508Z" fill="white"/>
<path d="M57.8952 28.9012C57.1061 28.9012 56.309 28.8932 55.5199 28.9012C55.2703 28.9012 55.1495 28.861 55.1334 28.555C55.0851 27.8947 54.7791 27.3311 54.3282 26.856C53.7726 26.2763 53.1687 25.7368 52.6937 25.0846C51.9368 24.0378 51.7355 22.8542 51.7999 21.59C51.8804 19.8911 52.7581 18.6672 54.0625 17.6768C54.1672 17.5963 54.2799 17.5158 54.3765 17.4272C55.1173 16.7267 55.1656 16.3965 54.5053 15.5994C54.0625 15.068 53.5391 14.601 53.056 14.0937C51.5664 12.5477 51.3731 9.8181 52.5648 8.1755C53.0721 7.48304 53.7404 6.97576 54.3363 6.37187C54.3846 6.32355 54.457 6.2994 54.4892 6.24304C54.7791 5.6955 55.2622 5.68745 55.8098 5.6955C57.2188 5.71966 58.6279 5.70355 60.037 5.70355C60.504 5.70355 60.4799 5.70355 60.4074 6.17862C60.19 7.66018 59.2479 8.65862 58.1851 9.58459C57.9355 9.802 57.6537 10.0033 57.4685 10.2771C57.1786 10.7038 57.1786 10.9454 57.4765 11.3802C57.9355 12.0565 58.5877 12.5397 59.1352 13.1275C60.6329 14.7378 60.9308 17.4111 59.6666 19.1906C59.1835 19.8669 58.5313 20.3662 57.8952 20.8734C57.1061 21.5015 57.0417 22.3791 57.7422 23.128C58.4911 23.9251 59.2882 24.682 59.8116 25.6724C60.3108 26.6064 60.5282 27.6129 60.649 28.6516C60.6731 28.869 60.5765 28.9173 60.3752 28.9173C59.5539 28.9093 58.7407 28.9173 57.9194 28.9173C57.8952 28.9334 57.8952 28.9173 57.8952 28.9012Z" fill="white"/>
<path d="M57.2269 4.10893C56.3654 4.10893 55.5119 4.10087 54.6503 4.11698C54.4329 4.11698 54.2719 4.06061 54.1189 3.89958C53.4023 3.1588 52.5971 2.49854 52.1381 1.54841C51.9529 1.16192 51.8482 0.751267 51.7919 0.324514C51.7677 0.123216 51.7999 0.0265923 52.0334 0.0346442C53.7244 0.0426962 55.4153 0.0426962 57.1062 0.0346442C57.2028 0.0346442 57.2833 0.0426962 57.3638 0.123216C58.2657 1.03308 59.2721 1.86243 59.868 3.02997C59.9968 3.27958 60.0854 3.54529 60.1981 3.80295C60.3028 4.04451 60.2303 4.13308 59.9566 4.12503C59.0467 4.10087 58.1368 4.10893 57.2269 4.10893Z" fill="white"/>
</svg>
