<svg width="110" height="19" viewBox="0 0 110 19" fill="none" xmlns="http://www.w3.org/2000/svg">
<path d="M63.9443 0.19926C65.1301 0.19926 66.2729 0.17069 67.4015 0.213547C67.6301 0.227833 67.9015 0.456405 68.0586 0.656405C69.0872 1.97069 70.0729 3.29926 71.1586 4.71355C71.8158 3.8564 72.4301 3.0564 73.0586 2.27069C73.6015 1.58497 74.0158 0.642118 74.7301 0.284975C75.4158 -0.0578817 76.4015 0.19926 77.2587 0.19926C77.6301 0.19926 78.0158 0.19926 78.4444 0.19926C78.4444 5.49926 78.4444 10.7421 78.4444 16.0278C77.2015 16.0278 75.9729 16.0278 74.6586 16.0278C74.6586 12.785 74.6586 9.57069 74.6586 6.34212C74.5872 6.31355 74.5301 6.28498 74.4586 6.2564C73.3729 7.67069 72.2729 9.07069 71.1586 10.5278C70.0301 9.0564 68.9301 7.62783 67.8443 6.21355C67.7872 6.22783 67.7443 6.2564 67.6872 6.27069C67.6872 9.51355 67.6872 12.7564 67.6872 16.0421C66.4015 16.0421 65.2015 16.0421 63.9443 16.0421C63.9443 10.785 63.9443 5.54212 63.9443 0.19926Z" fill="white"/>
<path d="M89.7444 11.0992C87.973 11.0992 86.3159 11.0992 84.5301 11.0992C84.6301 12.9849 85.5444 14.4992 86.5159 16.0992C85.3873 16.742 84.273 17.3849 83.1301 18.0277C81.2587 15.3992 80.3873 12.542 80.6587 9.34201C80.7873 7.77059 81.1158 6.24202 81.8587 4.81345C83.473 1.72773 86.1873 0.470592 89.4873 0.227735C90.6873 0.14202 91.9016 0.213448 93.1587 0.213448C93.473 1.29916 93.773 2.37059 94.1159 3.5563C93.1445 3.5563 92.2587 3.5563 91.3587 3.5563C89.5159 3.5563 87.8444 4.09916 86.3873 5.24202C85.4873 5.9563 85.0873 6.69916 85.1016 7.59916C86.6159 7.59916 88.1301 7.59916 89.7016 7.59916C89.7016 6.48487 89.7016 5.39916 89.7016 4.24202C91.0302 4.24202 92.2873 4.24202 93.6016 4.24202C93.6016 8.14202 93.6016 12.042 93.6016 15.9992C92.3444 15.9992 91.073 15.9992 89.7444 15.9992C89.7444 14.3992 89.7444 12.7849 89.7444 11.0992Z" fill="white"/>
<path d="M61.7159 6.38498C61.7731 8.59927 61.3159 10.7278 60.2588 12.6707C59.0159 14.9564 57.2016 16.3993 54.4588 16.285C52.4159 16.1993 50.8445 15.2136 49.7159 13.5421C47.8588 10.785 47.2016 7.72784 47.7159 4.4707C48.0445 2.41355 49.3159 1.05641 51.3302 0.499267C53.7302 -0.157876 56.1445 -0.21502 58.5302 0.627837C60.5588 1.34212 61.4445 2.92784 61.7016 4.94213C61.7731 5.42784 61.7159 5.91355 61.7159 6.38498ZM51.4159 7.22784C51.4302 9.39927 51.8445 10.9278 53.0302 12.1707C54.1588 13.3564 55.6588 13.2564 56.6588 11.985C58.0874 10.1707 58.3445 6.72784 57.2016 4.75641C56.0731 2.81355 53.4016 2.75641 52.2016 4.6707C51.6159 5.59927 51.4159 6.64213 51.4159 7.22784Z" fill="white"/>
<path d="M109.802 16.0708C108.302 16.0708 106.93 16.0851 105.559 16.0565C105.373 16.0565 105.145 15.7851 105.03 15.5851C103.687 13.1708 102.373 10.7565 101.045 8.34225C100.945 8.15654 100.83 7.98511 100.573 7.82797C100.573 10.5565 100.573 13.2851 100.573 16.0423C99.1874 16.0423 97.916 16.0423 96.5874 16.0423C96.5874 10.7994 96.5874 5.55654 96.5874 0.256532C97.8731 0.256532 99.1731 0.256532 100.559 0.256532C100.559 2.48511 100.559 4.69939 100.559 6.91368C100.616 6.92797 100.673 6.94225 100.73 6.97082C100.859 6.78511 100.987 6.61368 101.102 6.41368C102.245 4.49939 103.373 2.57082 104.53 0.656533C104.659 0.456533 104.945 0.227961 105.159 0.227961C106.459 0.185104 107.773 0.213675 109.23 0.213675C109.045 0.527961 108.916 0.756531 108.773 0.985103C107.53 2.84225 106.302 4.71368 105.045 6.55654C104.759 6.97082 104.759 7.28511 105.002 7.71368C106.602 10.4423 108.159 13.1851 109.802 16.0708Z" fill="white"/>
<path d="M31.4444 6.3992C31.173 7.32778 30.9444 8.24206 30.6301 9.12777C30.5587 9.31349 30.1587 9.4992 29.9159 9.4992C28.673 9.54206 27.4444 9.54206 26.2016 9.51349C25.5587 9.4992 25.2873 9.71349 25.3444 10.3706C25.3873 10.8849 25.3873 11.4135 25.3444 11.9421C25.3016 12.5563 25.5444 12.7849 26.1587 12.7706C27.9873 12.7278 29.8159 12.7278 31.6587 12.7135C31.9159 12.7135 32.173 12.7135 32.5301 12.7135C32.2159 13.7849 31.9444 14.7563 31.6301 15.7135C31.5873 15.8563 31.2587 15.9992 31.073 15.9992C28.073 16.0135 25.073 15.9992 22.073 16.0135C21.6159 16.0135 21.5159 15.8278 21.5159 15.4135C21.5302 10.5563 21.5302 5.6992 21.5159 0.856347C21.5159 0.370633 21.7016 0.256348 22.1444 0.256348C24.9587 0.270633 27.7587 0.270633 30.573 0.256348C30.9444 0.256348 31.1159 0.356347 31.2159 0.742061C31.4301 1.62778 31.7159 2.4992 32.0016 3.45635C31.6587 3.47063 31.4016 3.4992 31.1444 3.4992C29.473 3.48492 27.8159 3.48492 26.1444 3.45635C25.6302 3.45635 25.3587 3.5992 25.3444 4.18492C25.2587 6.27063 25.2444 6.27063 27.3016 6.27063C28.6159 6.27063 29.9159 6.28492 31.2301 6.28492C31.273 6.28492 31.3159 6.32778 31.4444 6.3992Z" fill="white"/>
<path d="M46.3303 0.270661C45.2588 2.27066 44.316 4.15637 43.2731 5.98495C42.816 6.78495 42.7588 7.41352 43.216 8.25637C44.5303 10.6707 45.7445 13.1421 46.9874 15.5849C47.0445 15.6849 47.0588 15.7992 47.1303 16.0135C45.616 16.0135 44.1874 16.0278 42.7445 15.9992C42.6303 15.9992 42.4588 15.8278 42.4017 15.6992C41.0588 13.0278 39.7303 10.3564 38.416 7.67066C38.3445 7.51352 38.3731 7.25638 38.4588 7.08495C39.5731 4.94209 40.6874 2.79923 41.8303 0.656377C41.916 0.484948 42.1731 0.284947 42.3445 0.284947C43.6303 0.256376 44.9017 0.270661 46.3303 0.270661Z" fill="white"/>
<path d="M38.0017 8.15631C38.0017 10.5277 37.9874 12.9134 38.016 15.2849C38.016 15.8277 37.916 16.0706 37.316 16.0277C36.4588 15.9706 35.6017 15.9992 34.7445 16.0134C34.2874 16.0277 34.116 15.842 34.116 15.3849C34.1303 10.5277 34.1303 5.68488 34.116 0.827745C34.116 0.399174 34.2731 0.242031 34.7017 0.256317C35.5874 0.284888 36.4588 0.299174 37.3445 0.256317C37.8874 0.227745 38.0303 0.427744 38.0303 0.956315C37.9874 3.35631 38.0017 5.75631 38.0017 8.15631Z" fill="white"/>
<path d="M10.0301 10.1994C9.51579 9.34226 8.7015 8.58512 8.67293 7.7994C8.64436 7.02797 9.41579 6.22797 9.85864 5.45654C10.2444 4.77083 10.6444 4.0994 11.1301 3.28511C10.5586 3.05654 10.0444 2.77083 9.5015 2.64225C7.43007 2.11368 5.57293 2.57083 4.07293 4.11368C3.67293 4.52797 3.27293 4.6994 2.71579 4.67083C2.13007 4.62797 1.53007 4.65654 0.858643 4.65654C1.33007 3.45654 2.1015 2.57083 3.01579 1.81368C6.15864 -0.800606 10.9158 -0.557749 13.8158 2.34225C14.2158 2.74225 14.2872 3.02797 13.9729 3.55654C12.6301 5.72797 11.3586 7.92797 10.0301 10.1994Z" fill="white"/>
<path d="M14.7442 3.31348C16.1299 5.31348 16.5728 7.42776 16.0585 9.68491C15.3156 12.8563 13.3014 14.8706 10.1728 15.7563C9.82993 15.8563 9.57279 15.8992 9.34422 15.4992C8.08707 13.2849 6.80136 11.0849 5.54422 8.88491C5.50136 8.81348 5.48707 8.71348 5.42993 8.55633C6.34422 8.55633 7.18707 8.52777 8.04422 8.58491C8.22993 8.59919 8.4585 8.85634 8.58707 9.04205C9.34422 10.2992 10.0728 11.5849 10.8442 12.9135C12.4871 12.0135 13.5156 10.6849 13.7728 8.89919C13.9014 8.01348 13.6442 7.07062 13.6014 6.15634C13.5871 5.85634 13.5871 5.51348 13.7156 5.24205C13.9585 4.61348 14.3299 4.02776 14.7442 3.31348Z" fill="white"/>
<path d="M2.5586 7.91371C2.30145 10.4423 4.23002 13.0137 6.80145 13.5708C7.37288 13.6994 7.6586 13.9566 7.90145 14.428C8.17288 14.9566 8.48717 15.4566 8.91574 16.1851C7.87288 16.0851 7.00145 16.0851 6.17288 15.8851C2.50145 15.028 -0.0699769 11.6423 0.00145171 7.88514C0.00145171 7.78514 0.00145171 7.69943 0.0157374 7.59943C0.187166 5.41371 0.258595 5.34229 2.40145 5.34229C4.54431 5.34229 6.68717 5.34229 8.98717 5.34229C8.51574 6.19943 8.10145 6.98514 7.64431 7.74228C7.5586 7.88514 7.23003 7.91371 7.00145 7.91371C5.54431 7.91371 4.07288 7.91371 2.5586 7.91371Z" fill="white"/>
</svg>
