<svg width="89" height="34" viewBox="0 0 89 34" fill="none" xmlns="http://www.w3.org/2000/svg">
<path d="M47.5136 33.921C39.6591 33.921 31.8045 33.921 23.9375 33.921C23.9001 33.6717 24.0747 33.5096 24.1869 33.3101C24.9474 32.0135 25.7079 30.7169 26.456 29.4202C26.618 29.4078 26.7801 29.3704 26.9422 29.3704C34.5973 29.3704 42.2523 29.3704 49.9074 29.3704C50.0695 29.3704 50.2315 29.3953 50.4061 29.4078C50.3687 29.52 50.3188 29.6322 50.2814 29.7444C49.4461 30.9911 48.698 32.3002 47.95 33.6093C47.9001 33.6966 47.8502 33.7839 47.8004 33.8836C47.738 33.8961 47.6882 33.9085 47.6258 33.921C47.6009 33.9085 47.551 33.921 47.5136 33.921Z" fill="white"/>
<path d="M26.4686 29.4075C25.7081 30.7042 24.9475 32.0008 24.1995 33.2974C24.0873 33.4844 23.9003 33.6465 23.9501 33.9083C15.9958 33.9083 8.05403 33.9083 0 33.9083C0.872727 32.4247 1.68312 31.0782 2.48104 29.7317C2.63065 29.4823 2.8052 29.3577 3.12935 29.3577C10.7844 29.3701 18.452 29.3701 26.107 29.3701C26.2192 29.3826 26.3439 29.3951 26.4686 29.4075Z" fill="white"/>
<path d="M50.2939 29.7317C50.3313 29.6195 50.3812 29.5073 50.4186 29.3951C50.5682 29.3826 50.7054 29.3577 50.855 29.3577C58.535 29.3577 66.2025 29.3577 73.8825 29.3577C73.9823 29.3577 74.0945 29.3701 74.1942 29.3701C74.0696 29.4948 73.9449 29.6195 73.8202 29.7442C66.0529 29.7442 58.2732 29.7442 50.5059 29.7566C50.4311 29.7566 50.3688 29.7442 50.2939 29.7317Z" fill="white"/>
<path d="M73.8203 29.7567C73.945 29.632 74.0696 29.5074 74.1943 29.3827C74.4561 29.3453 74.4187 29.4824 74.3314 29.632C73.5211 30.9785 72.6982 32.325 71.8878 33.6715C71.7756 33.8585 71.626 33.9084 71.4265 33.9084C63.572 33.8959 55.7299 33.8959 47.8753 33.8835C47.8504 33.8835 47.8379 33.871 47.813 33.871C47.8629 33.7837 47.9127 33.6964 47.9626 33.5967C48.0997 33.5967 48.2369 33.6092 48.3865 33.6092C50.107 33.6092 51.8275 33.6092 53.5481 33.6092C59.2956 33.6092 65.0431 33.6092 70.7907 33.6092C71.2894 33.6092 71.6509 33.497 71.8878 32.9609C72.0748 32.5494 72.3117 32.138 72.5985 31.7515C73.0598 31.1406 73.4213 30.43 73.8203 29.7567Z" fill="white"/>
<path d="M88.532 7.17793C88.5445 7.12806 88.5694 7.07819 88.5819 7.02832C88.6691 7.11559 88.6567 7.17793 88.532 7.17793Z" fill="white"/>
<path d="M47.5137 33.9209C47.5635 33.9209 47.6009 33.9209 47.6508 33.9209C47.6009 33.9708 47.5511 33.9708 47.5137 33.9209Z" fill="white"/>
<path d="M48.3863 33.6091C48.2492 33.6091 48.112 33.5966 47.9624 33.5966C48.7105 32.2875 49.4585 30.9784 50.2938 29.7317C50.3686 29.7442 50.431 29.7566 50.5058 29.7566C50.4808 30.0184 50.3063 30.2055 50.1816 30.4049C49.5458 31.4647 48.9224 32.512 48.3863 33.6091Z" fill="white"/>
<path d="M48.3865 33.6091C48.9226 32.5119 49.546 31.4522 50.1818 30.4174C50.3065 30.2054 50.481 30.0184 50.506 29.7691C58.2732 29.7691 66.053 29.7691 73.8202 29.7566C73.4213 30.4298 73.0597 31.128 72.5984 31.7639C72.3117 32.1504 72.0748 32.5618 71.8878 32.9732C71.6384 33.5093 71.2893 33.6215 70.7906 33.6215C65.0431 33.6215 59.2956 33.6215 53.548 33.6215C51.8275 33.6215 50.107 33.6215 48.3865 33.6091Z" fill="white"/>
<path d="M88.2949 6.96614C82.8965 6.96614 77.498 6.94121 72.0996 6.99108C71.0398 7.00355 69.9676 7.26536 68.9702 7.68926C68.9453 7.65186 68.9204 7.60199 68.883 7.56458L68.858 7.53965C68.9204 7.47731 68.9702 7.40251 69.0326 7.34017C69.0076 7.35264 68.9827 7.35264 68.9578 7.3651C68.9827 7.35264 68.9952 7.34017 69.0326 7.34017C69.1323 7.15315 69.07 6.95367 68.858 6.95367C65.7536 6.95367 62.6367 7.00355 59.5323 6.92874C58.6596 6.9038 58.2482 7.2529 57.9739 7.93861C57.9489 7.98848 57.9115 8.02588 57.8617 8.02588C57.8243 8.02588 57.7744 8.03835 57.737 8.03835C57.6871 8.03835 57.6248 8.01341 57.5998 7.96354C57.525 7.85134 57.4128 7.77653 57.2882 7.71419C57.2508 7.68926 57.2133 7.66432 57.1759 7.63939C57.1635 7.65186 57.151 7.66432 57.1385 7.66432C57.151 7.65186 57.1635 7.63939 57.1759 7.63939C56.4778 7.05341 55.63 6.96614 54.7697 6.95367C51.9396 6.94121 49.1219 6.92874 46.2918 6.95367C45.3069 6.96614 44.3469 7.19056 43.4243 7.57705C43.125 7.70173 43.0502 7.58952 43.1375 7.30277C43.1749 7.14069 43.0502 6.95367 42.9006 6.95367C38.0009 6.95367 33.1136 6.94121 28.2139 6.95367C27.6778 6.95367 27.7027 6.77913 27.9521 6.45497L27.9645 6.44251C28.0269 6.38017 28.1391 6.26796 28.1889 6.23056C28.2014 6.21809 28.2139 6.20562 28.2388 6.20562C28.8123 5.96874 29.3983 5.9064 30.0092 5.91887C31.1936 5.94381 32.3656 5.93134 33.55 5.93134C34.1858 5.93134 34.6721 5.91887 35.2954 5.91887C38.1006 5.91887 40.9058 5.91887 43.6985 5.93134C43.9479 5.93134 44.0726 5.85653 44.2346 5.63212C45.3443 3.949 46.3541 2.19108 47.3765 0.458093C47.4513 0.246145 47.3266 -0.00320525 47.1645 0.00926228C47.0149 -0.00320525 26.8175 -0.0281403 26.1941 0.133938L25.9448 0.158872C25.8824 0.17134 25.8201 0.17134 25.7453 0.17134C25.1593 0.196275 23.4388 0.670041 22.8404 0.956794C20.7084 1.9542 19.0752 3.40043 17.9656 5.45757C17.9032 5.54484 17.8159 5.68199 17.7661 5.76926C17.5915 5.96874 17.4544 6.19316 17.3547 6.43004C17.3172 6.49238 17.2549 6.60458 17.2175 6.66692C17.1801 6.71679 17.1427 6.77913 17.1053 6.829C17.0804 6.8664 17.043 6.87887 17.0056 6.89134C15.9209 7.02848 14.8237 6.92874 13.7266 6.94121C13.39 6.94121 13.203 7.02848 13.0409 7.3277C12.4674 8.31264 9.62478 12.963 9.54997 13.1126C9.4627 13.2747 9.61231 13.2996 9.87413 13.2996C10.7967 13.2996 11.7318 13.2996 12.6544 13.2996C12.7043 13.2996 12.7417 13.3246 12.7666 13.362L12.7791 13.3869C12.7915 13.4119 12.7915 13.4368 12.7791 13.4617C12.4424 14.0228 8.55257 20.3438 6.73231 23.336C6.5827 23.5854 6.23361 24.0342 6.29595 24.0965C6.35829 24.1589 6.37075 24.1589 6.39569 24.1589C9.82426 24.1589 13.2404 24.1589 16.6689 24.1713C16.9557 24.1713 17.0928 24.0467 17.205 23.8472C19.2622 20.3563 21.4689 16.9526 23.4513 13.4119C23.4887 13.3495 23.5136 13.3121 23.5884 13.3246C25.2591 13.3121 26.9172 13.2872 28.5879 13.2747C28.6876 13.2747 28.8123 13.3121 28.8123 13.4119C28.8123 13.4991 24.4237 20.5682 22.3666 23.9095C22.3417 23.9594 22.3043 24.0217 22.3417 24.0965C22.3666 24.1464 22.4165 24.1713 22.4663 24.1713C23.4637 24.1713 24.4985 24.1713 25.5209 24.1713C27.9022 24.1589 30.2835 24.1464 32.6648 24.1339C32.7521 24.1339 32.8269 24.1339 32.9141 24.1339C33.0263 24.1464 33.0513 24.0716 33.0637 23.9968C33.0637 23.9718 33.0762 23.9594 33.0887 23.9469C33.4627 23.4482 33.7869 22.9246 34.0611 22.3635C34.2731 22.3386 34.323 22.3386 34.5349 22.3137C35.5074 23.5729 36.8539 24.1215 38.4123 24.1589C40.1702 24.2087 41.9406 24.1713 43.711 24.1713C45.1448 24.1713 46.5785 24.2586 47.9749 23.8347C48.0871 23.7973 48.1993 23.7599 48.2741 23.922C48.3863 24.2212 48.5858 24.1713 48.7728 24.1713C51.4783 24.1838 54.1837 24.0716 56.8643 24.2212C58.3728 24.3085 59.3453 23.9095 59.8689 22.4882C60.031 22.0643 60.1806 22.1391 60.4549 22.4383C61.2778 23.3609 62.2876 23.9469 63.5469 24.0716C63.5593 24.0716 63.5718 24.0716 63.5843 24.0841C63.871 24.2212 64.1827 24.1713 64.4819 24.1713C67.2123 24.1713 69.9552 24.1713 72.6856 24.1713C74.3313 24.1713 75.9895 24.1464 77.6352 24.1464C77.6476 24.1464 77.6601 24.1464 77.6726 24.1589C77.8471 24.2087 78.0092 24.2835 78.1089 24.0467C78.1089 24.0342 78.1214 24.0217 78.1214 24.0217C78.2087 23.9095 78.296 23.8098 78.3708 23.6851C79.4804 21.8898 80.59 20.082 81.6996 18.2742C81.8118 18.0872 81.9988 17.9376 82.0487 17.7132C82.0611 17.6383 82.0113 17.5511 81.9365 17.5386C81.9115 17.5386 81.8991 17.5261 81.8741 17.5261C78.5702 17.5261 75.2663 17.5386 71.9624 17.5386C71.4887 17.5386 71.0024 17.5511 70.5411 17.4389C70.5162 17.4139 70.5037 17.389 70.4788 17.3765C70.4414 17.3391 70.4289 17.2643 70.4539 17.2144C70.8279 16.4539 71.4014 15.8181 71.7879 15.07C72.0123 14.6212 72.324 14.3469 72.7978 14.2472C72.8102 14.2472 72.8227 14.2472 72.8352 14.2472C75.0045 14.2472 77.1863 14.2472 79.3557 14.2472C80.9141 14.2472 82.4601 14.2222 84.0185 14.2098C84.2056 14.2472 84.2804 14.1225 84.3302 13.9854C84.3302 13.9729 84.3427 13.9604 84.3427 13.9604C85.0534 12.8259 85.7515 11.7038 86.4497 10.5693C87.1354 9.45965 87.8211 8.3251 88.4944 7.21549C88.5817 7.06588 88.5318 6.96614 88.2949 6.96614ZM58.1484 22.9994C58.1235 23.0119 58.0985 23.0118 58.0736 23.0118L57.9739 22.9994C57.9739 23.2986 57.7869 23.3734 57.5624 23.3859C57.7869 23.3734 57.9739 23.3111 57.9739 22.9994C58.0113 22.9994 58.0362 22.9994 58.0736 23.0118C58.0985 23.0243 58.1235 23.0243 58.1484 22.9994C58.298 22.9121 58.3978 22.775 58.4975 22.6254C58.4102 22.7874 58.3105 22.9246 58.1484 22.9994ZM24.6357 23.0368C25.6206 21.4035 26.6056 19.7828 27.603 18.1495C29.5604 14.9578 31.5427 11.7661 33.5126 8.58692C33.5874 8.47471 33.6871 8.31264 33.7744 8.18796C33.8492 8.10069 33.9489 8.05082 34.0611 8.05082C36.1931 8.06329 38.325 8.06328 40.457 8.07575C40.6315 8.07575 40.8559 7.96355 40.9682 8.17549C41.0554 8.35004 40.8559 8.46225 40.7687 8.59939C38.138 12.963 35.4949 17.3142 32.8518 21.6778C32.6024 22.1017 32.3531 22.5256 32.1037 22.9495C32.0913 22.9495 32.0788 22.962 32.0663 22.962C32.0289 22.9869 32.004 23.0118 31.9541 23.0118C29.523 23.0368 27.0793 23.0368 24.6357 23.0368C24.6108 23.0742 24.5983 23.1116 24.5734 23.149C24.5983 23.0991 24.6232 23.0742 24.6357 23.0368ZM14.9734 12.5267C15.0606 12.3771 15.1604 12.2524 15.0232 12.2524C15.0232 12.2524 12.3178 12.2025 11.9063 12.19C11.8689 12.19 11.844 12.1526 11.8689 12.1152C12.6045 10.7563 13.4274 9.44718 14.2378 8.15056C14.2627 8.11316 14.3126 8.08822 14.3624 8.08822C15.4097 8.08822 16.457 8.08822 17.5043 8.08822C17.6788 8.08822 17.8783 8.17549 18.003 7.96354C16.7936 7.96354 15.5718 7.96354 14.3624 7.96354C15.5469 7.96354 16.7437 7.96354 17.9282 7.96354C17.978 7.96354 18.0154 7.93861 18.0404 7.90121C18.4019 7.42744 18.7136 6.91627 18.9879 6.39264C18.9879 6.39264 18.9879 6.39264 18.9879 6.38017C19.0253 6.31783 19.1874 6.05601 19.2372 5.96874C20.5339 3.83679 22.2669 2.22848 24.7105 1.4929C24.8975 1.44303 25.1843 1.36822 25.3214 1.34329H25.3339L27.1915 1.1064C27.2663 1.1064 27.3785 1.09394 27.4409 1.09394C30.3832 1.09394 33.3256 1.08147 36.2804 1.08147C36.3676 1.08147 36.4424 1.16874 36.4175 1.25602C36.405 1.29342 36.3926 1.33082 36.3801 1.36822C35.6695 2.51523 34.9463 3.64978 34.2357 4.79679C34.2108 4.8342 34.1609 4.85913 34.111 4.85913C32.4778 4.85913 30.8445 4.85913 29.2113 4.8716C29.1614 4.8716 29.0617 4.88407 29.0118 4.88407C28.2014 4.97134 27.4409 5.20822 26.8549 5.80666C26.3562 6.30536 25.9448 6.87887 25.658 7.52718V7.53965C25.6331 7.58952 25.3837 8.00095 25.5832 8.07575C25.6206 8.07575 25.6331 8.07575 25.5832 8.07575C27.578 8.08822 29.5853 8.08822 31.5801 8.11316C31.7547 8.11316 32.1785 8.15056 32.004 8.42484C31.2435 9.49705 30.5702 10.6191 29.9219 11.7537C29.8845 11.816 29.8471 11.8659 29.8097 11.9282C29.6352 12.2025 29.3734 12.2399 29.0617 12.2399C27.1167 12.2274 25.1593 12.2524 23.2144 12.215C22.7531 12.2025 22.5162 12.3646 22.2918 12.7511C21.444 14.1973 20.5588 15.6186 19.6861 17.0524C18.5391 18.9599 17.4045 20.8799 16.2575 22.7999C16.0705 23.0867 15.7713 23.0617 15.4845 23.0617C13.4897 23.0617 9.69959 23.0742 8.90166 23.0867C8.81439 23.0867 8.68971 23.0368 8.67725 22.937C8.67725 22.8622 8.73959 22.7376 8.77699 22.6752C8.85179 22.5131 14.8861 12.6389 14.9734 12.5267ZM37.6643 1.76718C37.7889 1.58017 38.0258 1.25602 38.138 1.13134C38.163 1.1064 38.1879 1.09394 38.2128 1.09394C38.5121 1.069 43.0004 1.04407 44.9079 1.05653C45.1074 1.05653 45.232 1.26848 45.1323 1.44303C44.5214 2.57757 43.8357 3.66225 43.1126 4.73446C43.0128 4.78433 42.938 4.82173 42.8508 4.8716C40.7562 4.79679 35.9437 5.12095 35.9687 4.75939L35.9562 4.74692C35.9313 4.70952 35.9437 4.67212 35.9562 4.63471C36.5671 3.68718 37.6518 1.79212 37.6643 1.76718ZM57.0513 7.7516C57.0388 7.7516 57.0263 7.7516 57.0139 7.73913C57.0388 7.7516 57.0513 7.7516 57.0513 7.7516ZM45.1572 8.17549C45.3941 8.12562 45.6435 8.10069 45.8928 8.10069C48.8601 8.10069 51.8024 8.08822 54.7822 8.08822C55.7671 8.08822 56.5276 8.56199 57.1011 9.33497C57.338 9.64666 57.525 9.98328 57.7619 10.3822C57.8118 10.4695 57.9489 10.4695 57.9988 10.3822C58.4975 9.60926 58.9713 8.86121 59.4575 8.11316C59.47 8.08822 59.4824 8.05082 59.4824 8.02588C59.4824 8.00095 59.4824 7.96354 59.47 7.93861C59.47 7.98848 59.4824 8.02588 59.4824 8.07575C61.764 8.07575 64.0456 8.07575 66.3271 8.08822C66.4892 8.08822 66.7261 7.96354 66.8258 8.18796C66.9006 8.36251 66.7011 8.47471 66.6263 8.61186C63.7962 13.2872 60.9661 17.9625 58.1359 22.6503C58.111 22.7002 58.0861 22.75 58.0736 22.8124C58.0736 22.8248 58.0611 22.8248 58.0611 22.8373C58.0237 22.8996 57.9988 22.9495 57.9614 23.0118C57.9614 23.0118 57.9614 23.0119 57.9739 23.0243L57.9614 23.0118C56.2035 23.0243 54.4331 23.0493 52.6752 23.0493C51.9022 23.0493 51.1417 23.0368 50.3687 23.0368C50.4559 22.4633 50.7676 21.977 51.017 21.3661C51.0669 21.2415 50.9172 21.1168 50.805 21.1916C50.5557 21.3537 50.3562 21.4908 50.1443 21.6404C48.7728 22.6004 47.2643 23.0617 45.5936 23.0493C43.3495 23.0243 41.1053 23.0368 38.8736 23.0493C38.325 23.0493 37.8014 23.0368 37.2778 22.8498C37.2778 22.9121 37.2778 22.9744 37.2778 23.0493C37.2778 23.0118 37.2778 22.9744 37.2778 22.9495C37.2778 22.8996 37.2404 22.8373 37.1905 22.8248C36.405 22.4508 35.7567 21.9272 35.445 21.0669C35.3079 20.6804 35.3578 20.3064 35.5822 19.9324C37.4274 16.8903 39.2476 13.8358 41.1053 10.8061C41.8534 9.58432 43.0627 8.93601 44.3718 8.44978C44.5837 8.37497 44.7957 8.30017 45.0201 8.22536C45.0326 8.20043 45.0949 8.18796 45.1572 8.17549ZM41.2923 8.33757C41.2798 8.37497 41.2674 8.42484 41.2424 8.47471C41.2674 8.42484 41.2798 8.37497 41.2923 8.33757ZM40.9058 7.81393C40.8809 7.83887 40.8684 7.85134 40.8435 7.8638C40.8684 7.85134 40.8933 7.83887 40.9058 7.81393ZM35.8066 4.47264V4.46017V4.47264ZM36.031 5.04614C36.0435 5.04614 36.0559 5.05861 36.0684 5.05861C36.0559 5.04614 36.0435 5.04614 36.031 5.04614ZM18.751 19.2217C18.5765 19.5334 18.3895 19.8451 18.2149 20.1568C18.3895 19.8451 18.5765 19.5334 18.751 19.2217ZM62.4996 22.6254C62.5121 22.9994 62.7739 22.9994 63.0357 23.0243C63.0731 23.0243 63.098 23.0493 63.123 23.0742C63.3224 23.2986 63.5967 23.3609 63.871 23.3859C63.5967 23.3734 63.3349 23.2986 63.123 23.0742C63.098 23.0493 63.0731 23.0243 63.0357 23.0243C62.7863 22.9994 62.5121 22.9869 62.4996 22.6254ZM77.2487 22.937L77.2237 22.962C77.2113 22.962 77.1988 22.9744 77.1988 22.9744C77.1739 22.9994 77.1365 23.0118 77.1115 23.0118C75.1292 23.0243 73.1469 23.0617 71.1645 23.0243C68.484 22.9744 65.791 23.1989 63.1105 22.8872C62.8611 22.8872 62.7863 22.5506 62.512 22.6004C62.3874 22.4383 62.2253 22.3261 62.0383 22.2389C62.0258 22.2264 62.0009 22.2139 61.9884 22.2015C61.7889 21.9646 61.5895 21.7277 61.39 21.4908C61.2653 21.017 60.9661 20.5433 61.2778 20.057C63.1853 17.1646 64.8933 14.1599 66.6887 11.2051C67.2996 10.1952 68.11 9.44718 69.1323 8.88614C69.8305 8.49965 70.591 8.31264 71.3515 8.08822C71.3515 8.03835 71.3391 7.97601 71.3391 7.92614C71.3391 7.97601 71.3515 8.03835 71.3515 8.08822C71.8253 8.07575 72.3115 8.06328 72.7853 8.06328C76.9869 8.06328 81.1759 8.06328 85.3775 8.06328C85.6019 8.06328 86.3001 8.05082 86.3001 8.05082C86.3001 8.05082 86.2502 8.05082 86.3001 8.05082C86.3375 8.07575 86.3375 8.12562 86.325 8.17549C85.3526 9.75887 84.3801 11.3422 83.4201 12.9381C83.4076 12.9506 83.4076 12.963 83.3952 12.9755C83.1957 13.15 82.9463 13.1126 82.7095 13.1126C80.9017 13.1126 79.1063 13.1002 77.2985 13.1126C75.7276 13.1251 74.1443 13.0503 72.5733 13.1625C71.8502 13.2248 71.2518 13.5241 70.8404 14.1225C70.2419 14.9828 69.6435 15.8555 69.0949 16.7656C68.5463 17.6757 68.9079 18.3116 69.9676 18.4612C70.1546 18.5609 70.3541 18.5609 70.5536 18.5485C70.5785 18.5485 70.6035 18.5485 70.6284 18.5609C70.8279 18.6607 71.0523 18.6108 71.2643 18.6108C74.057 18.6233 76.8622 18.6233 79.6549 18.6233C79.7546 18.6233 79.8295 18.723 79.7921 18.8228C79.7297 18.9474 79.6424 19.0596 79.5676 19.1719C78.857 20.3438 78.1463 21.5157 77.4232 22.6877C77.3235 22.8373 77.5604 22.9994 77.6601 22.8498C77.685 22.8248 77.6975 22.7874 77.7224 22.7625C77.5978 22.9246 77.498 23.0742 77.2487 22.937ZM80.1536 18.7854C80.1536 18.7854 80.1536 18.7978 80.1411 18.7978C80.1536 18.7978 80.1536 18.7854 80.1536 18.7854ZM79.4056 18.2742C79.443 18.2742 79.4679 18.2617 79.5053 18.2617C79.4679 18.2742 79.443 18.2742 79.4056 18.2742ZM70.0424 18.2867C70.005 18.2867 69.9552 18.2742 69.9302 18.2368C69.8804 18.162 69.8056 18.1246 69.7308 18.0872C69.8056 18.1246 69.8804 18.1744 69.9302 18.2368C69.9552 18.2617 70.005 18.2867 70.0424 18.2867C70.3043 18.2867 70.5661 18.2867 70.8279 18.2867C70.5661 18.2867 70.3043 18.2867 70.0424 18.2867ZM32.8019 23.7724C29.5604 23.7724 26.3313 23.7724 23.0897 23.7724C22.9775 23.7724 22.9152 23.6477 22.965 23.5604C23.5635 22.588 24.1619 21.6155 24.7604 20.643C24.1619 21.6155 23.5635 22.588 22.965 23.5604C22.9027 23.6602 22.9775 23.7724 23.0897 23.7724H32.8019C32.8767 23.7724 32.964 23.7599 33.0388 23.7599C32.964 23.7599 32.8767 23.7724 32.8019 23.7724ZM63.1853 23.7599C63.1354 23.7599 63.0731 23.7225 63.0606 23.6726C63.0482 23.6477 63.0357 23.6228 63.0232 23.6103C63.0108 23.5978 62.9983 23.5729 62.9858 23.5729C62.9983 23.5854 63.0108 23.5978 63.0232 23.6103C63.0357 23.6352 63.0482 23.6477 63.0606 23.6726C63.0856 23.735 63.1354 23.7599 63.1853 23.7599C67.9479 23.7599 72.723 23.7599 77.4856 23.7848C72.723 23.7599 67.9604 23.7599 63.1853 23.7599Z" fill="white"/>
<path d="M56.5277 11.5667C56.4903 11.4919 56.3906 11.2924 56.3906 11.2924C56.3532 11.1552 56.2659 11.068 56.1287 11.0181C55.9916 10.856 55.256 10.6441 55.2061 10.6316C54.7074 10.4321 51.8524 10.4072 51.6155 10.4197C51.4285 10.4321 50.9048 10.4695 50.83 10.482C50.5682 10.5319 50.2939 10.5693 50.0197 10.6067C49.1843 10.7313 48.4612 11.1552 47.9874 11.9158C46.7407 13.8981 45.5313 15.8929 44.322 17.9002C43.923 18.561 44.0103 19.1968 44.509 19.7952C44.7583 20.0945 45.0576 20.3189 45.3817 20.481C45.7558 20.668 46.1797 20.7802 46.6035 20.8051C47.5137 20.8799 48.4238 20.855 49.3339 20.7677C50.0072 20.7054 50.668 20.5433 51.2415 20.1319C51.7651 19.8077 52.2763 19.4711 52.6004 18.935C53.8472 16.8155 55.256 14.8082 56.403 12.6264C56.5152 12.4893 56.5776 12.3521 56.5776 12.1901C56.5776 12.1028 56.5776 12.003 56.59 11.9158C56.615 11.8036 56.59 11.6913 56.5277 11.5667ZM54.7947 12.8384C53.5729 14.8082 52.3137 16.7656 51.0545 18.6981C50.7926 19.1095 50.3563 19.3339 49.895 19.496C48.8103 19.87 47.6758 19.8077 46.5661 19.6581C45.6685 19.5459 45.4191 18.8352 45.8929 18.0623C46.9028 16.4041 47.975 14.7708 48.91 13.0628C49.521 11.9532 50.4061 11.5168 51.603 11.5417C51.9147 11.5417 52.2264 11.5417 52.6752 11.5417C53.0991 11.5667 53.6602 11.4794 54.2212 11.6041C54.9319 11.7786 55.1812 12.215 54.7947 12.8384Z" fill="white"/>
</svg>
