<svg width="64" height="37" viewBox="0 0 64 37" fill="none" xmlns="http://www.w3.org/2000/svg">
<path d="M31.5907 0C40.3977 0 49.1941 0 58.0011 0C60.9936 0 63.166 2.16182 63.166 5.15429C63.166 13.514 63.166 21.8738 63.166 30.2335C63.166 30.9364 63.166 30.9364 62.4632 30.9364C62.1437 30.9364 61.8242 30.9044 61.5047 30.947C60.9723 31.0109 60.8658 30.7873 60.8658 30.2868C60.8764 21.959 60.8551 13.6418 60.8977 5.31403C60.9084 3.57818 59.7689 2.24701 57.8201 2.24701C40.2912 2.25766 22.7517 2.25766 5.22292 2.25766C3.8811 2.25766 2.96525 2.89662 2.41149 4.06805C2.28369 4.33429 2.30499 4.68571 2.30499 5.0052C2.29434 13.6525 2.30499 22.2891 2.29434 30.9364C2.29434 32.6509 3.62551 33.7584 5.32941 33.6732C5.77668 33.652 6.21331 33.6732 6.66058 33.6732C14.1684 33.6732 21.6762 33.6732 29.184 33.6732C29.7803 33.6732 30.366 33.6839 30.9624 33.6626C31.3138 33.652 31.431 33.7797 31.4097 34.1312C31.3884 34.5784 31.3777 35.0151 31.4097 35.4623C31.4416 35.8883 31.2606 35.9842 30.8879 35.9629C30.4832 35.9416 30.0679 35.9629 29.6632 35.9629C21.591 35.9629 13.5081 35.9629 5.4359 35.9629C2.73097 35.9629 0.952525 34.6636 0.121876 32.0865C0.0153822 31.7457 0.00473305 31.3836 0.00473305 31.0322C0.00473305 22.321 -0.00591631 13.6099 0.00473305 4.88805C0.00473305 2.24701 2.27305 0.0212986 4.97798 0.0212986C13.8382 -1.2219e-07 22.7092 0 31.5907 0Z" fill="white"/>
<path d="M7.35309 17.4329C7.35309 14.0571 7.35309 10.6919 7.35309 7.31603C7.35309 6.01681 6.65023 5.31395 5.35101 5.3033C5.26581 5.3033 5.16997 5.3033 5.08477 5.3033C4.11568 5.3033 4.13698 5.3033 4.14763 4.34486C4.14763 3.99343 4.28607 3.94019 4.58425 3.94019C10.5479 3.95083 16.5115 3.95083 22.4752 3.94019C22.8266 3.94019 22.9224 4.03603 22.9224 4.38746C22.9118 7.58226 22.9118 10.7771 22.9224 13.9719C22.9224 14.3446 22.8266 14.4617 22.4432 14.4511C21.4741 14.3978 21.4422 14.6641 21.357 13.5246C21.2505 12.0763 21.1121 10.628 20.4411 9.29681C19.1632 6.76226 17.1398 5.35655 14.2432 5.31395C13.4019 5.3033 12.5713 5.3033 11.8258 5.76122C11.1869 6.1446 10.8248 6.67707 10.8248 7.45447C10.8354 10.2978 10.8354 13.1306 10.8248 15.974C10.8248 16.3786 10.9526 16.4958 11.3359 16.4851C12.2518 16.4532 13.1889 16.5597 14.0515 16.1337C15.4679 15.4308 16.011 14.1636 16.2027 12.6833C16.2134 12.5555 16.2346 12.4384 16.224 12.3106C16.1814 11.8314 16.3837 11.661 16.863 11.7036C17.1718 11.7249 17.2463 11.8207 17.2463 12.1082C17.225 12.7791 17.2357 13.4607 17.2357 14.1316C17.2357 16.7407 17.2357 19.3498 17.2357 21.9589C17.2357 22.2677 17.2463 22.5127 16.7991 22.4807C16.4476 22.4488 16.1708 22.5127 16.1495 21.9802C16.1069 20.8301 15.8832 19.7225 15.0845 18.828C14.5095 18.189 13.7853 17.8482 12.9333 17.8056C12.3689 17.7843 11.7939 17.8056 11.2295 17.795C10.9526 17.7843 10.8141 17.8482 10.8141 18.1784C10.8248 21.4797 10.8035 24.781 10.8354 28.0823C10.8461 29.0833 11.7406 29.8501 12.8908 29.9246C13.1037 29.9353 13.3167 29.9566 13.5297 29.9246C14.0515 29.8394 14.2006 30.0417 14.1687 30.5529C14.1154 31.2877 14.158 31.2984 13.3913 31.2984C10.4627 31.2984 7.53412 31.2877 4.60555 31.309C4.15828 31.309 4.03049 31.1919 4.05178 30.7446C4.08373 29.9246 4.06243 29.9246 4.87178 29.9246C4.94633 29.9246 5.01023 29.9246 5.08477 29.9246C6.44789 29.9246 7.35308 29.0194 7.36373 27.6669C7.35308 24.2485 7.35309 20.8407 7.35309 17.4329Z" fill="white"/>
<path d="M37.938 15.857C38.3639 15.005 38.8112 14.1957 39.4502 13.4928C41.5055 11.2671 44.9772 11.8635 46.3616 13.3011C47.3201 14.3022 47.5543 15.5268 47.5543 16.826C47.565 20.6385 47.5543 24.451 47.5543 28.2741C47.5543 29.4562 47.9484 29.8502 49.1304 29.9141C49.3221 29.9247 49.6416 29.7757 49.6949 30.0419C49.7694 30.4146 49.7375 30.8193 49.6842 31.2027C49.6629 31.3305 49.4286 31.2772 49.3008 31.2772C47.7886 31.2772 46.2871 31.2666 44.7749 31.2879C44.4447 31.2879 44.3489 31.2027 44.3595 30.8725C44.3808 30.0206 44.3702 29.1686 44.3702 28.3167C44.3595 26.1229 44.3276 23.9185 44.3276 21.7247C44.3276 20.0102 44.3702 18.285 44.3915 16.5705C44.3915 16.3894 44.3915 16.219 44.3915 16.038C44.3276 14.3554 42.9858 13.4183 41.3671 13.9294C40.0039 14.3554 39.1307 15.3032 38.6302 16.6237C37.9912 18.3489 37.8741 20.1486 37.7889 21.959C37.693 24.0676 37.8102 26.1762 37.7569 28.2847C37.725 29.5094 38.3213 29.8821 39.365 29.9034C39.8335 29.9141 40.0252 30.0206 39.94 30.4892C39.9187 30.6063 39.9187 30.7447 39.94 30.8619C40.0039 31.2453 39.8122 31.2985 39.4928 31.2879C37.5759 31.2772 35.659 31.2772 33.7421 31.2772C33.5078 31.2772 33.2842 31.2772 33.0499 31.2772C32.1979 31.2772 31.953 30.9364 32.1767 30.0951C32.2086 29.9673 32.2618 29.9141 32.3896 29.9141C32.4429 29.9141 32.4961 29.9141 32.5494 29.9141C34.2639 29.978 34.626 29.371 34.6154 27.731C34.5941 23.8759 34.6047 20.0315 34.6047 16.1764C34.6047 15.7079 34.5408 15.2606 34.3491 14.8346C34.0296 14.1211 33.4439 13.8016 32.6878 13.8229C32.2938 13.8336 32.1234 13.7377 32.1447 13.2905C32.1767 12.4066 32.1554 12.4066 33.0499 12.3746C34.4876 12.3214 35.9252 12.3001 37.3522 12.2362C37.693 12.2255 37.7782 12.332 37.7676 12.6515C37.7463 13.6099 37.7569 14.5684 37.7569 15.5268C37.7676 15.6227 37.7463 15.7398 37.938 15.857Z" fill="white"/>
<path d="M56.5316 20.6492C56.5316 23.1731 56.5742 25.6863 56.5209 28.2102C56.489 29.5627 57.1493 29.8076 58.1184 29.9141C58.342 29.9354 58.6934 29.7863 58.7467 30.0099C58.8425 30.372 58.7893 30.7873 58.768 31.1707C58.7573 31.3198 58.5656 31.2772 58.4485 31.2772C55.9778 31.2772 53.5178 31.2772 51.0472 31.2879C50.7703 31.2879 50.6425 31.2133 50.6851 30.9258C50.6958 30.8512 50.6851 30.7874 50.6851 30.7128C50.6851 29.9354 50.6851 29.9354 51.4625 29.9141C52.7298 29.8822 53.1771 29.4242 53.1771 28.157C53.1771 24.1422 53.1558 20.138 53.1877 16.1232C53.1984 14.8559 52.4955 13.7164 51.0472 13.8123C50.7277 13.8336 50.6638 13.6951 50.6638 13.4076C50.6425 12.4066 50.6319 12.4066 51.6223 12.3746C53.0919 12.332 54.5615 12.3001 56.0311 12.2362C56.4358 12.2149 56.5423 12.3107 56.5316 12.7154C56.521 15.3564 56.5316 18.0081 56.5316 20.6492Z" fill="white"/>
<path d="M29.2055 20.6067C29.2055 23.1306 29.2055 25.6438 29.2055 28.1677C29.2055 29.4563 29.6102 29.861 30.9201 29.9142C31.1117 29.9249 31.4312 29.7864 31.4738 30.042C31.5484 30.4148 31.5058 30.8194 31.4738 31.2028C31.4632 31.3199 31.2608 31.2773 31.133 31.2773C28.6837 31.2773 26.2343 31.2773 23.785 31.288C23.4549 31.288 23.3271 31.1922 23.3803 30.862C23.391 30.8088 23.3803 30.7555 23.3803 30.7023C23.3803 29.9355 23.3803 29.9355 24.1577 29.9142C25.425 29.8823 25.8723 29.4137 25.8723 28.1464C25.8723 24.1316 25.8723 20.1275 25.8723 16.1127C25.8723 14.5898 25.2333 13.887 23.7317 13.8124C23.4442 13.8018 23.3377 13.7379 23.3271 13.4184C23.3058 12.4067 23.2951 12.4067 24.3175 12.3641C25.8084 12.3109 27.2993 12.2896 28.7795 12.215C29.1736 12.1937 29.2055 12.3322 29.2055 12.6623C29.2055 15.3246 29.2055 17.9657 29.2055 20.6067Z" fill="white"/>
<path d="M29.2055 6.17647C29.2374 7.40114 28.3322 8.55127 27.246 8.60452C26.1384 8.65776 25.148 7.66737 25.0522 6.38945C25.0203 5.97413 25.0735 5.5801 25.2119 5.18608C25.5527 4.19569 26.4047 3.54608 27.2566 3.64192C28.2044 3.73776 29.0564 4.62166 29.1735 5.63335C29.1842 5.79309 29.1948 5.95283 29.2055 6.17647Z" fill="white"/>
<path d="M56.5318 6.0809C56.4999 6.9009 56.2656 7.55051 55.7225 8.07233C54.9664 8.80714 53.8695 8.79649 53.1134 8.02973C52.1763 7.09259 52.0911 5.46324 52.9217 4.43025C53.4009 3.83389 53.9973 3.50376 54.7747 3.6848C55.6799 3.88714 56.1698 4.53675 56.4254 5.37804C56.4999 5.63363 56.5105 5.91051 56.5318 6.0809Z" fill="white"/>
<path d="M40.4405 34.7171C40.0572 34.8236 40.0785 35.1856 39.8442 35.3134C39.7483 35.3347 39.7377 35.2495 39.6844 35.2069C39.546 35.0685 39.546 34.7064 39.3011 34.7916C39.0987 34.8661 39.2052 35.175 39.2159 35.3773C39.2372 35.782 39.2159 36.0589 38.6728 35.995C38.3852 35.963 38.3213 35.8778 38.332 35.6116C38.3533 35.0259 38.3213 34.4402 38.3426 33.8545C38.3533 33.6734 38.1829 33.3539 38.5343 33.3539C38.8538 33.3539 39.2478 33.1516 39.5034 33.5456C39.5567 33.6202 39.5886 33.6947 39.6312 33.7799C39.7483 34.0249 39.9081 34.0994 40.0039 33.8012C40.2063 33.2049 40.6855 33.3646 41.1008 33.3433C41.3032 33.3326 41.3245 33.4604 41.3245 33.6202C41.3245 34.3124 41.3138 35.0046 41.3245 35.6968C41.3351 36.1121 41.0476 35.963 40.8452 35.9843C40.6322 36.0056 40.4086 36.0269 40.4299 35.6861C40.4619 35.3667 40.4405 35.0472 40.4405 34.7171Z" fill="white"/>
<path d="M56.5528 35.9735C55.7754 36.112 55.1152 35.3665 55.1365 34.6211C55.1578 33.8437 55.7329 33.2686 56.5316 33.258C57.3089 33.2473 57.9266 33.833 57.9373 34.5998C57.9586 35.4624 57.4367 35.9735 56.5528 35.9735ZM57.1492 34.6424C57.096 34.2803 56.9362 33.9715 56.5422 33.9715C56.1375 33.9715 55.9778 34.259 55.9778 34.653C55.9778 35.0364 56.1482 35.3239 56.5528 35.3239C56.9469 35.3239 57.1066 35.0151 57.1492 34.6424Z" fill="white"/>
<path d="M36.2872 35.9735C35.4991 35.9735 34.9453 35.4198 34.9347 34.653C34.9241 33.8863 35.5737 33.2473 36.3617 33.2579C37.1497 33.2686 37.7568 33.865 37.7674 34.6211C37.7781 35.4517 37.1817 35.9842 36.2872 35.9735ZM36.9474 34.7382C36.9474 34.2377 36.6812 33.9289 36.3191 33.9715C35.9038 34.0141 35.7547 34.2909 35.7547 34.6637C35.7547 35.0364 35.9144 35.3346 36.3298 35.3452C36.777 35.3452 36.9368 35.047 36.9474 34.7382Z" fill="white"/>
<path d="M60.504 35.9204C59.9182 36.0908 59.4923 35.995 59.2793 35.4519C58.9917 35.5797 59.2154 35.8565 59.013 35.9737C58.7362 36.1334 58.3741 35.9311 58.3634 35.6009C58.3634 34.962 58.3741 34.3337 58.3528 33.6947C58.3421 33.3859 58.4486 33.2794 58.7468 33.3113C59.0663 33.3433 59.3858 33.3113 59.6946 33.3646C60.3229 33.4711 60.6318 34.2378 60.1845 34.6638C59.8437 34.9939 59.9821 35.175 60.1738 35.4412C60.3016 35.5903 60.3975 35.75 60.504 35.9204ZM59.3325 34.0035C59.1941 33.9823 59.1515 34.0781 59.1408 34.1846C59.1302 34.3124 59.1089 34.4615 59.2793 34.4828C59.4071 34.5041 59.5136 34.4082 59.5455 34.2698C59.5562 34.1207 59.4603 34.0461 59.3325 34.0035Z" fill="white"/>
<path d="M46.9047 35.9736C46.4149 35.9417 45.9676 36.1653 45.7333 35.6009C45.6587 35.4199 45.4564 35.4199 45.4671 35.6861C45.4777 36.1014 45.1902 35.9523 44.9878 35.9736C44.6683 36.0056 44.7216 35.7713 44.7216 35.5796C44.7216 34.9406 44.7322 34.3017 44.7216 33.6734C44.7109 33.3965 44.7961 33.2793 45.073 33.3113C45.3712 33.3326 45.68 33.3113 45.9676 33.3432C46.5746 33.4178 46.9793 34.11 46.5852 34.5466C46.138 35.0365 46.4468 35.3134 46.6811 35.6648C46.7343 35.7393 46.7876 35.8032 46.9047 35.9736ZM45.8824 34.1739C45.8611 34.0567 45.7546 33.9822 45.6268 33.9928C45.4671 34.0141 45.4671 34.1632 45.4777 34.291C45.4884 34.4082 45.5416 34.4934 45.68 34.4721C45.8291 34.4508 45.893 34.3549 45.8824 34.1739Z" fill="white"/>
<path d="M62.2718 35.9841C62.0801 35.9735 61.8777 36.0161 61.6967 35.9096C61.5156 35.7925 61.2281 35.7499 61.4198 35.4197C61.5689 35.1641 61.6754 34.9405 61.9949 35.26C62.1227 35.3771 62.3463 35.473 62.4528 35.26C62.5806 35.0151 62.3037 34.9938 62.1546 34.9299C61.4837 34.6423 61.2707 34.2696 61.5156 33.7691C61.7499 33.2792 62.4102 33.1195 62.9533 33.3857C63.1663 33.4922 63.1876 33.6093 63.0918 33.8117C63.0172 33.9714 62.9746 34.1631 62.719 34.0247C62.5806 33.9501 62.3676 33.8543 62.3037 34.0353C62.2292 34.2483 62.4954 34.227 62.6338 34.2802C63.177 34.4932 63.4113 34.834 63.3261 35.26C63.2302 35.7499 62.9001 35.9841 62.2718 35.9841Z" fill="white"/>
<path d="M53.3901 35.9735C53.1984 35.9735 52.996 35.9948 52.8256 35.8883C52.634 35.7712 52.3997 35.686 52.602 35.3665C52.7618 35.1109 52.8789 34.9725 53.1558 35.228C53.2836 35.3558 53.5072 35.441 53.6243 35.2493C53.7628 35.0044 53.4965 34.9831 53.3475 34.9192C52.6766 34.6317 52.4636 34.2696 52.6872 33.7691C52.9002 33.2792 53.5604 33.1088 54.1142 33.3751C54.2846 33.4602 54.4017 33.5454 54.2846 33.7371C54.1994 33.8756 54.1674 34.1418 53.8799 34.0034C53.7415 33.9395 53.5285 33.833 53.4753 34.0247C53.4114 34.2376 53.6669 34.2163 53.8054 34.2696C54.3698 34.4826 54.5508 34.7808 54.4443 35.3239C54.3272 35.8031 54.0503 35.9841 53.3901 35.9735Z" fill="white"/>
<path d="M41.9634 34.6318C41.9634 34.5572 41.9527 34.4933 41.9634 34.4188C42.006 34.0567 41.7823 33.5456 42.0699 33.3752C42.4213 33.1728 42.9431 33.29 43.3691 33.3752C43.8696 33.4817 44.0081 33.8757 43.9761 34.3549C43.9442 34.8128 43.7099 35.111 43.252 35.111C42.8473 35.111 42.6982 35.2601 42.7621 35.6435C42.8153 36.0056 42.5704 35.9736 42.3255 35.9843C42.0592 35.9949 41.9314 35.9417 41.9527 35.6328C41.9847 35.3027 41.9634 34.9619 41.9634 34.6318ZM43.1881 34.2165C43.1668 34.0887 43.0816 34.0354 42.9751 34.0141C42.794 33.9822 42.7727 34.11 42.7834 34.2484C42.7834 34.3762 42.8473 34.4507 42.9857 34.4295C43.0922 34.3975 43.1774 34.3336 43.1881 34.2165Z" fill="white"/>
<path d="M50.9832 35.9737C50.749 35.9737 50.5253 35.995 50.323 35.8565C50.1206 35.7287 49.9716 35.6222 50.1632 35.3666C50.3017 35.1643 50.3975 34.9513 50.6744 35.2176C50.749 35.2814 50.8554 35.324 50.9619 35.3453C51.0684 35.3666 51.1749 35.3347 51.2175 35.2069C51.2495 35.1004 51.1856 35.0365 51.1004 35.0046C51.0258 34.962 50.9406 34.9407 50.8554 34.9087C50.2591 34.6638 50.0461 34.3017 50.2271 33.8331C50.4188 33.3433 50.93 33.1622 51.5157 33.322C51.8884 33.4285 51.9736 33.6095 51.7393 33.929C51.6541 34.0355 51.5796 34.11 51.4305 34.0142C51.2921 33.929 51.0791 33.8544 51.0258 34.0248C50.9513 34.2485 51.2175 34.2165 51.3453 34.2698C51.963 34.504 52.1866 34.9513 51.963 35.5051C51.7926 35.8459 51.5476 35.9737 50.9832 35.9737Z" fill="white"/>
<path d="M47.7245 34.6106C47.7245 34.5893 47.7245 34.5786 47.7245 34.5573C47.7245 33.1836 47.7245 33.1942 49.109 33.3007C49.3326 33.322 49.4178 33.3859 49.4071 33.6202C49.3965 33.8332 49.4071 34.0249 49.109 33.9929C49.0557 33.9823 49.0025 33.9823 48.9492 33.9929C48.8001 34.0142 48.5765 33.9184 48.5552 34.142C48.5339 34.3976 48.7895 34.3018 48.9173 34.2911C49.2048 34.2698 49.3326 34.355 49.3326 34.6638C49.3326 34.9833 49.1516 34.994 48.9173 34.994C48.7895 34.994 48.5445 34.8875 48.5658 35.1537C48.5871 35.3454 48.7895 35.2709 48.9173 35.2709C49.1622 35.2815 49.3965 35.2176 49.4071 35.6223C49.4178 36.0376 49.1729 35.9737 48.9279 35.9737C47.7139 35.9844 47.7139 35.9844 47.7139 34.7703C47.7245 34.7171 47.7245 34.6638 47.7245 34.6106Z" fill="white"/>
<path d="M34.5408 34.3655C34.1042 34.0247 33.7634 33.833 33.4333 34.1845C33.1883 34.44 33.1777 34.7702 33.3907 35.0577C33.7421 35.5156 34.0935 35.26 34.4875 34.9725C34.4449 35.3346 34.6792 35.7286 34.3384 35.899C33.9657 36.08 33.4972 36.0694 33.1031 35.8671C32.4961 35.5476 32.2619 34.7382 32.5494 34.0567C32.805 33.4497 33.4652 33.1621 34.1255 33.3006C34.7644 33.4497 34.3917 33.9182 34.5408 34.3655Z" fill="white"/>
</svg>
