<svg width="96" height="27" viewBox="0 0 96 27" fill="none" xmlns="http://www.w3.org/2000/svg">
<path d="M95.7844 11.7828C95.7471 11.8949 95.7471 12.0195 95.7346 12.1192C95.2362 14.4867 93.2799 16.281 90.875 16.5676C89.2426 16.7545 87.6103 16.7795 85.9655 16.7919C85.5294 16.7919 85.3923 16.6673 85.4795 16.0318C85.5792 15.3963 85.5667 14.7359 85.4795 14.1004C85.3923 13.4774 85.5169 13.3279 85.953 13.3279C87.0122 13.3279 88.0713 13.3777 89.118 13.2282C90.7877 12.9914 91.7597 11.9448 91.7098 10.3747C91.6724 8.89193 90.5634 7.83278 88.9436 7.74556C87.9716 7.69571 86.9997 7.68325 86.0153 7.69571C85.6041 7.69571 85.4172 7.60849 85.4421 7.14745C85.4795 6.33751 85.4546 5.52758 85.4546 4.71764C85.4546 4.44351 85.4795 4.24414 85.8409 4.24414C87.5978 4.2566 89.3672 4.21922 91.1242 4.45597C93.5042 4.77994 95.1988 6.38736 95.7221 8.72994C95.7595 8.87947 95.7471 9.04145 95.7844 9.19098C95.8218 9.52742 95.8467 9.86385 95.8467 10.1754C95.8343 10.3498 95.8467 10.4869 95.8467 10.6738C95.8218 10.9853 95.8094 11.4713 95.7844 11.7828Z" fill="white"/>
<path d="M0.0124606 2.98582C0.67287 1.11674 2.14322 0.344181 3.96246 0.032667C4.26151 -0.0171753 4.43596 0.0202058 4.39858 0.381562C4.37366 0.643234 4.41104 0.917366 4.38612 1.1915C4.36119 1.55285 4.44842 1.70238 4.85962 1.70238C5.28328 1.70238 5.28328 1.47809 5.25835 1.1915C5.25835 1.16658 5.25835 1.15412 5.25835 1.1292C5.27082 -0.154242 5.27082 -0.154242 6.54179 0.207114C7.85015 0.580931 8.93422 1.2538 9.47002 2.57462C9.76908 3.29733 9.69431 3.39702 8.94668 3.39702C6.16798 3.39702 3.38927 3.39702 0.610567 3.39702C0.411198 3.39702 0.199369 3.3721 0 3.34718C0.0124606 3.23503 0.0124606 3.11043 0.0124606 2.98582Z" fill="white"/>
<path d="M16.6971 6.77363C16.6971 6.27521 16.6971 5.77679 16.6971 5.27837C16.6971 4.2566 16.6971 4.2566 15.6878 4.2566C10.4669 4.2566 5.23343 4.24414 0.0124512 4.24414C0.0124512 4.33136 0.0124512 4.40613 0.0124512 4.49335C0.0124512 5.49019 0.0124512 6.48704 0.0124512 7.48388C0.0124512 7.5711 0.0124512 7.64587 0.0124512 7.73309C0.224281 7.72063 0.42365 7.70817 0.635479 7.70817C3.62601 7.70817 6.60409 7.70817 9.59462 7.69571C11.6631 7.69571 13.744 7.69571 15.8124 7.69571C16.8591 7.68325 16.6847 7.73309 16.6971 6.77363Z" fill="white"/>
<path d="M16.6348 13.1662C16.6847 12.5681 16.5102 12.3937 15.8872 12.4061C10.9653 12.4311 6.04337 12.4186 1.12145 12.4186C0.747633 12.4186 0.373817 12.4435 0 12.456C0 12.4934 0 12.5432 0 12.5806C0.211829 13.5774 0.211829 14.5743 0 15.5711C0 15.6583 0 15.7331 0 15.8203C0.22429 15.8079 0.461041 15.7954 0.685331 15.7954C3.86277 15.7954 7.04021 15.7954 10.2177 15.7954C12.149 15.7954 14.0804 15.7829 16.0118 15.8079C16.5227 15.8203 16.6598 15.6459 16.6348 15.1724C16.5975 14.4995 16.585 13.8266 16.6348 13.1662Z" fill="white"/>
<path d="M0.0124512 12.5808C0.0124512 13.5777 0.0124512 14.5745 0.0124512 15.5713C0.224281 14.5745 0.224281 13.5777 0.0124512 12.5808Z" fill="white"/>
<path d="M31.1637 15.4961C33.9549 17.091 35.1386 19.8822 36.7585 22.312C37.1074 22.8229 37.4189 23.3712 37.7429 23.8945C37.88 24.1188 37.9921 24.3182 37.5684 24.3057C36.1978 24.2932 34.8271 24.2932 33.4565 24.3057C33.1076 24.3057 33.0079 24.069 32.8584 23.8447C31.4877 21.8136 30.0921 19.8074 28.7339 17.7639C27.924 16.5428 26.8274 15.8824 25.3446 15.9447C24.9708 15.9571 24.896 15.8076 24.9085 15.4712C24.9334 14.7235 24.9334 13.9759 24.9085 13.2283C24.8836 12.8046 25.0456 12.7049 25.4443 12.7049C27.0143 12.6925 28.5968 12.7921 30.1669 12.5803C31.5251 12.3934 32.2229 11.4838 32.1855 9.98851C32.1481 8.70507 31.3132 7.77053 30.0298 7.70823C28.5345 7.64593 27.0393 7.65839 25.544 7.67085C25.0829 7.67085 24.8711 7.58362 24.9085 7.06028C24.9583 6.25034 24.921 5.44041 24.921 4.63047C24.921 4.40618 24.9334 4.21927 25.2449 4.21927C27.5875 4.24419 29.9301 4.09467 32.2602 4.51833C35.4128 5.07905 36.6837 8.06959 36.3473 10.6365C36.0233 13.141 34.553 14.6737 31.9861 15.2718C31.7369 15.3715 31.5126 15.4213 31.1637 15.4961Z" fill="white"/>
<path d="M49.3938 22.9103C49.3938 22.387 49.2443 21.8013 49.4312 21.3777C49.6305 20.9415 50.3159 21.1035 50.7644 20.954C52.3469 20.4182 53.4559 19.359 53.9917 17.8139C54.8266 15.434 54.8515 13.0042 53.9668 10.6242C53.2815 8.76757 51.8734 7.73334 49.9171 7.47167C49.5184 7.42183 49.3315 7.30968 49.3564 6.8611C49.3938 6.07608 49.3938 5.27861 49.3564 4.49359C49.3315 4.04501 49.5059 3.94533 49.9296 3.95779C53.6304 4.05747 56.8701 6.3876 58.0539 9.88902C59.0382 12.8297 59.0756 15.8202 58.0414 18.7485C56.8701 22.0879 54.4029 23.957 50.9389 24.5302C49.3564 24.7919 49.3564 24.7545 49.3564 23.1595C49.3564 23.0723 49.3564 22.9975 49.3564 22.9103C49.3938 22.9103 49.3938 22.9103 49.3938 22.9103Z" fill="white"/>
<path d="M48.5587 5.67714C48.5587 6.20049 48.7083 6.77367 48.5214 7.20979C48.3095 7.70821 47.6117 7.50884 47.1382 7.68329C45.6305 8.26894 44.5838 9.30317 44.0729 10.8234C43.3378 13.004 43.3004 15.2344 43.9982 17.4275C44.6337 19.4211 45.9794 20.7046 48.0728 21.0909C48.4466 21.1656 48.5961 21.3027 48.5712 21.689C48.5463 22.4989 48.5463 23.3088 48.5712 24.1188C48.5837 24.5175 48.4715 24.667 48.0354 24.6421C43.3627 24.3057 39.961 21.0036 39.475 16.3558C39.2632 14.3372 39.3006 12.3435 39.8737 10.3748C40.9578 6.63661 44.1477 4.11957 47.9357 3.95758C48.4092 3.93266 48.6335 4.03235 48.5712 4.55569C48.5338 4.92951 48.5587 5.30332 48.5587 5.67714C48.5587 5.67714 48.5712 5.67714 48.5587 5.67714Z" fill="white"/>
<path d="M84.6071 14.3125C84.6071 17.4401 84.5946 20.5802 84.6196 23.7078C84.6196 24.2062 84.47 24.3433 83.9841 24.3308C83.0371 24.2934 82.0776 24.281 81.1181 24.3308C80.5449 24.3682 80.5325 24.0816 80.5325 23.6579C80.5449 18.4494 80.5325 13.2409 80.5325 8.0324C80.5325 6.94833 80.5449 5.87672 80.52 4.79265C80.5075 4.35653 80.6571 4.21946 81.0932 4.23193C82.0651 4.25685 83.0495 4.26931 84.0214 4.23193C84.5074 4.207 84.6071 4.39391 84.5946 4.84249C84.5946 7.99501 84.6071 11.1475 84.6071 14.3125Z" fill="white"/>
<path d="M24.0612 14.3373C24.0612 17.4275 24.0488 20.5177 24.0737 23.608C24.0861 24.2061 23.8868 24.3431 23.3385 24.3182C22.4538 24.2808 21.5566 24.2684 20.6595 24.3182C20.1237 24.3431 20.0115 24.1438 20.0115 23.6453C20.024 18.063 20.024 12.4807 20.024 6.89837C20.024 6.21304 20.0489 5.52771 20.0115 4.84238C19.9866 4.40626 20.0988 4.20689 20.5847 4.23181C21.5566 4.26919 22.541 4.26919 23.513 4.23181C23.974 4.21935 24.0612 4.3938 24.0612 4.805C24.0612 7.9949 24.0612 11.1723 24.0612 14.3373Z" fill="white"/>
<path d="M70.1653 22.8479C70.0407 21.8261 70.0781 20.9664 71.4363 20.8044C72.0219 20.7296 72.4705 20.2063 72.7945 19.6829C73.4923 18.5989 73.1807 17.3777 72.0718 16.7547C71.6107 16.493 71.1248 16.331 70.6263 16.2064C70.2899 16.1192 70.1404 15.9821 70.1528 15.6208C70.1778 14.5367 70.1778 13.4651 70.1528 12.381C70.1528 12.0197 70.2401 11.8951 70.6139 11.9948C71.6855 12.3063 72.7695 12.5929 73.7913 13.0664C76.109 14.1504 77.2304 15.9821 77.1432 18.5241C77.0684 20.9913 75.8971 22.7732 73.6542 23.8198C72.6823 24.2684 71.6481 24.4553 70.589 24.5426C70.265 24.5675 70.1279 24.4802 70.1528 24.1438C70.1902 23.7202 70.1653 23.284 70.1653 22.8479Z" fill="white"/>
<path d="M67.6233 13.2532C67.6233 13.8388 67.6233 14.412 67.6233 14.9977C67.6233 15.2469 67.5859 15.4088 67.2744 15.3216C65.7169 14.8481 64.1842 14.3497 63.0503 13.0663C60.8573 10.5991 61.418 6.81106 64.2465 5.09151C65.1312 4.5557 66.1031 4.26911 67.1124 4.10712C67.4738 4.04482 67.6482 4.09466 67.6358 4.53078C67.6109 5.36564 67.6233 6.18804 67.6358 7.02289C67.6358 7.30949 67.5859 7.48393 67.262 7.5587C67.0252 7.60854 66.7885 7.72068 66.5642 7.83283C65.9661 8.13188 65.5549 8.58046 65.5673 9.27825C65.5673 9.97605 65.9411 10.5368 66.5642 10.7237C67.5984 11.0227 67.7604 11.6831 67.6233 12.5803C67.5984 12.7921 67.6233 13.0289 67.6233 13.2532Z" fill="white"/>
<path d="M7.01526 20.6048C7.01526 21.6265 6.99033 22.6358 7.02772 23.6576C7.04018 24.1186 6.92803 24.4925 6.61652 24.8289C6.14302 25.3273 5.7069 25.8507 5.2957 26.3989C5.05895 26.7104 4.92188 26.6731 4.69759 26.3865C4.23655 25.8008 3.75059 25.2276 3.25217 24.6794C3.04034 24.4426 2.96558 24.2059 2.96558 23.8943C2.97804 21.639 2.9905 19.3712 2.97804 17.1158C2.97804 16.7544 3.04034 16.5925 3.45154 16.6049C4.48576 16.6298 5.51999 16.6298 6.56668 16.6049C6.91557 16.5925 7.02772 16.7046 7.02772 17.066C6.99033 18.2497 7.0028 19.421 7.01526 20.6048C7.0028 20.6048 7.0028 20.6048 7.01526 20.6048Z" fill="white"/>
<path d="M67.6234 22.7358C67.6234 23.1968 67.611 23.6454 67.6234 24.1064C67.6359 24.418 67.586 24.5426 67.2122 24.4927C63.798 24.0192 61.4928 21.6891 61.0691 18.2749C61.0193 17.9011 61.1065 17.7516 61.4928 17.7267C62.5021 17.6519 63.5239 17.5522 64.5332 17.4401C64.8572 17.4027 64.9693 17.5273 65.0316 17.8139C65.3431 19.2219 66.0035 20.3683 67.4241 20.929C67.6608 21.0162 67.6359 21.2031 67.6359 21.3901C67.6234 21.8262 67.6234 22.2872 67.6234 22.7358Z" fill="white"/>
<path d="M70.1655 5.7769C70.1655 5.34078 70.178 4.90466 70.1655 4.46855C70.1531 4.11965 70.3026 4.04489 70.6141 4.06981C73.7666 4.34394 76.2712 6.17564 76.5951 9.56491C76.6325 9.93873 76.5204 10.0384 76.184 10.0509C75.1497 10.0883 74.1155 10.1256 73.0813 10.1879C72.7324 10.2129 72.5829 10.1132 72.5081 9.73936C72.2589 8.64283 71.6732 7.79551 70.5144 7.49646C70.2278 7.42169 70.1655 7.27217 70.178 7.0105C70.178 6.61176 70.1655 6.20056 70.1655 5.7769Z" fill="white"/>
<path d="M4.95925 11.5587C4.42345 11.5587 3.87519 11.5462 3.33938 11.5587C3.07771 11.5712 2.97803 11.4715 2.97803 11.1973C2.99049 10.4123 2.99049 9.61485 2.97803 8.82983C2.97803 8.58062 3.07771 8.50586 3.31446 8.50586C4.43591 8.51832 5.55736 8.51832 6.67881 8.50586C6.91556 8.50586 7.01524 8.59308 7.01524 8.82983C7.00278 9.61485 7.00278 10.4123 7.01524 11.1973C7.01524 11.4715 6.9031 11.5587 6.64143 11.5462C6.0807 11.5462 5.51998 11.5587 4.95925 11.5587Z" fill="white"/>
<path d="M69.318 13.7768C69.318 14.3001 69.3305 14.811 69.3056 15.3343C69.2931 15.4963 69.4426 15.8328 69.0937 15.7829C68.8196 15.758 68.4333 15.7829 68.4458 15.297C68.4582 14.487 68.4458 13.6771 68.4458 12.8796C68.4458 12.593 68.4208 12.294 68.4582 12.0074C68.4831 11.8329 68.2838 11.484 68.695 11.5339C68.9691 11.5713 69.343 11.5588 69.3305 12.0323C69.2931 12.6055 69.318 13.1911 69.318 13.7768Z" fill="white"/>
<path d="M69.318 22.9227C69.318 23.3588 69.3056 23.795 69.318 24.2311C69.3305 24.5177 69.2433 24.6547 68.9318 24.6423C68.6701 24.6298 68.4333 24.6298 68.4333 24.256C68.4458 23.3464 68.4458 22.4368 68.4333 21.5147C68.4333 21.2281 68.558 21.1658 68.8196 21.1782C69.0688 21.1907 69.3305 21.1658 69.318 21.5521C69.3056 22.0131 69.318 22.4741 69.318 22.9227Z" fill="white"/>
<path d="M69.318 5.70224C69.318 6.08852 69.3055 6.48726 69.318 6.87353C69.3429 7.20997 69.2183 7.34703 68.8694 7.34703C68.4831 7.34703 68.4333 7.17259 68.4458 6.84861C68.4582 6.03868 68.4582 5.2412 68.4458 4.43126C68.4333 4.09483 68.533 3.95776 68.8943 3.95776C69.2806 3.95776 69.3305 4.13221 69.318 4.45619C69.3055 4.87984 69.318 5.29104 69.318 5.70224Z" fill="white"/>
</svg>
