<svg width="111" height="16" viewBox="0 0 111 16" fill="none" xmlns="http://www.w3.org/2000/svg">
<path d="M52.2308 0.304811C55.6015 0.304811 58.9577 0.319341 62.3283 0.290283C62.8514 0.290283 63.0838 0.362925 63.0838 0.987664C63.0548 5.52065 63.0548 10.0391 63.0838 14.5721C63.0838 15.1242 62.924 15.2404 62.3864 15.2404C55.6306 15.2259 48.8747 15.2259 42.1333 15.2404C41.5376 15.2404 41.4214 15.0661 41.4214 14.514C41.4504 10.0101 41.4504 5.50612 41.4214 1.00219C41.4214 0.421042 41.5812 0.290283 42.1478 0.290283C45.504 0.319341 48.8601 0.304811 52.2308 0.304811ZM56.0374 13.7875C57.0108 13.7875 57.9697 13.7875 58.9431 13.7875C60.4977 13.7875 60.4832 13.7875 60.4251 12.262C60.4105 11.8697 60.2798 11.7099 59.9166 11.7826C58.7542 12.0005 58.3184 11.3031 57.9261 10.3733C56.851 7.80167 55.7032 5.25913 54.5845 2.70206C54.4247 2.33884 54.2358 2.13544 53.7854 2.14997C52.5505 2.19355 51.3155 2.19355 50.0806 2.14997C49.6302 2.13544 49.4268 2.32431 49.2815 2.70206C49.0345 3.29774 48.773 3.89343 48.5114 4.48911C47.5816 6.61031 46.6663 8.71699 45.7364 10.8382C45.504 11.3467 45.257 11.8116 44.5451 11.7971C43.4699 11.7826 43.4699 11.8262 43.4699 12.9158C43.4699 13.0175 43.4845 13.1047 43.4699 13.2064C43.3973 13.6858 43.6007 13.8166 44.0656 13.8021C45.8381 13.773 47.5961 13.7875 49.3686 13.7875C50.5455 13.7875 50.5019 13.7875 50.56 12.6107C50.6036 11.8843 50.3566 11.6663 49.6737 11.7535C49.3832 11.7971 49.0926 11.7535 48.802 11.739C48.6858 11.739 48.5696 11.7245 48.5405 11.5646C48.4533 11.1142 49.0926 10.2716 49.5575 10.2716C50.4728 10.2716 51.4027 10.3297 52.318 10.257C53.0444 10.1989 53.3205 10.504 53.5239 11.1433C53.6837 11.6518 53.582 11.768 53.0735 11.768C51.7223 11.7971 51.7514 11.8262 51.7368 13.1773C51.7223 13.7149 51.9257 13.8166 52.4052 13.8021C53.6111 13.773 54.8169 13.7875 56.0374 13.7875Z" fill="white"/>
<path d="M100.176 15.2265C96.8053 15.2265 93.4492 15.212 90.0785 15.241C89.5119 15.241 89.3521 15.0957 89.3521 14.5291C89.3811 10.0252 89.3811 5.52126 89.3521 1.03186C89.3521 0.479766 89.4683 0.30542 90.064 0.30542C96.8199 0.334478 103.561 0.319949 110.317 0.30542C110.869 0.30542 111 0.450708 111 0.988273C110.971 5.50673 110.971 10.0397 111 14.5582C111 15.0957 110.884 15.2556 110.332 15.2556C106.961 15.212 103.561 15.2265 100.176 15.2265ZM97.7788 7.27925C97.7788 6.37846 97.7933 5.63749 97.7788 4.89652C97.7642 4.40254 97.9822 4.21367 98.4761 4.19914C99.653 4.15555 99.653 4.14102 99.653 2.96419C99.653 2.86249 99.6385 2.77532 99.653 2.67362C99.7111 2.28134 99.5077 2.17964 99.1445 2.17964C96.8199 2.19417 94.4953 2.17964 92.1706 2.19416C92.0108 2.19416 91.7348 2.13605 91.7202 2.3104C91.6767 2.89155 91.5895 3.48723 91.7202 4.03932C91.8074 4.40254 92.3159 4.19914 92.621 4.18461C93.2312 4.17008 93.4928 4.35896 93.4782 5.01275C93.4492 7.04679 93.4492 9.08082 93.4782 11.1149C93.4782 11.7105 93.2748 11.9285 92.6792 11.9139C91.6767 11.8849 91.6621 11.9139 91.6621 12.9455C91.6621 13.0617 91.6767 13.1925 91.6621 13.3087C91.575 13.8463 91.8365 13.9334 92.3159 13.9334C94.3064 13.9044 96.2823 13.9189 98.2727 13.9189C99.6385 13.9189 99.6239 13.9189 99.6384 12.5387C99.6384 12.0447 99.5367 11.8703 98.9992 11.8849C97.7206 11.9139 97.7206 11.8558 97.7642 10.5918C97.7788 10.3303 97.8223 10.1414 98.0693 9.99613C98.4761 9.73461 98.8539 9.44404 99.2607 9.16799C99.3915 9.08082 99.4932 8.87741 99.6675 9.1244C100.307 10.0107 100.946 10.8969 101.629 11.8268C100.161 12.0156 100.191 12.0156 100.205 13.3668C100.205 13.8172 100.365 13.9334 100.786 13.9334C102.791 13.9189 104.811 13.9189 106.816 13.9189C108.254 13.9189 108.24 13.9189 108.225 12.4515C108.225 12.0011 108.094 11.8268 107.644 11.8994C106.816 12.0156 106.293 11.6088 105.842 10.955C105.247 10.0833 104.578 9.24064 103.968 8.38344C103.547 7.80228 102.704 7.19207 102.835 6.63998C102.966 6.10241 103.895 5.73919 104.477 5.31786C105.101 4.86746 105.653 4.3299 106.482 4.2282C106.903 4.17008 107.499 4.47519 107.731 4.02479C107.92 3.64705 107.76 3.12401 107.789 2.65909C107.804 2.32492 107.687 2.19416 107.339 2.19416C105.116 2.20869 102.878 2.19417 100.655 2.20869C100.467 2.20869 100.234 2.16511 100.234 2.45568C100.234 3.00778 100.118 3.61799 100.307 4.09744C100.438 4.40254 101.062 4.17008 101.455 4.21367C101.571 4.2282 101.702 4.18461 101.745 4.41707C100.496 5.33239 99.1881 6.26223 97.7788 7.27925Z" fill="white"/>
<path d="M76.2617 15.2114C72.9201 15.2114 69.5784 15.1968 66.2368 15.2259C65.6993 15.2259 65.4958 15.1387 65.4958 14.5285C65.5249 9.99552 65.5249 5.47707 65.4958 0.944079C65.4958 0.4501 65.6121 0.290283 66.1351 0.290283C72.9201 0.304812 79.6905 0.304812 86.4754 0.290283C87.042 0.290283 87.1437 0.464627 87.1437 0.987664C87.1292 5.49159 87.1292 9.99552 87.1437 14.4995C87.1437 15.0515 87.0275 15.2404 86.4318 15.2404C83.0466 15.1968 79.6469 15.2114 76.2617 15.2114ZM80.7511 7.97602C81.1724 7.78715 81.4485 7.67091 81.71 7.54016C83.468 6.59578 83.5842 4.40193 81.957 3.26869C81.2596 2.78924 80.475 2.54225 79.6614 2.4696C75.7241 2.17903 71.7723 2.39696 67.835 2.32432C67.5299 2.32432 67.4282 2.42602 67.4137 2.74565C67.2974 4.30023 67.2829 4.2857 68.8375 4.32929C68.8665 4.32929 68.8811 4.32929 68.9101 4.32929C69.4767 4.30023 69.6656 4.56175 69.6656 5.11385C69.6366 7.17694 69.6366 9.2255 69.6656 11.2886C69.6656 11.8697 69.4477 12.0441 68.8956 12.0441C67.3555 12.0441 67.3701 12.0586 67.4427 13.5987C67.4572 13.9328 67.5299 14.0781 67.8931 14.0781C70.6536 14.0636 73.414 14.0636 76.1745 14.0781C76.4651 14.0781 76.5813 14.0055 76.6104 13.6858C76.7411 12.0877 76.7557 12.0877 75.1575 12.0586C75.1139 12.0586 75.0558 12.0586 75.0122 12.0586C74.6054 12.0731 74.3875 11.9133 74.402 11.4629C74.431 10.7801 74.4165 10.1118 74.402 9.4289C74.402 9.19644 74.4165 8.99304 74.7362 9.00757C75.4335 9.02209 76.1455 8.99304 76.8428 9.03662C77.3949 9.06568 77.7291 9.34173 77.671 9.96646C77.6274 10.4169 77.6419 10.8818 77.671 11.3467C77.7436 13.032 78.4846 13.8747 80.1409 14.2525C81.1724 14.4849 82.2039 14.4559 83.221 14.1943C84.3397 13.9038 85.0516 13.1773 85.2841 12.0296C85.5746 10.6057 85.4439 10.4604 84.0346 10.4604C83.991 10.4604 83.9329 10.4604 83.8893 10.4604C83.3953 10.3733 83.2936 10.6203 83.2936 11.0707C83.2936 11.4775 83.5115 12.1313 82.7706 12.0877C82.0877 12.0586 82.4219 11.4484 82.4219 11.1142C82.3783 9.80665 82.4074 8.54264 80.7511 7.97602Z" fill="white"/>
<path d="M28.113 0.304811C31.4982 0.304811 34.8834 0.319341 38.2832 0.290283C38.7772 0.290283 38.937 0.391984 38.937 0.92955C38.9225 5.47707 38.9225 10.0246 38.937 14.5866C38.937 15.0661 38.8643 15.255 38.3122 15.255C31.5128 15.2404 24.7133 15.2404 17.9138 15.255C17.3762 15.255 17.2891 15.0515 17.2891 14.5866C17.3036 10.0391 17.3036 5.49159 17.2891 0.92955C17.2891 0.406513 17.4489 0.290283 17.9429 0.290283C21.3426 0.319341 24.7278 0.304811 28.113 0.304811ZM23.0715 6.01463C23.1151 6.01463 23.1587 6.01463 23.1878 6.0001C23.9723 8.3683 24.7859 10.7365 25.556 13.1192C25.7012 13.5696 25.9192 13.7149 26.3841 13.6858C27.0815 13.6423 27.7934 13.6423 28.4908 13.6858C28.9702 13.7149 29.1591 13.5115 29.3044 13.0756C30.0163 10.9254 30.7573 8.78963 31.4982 6.6539C31.5709 6.45049 31.5273 6.17445 31.8324 6.04369C31.8324 7.7145 31.8179 9.35626 31.8469 11.0125C31.8615 11.5356 31.5709 11.7535 31.1495 11.6954C30.2488 11.5501 30.1471 12.0296 30.2488 12.7269C30.2633 12.8286 30.2633 12.9158 30.2488 13.0175C30.1471 13.5841 30.4231 13.6858 30.9316 13.6858C32.893 13.6568 34.8544 13.6713 36.8158 13.6713C38.0798 13.6713 38.0507 13.6713 38.0943 12.4218C38.1088 11.8407 37.9345 11.6227 37.3679 11.7099C37.2226 11.739 37.0773 11.7099 36.932 11.7099C36.409 11.7245 36.162 11.5356 36.162 10.9399C36.191 8.86228 36.191 6.77013 36.162 4.69251C36.162 4.21306 36.3073 4.00966 36.8303 3.99513C38.0798 3.9806 38.0798 3.96607 38.0653 2.74565C38.0653 2.64395 38.0507 2.55678 38.0653 2.45507C38.1234 2.0628 37.9345 1.96109 37.5713 1.97562C35.3484 1.99015 33.1109 1.99015 30.888 1.97562C30.5393 1.97562 30.3795 2.10638 30.2633 2.41149C29.9727 3.29774 29.6676 4.184 29.3625 5.07026C29.0138 6.08728 28.6361 7.10429 28.2147 8.31018C27.5173 6.24709 26.8926 4.41646 26.2969 2.57131C26.1516 2.10638 25.9337 1.94657 25.4252 1.9611C23.3185 1.99015 21.2118 2.00468 19.1052 1.9611C18.4804 1.94657 18.2625 2.07733 18.3061 2.74565C18.3642 3.99513 18.3206 4.02419 19.5556 3.99513C20.1512 3.9806 20.3692 4.184 20.3692 4.79421C20.3401 6.79919 20.3401 8.81869 20.3692 10.8237C20.3837 11.521 20.0931 11.7099 19.4684 11.7099C18.3206 11.7099 18.3206 11.739 18.3351 12.9158C18.3351 13.0175 18.3497 13.1047 18.3351 13.2064C18.2915 13.5551 18.4514 13.6713 18.7855 13.6713C20.6016 13.6568 22.4177 13.6568 24.2338 13.6713C24.6261 13.6713 24.7423 13.5115 24.7133 13.1483C24.6988 12.9594 24.6842 12.756 24.7133 12.5671C24.8295 11.8697 24.5825 11.6082 23.8561 11.6954C23.5074 11.739 23.0861 11.7245 23.0861 11.1869C23.0715 9.47249 23.0715 7.74356 23.0715 6.01463Z" fill="white"/>
<path d="M7.77291 15.5313C5.40472 15.5313 3.03652 15.5167 0.653796 15.5458C0.159817 15.5458 0 15.4441 0 14.9211C0.0145288 10.1556 0.0145288 5.39018 0 0.624736C0 0.159815 0.101702 0 0.595681 0C5.36113 0.0145288 10.1266 0.0145288 14.892 0C15.3569 0 15.5168 0.1017 15.5168 0.595679C15.5022 5.39018 15.5022 10.1847 15.5168 14.9647C15.5168 15.4877 15.3134 15.5458 14.8775 15.5458C12.5238 15.5313 10.1411 15.5313 7.77291 15.5313ZM10.9983 1.00249C7.67121 1.00249 4.53299 1.00249 1.39477 1.00249C0.900786 1.00249 1.01702 1.32212 1.01702 1.58364C1.01702 5.69528 1.01702 9.80693 1.00249 13.9186C1.00249 14.398 1.13325 14.5288 1.6127 14.5143C3.39974 14.4852 5.18678 14.4997 6.98836 14.4997C8.25236 14.4997 9.51637 14.4997 10.8966 14.4997C5.95681 11.1872 6.08757 4.28599 10.9983 1.00249ZM14.5143 7.83102C14.5143 5.97133 14.5143 4.11165 14.5143 2.23743C14.5143 0.871727 14.5143 0.871726 13.2067 1.24947C9.99582 2.17932 8.10707 4.8962 8.28142 8.35405C8.42671 11.3615 10.7658 13.8895 13.9186 14.4707C14.4271 14.5578 14.5288 14.3835 14.5288 13.9186C14.4997 11.8991 14.5143 9.86505 14.5143 7.83102Z" fill="white"/>
<path d="M51.083 5.56445C51.4608 6.40713 51.8095 7.16263 52.1291 7.91812C52.2308 8.15059 52.1291 8.28134 51.8676 8.26682C51.8385 8.26682 51.824 8.26682 51.7949 8.26682C49.8045 8.42663 49.79 8.4121 50.56 6.62506C50.7053 6.29089 50.8796 5.98579 51.083 5.56445Z" fill="white"/>
<path d="M75.8986 7.00304C74.373 6.97398 74.373 6.97398 74.373 5.41939C74.373 4.34426 74.373 4.35878 75.4336 4.32973C76.0729 4.3152 76.6831 4.40237 77.3078 4.47502C77.9471 4.56219 78.3684 4.89635 78.4265 5.59374C78.4701 6.26207 78.136 6.74152 77.4241 6.87228C76.9301 6.98851 76.4071 6.97398 75.8986 7.00304Z" fill="white"/>
</svg>
