<svg width="115" height="32" viewBox="0 0 115 32" fill="none" xmlns="http://www.w3.org/2000/svg">
<path d="M0 8.04804C0.13104 7.9898 0.26208 7.94612 0.37856 7.87332C4.64464 5.31076 8.89616 2.7482 13.1768 0.2002C13.3661 0.0837204 13.6136 0.01092 13.8466 0.01092C16.6421 -0.00364 19.4376 -0.00364 22.2331 0.01092C22.437 0.01092 22.6554 0.0691618 22.8301 0.185642C26.7904 2.77732 30.7507 5.369 34.711 7.96068C34.944 8.12084 35.0459 8.281 35.0459 8.5722C35.0313 13.4061 35.0313 18.24 35.0459 23.074C35.0459 23.336 34.9731 23.5108 34.7402 23.6564C30.7798 26.3063 26.8195 28.9708 22.8592 31.6207C22.7136 31.7226 22.5098 31.7808 22.335 31.7808C19.5686 31.7954 16.8168 31.7954 14.0504 31.7808C13.8466 31.7808 13.6282 31.7226 13.4534 31.6061C9.12912 28.9853 4.8048 26.3645 0.48048 23.7437C0.33488 23.6564 0.16016 23.5981 0 23.5253C0 18.3711 0 13.2023 0 8.04804ZM33.9248 15.9687C33.9248 13.6828 33.9248 11.3823 33.9248 9.09636C33.9248 8.84884 33.852 8.70324 33.6482 8.5722C29.9062 6.15524 26.1643 3.72372 22.4224 1.2922C22.2622 1.19028 22.0438 1.13204 21.8546 1.13204C19.2338 1.11748 16.6275 1.11748 14.0067 1.13204C13.832 1.13204 13.6282 1.19028 13.468 1.27764C9.36208 3.78196 5.25616 6.30084 1.13568 8.81972C0.93184 8.95076 0.82992 9.0818 0.84448 9.32932C0.84448 13.6828 0.84448 18.0362 0.84448 22.3896C0.84448 22.6226 0.91728 22.7682 1.12112 22.8847C5.35808 25.4327 9.59504 27.9807 13.8466 30.5287C13.9922 30.616 14.1814 30.6597 14.3562 30.6597C16.8896 30.6743 19.423 30.6743 21.9565 30.6597C22.1458 30.6597 22.3642 30.6015 22.5243 30.4995C26.2226 28.1408 29.9062 25.7676 33.6045 23.4088C33.8374 23.2487 33.9394 23.0885 33.9394 22.7973C33.9248 20.526 33.9248 18.2546 33.9248 15.9687Z" fill="white"/>
<path d="M78.4783 22.2733C77.3718 22.2733 76.338 22.2733 75.2751 22.2733C74.9548 19.6525 74.6345 17.0463 74.3142 14.44C74.285 14.4255 74.2705 14.4255 74.2414 14.4109C74.1831 14.5419 74.1103 14.6584 74.0666 14.7895C73.1639 17.2501 72.2466 19.6962 71.3585 22.1568C71.2711 22.4043 71.1692 22.5208 70.878 22.5063C70.0481 22.4917 70.0481 22.5063 69.786 21.72C68.9706 19.3904 68.1407 17.0608 67.3254 14.7312C67.2817 14.6293 67.238 14.5274 67.107 14.4255C66.743 17.0317 66.379 19.6379 66.0004 22.2733C64.923 22.2733 63.8746 22.2733 62.8118 22.2733C62.9428 21.3997 63.0738 20.5552 63.2049 19.7107C63.4378 18.2402 63.6562 16.7696 63.8892 15.2845C64.1222 13.8139 64.3406 12.3288 64.559 10.8583C64.7628 9.51874 64.9812 8.16466 65.1705 6.82514C65.2142 6.53394 65.287 6.37378 65.6218 6.38834C66.1314 6.41746 66.6556 6.4029 67.1652 6.38834C67.4127 6.37378 67.5146 6.46114 67.602 6.6941C68.563 9.47506 69.5385 12.2415 70.514 15.0079C70.5577 15.1243 70.6014 15.2263 70.6742 15.4301C70.7615 15.2408 70.8052 15.1243 70.8489 15.0079C71.8535 12.256 72.8727 9.48962 73.8774 6.72322C73.9647 6.4757 74.0958 6.37378 74.3578 6.37378C74.9839 6.38834 75.5954 6.37378 76.2506 6.37378C77.0078 11.6882 77.7503 16.9589 78.4783 22.2733Z" fill="white"/>
<path d="M42.6608 6.67942C44.0877 6.67942 45.4854 6.66486 46.8686 6.69398C47.3637 6.70854 47.8733 6.76678 48.3538 6.89782C49.8243 7.3055 50.7416 8.31014 51.1638 9.75158C51.6298 11.3677 51.5424 12.9402 50.6106 14.4108C50.232 15.0077 49.7078 15.4591 49.0381 15.7357C48.9507 15.7649 48.8779 15.8231 48.7614 15.8813C50.0864 18.0071 51.4114 20.1183 52.7509 22.2732C52.6198 22.2877 52.5325 22.3023 52.4451 22.3023C51.3677 22.3023 50.2902 22.3023 49.1982 22.3023C48.9653 22.3023 48.8342 22.2295 48.7178 22.0257C47.8296 20.4386 46.9414 18.8516 46.0533 17.2645C45.995 17.1481 45.9222 17.0461 45.7766 16.9588C45.7766 18.7205 45.7766 20.4823 45.7766 22.2732C44.7138 22.2732 43.68 22.2732 42.6462 22.2732C42.6608 17.0607 42.6608 11.8773 42.6608 6.67942ZM45.7766 11.6153C45.7766 12.1685 45.7766 12.7218 45.7766 13.2605C45.7766 13.3479 45.8494 13.5081 45.9222 13.5226C46.7085 13.741 47.7859 13.2023 48.0626 12.4597C48.2664 11.9065 48.2518 11.3386 48.0771 10.7708C47.917 10.2903 47.5675 9.98454 47.1016 9.8535C46.7667 9.76614 46.4027 9.75158 46.0387 9.7079C45.8349 9.67878 45.7766 9.79526 45.7766 9.98454C45.7766 10.5378 45.7766 11.0765 45.7766 11.6153Z" fill="white"/>
<path d="M101.003 22.2877C101.367 21.2394 101.716 20.2785 102.066 19.3175C103.58 15.1097 105.079 10.9164 106.579 6.70854C106.681 6.41734 106.812 6.32998 107.118 6.34454C107.686 6.37366 108.239 6.34454 108.807 6.3591C108.923 6.3591 109.098 6.47558 109.127 6.5775C110.947 11.7463 112.738 16.9297 114.543 22.0985C114.558 22.1421 114.573 22.1858 114.587 22.2732C114.471 22.2877 114.369 22.3023 114.267 22.3023C113.364 22.3023 112.461 22.2877 111.573 22.3169C111.311 22.3169 111.195 22.2295 111.122 21.982C110.845 21.1521 110.539 20.3367 110.263 19.5068C110.175 19.2593 110.059 19.1865 109.797 19.1865C108.487 19.201 107.176 19.201 105.88 19.1865C105.618 19.1865 105.487 19.2593 105.4 19.5213C105.123 20.3513 104.817 21.1666 104.541 21.9965C104.468 22.2149 104.366 22.3169 104.104 22.3169C103.085 22.2877 102.08 22.2877 101.003 22.2877ZM107.919 12.2996C107.875 12.2996 107.846 12.2996 107.802 12.2996C107.38 13.5372 106.972 14.7893 106.535 16.0561C107.438 16.0561 108.268 16.0561 109.156 16.0561C108.734 14.7748 108.326 13.5372 107.919 12.2996Z" fill="white"/>
<path d="M93.6935 19.0846C95.5863 19.0846 97.4063 19.0846 99.2554 19.0846C99.27 19.201 99.2991 19.2884 99.2991 19.3903C99.2991 20.2494 99.2991 21.123 99.2991 21.982C99.2991 22.2004 99.2554 22.3023 98.9934 22.3023C95.5426 22.2878 92.1065 22.3023 88.6558 22.3023C88.6266 22.3023 88.583 22.2878 88.4956 22.2732C90.5194 18.1527 92.5433 14.0614 94.6108 9.88264C92.9218 9.88264 91.3202 9.88264 89.6895 9.88264C89.6895 8.79064 89.6895 7.74232 89.6895 6.67944C93.0383 6.67944 96.3871 6.67944 99.8087 6.67944C97.7703 10.7854 95.7465 14.8913 93.6935 19.0846Z" fill="white"/>
<path d="M53.9739 22.2587C53.9739 17.0462 53.9739 11.8629 53.9739 6.65039C56.5364 6.65039 59.0844 6.65039 61.6616 6.65039C61.6616 7.71327 61.6616 8.74703 61.6616 9.83903C61.5014 9.83903 61.3704 9.83903 61.2248 9.83903C59.9872 9.83903 58.7496 9.85359 57.512 9.83903C57.1916 9.83903 57.0897 9.92639 57.0897 10.2467C57.1043 10.8728 57.1043 11.4989 57.0897 12.1249C57.0752 12.4307 57.1771 12.5472 57.4974 12.5326C58.6622 12.5181 59.827 12.5326 60.9918 12.5326C61.1374 12.5326 61.2684 12.5326 61.4432 12.5326C61.4432 13.6101 61.4432 14.6438 61.4432 15.7213C60.0308 15.7213 58.604 15.7213 57.148 15.7213C57.1334 15.8669 57.1043 15.9833 57.1043 16.0998C57.1043 16.9734 57.1188 17.847 57.0897 18.7206C57.0897 19.0264 57.2062 19.0992 57.4828 19.0992C58.735 19.0846 59.9726 19.0992 61.2248 19.0992C61.3558 19.0992 61.4868 19.0992 61.6324 19.0992C61.6324 20.1621 61.6324 21.2104 61.6324 22.2733C59.099 22.2587 56.551 22.2587 53.9739 22.2587Z" fill="white"/>
<path d="M87.2871 9.83896C87.127 9.83896 86.9959 9.83896 86.8503 9.83896C85.6127 9.83896 84.3751 9.83896 83.1375 9.83896C82.8609 9.83896 82.759 9.91176 82.759 10.203C82.7736 10.8582 82.7736 11.5279 82.759 12.1831C82.759 12.4598 82.8609 12.5326 83.1084 12.5326C84.2732 12.518 85.438 12.5326 86.6028 12.5326C86.7484 12.5326 86.894 12.5326 87.0687 12.5326C87.0687 13.61 87.0687 14.6438 87.0687 15.7358C85.6564 15.7358 84.2441 15.7358 82.8027 15.7358C82.8027 16.8569 82.8027 17.9634 82.8027 19.0846C84.2878 19.0846 85.7729 19.0846 87.2726 19.0846C87.2726 20.162 87.2726 21.2103 87.2726 22.2878C84.7392 22.2878 82.2203 22.2878 79.6577 22.2878C79.6577 17.0898 79.6577 11.8919 79.6577 6.67944C82.1912 6.67944 84.7246 6.67944 87.2726 6.67944C87.2872 7.69864 87.2871 8.7324 87.2871 9.83896Z" fill="white"/>
<path d="M72.9747 25.9278C72.931 26.0297 72.8874 26.1317 72.8582 26.2336C72.669 26.7869 72.4797 27.3401 72.2758 27.8934C72.2176 28.0536 72.203 28.1992 71.9701 28.1992C71.708 28.1992 71.6789 28.039 71.6206 27.8789C71.4314 27.3547 71.2566 26.816 71.0674 26.2918C71.0237 26.1753 70.9654 26.0589 70.849 25.9569C70.849 26.6849 70.849 27.4129 70.849 28.1701C70.6014 28.1701 70.4122 28.1701 70.1792 28.1701C70.1792 27.1217 70.1792 26.0734 70.1792 24.996C70.4558 24.996 70.7325 24.9814 71.0091 25.0105C71.0965 25.0251 71.213 25.1561 71.2421 25.2581C71.4314 25.7677 71.6061 26.2918 71.7808 26.816C71.8245 26.9325 71.8827 27.0489 71.9701 27.2673C72.1739 26.6849 72.3486 26.2045 72.5234 25.7094C72.7854 24.9523 72.7854 24.9523 73.5717 24.9814C73.6154 24.9814 73.659 24.996 73.7464 25.0105C73.7464 26.0589 73.7464 27.1072 73.7464 28.1701C73.528 28.1701 73.3387 28.1701 73.1203 28.1701C73.1203 27.4275 73.1203 26.6849 73.1203 25.9569C73.0621 25.9424 73.0184 25.9278 72.9747 25.9278Z" fill="white"/>
<path d="M66.0733 24.9084C67.0779 24.9084 67.6603 25.5345 67.6603 26.612C67.6603 27.6312 67.0342 28.2572 66.0442 28.2572C65.0832 28.2572 64.4571 27.5875 64.4717 26.5683C64.4717 25.5491 65.0832 24.9084 66.0733 24.9084ZM66.9032 26.4809C66.9032 26.4518 66.9178 26.3208 66.8886 26.1897C66.8158 25.8548 66.6557 25.5782 66.3062 25.4763C66.015 25.3889 65.6802 25.418 65.52 25.6656C65.3453 25.9276 65.2434 26.2771 65.2288 26.5828C65.1851 27.2963 65.5491 27.7185 66.0878 27.704C66.612 27.704 66.9032 27.2963 66.9032 26.4809Z" fill="white"/>
<path d="M51.9645 28.1699C51.717 28.1699 51.5277 28.1699 51.3093 28.1699C51.3093 27.1216 51.3093 26.0733 51.3093 24.9958C51.9208 24.9958 52.5178 24.9667 53.1002 25.0104C53.5224 25.0395 53.8573 25.2434 53.9447 25.6947C54.032 26.1315 53.8428 26.4518 53.3914 26.6848C54.0175 27.0342 53.77 27.6458 53.9301 28.1845C53.7554 28.1845 53.6389 28.1699 53.5079 28.1845C53.304 28.199 53.1876 28.1262 53.1876 27.9078C53.1876 27.8205 53.1584 27.7477 53.1439 27.6603C53.0565 27.0342 52.6925 26.7867 52.081 26.976C52.0082 26.9906 51.9354 27.1216 51.9354 27.209C51.95 27.5147 51.9645 27.835 51.9645 28.1699ZM51.9936 26.4227C52.314 26.4227 52.6343 26.4518 52.94 26.4082C53.0565 26.3936 53.2021 26.1752 53.2021 26.0442C53.2021 25.8986 53.0856 25.651 52.9837 25.6219C52.678 25.5491 52.3431 25.5346 52.0373 25.5928C51.9645 25.6074 51.9791 26.015 51.95 26.248C51.9645 26.3062 51.9791 26.3499 51.9936 26.4227Z" fill="white"/>
<path d="M82.1331 28.1701C81.8855 28.1701 81.6963 28.1701 81.4487 28.1701C81.4487 27.6314 81.4487 27.1072 81.4487 26.5831C81.4487 26.0735 81.4487 25.5493 81.4487 25.0251C82.1039 25.0251 82.7446 24.996 83.3852 25.0397C83.7638 25.0543 84.0258 25.2872 84.0841 25.6949C84.1423 26.088 84.055 26.4083 83.6764 26.6122C83.6473 26.6267 83.6327 26.6559 83.5745 26.7141C84.2442 27.0199 83.8511 27.6751 84.1132 28.141C83.4289 28.2866 83.3561 28.2138 83.3124 27.5586C83.2978 27.3839 83.1959 27.1072 83.0795 27.0635C82.8028 26.9762 82.4971 27.0053 82.2059 27.0053C82.1767 27.0053 82.1476 27.1655 82.1331 27.2528C82.1331 27.5586 82.1331 27.8498 82.1331 28.1701ZM82.1476 26.4229C82.4679 26.4229 82.7737 26.4666 83.0649 26.4083C83.1959 26.3792 83.3561 26.1899 83.3852 26.0443C83.4143 25.9133 83.2978 25.6512 83.2105 25.6367C82.8902 25.5639 82.5553 25.5493 82.235 25.5784C82.1767 25.5784 82.1767 25.9861 82.1476 26.2045C82.133 26.2627 82.1476 26.321 82.1476 26.4229Z" fill="white"/>
<path d="M104.468 26.5683C104.468 27.835 103.551 28.5339 102.342 28.1844C101.789 28.0243 101.498 27.6312 101.367 27.0924C101.119 26.1606 101.541 25.2142 102.328 24.9958C103.405 24.69 104.497 25.156 104.468 26.5683ZM102.051 26.4809C102.065 26.7139 102.065 26.8449 102.08 26.976C102.138 27.3982 102.429 27.6894 102.823 27.7331C103.201 27.7768 103.521 27.5584 103.652 27.1798C103.798 26.7721 103.798 26.3644 103.638 25.9568C103.507 25.6219 103.245 25.4617 102.881 25.4617C102.517 25.4617 102.255 25.6364 102.153 25.9859C102.095 26.1606 102.08 26.3644 102.051 26.4809Z" fill="white"/>
<path d="M107.642 28.1701C107.409 28.1701 107.234 28.1701 107.031 28.1701C107.031 27.1218 107.031 26.088 107.031 25.0251C107.657 25.0251 108.283 24.996 108.894 25.0397C109.273 25.0543 109.549 25.2872 109.622 25.6658C109.695 26.0589 109.608 26.4083 109.215 26.6122C109.185 26.6267 109.156 26.6413 109.083 26.685C109.724 27.049 109.506 27.6459 109.593 28.1701C109.491 28.1701 109.389 28.1701 109.302 28.1847C108.996 28.2283 108.851 28.1119 108.88 27.7915C108.894 27.6605 108.865 27.5295 108.851 27.3984C108.807 27.1218 108.632 26.9907 108.37 26.9616C108.239 26.9471 108.108 26.9762 107.977 26.9616C107.715 26.9325 107.642 27.0635 107.657 27.2965C107.642 27.5877 107.642 27.8643 107.642 28.1701ZM108.064 26.4666C108.297 26.452 108.428 26.4375 108.559 26.4229C108.851 26.3938 108.967 26.1899 108.909 25.9424C108.88 25.7968 108.69 25.593 108.559 25.5784C108.283 25.5347 107.977 25.593 107.686 25.6075C107.686 25.6075 107.671 25.6221 107.671 25.6367C107.671 25.8696 107.613 26.1317 107.686 26.3355C107.715 26.4375 107.991 26.452 108.064 26.4666Z" fill="white"/>
<path d="M86.6465 28.1699C86.6465 27.107 86.6465 26.0878 86.6465 25.0249C87.4473 25.0249 88.2481 25.0249 89.078 25.0249C89.078 25.1705 89.078 25.3307 89.078 25.5345C88.6558 25.5345 88.2335 25.5345 87.8258 25.5345C87.3017 25.5345 87.3017 25.5345 87.3162 26.0732C87.3162 26.1315 87.3308 26.1897 87.3454 26.2771C87.855 26.2771 88.35 26.2771 88.8742 26.2771C88.8742 26.4663 88.8742 26.6265 88.8742 26.8158C88.3646 26.8158 87.8695 26.8158 87.389 26.8158C87.3599 26.874 87.3308 26.8886 87.3308 26.9031C87.2726 27.6311 87.2726 27.6311 88.0006 27.6311C88.3646 27.6311 88.714 27.6311 89.1071 27.6311C89.1071 27.8204 89.1071 27.9806 89.1071 28.1553C88.2918 28.1699 87.491 28.1699 86.6465 28.1699Z" fill="white"/>
<path d="M93.9119 25.7968C93.6207 25.7968 93.3441 25.9132 93.1403 25.5929C93.082 25.5056 92.9073 25.4764 92.7908 25.4619C92.5288 25.4328 92.2376 25.4619 92.1793 25.7676C92.1211 26.0734 92.4123 26.1462 92.6452 26.2044C92.9073 26.2772 93.1839 26.3355 93.4315 26.4083C93.7663 26.5102 93.9848 26.714 94.0284 27.0926C94.0721 27.5148 93.9556 27.8788 93.5771 28.0681C92.9801 28.3593 92.3686 28.3593 91.8007 28.0099C91.5387 27.8497 91.3785 27.5876 91.4222 27.2382C91.7279 27.1945 92.0046 27.1072 92.2084 27.5003C92.354 27.7769 92.9656 27.7915 93.2276 27.6022C93.4606 27.4275 93.4023 27.0926 93.0966 26.9761C92.7763 26.8451 92.4123 26.816 92.1065 26.6704C91.8736 26.5539 91.6406 26.3646 91.5387 26.1462C91.3348 25.7094 91.5532 25.2435 92.0046 25.0542C92.4414 24.8649 92.8927 24.8649 93.3295 25.0105C93.6644 25.127 93.8683 25.3891 93.9119 25.7968Z" fill="white"/>
<path d="M96.3579 27.2236C96.6491 27.2236 96.9403 27.0926 97.1441 27.4857C97.2897 27.7769 97.9449 27.7915 98.1925 27.5731C98.4109 27.3838 98.3381 27.078 98.0177 26.947C97.712 26.8305 97.3771 26.7723 97.0568 26.6703C96.5909 26.5247 96.4307 26.2627 96.4307 25.7822C96.4307 25.4473 96.5763 25.1998 96.8821 25.0687C97.3771 24.8503 97.8721 24.8212 98.3672 25.0396C98.6729 25.1707 98.8622 25.4036 98.8477 25.7822C98.571 25.7967 98.2944 25.8841 98.076 25.5783C98.0032 25.4764 97.7993 25.4619 97.6537 25.4473C97.4208 25.4327 97.1733 25.4764 97.1296 25.7676C97.0859 26.0443 97.3334 26.1171 97.5373 26.1899C97.8285 26.2772 98.1197 26.3209 98.3963 26.4228C98.7312 26.5247 98.9496 26.7431 98.9787 27.1071C99.0078 27.5294 98.8913 27.8788 98.5128 28.0681C97.9304 28.3593 97.3334 28.3302 96.7656 28.0244C96.4744 27.8788 96.3579 27.6167 96.3579 27.2236Z" fill="white"/>
<path d="M114.514 25.7822C114.238 25.7968 113.976 25.9132 113.757 25.5929C113.685 25.491 113.481 25.4619 113.335 25.4473C113.102 25.4328 112.855 25.4619 112.796 25.7385C112.738 26.0443 113 26.1171 113.219 26.1753C113.51 26.2627 113.801 26.3064 114.078 26.4083C114.354 26.4956 114.587 26.6558 114.602 26.9761C114.631 27.3838 114.646 27.8206 114.209 28.039C113.597 28.3448 112.986 28.3448 112.403 27.9953C112.141 27.8352 111.996 27.5731 111.996 27.2236C112.301 27.1945 112.593 27.078 112.796 27.4712C112.942 27.7478 113.597 27.7769 113.845 27.5731C114.049 27.3984 113.976 27.0635 113.67 26.947C113.35 26.8305 113 26.7577 112.68 26.6558C112.156 26.4811 111.937 25.986 112.141 25.4764C112.316 25.0542 112.898 24.8212 113.612 24.9086C114.121 24.9814 114.427 25.258 114.514 25.7822Z" fill="white"/>
<path d="M76.4399 24.9668C77.066 24.9959 77.6775 24.9814 78.2745 25.0687C78.8569 25.1561 79.0899 25.5346 79.0462 26.1607C79.0025 26.6558 78.6385 27.0198 78.0852 27.0343C77.7795 27.0489 77.4737 27.0343 77.1243 27.0343C77.1243 27.4274 77.1243 27.7769 77.1243 28.1554C76.8767 28.1554 76.6729 28.1554 76.4399 28.1554C76.4399 27.1217 76.4399 26.0879 76.4399 24.9668ZM77.1097 26.4956C77.4009 26.4956 77.663 26.5393 77.8959 26.481C78.0415 26.4374 78.2308 26.2626 78.2599 26.1316C78.2891 25.986 78.1871 25.6802 78.0852 25.6511C77.794 25.5638 77.4737 25.5492 77.1825 25.5929C77.1243 25.5929 77.1097 25.9714 77.0951 26.1753C77.0806 26.2626 77.1097 26.35 77.1097 26.4956Z" fill="white"/>
<path d="M62.1422 26.0152C61.8218 26.0297 61.5598 26.088 61.3559 25.7094C61.123 25.2872 60.395 25.36 60.162 25.8259C59.9145 26.3209 59.8854 26.8451 60.162 27.3401C60.4386 27.8352 61.123 27.8497 61.4142 27.3984C61.6471 27.0489 61.7199 27.0198 62.1567 27.1508C62.0985 27.7769 61.6471 28.2137 60.9774 28.2574C59.8708 28.3448 59.2593 27.7769 59.2593 26.6558C59.2593 25.6803 59.5942 25.127 60.3513 24.9523C61.2831 24.7484 62.1276 25.1998 62.1422 26.0152Z" fill="white"/>
<path d="M45.7038 28.1409C45.0923 28.2574 45.0923 28.2428 44.8448 27.7478C44.8011 27.6604 44.6555 27.5731 44.5536 27.5585C44.2915 27.5294 44.0294 27.5294 43.7674 27.5585C43.68 27.5731 43.5198 27.6604 43.5053 27.7332C43.4179 28.2428 43.0685 28.2428 42.6462 28.1555C42.8792 27.5294 43.1122 26.9033 43.3451 26.2918C43.447 26.0006 43.549 25.7094 43.6654 25.4182C43.8256 24.9959 43.9566 24.9086 44.408 24.9959C44.4808 25.0105 44.5682 25.0687 44.5827 25.127C44.9613 26.1316 45.3253 27.1363 45.7038 28.1409ZM43.7237 27.0489C44.0586 27.0489 44.3206 27.0489 44.6555 27.0489C44.5099 26.6121 44.3789 26.219 44.2333 25.8113C44.2042 25.8113 44.175 25.8113 44.1459 25.8113C44.0003 26.2335 43.8693 26.6267 43.7237 27.0489Z" fill="white"/>
<path d="M48.6304 28.1699C48.412 28.1699 48.2081 28.1699 47.9897 28.1699C47.9897 27.1215 47.9897 26.0878 47.9897 25.0249C48.1936 25.0249 48.3974 25.0249 48.6304 25.0249C48.6304 26.0587 48.6304 27.0924 48.6304 28.1699Z" fill="white"/>
<path d="M26.3245 10.0137C23.9221 12.6636 21.5343 15.299 19.1173 17.9635C21.6362 19.3904 24.1114 20.8027 26.6303 22.2441C26.1207 22.5208 25.6839 22.7683 25.2325 23.0158C23.4417 24.0059 21.6508 24.996 19.8599 25.986C19.6852 26.088 19.5396 26.1316 19.3357 26.0152C16.2053 24.1224 13.0749 22.2441 9.94454 20.3659C9.8863 20.3368 9.82806 20.2931 9.75526 20.2348C12.1577 17.5558 14.5309 14.8913 16.9625 12.1832C14.2834 10.5524 11.6481 8.95084 8.9399 7.30556C8.9399 13.7411 8.9399 20.1038 8.9399 26.5102C8.7943 26.4374 8.69238 26.3937 8.60502 26.3355C6.49382 25.0979 4.36806 23.8457 2.25686 22.6081C2.05302 22.4916 1.98022 22.3752 1.98022 22.1276C1.99478 17.9926 1.99478 13.8721 1.98022 9.73709C1.98022 9.51869 2.03846 9.4022 2.22774 9.28572C5.98422 6.9998 9.75526 4.71388 13.5263 2.42797C13.7156 2.31149 13.8612 2.28236 14.0796 2.4134C18.0836 4.90316 22.1021 7.37837 26.1207 9.86812C26.1789 9.89724 26.2372 9.94092 26.3245 10.0137Z" fill="white"/>
<path d="M32.9347 22.1858C31.0856 22.1858 29.2656 22.1858 27.4165 22.1858C27.4165 18.0653 27.4165 13.9594 27.4165 9.80981C29.2365 9.80981 31.0856 9.80981 32.9347 9.80981C32.9347 13.9303 32.9347 18.0508 32.9347 22.1858Z" fill="white"/>
<path d="M14.953 2.02026C16.0014 2.02026 17.0642 2.02026 18.1126 2.02026C19.2191 2.02026 20.3257 2.02026 21.4177 2.02026C21.5778 2.02026 21.7526 2.06394 21.8836 2.13674C25.378 4.32074 28.8724 6.50474 32.3668 8.68874C32.3959 8.7033 32.425 8.73242 32.4978 8.79066C32.3668 8.80522 32.2794 8.80522 32.1921 8.80522C30.4594 8.80522 28.7122 8.80522 26.9796 8.80522C26.8194 8.80522 26.6447 8.7761 26.4991 8.68874C22.6844 6.5193 18.8697 4.3353 15.055 2.1513C15.0113 2.12218 14.9822 2.10762 14.9385 2.0785C14.9385 2.06394 14.9385 2.03482 14.953 2.02026Z" fill="white"/>
<path d="M15.7393 29.8588C16.8604 29.2036 17.9669 28.5484 19.0881 27.9078C21.6797 26.3935 24.2714 24.8647 26.8777 23.365C27.0961 23.234 27.3873 23.1612 27.6493 23.1466C29.3237 23.1321 31.0127 23.1321 32.7599 23.1321C32.6434 23.2194 32.5852 23.2777 32.5124 23.3214C29.0471 25.4762 25.5673 27.6166 22.0874 29.7714C21.9564 29.8442 21.8108 29.9316 21.6652 29.9316C19.6996 29.9462 17.734 29.9316 15.7684 29.9316C15.7538 29.9025 15.7538 29.8734 15.7393 29.8588Z" fill="white"/>
</svg>
