<svg width="35" height="35" viewBox="0 0 35 35" fill="none" xmlns="http://www.w3.org/2000/svg">
<path d="M33.6 28.913H32.2V11.413C32.1994 10.8079 31.9779 10.2277 31.5843 9.79972C31.1906 9.3718 30.6568 9.13109 30.1 9.13043H28.7602L29.2708 2.47207C29.2947 2.1575 29.2584 1.84095 29.1641 1.54241C29.0699 1.24386 28.9197 0.9698 28.723 0.737515C28.5264 0.505231 28.2876 0.319767 28.0218 0.192829C27.7559 0.0658902 27.4687 0.000232788 27.1783 0H7.82168C7.53126 0.000176717 7.24403 0.0657931 6.97811 0.192707C6.71219 0.319621 6.47337 0.505077 6.27672 0.737368C6.08006 0.96966 5.92984 1.24374 5.83555 1.54231C5.74125 1.84089 5.70492 2.15746 5.72886 2.47207L6.23929 9.13043H4.9C4.34323 9.13109 3.80944 9.3718 3.41575 9.79972C3.02205 10.2277 2.80061 10.8079 2.8 11.413V28.913H1.4C1.02883 28.9135 0.672978 29.074 0.410519 29.3593C0.14806 29.6445 0.000424265 30.0313 0 30.4348V31.1957C0.00108932 32.2043 0.370188 33.1712 1.02633 33.8844C1.68247 34.5976 2.57208 34.9988 3.5 35H31.5C32.4279 34.9988 33.3175 34.5976 33.9737 33.8844C34.6298 33.1712 34.9989 32.2043 35 31.1957V30.4348C34.9995 30.0314 34.8519 29.6446 34.5894 29.3593C34.327 29.0741 33.9712 28.9136 33.6 28.913ZM7.82168 1.52174H27.1783C27.2752 1.52165 27.371 1.54342 27.4597 1.58567C27.5484 1.62792 27.6281 1.68973 27.6937 1.76718C27.7593 1.84464 27.8094 1.93606 27.8409 2.03565C27.8723 2.13524 27.8843 2.24084 27.8763 2.34576L26.7087 17.5632C26.6954 17.7537 26.6162 17.9317 26.4869 18.0612C26.3576 18.1907 26.1879 18.2621 26.0121 18.2609H19.6C19.4792 18.2609 19.3604 18.295 19.2552 18.3597C19.15 18.4244 19.062 18.5176 18.9998 18.6302L17.5 21.3474L16.0002 18.6302C15.938 18.5176 15.85 18.4244 15.7448 18.3597C15.6396 18.295 15.5208 18.2609 15.4 18.2609H8.98823C8.81289 18.2599 8.6442 18.1878 8.51517 18.0588C8.38614 17.9297 8.30607 17.753 8.29062 17.5632L7.12407 2.34576C7.11593 2.24086 7.12792 2.13526 7.15929 2.03565C7.19067 1.93605 7.24073 1.84462 7.30631 1.76715C7.3719 1.68968 7.45157 1.62786 7.54029 1.58562C7.629 1.54337 7.72483 1.52162 7.82168 1.52174ZM4.2 11.413C4.20019 11.2113 4.27399 11.0179 4.40523 10.8752C4.53647 10.7326 4.71441 10.6524 4.9 10.6522H6.35593L6.89541 17.6895C6.94185 18.2589 7.18211 18.7891 7.56917 19.1762C7.95623 19.5634 8.46225 19.7796 8.98823 19.7826H15.0035L16.2996 22.1306C16.424 22.3559 16.6 22.5423 16.8103 22.6718C17.0207 22.8012 17.2583 22.8692 17.5 22.8692C17.7417 22.8692 17.9793 22.8012 18.1897 22.6718C18.4 22.5423 18.576 22.3559 18.7004 22.1306L19.9965 19.7826H26.0121C26.538 19.7796 27.0439 19.5634 27.4308 19.1762C27.8177 18.789 28.0577 18.2589 28.1039 17.6895L28.6435 10.6522H30.1C30.2856 10.6523 30.4636 10.7325 30.5948 10.8752C30.7261 11.0178 30.7999 11.2113 30.8 11.413V28.913H4.2V11.413ZM33.6 31.1957C33.5994 31.8008 33.3779 32.381 32.9843 32.809C32.5906 33.2369 32.0568 33.4776 31.5 33.4783H3.5C2.94323 33.4776 2.40944 33.2369 2.01575 32.809C1.62205 32.381 1.40061 31.8008 1.4 31.1957V30.4348H33.6V31.1957Z" fill="white"/>
<path d="M17.5 16.5484C17.8866 16.5484 18.2 16.2079 18.2 15.7879C18.2 15.3679 17.8866 15.0273 17.5 15.0273C17.1134 15.0273 16.8 15.3679 16.8 15.7879C16.8 16.2079 17.1134 16.5484 17.5 16.5484Z" fill="white"/>
<path d="M14.6753 7.75385C14.7673 7.75388 14.8583 7.73421 14.9432 7.69598C15.0282 7.65776 15.1054 7.60171 15.1704 7.53106C15.2354 7.4604 15.2869 7.37651 15.3221 7.28419C15.3573 7.19186 15.3754 7.09291 15.3753 6.99299C15.3753 6.88907 15.3821 6.78529 15.3955 6.6824C15.4747 6.13998 15.731 5.6467 16.1175 5.29289C16.5039 4.93907 16.9947 4.74838 17.5 4.75572C17.5147 4.75572 17.5294 4.75572 17.5441 4.75648C18.0717 4.76096 18.5784 4.98128 18.9633 5.37357C19.3482 5.76586 19.5831 6.30133 19.6212 6.87337C19.6362 7.1723 19.5945 7.4714 19.4987 7.7521C19.4029 8.03279 19.2551 8.28908 19.0644 8.50506C18.8622 8.73452 18.6192 8.91703 18.3503 9.04155C18.0813 9.16607 17.792 9.23001 17.4996 9.22952C17.4077 9.22949 17.3167 9.24916 17.2317 9.28738C17.1468 9.32561 17.0696 9.38166 17.0046 9.45231C16.9396 9.52297 16.888 9.60686 16.8529 9.69918C16.8177 9.79151 16.7996 9.89046 16.7996 9.99038V13.1252C16.7996 13.327 16.8734 13.5205 17.0047 13.6632C17.1359 13.8059 17.314 13.8861 17.4996 13.8861C17.6853 13.8861 17.8633 13.8059 17.9946 13.6632C18.1259 13.5205 18.1996 13.327 18.1996 13.1252V10.6754C18.918 10.5204 19.5747 10.1281 20.0802 9.55198C20.4023 9.18664 20.6519 8.7532 20.8134 8.27859C20.9749 7.80399 21.0449 7.29835 21.0191 6.79309C20.9611 5.83752 20.5741 4.94075 19.9352 4.28134C19.2963 3.62194 18.4523 3.24827 17.5714 3.23476C17.5475 3.23476 17.5235 3.234 17.4996 3.234C16.6577 3.22708 15.8417 3.54994 15.2008 4.14347C14.56 4.73701 14.1372 5.56153 14.0099 6.46614C13.9868 6.64062 13.9752 6.81667 13.9753 6.99295C13.9753 7.09288 13.9934 7.19183 14.0286 7.28416C14.0637 7.37649 14.1153 7.46038 14.1803 7.53104C14.2453 7.6017 14.3225 7.65775 14.4074 7.69598C14.4924 7.73421 14.5834 7.75388 14.6753 7.75385Z" fill="white"/>
<path d="M7.00005 24.3477H14C14.1857 24.3477 14.3637 24.2675 14.495 24.1249C14.6263 23.9822 14.7 23.7887 14.7 23.5869C14.7 23.3852 14.6263 23.1917 14.495 23.049C14.3637 22.9063 14.1857 22.8262 14 22.8262H7.00005C6.8144 22.8262 6.63635 22.9063 6.50507 23.049C6.3738 23.1917 6.30005 23.3852 6.30005 23.5869C6.30005 23.7887 6.3738 23.9822 6.50507 24.1249C6.63635 24.2675 6.8144 24.3477 7.00005 24.3477Z" fill="white"/>
<path d="M28 25.8696H7.00005C6.8144 25.8696 6.63635 25.9498 6.50507 26.0925C6.3738 26.2352 6.30005 26.4288 6.30005 26.6306C6.30005 26.8324 6.3738 27.026 6.50507 27.1687C6.63635 27.3114 6.8144 27.3915 7.00005 27.3915H28C28.1857 27.3915 28.3637 27.3114 28.495 27.1687C28.6263 27.026 28.7 26.8324 28.7 26.6306C28.7 26.4288 28.6263 26.2352 28.495 26.0925C28.3637 25.9498 28.1857 25.8696 28 25.8696Z" fill="white"/>
<path d="M28 22.8262H21C20.8144 22.8262 20.6363 22.9063 20.5051 23.049C20.3738 23.1917 20.3 23.3852 20.3 23.5869C20.3 23.7887 20.3738 23.9822 20.5051 24.1249C20.6363 24.2675 20.8144 24.3477 21 24.3477H28C28.1857 24.3477 28.3637 24.2675 28.495 24.1249C28.6263 23.9822 28.7 23.7887 28.7 23.5869C28.7 23.3852 28.6263 23.1917 28.495 23.049C28.3637 22.9063 28.1857 22.8262 28 22.8262Z" fill="white"/>
</svg>
