<svg width="50" height="50" viewBox="0 0 50 50" fill="none" xmlns="http://www.w3.org/2000/svg">
<path d="M41.3748 42.5H38.2498V18.2813C38.2493 15.0997 37.1069 12.024 35.0304 9.6136C32.9538 7.20315 30.0811 5.61808 26.9347 5.14666C23.7883 4.67524 20.5772 5.3488 17.8854 7.04482C15.1936 8.74085 13.2 11.3467 12.2671 14.3884C11.0178 18.3531 9.28621 22.1493 7.11115 25.6917C7.05301 25.7887 7.01662 25.8973 7.0045 26.0097C6.99238 26.1222 7.00481 26.236 7.04093 26.3432C7.07705 26.4504 7.13601 26.5485 7.21373 26.6307C7.29145 26.7129 7.38608 26.7773 7.49109 26.8193L11.0059 28.2254L12.5845 35.9387C12.6942 36.4671 12.9823 36.9417 13.4004 37.2829C13.8185 37.6241 14.3413 37.8111 14.8809 37.8125H19.47V42.5H16.3748C16.1676 42.5 15.9688 42.5823 15.8223 42.7288C15.6758 42.8754 15.5935 43.0741 15.5935 43.2813C15.5935 43.4885 15.6758 43.6872 15.8223 43.8337C15.9688 43.9802 16.1676 44.0625 16.3748 44.0625H20.2513C20.3539 44.0626 20.4555 44.0424 20.5503 44.0032C20.6451 43.9639 20.7313 43.9064 20.8038 43.8338C20.8764 43.7613 20.9339 43.6751 20.9732 43.5803C21.0124 43.4855 21.0326 43.3839 21.0325 43.2813V37.8125H22.6248C22.7273 37.8125 22.8289 37.7923 22.9237 37.753C23.0185 37.7138 23.1046 37.6562 23.1771 37.5836L25.5208 35.2399C25.6655 35.093 25.7462 34.8949 25.7453 34.6888C25.7445 34.4827 25.6623 34.2852 25.5165 34.1395C25.3708 33.9937 25.1733 33.9115 24.9672 33.9107C24.7611 33.9099 24.563 33.9906 24.4161 34.1352L22.3013 36.25H14.881C14.7011 36.2497 14.5267 36.1875 14.3873 36.0738C14.2478 35.9602 14.1516 35.8021 14.115 35.6259L12.4525 27.4999C12.4266 27.3731 12.3696 27.2547 12.2866 27.1553C12.2037 27.056 12.0973 26.9788 11.9772 26.9307L8.91701 25.7066C10.9459 22.2857 12.5714 18.641 13.7609 14.8458C14.5843 12.162 16.3435 9.86287 18.7186 8.36651C21.0938 6.87015 23.9271 6.27595 26.7034 6.69196C29.4796 7.10798 32.0143 8.50659 33.8465 10.6334C35.6787 12.7603 36.6867 15.4741 36.6873 18.2813V43.2813C36.6872 43.3839 36.7074 43.4855 36.7466 43.5803C36.7858 43.6751 36.8434 43.7613 36.9159 43.8338C36.9885 43.9064 37.0747 43.9639 37.1695 44.0032C37.2643 44.0424 37.3659 44.0626 37.4685 44.0625H41.3748C41.582 44.0625 41.7807 43.9802 41.9272 43.8337C42.0737 43.6872 42.156 43.4885 42.156 43.2813C42.156 43.0741 42.0737 42.8754 41.9272 42.7288C41.7807 42.5823 41.582 42.5 41.3748 42.5Z" fill="white"/>
<path d="M31.6101 24.5975C30.1526 26.0507 28.178 26.866 26.1199 26.8645C24.0618 26.8629 22.0884 26.0446 20.6331 24.5893C19.1779 23.134 18.3596 21.1606 18.3582 19.1025C18.3567 17.0443 19.1721 15.0698 20.6253 13.6124C21.7267 12.5168 23.2177 11.9027 24.7713 11.9048C26.3248 11.9069 27.8141 12.5249 28.9126 13.6235C30.0112 14.722 30.6292 16.2113 30.6313 17.7648C30.6334 19.3184 30.0193 20.8093 28.9238 21.9108C28.1793 22.6534 27.1705 23.0701 26.1189 23.0694C25.0674 23.0688 24.0591 22.6508 23.3155 21.9073C22.5719 21.1637 22.1539 20.1555 22.1531 19.1039C22.1524 18.0524 22.5691 17.0436 23.3116 16.299C23.7056 15.9229 24.2294 15.7131 24.7742 15.7131C25.3189 15.7131 25.8427 15.9229 26.2367 16.299C26.4289 16.491 26.5814 16.719 26.6854 16.9699C26.7894 17.2209 26.8429 17.4899 26.8429 17.7616C26.8429 18.0332 26.7894 18.3022 26.6854 18.5532C26.5814 18.8041 26.4289 19.0321 26.2367 19.2241C26.1141 19.3412 25.9511 19.4065 25.7816 19.4064C25.612 19.4064 25.449 19.3409 25.3266 19.2237C25.1797 19.0786 24.9813 18.9975 24.7748 18.9982C24.5684 18.9988 24.3705 19.0812 24.2246 19.2272C24.0786 19.3733 23.9964 19.5712 23.9959 19.7776C23.9954 19.9841 24.0766 20.1824 24.2218 20.3292C24.6421 20.7302 25.2008 20.9539 25.7817 20.9538C26.3627 20.9538 26.9212 20.7299 27.3415 20.3288C28.0224 19.6479 28.4049 18.7244 28.4049 17.7615C28.4049 16.7986 28.0224 15.8751 27.3415 15.1942C26.6606 14.5133 25.7371 14.1308 24.7742 14.1308C23.8113 14.1308 22.8878 14.5133 22.2069 15.1942C21.1697 16.2314 20.5871 17.6382 20.5871 19.105C20.5871 20.5718 21.1698 21.9785 22.207 23.0157C23.2443 24.0529 24.651 24.6355 26.1178 24.6355C27.5846 24.6355 28.9913 24.0527 30.0285 23.0155C30.7185 22.3256 31.2658 21.5065 31.6392 20.605C32.0126 19.7035 32.2048 18.7373 32.2048 17.7616C32.2048 16.7858 32.0126 15.8196 31.6392 14.9181C31.2658 14.0166 30.7185 13.1975 30.0285 12.5076C29.3386 11.8176 28.5195 11.2703 27.618 10.8969C26.7165 10.5235 25.7503 10.3313 24.7745 10.3313C23.7988 10.3313 22.8326 10.5235 21.9311 10.8969C21.0296 11.2703 20.2105 11.8176 19.5205 12.5076C17.7747 14.258 16.795 16.6299 16.7966 19.1022C16.7983 21.5744 17.7811 23.945 19.5292 25.6932C21.2773 27.4414 23.6479 28.4242 26.1201 28.4259C28.5924 28.4276 30.9643 27.448 32.7148 25.7022C32.7881 25.6298 32.8464 25.5437 32.8862 25.4487C32.9261 25.3537 32.9468 25.2518 32.9471 25.1488C32.9474 25.0458 32.9274 24.9438 32.8881 24.8486C32.8488 24.7534 32.7911 24.6668 32.7183 24.594C32.6455 24.5212 32.5589 24.4635 32.4637 24.4242C32.3685 24.3849 32.2665 24.3649 32.1635 24.3652C32.0605 24.3656 31.9586 24.3862 31.8636 24.4261C31.7686 24.466 31.6825 24.5242 31.6101 24.5975Z" fill="white"/>
</svg>
