<svg width="50" height="50" viewBox="0 0 50 50" fill="none" xmlns="http://www.w3.org/2000/svg">
<path d="M21.9407 19.3458C21.2902 19.6728 20.5718 19.842 19.8438 19.8395C19.0718 19.8397 18.3118 19.6493 17.6312 19.2851C16.9505 18.921 16.3704 18.3943 15.9422 17.752C15.8867 17.6635 15.814 17.587 15.7284 17.527C15.6427 17.4671 15.546 17.4249 15.4437 17.403C15.3415 17.3812 15.236 17.38 15.1333 17.3997C15.0307 17.4193 14.933 17.4594 14.8461 17.5175C14.7592 17.5756 14.6849 17.6505 14.6274 17.7379C14.57 17.8252 14.5307 17.9232 14.5119 18.026C14.493 18.1288 14.4949 18.2343 14.5176 18.3364C14.5403 18.4384 14.5832 18.5349 14.6438 18.62C15.4895 19.8871 16.7686 20.8019 18.241 21.1928C19.7134 21.5836 21.2779 21.4235 22.6407 20.7427C22.8259 20.6494 22.9665 20.4864 23.0316 20.2895C23.0966 20.0926 23.0808 19.8779 22.9875 19.6927C22.8943 19.5074 22.7313 19.3668 22.5344 19.3018C22.3375 19.2367 22.1228 19.2525 21.9375 19.3458H21.9407Z" fill="white"/>
<path d="M43.6305 13.6717L40.5055 12.1092C40.3863 12.0497 40.254 12.0216 40.1209 12.0276C39.9879 12.0336 39.8586 12.0736 39.7453 12.1436C39.632 12.2137 39.5385 12.3115 39.4737 12.4279C39.4089 12.5443 39.3749 12.6752 39.375 12.8084V17.9537L38.5938 18.735L37.8125 17.9537V12.8084C37.8126 12.6752 37.7786 12.5443 37.7138 12.4279C37.649 12.3115 37.5555 12.2137 37.4422 12.1436C37.3289 12.0736 37.1996 12.0336 37.0666 12.0276C36.9335 12.0216 36.8012 12.0497 36.682 12.1092L33.557 13.6717C33.4272 13.7366 33.3179 13.8364 33.2416 13.9599C33.1653 14.0834 33.1249 14.2257 33.125 14.3709V19.8397C33.125 20.0469 33.2074 20.2455 33.3539 20.392L35.4688 22.5069V28.0537L32.3156 30.5764C30.4167 27.5751 27.4889 25.3689 24.0805 24.3709C25.3325 23.7992 26.4549 22.9782 27.379 21.9581C28.303 20.938 29.0094 19.7402 29.4549 18.4379C29.9004 17.1355 30.0757 15.756 29.9701 14.3837C29.8645 13.0113 29.4802 11.6749 28.8406 10.4561L34.1305 8.86936C34.2288 8.83992 34.3203 8.7914 34.3998 8.72659C34.4794 8.66177 34.5453 8.58192 34.594 8.49161C34.6427 8.40129 34.6731 8.30226 34.6835 8.20019C34.6939 8.09812 34.6841 7.99499 34.6547 7.89671C34.6252 7.79842 34.5767 7.7069 34.5119 7.62736C34.4471 7.54782 34.3672 7.48183 34.2769 7.43315C34.1866 7.38448 34.0876 7.35406 33.9855 7.34366C33.8834 7.33325 33.7803 7.34304 33.682 7.37249L27.9688 9.08577C27.0449 7.8453 25.8497 6.83246 24.4744 6.12467C23.0992 5.41688 21.5803 5.03288 20.0339 5.00202C18.4875 4.97116 16.9545 5.29425 15.5521 5.9466C14.1497 6.59896 12.915 7.5633 11.9424 8.76593C10.9698 9.96855 10.285 11.3776 9.94041 12.8854C9.59579 14.3933 9.60046 15.9599 9.95406 17.4657C10.3077 18.9714 11.0008 20.3764 11.9806 21.5732C12.9604 22.77 14.2008 23.7269 15.607 24.3709C12.5428 25.2814 9.85478 27.1575 7.9434 29.7197C6.03202 32.2819 4.99961 35.3931 5 38.5897V41.7147C5 42.3363 5.24693 42.9324 5.68647 43.372C6.12601 43.8115 6.72215 44.0584 7.34375 44.0584H32.3438C32.9274 44.0566 33.4893 43.8366 33.919 43.4417C34.3488 43.0468 34.6153 42.5055 34.6664 41.9241L39.2188 31.3061C39.9246 31.162 40.559 30.7785 41.0146 30.2204C41.4701 29.6623 41.7189 28.964 41.7188 28.2436V22.5069L43.8336 20.392C43.9801 20.2455 44.0625 20.0469 44.0625 19.8397V14.3709C44.0626 14.2257 44.0222 14.0834 43.9459 13.9599C43.8696 13.8364 43.7603 13.7366 43.6305 13.6717ZM35.8664 29.7412C36.2234 30.4267 36.8348 30.945 37.5695 31.185L34.6555 37.9819C34.5685 35.8848 34.0379 33.8299 33.0984 31.953L35.8664 29.7412ZM33.0789 37.7303C31.9976 37.5355 31.019 36.9674 30.3136 36.1251C29.6082 35.2828 29.2207 34.2196 29.2188 33.1209V29.2092C31.4963 31.4874 32.8682 34.5158 33.0789 37.7303ZM19.8438 6.55843C21.0834 6.55888 22.3082 6.82815 23.4338 7.34769C24.5593 7.86723 25.5588 8.62467 26.3633 9.5678L11.3281 14.0795C11.5908 12.005 12.6002 10.0972 14.1675 8.71294C15.7348 7.32868 17.7527 6.56276 19.8438 6.55843ZM11.2789 15.7248L27.3109 10.9155C27.9492 12.0376 28.3262 13.2892 28.4139 14.5771C28.5017 15.8651 28.2979 17.1562 27.8177 18.3545C27.3376 19.5528 26.5934 20.6275 25.6406 21.4985C24.6878 22.3695 23.5508 23.0144 22.3143 23.3854C21.0778 23.7563 19.7736 23.8437 18.4987 23.6409C17.2238 23.4382 16.011 22.9507 14.9505 22.2145C13.8901 21.4784 13.0092 20.5126 12.3735 19.389C11.7379 18.2654 11.3637 17.013 11.2789 15.7248ZM24.3305 26.0975L19.868 28.3287L15.7414 25.9709C18.5372 25.0461 21.5631 25.0907 24.3305 26.0975ZM10.4688 29.2092V33.1209C10.4668 34.2196 10.0793 35.2828 9.3739 36.1251C8.66849 36.9674 7.68987 37.5355 6.60859 37.7303C6.81932 34.5158 8.1912 31.4874 10.4688 29.2092ZM6.5625 41.7147V39.317C8.07148 39.1256 9.45903 38.3909 10.4656 37.2505C11.4721 36.1101 12.0287 34.642 12.0312 33.1209V27.8545C12.6268 27.42 13.2576 27.0361 13.9172 26.7069C13.9393 26.7286 13.9628 26.749 13.9875 26.7678L19.0625 29.6678V42.4959H7.34375C7.13655 42.4959 6.93784 42.4136 6.79132 42.2671C6.64481 42.1206 6.5625 41.9219 6.5625 41.7147ZM32.3438 42.4959H20.625V29.6975L26.1719 26.9256C26.6866 27.2021 27.1825 27.5124 27.6562 27.8545V33.1209C27.6588 34.642 28.2154 36.1101 29.2219 37.2505C30.2285 38.3909 31.616 39.1256 33.125 39.317V41.71V41.7147C33.125 41.9219 33.0427 42.1206 32.8962 42.2671C32.7497 42.4136 32.551 42.4959 32.3438 42.4959ZM42.5 19.5162L40.3852 21.6311C40.2386 21.7776 40.1563 21.9762 40.1562 22.1834V28.2436C40.1562 28.658 39.9916 29.0554 39.6986 29.3484C39.4056 29.6415 39.0082 29.8061 38.5938 29.8061C38.1793 29.8061 37.7819 29.6415 37.4889 29.3484C37.1959 29.0554 37.0312 28.658 37.0312 28.2436V22.1834C37.0312 21.9762 36.9489 21.7776 36.8023 21.6311L34.6875 19.5162V14.8537L36.25 14.0725V18.2772C36.25 18.4844 36.3324 18.683 36.4789 18.8295L38.0414 20.392C38.1879 20.5385 38.3866 20.6208 38.5938 20.6208C38.8009 20.6208 38.9996 20.5385 39.1461 20.392L40.7086 18.8295C40.8551 18.683 40.9375 18.4844 40.9375 18.2772V14.0725L42.5 14.8537V19.5162Z" fill="white"/>
</svg>
