<svg width="50" height="50" viewBox="0 0 50 50" fill="none" xmlns="http://www.w3.org/2000/svg">
<path d="M37.5 10.1562H35.1562V7.8125C35.1562 7.1909 34.9093 6.59476 34.4698 6.15522C34.0302 5.71568 33.4341 5.46875 32.8125 5.46875H31.25C30.6284 5.46875 30.0323 5.71568 29.5927 6.15522C29.1532 6.59476 28.9062 7.1909 28.9062 7.8125V10.1562H9.375V3.125C9.375 2.5034 9.12807 1.90726 8.68853 1.46772C8.24899 1.02818 7.65285 0.78125 7.03125 0.78125H6.25C4.80011 0.782904 3.41007 1.35961 2.38484 2.38484C1.35961 3.41007 0.782904 4.80011 0.78125 6.25V34.375C0.78311 35.8248 1.35988 37.2147 2.38506 38.2399C3.41025 39.2651 4.80017 39.8419 6.25 39.8438H37.5C38.1216 39.8438 38.7177 39.5968 39.1573 39.1573C39.5968 38.7177 39.8438 38.1216 39.8438 37.5V12.5C39.8438 11.8784 39.5968 11.2823 39.1573 10.8427C38.7177 10.4032 38.1216 10.1562 37.5 10.1562ZM30.4688 10.1562H33.5938V22.3328L32.0312 23.8953L30.4688 22.3328V10.1562ZM31.25 7.03125H32.8125C33.0197 7.03125 33.2184 7.11356 33.3649 7.26007C33.5114 7.40659 33.5938 7.6053 33.5938 7.8125V8.59375H30.4688V7.8125C30.4688 7.6053 30.5511 7.40659 30.6976 7.26007C30.8441 7.11356 31.0428 7.03125 31.25 7.03125ZM2.34375 6.25C2.34499 5.21438 2.75694 4.22153 3.48923 3.48923C4.22153 2.75694 5.21438 2.34499 6.25 2.34375H7.03125C7.23845 2.34375 7.43716 2.42606 7.58368 2.57257C7.73019 2.71909 7.8125 2.9178 7.8125 3.125V28.125C7.8125 28.3322 7.73019 28.5309 7.58368 28.6774C7.43716 28.8239 7.23845 28.9062 7.03125 28.9062H6.25C5.52237 28.9053 4.80189 29.0499 4.13103 29.3317C3.46016 29.6135 2.85247 30.0266 2.34375 30.5469V6.25ZM38.2812 37.5C38.2812 37.7072 38.1989 37.9059 38.0524 38.0524C37.9059 38.1989 37.7072 38.2812 37.5 38.2812H6.25C5.214 38.2812 4.22043 37.8697 3.48786 37.1371C2.7553 36.4046 2.34375 35.411 2.34375 34.375C2.34375 33.339 2.7553 32.3454 3.48786 31.6129C4.22043 30.8803 5.214 30.4688 6.25 30.4688H7.03125C7.65285 30.4688 8.24899 30.2218 8.68853 29.7823C9.12807 29.3427 9.375 28.7466 9.375 28.125V11.7188H28.9062V22.6562C28.9063 22.8634 28.9886 23.0621 29.1352 23.2086L31.4789 25.5523C31.6254 25.6988 31.8241 25.7811 32.0312 25.7811C32.2384 25.7811 32.4371 25.6988 32.5836 25.5523L34.9273 23.2086C35.0739 23.0621 35.1562 22.8634 35.1562 22.6562V11.7188H37.5C37.7072 11.7188 37.9059 11.8011 38.0524 11.9476C38.1989 12.0941 38.2812 12.2928 38.2812 12.5V37.5Z" fill="white"/>
<path d="M34.375 26.5625C34.1678 26.5625 33.9691 26.6448 33.8226 26.7913C33.6761 26.9378 33.5938 27.1365 33.5938 27.3438V28.9062H17.1875V25.7812H27.3438C27.551 25.7812 27.7497 25.6989 27.8962 25.5524C28.0427 25.4059 28.125 25.2072 28.125 25C28.125 24.7928 28.0427 24.5941 27.8962 24.4476C27.7497 24.3011 27.551 24.2188 27.3438 24.2188H17.1875V21.0938H26.5625C26.7697 21.0938 26.9684 21.0114 27.1149 20.8649C27.2614 20.7184 27.3438 20.5197 27.3438 20.3125C27.3438 20.1053 27.2614 19.9066 27.1149 19.7601C26.9684 19.6136 26.7697 19.5312 26.5625 19.5312H11.7188C11.5115 19.5312 11.3128 19.6136 11.1663 19.7601C11.0198 19.9066 10.9375 20.1053 10.9375 20.3125V34.375C10.9375 34.5822 11.0198 34.7809 11.1663 34.9274C11.3128 35.0739 11.5115 35.1562 11.7188 35.1562H34.375C34.5822 35.1562 34.7809 35.0739 34.9274 34.9274C35.0739 34.7809 35.1562 34.5822 35.1562 34.375V27.3438C35.1562 27.1365 35.0739 26.9378 34.9274 26.7913C34.7809 26.6448 34.5822 26.5625 34.375 26.5625ZM15.625 28.9062H12.5V25.7812H15.625V28.9062ZM15.625 21.0938V24.2188H12.5V21.0938H15.625ZM12.5 30.4688H15.625V33.5938H12.5V30.4688ZM17.1875 33.5938V30.4688H33.5938V33.5938H17.1875Z" fill="white"/>
<path d="M11.7188 16.4062H16.4062C16.6135 16.4062 16.8122 16.3239 16.9587 16.1774C17.1052 16.0309 17.1875 15.8322 17.1875 15.625C17.1875 15.4178 17.1052 15.2191 16.9587 15.0726C16.8122 14.9261 16.6135 14.8438 16.4062 14.8438H11.7188C11.5115 14.8438 11.3128 14.9261 11.1663 15.0726C11.0198 15.2191 10.9375 15.4178 10.9375 15.625C10.9375 15.8322 11.0198 16.0309 11.1663 16.1774C11.3128 16.3239 11.5115 16.4062 11.7188 16.4062Z" fill="white"/>
<path d="M18.75 16.4062H26.5625C26.7697 16.4062 26.9684 16.3239 27.1149 16.1774C27.2614 16.0309 27.3438 15.8322 27.3438 15.625C27.3438 15.4178 27.2614 15.2191 27.1149 15.0726C26.9684 14.9261 26.7697 14.8438 26.5625 14.8438H18.75C18.5428 14.8438 18.3441 14.9261 18.1976 15.0726C18.0511 15.2191 17.9688 15.4178 17.9688 15.625C17.9688 15.8322 18.0511 16.0309 18.1976 16.1774C18.3441 16.3239 18.5428 16.4062 18.75 16.4062Z" fill="white"/>
</svg>
