<svg width="45" height="32" viewBox="0 0 45 32" fill="none" xmlns="http://www.w3.org/2000/svg">
<path d="M0.434258 17.6225C0.217129 17.2231 0 16.8237 0 16.4243C0 16.025 0.217129 15.6256 0.434258 15.2262L2.82268 13.0296C3.47407 12.4306 4.55971 12.4306 5.2111 13.0296L5.42823 13.2293L15.199 22.8144C15.6333 23.2137 16.0676 23.2137 16.5018 22.8144L39.5175 0.449298H39.7346C40.386 -0.149766 41.4717 -0.149766 42.123 0.449298L44.5115 2.64587C45.1628 3.24493 45.1628 4.24337 44.5115 4.84243L16.9361 31.6006C16.5018 31.8003 16.0676 32 15.6333 32C15.199 32 14.7648 31.8003 14.3305 31.6006L0.868516 18.0218L0.434258 17.6225Z" fill="white"/>
</svg>
