<svg width="13" height="22" viewBox="0 0 13 22" fill="none" xmlns="http://www.w3.org/2000/svg">
<path d="M11.4885 0H1.51151C0.680307 0 0 0.668172 0 1.48594V20.5134C0 21.3312 0.680307 22 1.51151 22H11.4885C12.3197 22 13 21.3325 13 20.5141V1.48594C13 0.668172 12.3197 0 11.4885 0ZM4.90409 1.07109H8.09591C8.19693 1.07109 8.27877 1.15154 8.27877 1.25149C8.27877 1.3508 8.19693 1.43126 8.09591 1.43126H4.90409C4.80307 1.43126 4.72123 1.3508 4.72123 1.25149C4.72123 1.15154 4.80307 1.07109 4.90409 1.07109ZM6.5 21.257C6.08248 21.257 5.74425 20.9245 5.74425 20.5134C5.74425 20.1023 6.08248 19.7705 6.5 19.7705C6.91752 19.7705 7.25575 20.1023 7.25575 20.5134C7.25575 20.9245 6.91752 21.257 6.5 21.257ZM11.9482 19.25H1.05179V2.35651H11.9482V19.25Z" fill="#6D7D8A"/>
</svg>
