<svg width="234" height="28" viewBox="0 0 234 28" fill="none" xmlns="http://www.w3.org/2000/svg">
<g opacity="0.6">
<path d="M83.4939 14.5364C83.5069 14.3694 83.5638 13.6402 82.9206 13.6402C82.2222 13.6402 82.0952 14.5 82.0952 14.5661H83.492C83.492 14.5609 83.4928 14.5507 83.4939 14.5364Z" fill="#6D7D8A"/>
<path d="M72.6348 16.6825C73.3967 16.6825 73.5237 15.6243 73.5237 15.4259C73.5237 15.4259 73.4602 15.4259 73.2698 15.3598C72.3174 15.3598 72.1269 15.8228 72.1269 16.1534C72.1269 16.3519 72.2539 16.6825 72.6348 16.6825Z" fill="#6D7D8A"/>
<path d="M99.9365 16.5503C100.635 16.5503 100.952 15.6243 100.952 14.8968C100.952 14.1032 100.698 13.7725 100.254 13.7725C99.6825 13.7725 99.238 14.4339 99.238 15.4921C99.238 16.1534 99.492 16.5503 99.9365 16.5503Z" fill="#6D7D8A"/>
<path d="M94.2221 15.4259C94.2221 15.6243 94.0952 16.6825 93.3333 16.6825C92.9523 16.6825 92.8253 16.3519 92.8253 16.1534C92.8253 15.8228 93.0158 15.3598 93.9682 15.3598C94.1586 15.4259 94.1587 15.4259 94.2221 15.4259Z" fill="#6D7D8A"/>
<path fill-rule="evenodd" clip-rule="evenodd" d="M75.873 2C69.3333 2.06614 64 7.62169 64 14.5C64 21.3783 69.3333 27 76 27C79.0853 27 81.8585 25.7641 84.0097 23.8084C86.1351 25.791 88.9378 27 92 27C98.6667 27 104 21.3783 104 14.5C104 9.34127 101 4.88938 96.6607 2.98586C95.2262 2.35136 93.6508 2 92 2H91.9365C88.8345 2 86.0128 3.2406 83.8926 5.26928C81.8076 3.28265 78.9948 2.13228 75.9365 2.13228C75.9365 2.05114 75.9365 2.01976 75.9219 2.00764C75.9126 2 75.8976 2 75.873 2ZM80.2539 17.6746L80.4444 16.5503C80.4181 16.5503 80.3809 16.5616 80.3374 16.5749C80.2757 16.5937 80.2013 16.6164 80.127 16.6164C79.6825 16.6164 79.619 16.3519 79.6825 16.2196L80.0635 13.9048H80.7619L80.9524 12.6482H80.3174L80.4444 11.8545H79.1746C79.1746 11.8545 78.4127 16.2196 78.4127 16.7487C78.4127 17.5423 78.8571 17.873 79.4285 17.873C79.8095 17.873 80.127 17.7407 80.2539 17.6746ZM82.9206 17.873C81.9047 17.873 80.6984 17.41 80.6984 15.5582C80.6984 13.9048 81.6507 12.4497 82.9841 12.582C84.3809 12.582 84.8254 13.6402 84.8254 14.5C84.8254 14.8307 84.6349 15.6905 84.6349 15.6905H82.0317C82.0317 15.6905 81.7777 16.7487 83.1746 16.7487C83.8095 16.7487 84.5079 16.418 84.5079 16.418L84.2539 17.6746C84.2539 17.6746 83.873 17.873 82.9206 17.873ZM90.9841 17.6746L91.2381 16.2196C91.2381 16.2196 90.6032 16.5503 90.1587 16.5503C89.2698 16.5503 88.8889 15.8227 88.8889 15.0291C88.8889 13.4418 89.6508 12.582 90.5397 12.582C91.1746 12.582 91.6825 12.9788 91.6825 12.9788L91.873 11.5899C91.873 11.5899 91.1111 11.2593 90.4127 11.2593C88.9524 11.2593 87.492 12.582 87.492 15.0952C87.492 16.7487 88.2539 17.873 89.7778 17.873C90.2857 17.873 90.9841 17.6746 90.9841 17.6746ZM71.7459 12.7143C71.7459 12.7143 72.3809 12.4497 73.2698 12.4497C73.7142 12.4497 74.984 12.5159 74.984 14.1032L74.4761 17.7407H73.3332L73.3967 17.2116C73.3833 17.2116 73.3558 17.2381 73.3124 17.2799C73.15 17.4362 72.7648 17.8069 72.0634 17.8069C71.619 17.8069 70.8571 17.5423 70.8571 16.3519C70.8571 14.8307 72.0634 14.3677 73.1428 14.3677H73.7142C73.7142 14.3677 73.7777 14.3016 73.7777 14.037C73.7777 13.6402 73.3967 13.5741 72.9523 13.5741C72.1269 13.5741 71.5555 13.8386 71.5555 13.8386L71.7459 12.7143ZM76.1904 17.8069L76.2235 17.807C76.6046 17.8092 78.0952 17.8177 78.0952 16.0873C78.0952 15.0744 77.5234 14.8061 77.0803 14.5982C76.8001 14.4667 76.5714 14.3594 76.5714 14.1032C76.5714 13.7725 76.8254 13.6402 77.2698 13.6402C77.4603 13.6402 78.1587 13.7063 78.1587 13.7063L78.3492 12.5159C78.3492 12.5159 77.9047 12.3836 77.1428 12.3836C76.1904 12.3836 75.2381 12.7804 75.2381 14.1032C75.2381 15.039 75.8388 15.349 76.3011 15.5876C76.5903 15.7369 76.8254 15.8582 76.8254 16.0873C76.8254 16.4841 76.3809 16.5503 76.0634 16.5503C75.492 16.5503 74.9206 16.3518 74.9206 16.3518L74.7301 17.5423C74.7936 17.6746 75.1111 17.8069 76.1904 17.8069ZM101.27 13.1772L101.524 11.3915L102.857 11.4577L101.905 17.8069H100.635L100.698 17.3439C100.698 17.3439 100.254 17.873 99.492 17.873C98.4127 17.873 97.9047 16.7487 97.9047 15.6905C97.9047 13.9709 98.9206 12.5159 100.063 12.5159C100.762 12.5159 101.27 13.1772 101.27 13.1772ZM66.3491 17.7407L67.111 12.9788L67.238 17.7407H68.1269L69.7777 12.9788L69.0793 17.7407H70.4126L71.4285 11.3915H69.3333L68.0634 15.2936L67.9999 11.3915H66.1587L65.1428 17.7407H66.3491ZM86.2156 16.5954C86.1603 16.957 86.1013 17.3422 86.0317 17.7407V17.8069H84.6349L85.4603 12.6481H86.6667L86.5397 13.3757C86.5397 13.3757 86.9841 12.582 87.5555 12.582H87.8095C87.7864 12.6422 87.7612 12.7024 87.7346 12.7658C87.6153 13.0506 87.4689 13.4 87.3651 14.1032C86.6385 13.8329 86.4634 14.9767 86.2156 16.5954ZM93.9047 12.4497C93.0158 12.4497 92.3809 12.7143 92.3809 12.7143L92.1904 13.8386C92.1904 13.8386 92.7618 13.5741 93.5872 13.5741C94.0317 13.5741 94.4126 13.6402 94.4126 14.037C94.4126 14.3016 94.3491 14.3677 94.3491 14.3677H93.7777C92.6983 14.3677 91.492 14.8307 91.492 16.3519C91.492 17.5423 92.2539 17.8069 92.6983 17.8069C93.3998 17.8069 93.7849 17.4362 93.9473 17.2799C93.9908 17.2381 94.0183 17.2116 94.0317 17.2116L93.9682 17.7407H95.111L95.619 14.1032C95.6825 12.5159 94.3491 12.4497 93.9047 12.4497ZM96.8823 16.5954C96.8269 16.957 96.7679 17.3422 96.6984 17.7407V17.8069H95.3016L96.127 12.6481H97.3333L97.2063 13.3757C97.2063 13.3757 97.6508 12.582 98.2222 12.582H98.4762C98.453 12.6422 98.4278 12.7024 98.4012 12.7659C98.2819 13.0507 98.1356 13.4 98.0317 14.1032C97.3051 13.8329 97.13 14.9767 96.8823 16.5954Z" fill="#6D7D8A"/>
</g>
<g opacity="0.6">
<path d="M126.008 8.15837C126.427 8.16224 126.846 8.17769 127.26 8.16996C127.428 8.1661 127.476 8.22404 127.472 8.37854C127.468 9.69179 127.468 11.0012 127.468 12.3144C127.468 12.3646 127.46 12.4187 127.468 12.4689C127.48 12.5346 127.504 12.5964 127.52 12.662C127.579 12.6273 127.651 12.608 127.695 12.5578C128.134 12.0749 128.68 11.7698 129.33 11.6655C130.419 11.4917 131.472 11.5574 132.373 12.2565C132.996 12.7393 133.319 13.4114 133.49 14.1452C133.817 15.5396 133.849 16.9378 133.37 18.309C132.86 19.7691 131.767 20.5995 130.22 20.8428C128.756 21.0746 127.34 20.8853 126 20.2441C126.008 16.2194 126.008 12.187 126.008 8.15837ZM127.472 16.9803C127.472 17.6756 127.48 18.3708 127.468 19.0661C127.464 19.2785 127.547 19.3751 127.735 19.4523C128.194 19.6455 128.68 19.6995 129.171 19.7382C130.463 19.8347 131.548 19.1781 131.955 17.9884C132.373 16.7718 132.357 15.5319 131.963 14.3075C131.755 13.6624 131.344 13.1564 130.662 12.9092C130.248 12.7586 129.821 12.7547 129.386 12.8165C128.393 12.9595 127.472 13.9792 127.472 14.9525C127.472 15.6284 127.472 16.3044 127.472 16.9803Z" fill="#6D7D8A"/>
<path d="M142.364 19.097C142.528 19.406 142.687 19.6918 142.827 19.9892C142.847 20.0317 142.783 20.1399 142.727 20.1746C142.245 20.4952 141.706 20.6961 141.14 20.8274C140.278 21.0282 139.405 21.0669 138.539 20.8737C137.171 20.5686 136.302 19.7188 135.911 18.4403C135.484 17.0421 135.484 15.6169 135.883 14.2109C136.33 12.6311 137.642 11.6462 139.329 11.6114C139.832 11.5999 140.338 11.6423 140.833 11.7157C142.077 11.9089 142.771 12.6814 143.058 13.8285C143.254 14.6087 143.214 15.3967 143.122 16.1885C143.102 16.3585 143.022 16.3894 142.863 16.3894C141.124 16.3855 139.381 16.3855 137.642 16.3855C137.108 16.3855 137.076 16.3894 137.123 16.8915C137.163 17.3164 137.223 17.7528 137.367 18.1545C137.706 19.1124 138.44 19.6223 139.465 19.7536C140.506 19.8849 141.463 19.6995 142.364 19.097ZM139.465 15.3194C140.175 15.3194 140.884 15.3194 141.594 15.3194C141.602 15.3194 141.606 15.3194 141.614 15.3194C141.774 15.3426 141.834 15.2692 141.818 15.1225C141.79 14.8675 141.778 14.6087 141.734 14.3577C141.586 13.5041 141.116 13.0019 140.262 12.8474C139.919 12.7856 139.548 12.7972 139.197 12.8281C138.228 12.9054 137.514 13.5079 137.275 14.4195C137.215 14.6435 137.191 14.8753 137.139 15.0993C137.1 15.2654 137.147 15.331 137.335 15.3272C138.041 15.3156 138.751 15.3194 139.465 15.3194Z" fill="#6D7D8A"/>
<path d="M149.061 8.00386C149.372 8.03476 149.679 8.0618 149.986 8.09656C150.752 8.18154 151.49 8.34763 152.16 8.73388C153.292 9.3905 153.831 10.3754 153.891 11.6385C153.946 12.8436 153.647 13.9212 152.738 14.7903C152.116 15.3851 151.342 15.6902 150.504 15.8679C149.523 16.0765 148.53 16.0688 147.533 15.9915C147.286 15.9722 147.27 15.9761 147.27 16.2194C147.27 17.6485 147.27 19.0777 147.27 20.5068C147.27 20.7772 147.27 20.7772 146.983 20.7772C146.656 20.7772 146.333 20.7656 146.006 20.781C145.798 20.7926 145.782 20.696 145.782 20.5377C145.786 18.7493 145.782 16.961 145.782 15.1727C145.782 12.971 145.786 10.7694 145.778 8.57165C145.778 8.36694 145.83 8.26265 146.049 8.2472C146.747 8.18926 147.445 8.11974 148.147 8.05408C148.267 8.04249 148.383 8.02704 148.498 8.01159C148.69 8.00386 148.873 8.00386 149.061 8.00386ZM148.399 14.7748C148.726 14.7594 149.101 14.7555 149.467 14.7246C150.217 14.6628 150.927 14.4774 151.49 13.9637C152.267 13.2569 152.415 12.3492 152.267 11.3874C152.108 10.36 151.398 9.76516 150.417 9.47161C149.448 9.18193 148.45 9.236 147.453 9.34415C147.31 9.3596 147.266 9.43685 147.266 9.56431C147.27 9.7304 147.266 9.90035 147.266 10.0664C147.266 11.5265 147.27 12.9865 147.262 14.4465C147.262 14.6435 147.334 14.7285 147.533 14.7323C147.808 14.7439 148.084 14.7594 148.399 14.7748Z" fill="#6D7D8A"/>
<path d="M165.812 8.00386C166.023 8.11201 166.27 8.1854 166.442 8.3399C167.012 8.84975 166.785 9.69564 166.039 9.90421C165.429 10.078 164.835 9.7613 164.727 9.20896C164.619 8.66435 164.946 8.17768 165.509 8.04635C165.544 8.03863 165.58 8.01545 165.616 8C165.68 8.00386 165.744 8.00386 165.812 8.00386Z" fill="#6D7D8A"/>
<path d="M176.999 20.8119C176.708 20.8119 176.429 20.8196 176.153 20.8042C176.11 20.8003 176.046 20.7192 176.03 20.6613C175.93 20.3407 175.842 20.0162 175.747 19.6995C175.727 19.6377 175.671 19.5914 175.635 19.5334C175.587 19.5759 175.535 19.6107 175.499 19.6609C174.777 20.6574 173.78 21.063 172.54 20.9819C172.002 20.9471 171.491 20.8428 171.009 20.6033C170.295 20.248 169.832 19.6763 169.593 18.9541C169.058 17.3473 168.982 15.7134 169.549 14.1066C170.063 12.6466 171.176 11.8471 172.759 11.6771C173.593 11.5883 174.419 11.623 175.22 11.8895C175.44 11.9629 175.416 11.8162 175.416 11.6964C175.416 10.6613 175.416 9.62611 175.416 8.5871C175.416 8.08884 175.364 8.17768 175.85 8.16995C176.09 8.16609 176.329 8.16995 176.568 8.16995C176.843 8.16995 176.843 8.16995 176.843 8.42874C176.843 10.2827 176.843 12.1367 176.843 13.9907C176.843 15.5628 176.831 17.131 176.851 18.703C176.859 19.348 176.947 19.9969 176.995 20.642C177.003 20.6883 176.999 20.7385 176.999 20.8119ZM175.416 15.613C175.416 14.9834 175.392 14.35 175.424 13.7204C175.44 13.3766 175.308 13.1873 174.993 13.0831C174.881 13.0444 174.77 12.9865 174.658 12.971C174.311 12.9208 173.964 12.8745 173.617 12.8474C172.305 12.747 171.276 13.4307 170.901 14.6474C170.685 15.3465 170.658 16.0649 170.697 16.7872C170.729 17.3473 170.793 17.9035 171.028 18.4249C171.24 18.8961 171.543 19.3055 172.018 19.5489C173.569 20.3446 175.416 19.2592 175.424 17.5558C175.42 16.9108 175.416 16.2619 175.416 15.613Z" fill="#6D7D8A"/>
<path d="M160.356 15.6555C160.419 15.0916 160.451 14.5392 160.356 13.9907C160.236 13.3225 159.837 12.9788 159.103 12.8977C158.003 12.7779 156.95 12.9865 155.933 13.3805C155.769 13.4423 155.701 13.4345 155.641 13.2685C155.562 13.0444 155.462 12.8243 155.358 12.608C155.294 12.4805 155.322 12.4187 155.45 12.3492C156.024 12.0479 156.639 11.8702 157.281 11.7775C158.078 11.6578 158.88 11.5921 159.682 11.708C160.962 11.8934 161.676 12.608 161.78 13.8594C161.827 14.4233 161.811 14.9911 161.799 15.5551C161.768 16.9996 161.624 18.4481 161.787 19.8926C161.815 20.1283 161.867 20.3639 161.907 20.5956C161.919 20.6574 161.927 20.7192 161.943 20.8081C161.612 20.8081 161.309 20.8158 161.006 20.8003C160.962 20.8003 160.902 20.7115 160.882 20.6536C160.774 20.3368 160.679 20.0162 160.571 19.6957C160.551 19.6416 160.503 19.5952 160.467 19.545C160.415 19.5798 160.352 19.6068 160.316 19.6532C159.722 20.4411 158.888 20.7887 157.915 20.8892C157.141 20.9703 156.415 20.8544 155.769 20.4179C154.955 19.8695 154.668 19.0892 154.72 18.1545C154.78 17.1232 155.35 16.4666 156.296 16.0726C156.922 15.81 157.588 15.725 158.258 15.6864C158.92 15.6516 159.586 15.6632 160.248 15.6555C160.276 15.6709 160.304 15.6632 160.356 15.6555ZM160.36 17.5404C160.36 17.3279 160.356 17.1155 160.36 16.9031C160.364 16.7756 160.324 16.7138 160.18 16.7177C159.602 16.7215 159.024 16.7022 158.449 16.7293C157.919 16.7524 157.396 16.8529 156.918 17.1078C156.559 17.3009 156.3 17.5674 156.224 17.9768C156.072 18.7764 156.591 19.5141 157.44 19.6686C158.206 19.8077 158.932 19.6763 159.562 19.2283C160.072 18.8652 160.459 18.4172 160.36 17.7374C160.352 17.6717 160.36 17.606 160.36 17.5404Z" fill="#6D7D8A"/>
<path d="M165.026 16.2696C165.026 14.8521 165.03 13.4384 165.022 12.0209C165.022 11.8432 165.07 11.7853 165.257 11.793C165.596 11.8046 165.935 11.8007 166.274 11.7968C166.402 11.7968 166.458 11.8393 166.454 11.9629C166.45 12.1058 166.454 12.2449 166.454 12.3878C166.454 15.0916 166.454 17.7914 166.454 20.4952C166.454 20.7772 166.454 20.7772 166.159 20.7772C165.86 20.7772 165.56 20.7656 165.261 20.781C165.078 20.7887 165.026 20.7347 165.026 20.557C165.03 19.1279 165.026 17.6987 165.026 16.2696Z" fill="#6D7D8A"/>
</g>
<g opacity="0.6">
<path d="M198 28L199.088 22.2275C199.202 21.5497 199.354 20.4599 199.423 19.863H201.18L201.1 20.6602H201.123C201.56 20.0864 202.196 19.7937 202.846 19.7937C204.082 19.7937 204.718 20.7872 204.718 22.0157C204.718 24.0066 203.447 25.8088 201.435 25.8088C201.043 25.8088 200.636 25.7049 200.453 25.5739H200.431L199.967 27.9961H198V28ZM200.727 24.0528C200.88 24.2068 201.074 24.3108 201.351 24.3108C202.093 24.3108 202.645 23.1401 202.645 22.1697C202.645 21.7846 202.47 21.4072 202.055 21.4072C201.488 21.4072 201.039 22.0272 200.899 22.963L200.727 24.0528Z" fill="#6D7D8A"/>
<path d="M208.564 25.6817C208.586 25.3544 208.609 25.0155 208.621 24.6882H208.586C208.088 25.5431 207.384 25.8127 206.783 25.8127C205.768 25.8127 205.026 25.0155 205.026 23.764C205.026 21.8578 206.228 19.7976 209.153 19.7976C209.895 19.7976 210.678 19.9477 211.165 20.1133L210.599 23.1324C210.473 23.7524 210.355 24.9347 210.367 25.6856H208.564V25.6817ZM208.955 21.3264C208.83 21.3033 208.712 21.2917 208.609 21.2917C207.696 21.2917 207.084 22.5433 207.084 23.3866C207.084 23.9257 207.316 24.2069 207.651 24.2069C208.008 24.2069 208.506 23.8449 208.75 22.4855L208.955 21.3264Z" fill="#6D7D8A"/>
<path d="M215.346 25.5162C214.954 25.7164 214.387 25.8088 213.752 25.8088C212.375 25.8088 211.268 24.9886 211.268 23.3751C211.268 21.3033 212.862 19.7937 215.072 19.7937C215.536 19.7937 215.928 19.863 216.217 19.9708L215.753 21.4804C215.555 21.4111 215.361 21.3764 215.06 21.3764C213.995 21.3764 213.337 22.2082 213.337 23.1671C213.337 23.9026 213.836 24.2223 214.33 24.2223C214.767 24.2223 215.083 24.1298 215.372 24.0105L215.346 25.5162Z" fill="#6D7D8A"/>
<path d="M218.678 19.9208L218.411 21.2686C218.377 21.4457 218.331 21.6652 218.331 21.8539C218.331 22.1466 218.529 22.4046 218.955 22.4046C219.222 22.4046 219.465 22.3353 219.648 22.1928L220.062 19.9208H222.029L220.941 25.6779H218.963L219.4 23.583H219.377C219.1 23.737 218.685 23.841 218.13 23.841C216.882 23.841 216.293 23.2326 216.293 22.3199C216.293 22.0734 216.327 21.7577 216.395 21.4534L216.715 19.9208H218.678Z" fill="#6D7D8A"/>
<path d="M227.001 25.3544C226.236 25.728 225.346 25.8127 224.768 25.8127C223.102 25.8127 222.189 24.9231 222.189 23.3211C222.189 21.5651 223.437 19.7976 225.59 19.7976C226.769 19.7976 227.693 20.4522 227.693 21.6344C227.705 23.0747 226.4 23.66 224.053 23.5907C224.076 23.7178 224.144 23.8718 224.262 23.9758C224.483 24.1645 224.829 24.2685 225.278 24.2685C225.856 24.2685 226.4 24.1529 226.898 23.918L227.001 25.3544ZM225.856 21.6075C225.856 21.4072 225.669 21.2339 225.346 21.2339C224.642 21.2339 224.292 21.7731 224.235 22.1466C225.437 22.1582 225.856 21.981 225.856 21.619V21.6075Z" fill="#6D7D8A"/>
<path d="M228.499 25.6817L229.576 19.9208H231.554L230.477 25.6779H228.499V25.6817Z" fill="#6D7D8A"/>
<path d="M228.138 19.8592L233.27 19.863L232.981 21.3341L227.849 21.3302L228.138 19.8592Z" fill="#6D7D8A"/>
<path d="M199.978 15.4037H234L233.426 18.4228H199.484L199.978 15.4037Z" fill="#6D7D8A"/>
<path fill-rule="evenodd" clip-rule="evenodd" d="M223.34 18.4226C225.308 16.4722 226.529 13.7525 226.529 10.7441C226.529 4.81028 221.778 0 215.916 0C210.055 0 205.304 4.81028 205.304 10.7441C205.304 13.753 206.525 16.473 208.494 18.4234L223.34 18.4226ZM220.766 18.3929C223.249 16.7762 224.893 13.9544 224.893 10.7439C224.893 5.72463 220.874 1.65572 215.916 1.65572C210.958 1.65572 206.939 5.72463 206.939 10.7439C206.939 13.9462 208.575 16.7742 211.047 18.3929H220.766Z" fill="#6D7D8A"/>
<path d="M223.35 11.6503C223.35 14.4827 221.993 16.972 219.945 18.3983H211.924C209.884 16.9703 208.534 14.4755 208.534 11.6503C208.534 7.22237 211.851 3.63278 215.942 3.63278C220.034 3.63278 223.35 7.22237 223.35 11.6503Z" fill="#6D7D8A"/>
</g>
<g opacity="0.6">
<path d="M20.1429 21.6335L17.0715 18.4084L16.5 21.6335H20.1429Z" fill="#6D7D8A"/>
<path d="M28.3572 17.089C28.6429 17.3822 28.7857 17.6021 28.7143 17.8953C28.7143 18.7749 27.5715 19.2147 26.5715 19.2147C25.1429 19.2147 24.3572 18.9948 23.1429 18.4817L22.6429 18.2618L22.1429 21.267C23 21.6335 24.5715 22 26.2143 22C28.5 22 30.3572 21.3403 31.4286 20.1675L28.3572 17.089Z" fill="#6D7D8A"/>
<path d="M16.5 21.6335L18.7857 8.4398H22.3571L20.1429 21.6335H16.5Z" fill="#6D7D8A"/>
<path d="M16.5 21.6335L19.4285 8.4398H22.3571L20.1429 21.6335H16.5Z" fill="#6D7D8A"/>
<path d="M33.0714 8.58639C32.3571 8.29319 31.2142 8 29.7857 8C26.2142 8 23.6428 9.83246 23.6428 12.4712C23.6428 14.4503 25.4285 15.4764 26.8571 16.1361C28.2857 16.7958 28.7142 17.2356 28.7142 17.822C28.7142 18.7016 27.5714 19.1414 26.5714 19.1414C25.1428 19.1414 24.3571 18.9215 23.1428 18.4084L22.6428 18.1885L22.1428 21.1937C22.9999 21.5602 24.5714 21.9267 26.2142 21.9267C29.9999 21.9267 32.4999 20.0942 32.4999 17.3089C32.4999 15.7696 31.5714 14.5969 29.4285 13.644C28.1428 12.9843 27.3571 12.6178 27.3571 11.9581C27.3571 11.3717 27.9999 10.7853 29.4285 10.7853C30.6428 10.7853 31.4999 11.0052 32.1428 11.2984L32.4999 11.445L33.0714 8.58639Z" fill="#6D7D8A"/>
<path d="M33.0714 8.58639C32.3571 8.29319 31.2142 8 29.7857 8C26.2142 8 24.2857 9.83246 24.2857 12.4712C24.2857 14.4503 25.4285 15.4764 26.8571 16.1361C28.2857 16.7958 28.7142 17.2356 28.7142 17.822C28.7142 18.7016 27.5714 19.1414 26.5714 19.1414C25.1428 19.1414 24.3571 18.9215 23.1428 18.4084L22.6428 18.1885L22.1428 21.1937C22.9999 21.5602 24.5714 21.9267 26.2142 21.9267C29.9999 21.9267 32.4999 20.0942 32.4999 17.3089C32.4999 15.7696 31.5714 14.5969 29.4285 13.644C28.1428 12.9843 27.3571 12.6178 27.3571 11.9581C27.3571 11.3717 27.9999 10.7853 29.4285 10.7853C30.6428 10.7853 31.4999 11.0052 32.1428 11.2984L32.4999 11.445L33.0714 8.58639Z" fill="#6D7D8A"/>
<path d="M39.2143 8.4398C38.3571 8.4398 37.7143 8.5131 37.3571 9.39268L32 21.6335H35.8571L36.5714 19.4346H41.1429L41.5714 21.6335H45L42 8.4398H39.2143ZM37.5714 17.2356C37.7857 16.5759 39 13.3508 39 13.3508C39 13.3508 39.2857 12.5445 39.5 12.0314L39.7143 13.2775C39.7143 13.2775 40.4286 16.5759 40.5714 17.3089H37.5714V17.2356Z" fill="#6D7D8A"/>
<path d="M40.0714 8.4398C39.2143 8.4398 38.5714 8.5131 38.2143 9.39268L32 21.6335H35.8571L36.5714 19.4346H41.1429L41.5714 21.6335H45L42 8.4398H40.0714ZM37.5714 17.2356C37.8571 16.5026 39 13.3508 39 13.3508C39 13.3508 39.2857 12.5445 39.5 12.0314L39.7143 13.2775C39.7143 13.2775 40.4286 16.5759 40.5714 17.3089H37.5714V17.2356Z" fill="#6D7D8A"/>
<path d="M9.92859 17.6754L9.57145 15.7696C8.92859 13.5707 6.85716 11.1518 4.57145 9.97906L7.78573 21.7068H11.6429L17.4286 8.51309H13.5714L9.92859 17.6754Z" fill="#6D7D8A"/>
<path d="M9.92859 17.6754L9.57145 15.7696C8.92859 13.5707 6.85716 11.1518 4.57145 9.97906L7.78573 21.7068H11.6429L17.4286 8.51309H14.2857L9.92859 17.6754Z" fill="#6D7D8A"/>
<path d="M0 8.4398L0.642857 8.58639C5.21428 9.68587 8.35716 12.4712 9.57145 15.7696L8.28571 9.53927C8.07142 8.65969 7.42857 8.4398 6.64285 8.4398H0Z" fill="#6D7D8A"/>
<path d="M0 8.4398C4.57143 9.53927 8.35714 12.3979 9.57142 15.6963L8.35714 10.4922C8.14285 9.61257 7.42857 9.09948 6.64285 9.09948L0 8.4398Z" fill="#6D7D8A"/>
<path d="M0 8.4398C4.57143 9.53927 8.35714 12.3979 9.57142 15.6963L8.71428 12.8377C8.5 11.9581 8.21428 11.0785 7.21428 10.712L0 8.4398Z" fill="#6D7D8A"/>
<path d="M13.5 17.2356L11.0715 14.7435L9.9286 17.5288L9.64289 15.6963C9.00003 13.4974 6.92861 11.0785 4.64289 9.90576L7.85718 21.6335H11.7143L13.5 17.2356Z" fill="#6D7D8A"/>
<path d="M32.5 21.6335L35.8571 21.6335L36.5714 19.4346H41.1429L41.5714 21.6335H45L43.7857 16.2827L39.5 12.0314L39.7143 13.2042C39.7143 13.2042 40.4285 16.5026 40.5714 17.2356L37.5714 17.2356C37.8571 16.5026 39 13.3508 39 13.3508C39 13.3508 39.2857 12.5445 39.5 12.0314" fill="#6D7D8A"/>
</g>
</svg>
