<svg width="253" height="40" viewBox="0 0 253 40" fill="none" xmlns="http://www.w3.org/2000/svg">
<path d="M81.6328 39.5531C81.245 39.5531 81.0511 39.3482 81.0511 38.9386L78.0896 1.17318V1.06145C78.0896 0.651768 78.2835 0.446925 78.6713 0.446925H83.854C84.2771 0.446925 84.4886 0.651768 84.4886 1.06145L85.5992 27.933C85.6344 28.0447 85.6873 28.1006 85.7578 28.1006C85.8283 28.1006 85.8812 28.0447 85.9165 27.933L93.2145 1.06145C93.2497 0.651768 93.4789 0.446925 93.902 0.446925H98.9789C99.4019 0.446925 99.543 0.689011 99.4019 1.17318L87.6088 38.9386C87.503 39.3482 87.2562 39.5531 86.8684 39.5531H81.6328Z" fill="white"/>
<path d="M99.7738 39.5531C99.386 39.5531 99.1921 39.3296 99.1921 38.8827L103.581 1.11732C103.617 0.931098 103.705 0.782123 103.846 0.67039C103.987 0.521414 104.146 0.446925 104.322 0.446925H109.029C109.205 0.446925 109.346 0.521414 109.452 0.67039C109.557 0.782123 109.593 0.931098 109.557 1.11732L105.168 38.8827C105.133 39.0689 105.045 39.2365 104.904 39.3855C104.798 39.4972 104.657 39.5531 104.48 39.5531H99.7738Z" fill="white"/>
<path d="M129.694 1.11732C129.73 0.931098 129.8 0.782123 129.906 0.67039C130.047 0.521414 130.205 0.446925 130.382 0.446925H135.036C135.212 0.446925 135.353 0.521414 135.459 0.67039C135.564 0.782123 135.6 0.931098 135.564 1.11732L131.175 38.8827C131.175 39.0689 131.105 39.2365 130.963 39.3855C130.822 39.4972 130.664 39.5531 130.488 39.5531H125.146C124.794 39.5531 124.582 39.3669 124.512 38.9944L119.646 15.3073C119.611 15.1955 119.54 15.1583 119.435 15.1955C119.364 15.1955 119.329 15.2514 119.329 15.3631L116.632 38.8827C116.597 39.0689 116.508 39.2365 116.367 39.3855C116.262 39.4972 116.121 39.5531 115.944 39.5531H111.291C110.903 39.5531 110.709 39.3296 110.709 38.8827L115.098 1.11732C115.133 0.931098 115.222 0.782123 115.363 0.67039C115.504 0.521414 115.662 0.446925 115.839 0.446925H121.074C121.427 0.446925 121.638 0.633144 121.709 1.00558L126.68 24.5251C126.68 24.6369 126.715 24.6927 126.786 24.6927C126.891 24.6555 126.962 24.581 126.997 24.4693L129.694 1.11732Z" fill="white"/>
<path d="M159.637 0.446925C159.813 0.446925 159.954 0.521414 160.06 0.67039C160.165 0.782123 160.201 0.931098 160.165 1.11732L159.69 5.36313C159.654 5.54935 159.566 5.71694 159.425 5.86592C159.319 5.97765 159.178 6.03352 159.002 6.03352H152.497C152.356 6.03352 152.25 6.12663 152.18 6.31285L148.425 38.8827C148.39 39.0689 148.302 39.2365 148.161 39.3855C148.055 39.4972 147.914 39.5531 147.738 39.5531H142.978C142.802 39.5531 142.661 39.4972 142.555 39.3855C142.449 39.2365 142.414 39.0689 142.449 38.8827L146.257 6.31285C146.257 6.12663 146.169 6.03352 145.993 6.03352H139.858C139.682 6.03352 139.541 5.97765 139.435 5.86592C139.329 5.71694 139.294 5.54935 139.329 5.36313L139.805 1.11732C139.84 0.931098 139.911 0.782123 140.017 0.67039C140.158 0.521414 140.316 0.446925 140.493 0.446925H159.637Z" fill="white"/>
<path d="M167.783 40C165.103 40 162.988 39.1993 161.437 37.5978C159.886 35.9963 159.11 33.8175 159.11 31.0615C159.11 30.7635 159.145 30.2048 159.216 29.3855L161.384 10.6145C161.736 7.41154 162.918 4.84171 164.927 2.90503C166.972 0.968344 169.475 0 172.437 0C175.116 0 177.232 0.800744 178.783 2.40223C180.334 3.96648 181.11 6.10801 181.11 8.82682C181.11 9.19926 181.074 9.79516 181.004 10.6145L178.836 29.3855C178.483 32.5885 177.284 35.1583 175.24 37.095C173.23 39.0317 170.744 40 167.783 40ZM168.417 34.4134C169.581 34.4134 170.568 33.9851 171.379 33.1285C172.19 32.2346 172.683 31.0801 172.86 29.6648L175.134 10.3352C175.169 10.149 175.187 9.88827 175.187 9.55307C175.187 8.32402 174.869 7.35568 174.235 6.64804C173.635 5.94041 172.807 5.58659 171.749 5.58659C170.586 5.58659 169.599 6.03352 168.788 6.92737C168.012 7.78398 167.536 8.91993 167.36 10.3352L165.139 29.6648C165.103 29.8883 165.086 30.2048 165.086 30.6145C165.086 31.7691 165.368 32.7002 165.932 33.4078C166.531 34.0782 167.36 34.4134 168.417 34.4134Z" fill="white"/>
<path d="M189.157 39.5531C188.769 39.5531 188.575 39.3482 188.575 38.9386L185.614 1.17318V1.06145C185.614 0.651768 185.808 0.446925 186.196 0.446925H191.378C191.801 0.446925 192.013 0.651768 192.013 1.06145L193.124 27.933C193.159 28.0447 193.212 28.1006 193.282 28.1006C193.353 28.1006 193.406 28.0447 193.441 27.933L200.739 1.06145C200.774 0.651768 201.003 0.446925 201.426 0.446925H206.503C206.926 0.446925 207.067 0.689011 206.926 1.17318L195.133 38.9386C195.027 39.3482 194.781 39.5531 194.393 39.5531H189.157Z" fill="white"/>
<path d="M215.089 40C212.41 40 210.295 39.1993 208.743 37.5978C207.192 35.9963 206.416 33.8175 206.416 31.0615C206.416 30.7635 206.452 30.2048 206.522 29.3855L208.69 10.6145C209.043 7.41154 210.224 4.84171 212.234 2.90503C214.279 0.968344 216.782 0 219.743 0C222.423 0 224.538 0.800744 226.089 2.40223C227.641 3.96648 228.416 6.10801 228.416 8.82682C228.416 9.19926 228.381 9.79516 228.311 10.6145L226.142 29.3855C225.79 32.5885 224.591 35.1583 222.546 37.095C220.537 39.0317 218.051 40 215.089 40ZM215.724 34.4134C216.888 34.4134 217.875 33.9851 218.686 33.1285C219.496 32.2346 219.99 31.0801 220.166 29.6648L222.44 10.3352C222.476 10.149 222.493 9.88827 222.493 9.55307C222.493 8.32402 222.176 7.35568 221.541 6.64804C220.942 5.94041 220.113 5.58659 219.056 5.58659C217.892 5.58659 216.905 6.03352 216.094 6.92737C215.319 7.78398 214.843 8.91993 214.666 10.3352L212.445 29.6648C212.41 29.8883 212.392 30.2048 212.392 30.6145C212.392 31.7691 212.674 32.7002 213.239 33.4078C213.838 34.0782 214.666 34.4134 215.724 34.4134Z" fill="white"/>
<path d="M235.945 39.4972C235.769 39.4972 235.628 39.4413 235.522 39.3296C235.416 39.1806 235.381 39.013 235.416 38.8268L237.214 23.5754L237.161 23.2402L232.613 1.22905V1.06145C232.613 0.875234 232.666 0.726256 232.772 0.614524C232.878 0.502791 233.019 0.446925 233.195 0.446925H238.113C238.501 0.446925 238.73 0.633144 238.801 1.00558L240.969 15.3631C240.969 15.4749 241.004 15.5307 241.075 15.5307C241.18 15.5307 241.251 15.4749 241.286 15.3631L246.786 1.00558C246.962 0.633144 247.227 0.446925 247.579 0.446925H252.498C252.709 0.446925 252.85 0.521414 252.921 0.67039C253.026 0.782123 253.026 0.968341 252.921 1.22905L243.243 23.2402C243.172 23.4637 243.137 23.5754 243.137 23.5754L241.392 38.8268C241.357 39.013 241.269 39.1806 241.128 39.3296C241.022 39.4413 240.881 39.4972 240.704 39.4972H235.945Z" fill="white"/>
<g clip-path="url(#clip0)">
<path d="M40.5435 23.7054C39.6697 24.0765 38.1784 24.8435 35.9182 26.0312C35.5454 26.2292 27.4367 30.9798 26.0619 31.7344C24.1163 32.786 22.0076 33.6396 19.6658 33.6396C12.8503 33.6396 7.33964 27.7756 7.33964 20.5507C7.33964 20.4393 7.33964 20.328 7.33964 20.2166C7.33964 20.1795 7.33964 20.1548 7.33964 20.1177C7.33964 12.534 13.1299 6.38535 20.2717 6.38535C22.7066 6.38535 24.9901 7.10289 26.9357 8.34004C26.994 8.37715 27.0406 8.41427 27.0988 8.43901C28.2173 9.14418 29.5221 9.56481 30.9085 9.58956C30.9551 9.58956 31.0017 9.58956 31.06 9.58956C31.4445 9.58956 31.8173 9.55244 32.1901 9.50296C32.2134 9.50296 32.2367 9.49058 32.2716 9.49058C32.4581 9.45347 32.6561 9.41636 32.8425 9.37924C36.1279 8.58747 37.5959 6.32349 37.5959 6.32349C34.6833 6.81835 32.0037 5.82864 28.6134 3.70075C27.0056 2.57495 25.2348 1.69657 23.3357 1.13986C21.8212 0.694486 20.2367 0.459429 18.594 0.447057C8.00372 0.348086 -0.524429 9.82461 0.0231427 21.0208C0.524113 31.1777 8.30663 39.281 17.9299 39.5408H17.9532C17.9882 39.5408 18.0231 39.5408 18.0581 39.5532C27.3784 39.9243 33.5532 32.3778 41.9415 28.1715C47.8017 25.2271 52.6483 23.2229 63.8444 25.4126C63.8561 25.4126 63.8561 25.425 63.8677 25.425C54.4075 18.1382 44.6211 21.9734 40.5435 23.7054Z" fill="white"/>
<path d="M39.3786 16.5301C39.0174 16.629 38.633 16.7527 38.2368 16.8888C37.7359 17.062 37.2116 17.26 36.664 17.495C36.0116 17.7672 35.3359 18.0641 34.6368 18.3858C34.1592 18.6085 33.6582 18.8435 33.1689 19.0786C29.7786 20.7116 26.1437 22.6292 23.3009 23.7179C18.7573 25.4499 15.4951 24.8313 12.5825 22.9756C12.5825 22.9756 13.6777 27.7386 17.8252 28.7902C22.567 29.9902 27.6582 27.4293 32.4116 24.8684C34.6601 23.656 37.1999 22.2086 39.763 21.2683C39.7863 21.2559 39.8096 21.2559 39.8446 21.2436C45.9028 19.1404 52.5902 17.9651 58.4271 20.5508C52.229 14.6867 43.4562 15.4166 39.3786 16.5301Z" fill="white"/>
<path d="M51.8563 14.7733C46.4388 10.7279 38.6796 10.1711 34.8116 11.1114C34.1825 11.2598 33.6466 11.4207 33.2039 11.5815C32.9825 11.6557 32.7495 11.7423 32.5048 11.8413C32.0388 12.0145 31.5379 12.2248 31.0019 12.4475C29.2777 13.165 27.2388 14.0929 25.3049 14.9465C23.9883 15.528 22.7068 16.0847 21.6117 16.5177C20.7146 16.8765 19.7825 17.1239 18.8272 17.2352C18.035 17.3218 17.2544 17.3095 16.4039 17.1858C15.3321 17.0249 14.1787 16.6538 12.8156 16.0352C12.8156 16.0352 13.002 17.2229 13.7243 18.4476C14.2835 19.4002 15.1689 20.3776 16.5437 20.8601C17.6854 21.2683 18.8155 21.4786 20.2019 21.3426C23.6155 21.1075 27.4136 18.5837 31.8641 16.394C35.6155 14.5506 39.6815 13.5733 43.7708 13.5485C46.1126 13.6351 48.8271 13.9815 51.8563 14.7733Z" fill="white"/>
</g>
<defs>
<clipPath id="clip0">
<rect width="63.8679" height="39.1061" fill="white" transform="translate(0 0.447266)"/>
</clipPath>
</defs>
</svg>
