<svg width="33" height="32" viewBox="0 0 33 32" fill="none" xmlns="http://www.w3.org/2000/svg">
<path d="M32.0853 16.0349C32.0853 24.7936 24.985 31.8939 16.2263 31.8939C7.46754 31.8939 0.367188 24.7936 0.367188 16.0349C0.367188 7.27613 7.46754 0.175781 16.2263 0.175781C24.985 0.175781 32.0853 7.27613 32.0853 16.0349Z" fill="#158ACA"/>
<path d="M6.57107 15.7201L10.9014 17.2259L12.5772 22.2548C12.6868 22.5764 13.1097 22.6934 13.3837 22.4814L15.7956 20.6467C16.0461 20.4567 16.4063 20.442 16.6726 20.6248L21.0264 23.5778C21.324 23.7825 21.7468 23.629 21.8251 23.2928L25.0279 8.97339C25.1062 8.6006 24.7225 8.2936 24.3466 8.43248L6.57107 14.8283C6.13256 14.9891 6.13256 15.5666 6.57107 15.7201ZM12.3109 16.4218L20.7758 11.5537C20.9246 11.4659 21.0812 11.656 20.9559 11.7729L13.971 17.8325C13.7283 18.0445 13.5638 18.3296 13.5247 18.6439L13.2898 20.2885C13.2584 20.5078 12.9295 20.5298 12.8591 20.3178L11.9429 17.3136C11.8333 16.9773 11.9899 16.6118 12.3109 16.4218Z" fill="white"/>
</svg>
