<svg width="32" height="35" viewBox="0 0 32 35" fill="none" xmlns="http://www.w3.org/2000/svg">
<path d="M31.2243 8.19499L31.211 8.15405C30.444 4.94702 26.9658 1.49434 23.7786 0.771052L23.7389 0.757406C18.5812 -0.252469 13.3573 -0.252469 8.19951 0.757406L8.15984 0.771052C4.97261 1.49434 1.49443 4.93337 0.727376 8.15405L0.714151 8.19499C-0.23805 12.6848 -0.23805 17.2293 0.714151 21.7191L0.727376 21.7601C1.46798 24.8306 4.68166 28.1195 7.74986 29.0339V32.623C7.74986 33.9195 9.28396 34.5609 10.1568 33.6193L13.6747 29.8391C14.4417 29.88 15.2088 29.9073 15.9626 29.9073C18.5547 29.9073 21.16 29.648 23.7389 29.1431L23.7786 29.1294C26.9658 28.4061 30.444 24.9671 31.211 21.7464L31.2243 21.7055C32.1765 17.2293 32.1765 12.6848 31.2243 8.19499Z" fill="#7D3DAF"/>
<path d="M20.9913 24.2912C20.6409 24.189 20.2906 24.116 19.984 23.9846C16.7282 22.6268 13.7207 20.8895 11.3409 18.2177C9.98311 16.6993 8.93193 14.9765 8.04135 13.1662C7.61795 12.3048 7.25296 11.4142 6.90256 10.5236C6.56677 9.70603 7.06316 8.87385 7.57415 8.26066C8.05595 7.69127 8.68373 7.25327 9.35532 6.91748C9.88092 6.66928 10.4065 6.81528 10.7861 7.25327C11.6183 8.21686 12.3775 9.22424 12.9907 10.3484C13.3703 11.0346 13.2681 11.8814 12.5819 12.3486C12.4213 12.4654 12.2607 12.5968 12.1001 12.7282C11.9687 12.845 11.8373 12.9618 11.7351 13.1078C11.5599 13.3852 11.5599 13.721 11.6621 14.013C12.5089 16.3489 13.9397 18.1593 16.2902 19.1375C16.6698 19.2981 17.0494 19.4733 17.4728 19.4295C18.2028 19.3419 18.4364 18.5535 18.9474 18.1301C19.4438 17.7213 20.0716 17.7213 20.6117 18.0571C21.1519 18.3929 21.6629 18.7579 22.1739 19.1229C22.6849 19.4879 23.1813 19.8383 23.6485 20.2471C24.1011 20.6413 24.2471 21.1668 23.9989 21.6924C23.5317 22.6706 22.8601 23.4882 21.8965 24.0138C21.6337 24.1452 21.3125 24.189 20.9913 24.2912C20.6409 24.1744 21.3125 24.189 20.9913 24.2912Z" fill="white"/>
<path d="M15.9822 5.77797C20.2453 5.89477 23.7493 8.72713 24.4939 12.9465C24.6253 13.6618 24.6691 14.4064 24.7275 15.1218C24.7567 15.4284 24.5815 15.7204 24.2457 15.7204C23.9099 15.7204 23.7493 15.443 23.7347 15.1364C23.6909 14.5232 23.6617 13.9246 23.5741 13.3115C23.1361 10.1287 20.5957 7.50075 17.4422 6.94595C16.9604 6.85836 16.4786 6.84376 15.9968 6.78536C15.6902 6.75616 15.296 6.74156 15.223 6.36196C15.1646 6.04077 15.4274 5.79257 15.734 5.77797C15.807 5.76337 15.8946 5.77797 15.9822 5.77797C20.2453 5.89477 15.8946 5.77797 15.9822 5.77797Z" fill="white"/>
<path d="M22.453 14.1727C22.453 14.2311 22.4384 14.3479 22.4092 14.4647C22.2924 14.8881 21.65 14.9465 21.504 14.5085C21.4602 14.3771 21.4602 14.2311 21.4456 14.0997C21.4456 13.1945 21.2412 12.2893 20.7886 11.5009C20.3214 10.6979 19.606 10.0117 18.7592 9.60295C18.2483 9.35476 17.7081 9.19416 17.1533 9.10656C16.9051 9.06276 16.6715 9.04816 16.4233 9.00436C16.1313 8.96056 15.9707 8.77077 15.9853 8.47877C15.9999 8.20138 16.2043 8.01158 16.4963 8.02618C17.4745 8.08458 18.4235 8.28897 19.2848 8.75617C21.0514 9.69055 22.0588 11.1797 22.3654 13.1507C22.38 13.2383 22.3946 13.3259 22.4092 13.4135C22.4384 13.6617 22.4384 13.8807 22.453 14.1727C22.453 14.2311 22.4384 13.8807 22.453 14.1727Z" fill="white"/>
<path d="M19.8102 14.0696C19.4598 14.0696 19.2554 13.8798 19.2262 13.544C19.197 13.3104 19.1824 13.0914 19.124 12.8578C19.0218 12.4198 18.7882 12.011 18.4232 11.7482C18.248 11.6168 18.0582 11.5292 17.8538 11.4708C17.591 11.3978 17.3136 11.4124 17.0654 11.354C16.788 11.281 16.6274 11.062 16.6712 10.7846C16.715 10.5364 16.9486 10.3612 17.2114 10.3758C18.8612 10.4926 20.0438 11.354 20.219 13.2958C20.2336 13.4272 20.2482 13.5732 20.219 13.7046C20.1314 13.9528 19.9708 14.055 19.8102 14.0696C19.4452 14.0842 19.9708 14.055 19.8102 14.0696Z" fill="white"/>
</svg>
