<svg width="34" height="32" viewBox="0 0 34 32" fill="none" xmlns="http://www.w3.org/2000/svg">
<path d="M33.0018 16.0349C33.0018 24.7936 25.9015 31.8939 17.1428 31.8939C8.38403 31.8939 1.28368 24.7936 1.28368 16.0349C1.28368 7.27613 8.38403 0.175781 17.1428 0.175781C25.9015 0.175781 33.0018 7.27613 33.0018 16.0349Z" fill="#24DB6E"/>
<path d="M0.515625 31.8939L3.45248 22.496L11.0884 28.3697L0.515625 31.8939Z" fill="#24DB6E"/>
<path d="M22.5706 17.513C21.9762 16.9262 21.2341 16.9262 20.6435 17.513C20.193 17.9598 19.7425 18.4065 19.2995 18.8608C19.1784 18.9857 19.0762 19.0122 18.9285 18.9289C18.637 18.7699 18.3265 18.6412 18.0464 18.4671C16.7402 17.6455 15.6461 16.5893 14.6769 15.4006C14.1961 14.81 13.7683 14.1777 13.4692 13.466C13.4086 13.3221 13.42 13.2275 13.5374 13.1101C13.9879 12.6748 14.427 12.228 14.87 11.7813C15.4871 11.1604 15.4871 10.4336 14.8662 9.8089C14.5141 9.45304 14.162 9.10474 13.8099 8.74887C13.4465 8.38544 13.0868 8.01821 12.7196 7.65856C12.1252 7.07933 11.3832 7.07933 10.7926 7.66235C10.3383 8.10907 9.90287 8.56716 9.44099 9.00631C9.01318 9.41139 8.79739 9.90734 8.75195 10.4866C8.68002 11.4292 8.91096 12.3189 9.23655 13.1859C9.90287 14.9803 10.9175 16.5742 12.1479 18.0355C13.8099 20.0117 15.7938 21.5752 18.1145 22.7034C19.1594 23.2107 20.2422 23.6006 21.4196 23.665C22.2298 23.7104 22.934 23.506 23.4981 22.8738C23.8843 22.4422 24.3197 22.0484 24.7285 21.6358C25.3343 21.0225 25.3381 20.2805 24.7361 19.6747C24.0168 18.9517 23.2937 18.2323 22.5706 17.513Z" fill="white"/>
</svg>
