<svg width="60" height="60" viewBox="0 0 60 60" fill="none" xmlns="http://www.w3.org/2000/svg">
<path d="M31 50C28.2386 50 26 52.2386 26 55C26 57.7614 28.2386 60 31 60C33.7614 60 36 57.7614 36 55C35.9967 52.24 33.76 50.0033 31 50ZM31 58C29.3431 58 28 56.6569 28 55C28 53.3431 29.3431 52 31 52C32.6569 52 34 53.3431 34 55C34 56.6569 32.6569 58 31 58Z" fill="white"/>
<path d="M51 50C48.2386 50 46 52.2386 46 55C46 57.7614 48.2386 60 51 60C53.7614 60 56 57.7614 56 55C55.9967 52.24 53.76 50.0033 51 50ZM51 58C49.3431 58 48 56.6569 48 55C48 53.3431 49.3431 52 51 52C52.6569 52 54 53.3431 54 55C54 56.6569 52.6569 58 51 58Z" fill="white"/>
<path d="M59 2H46.792C37.8145 2.01 29.677 7.283 26 15.473V1C26 0.44775 25.5522 0 25 0H21C20.4478 0 20 0.44775 20 1V2H5C4.44775 2 4 2.44775 4 3V30H1C0.44775 30 0 30.4478 0 31V35C0 35.5522 0.44775 36 1 36H20V51C20 51.5522 20.4478 52 21 52H25C25.5522 52 26 51.5522 26 51V50.134C28.6656 47.3638 33.0723 47.2789 35.8425 49.9444C36.3187 50.4026 36.7274 50.9265 37.056 51.5C37.2345 51.8091 37.5641 51.9996 37.921 52H44.079C44.4359 51.9996 44.7655 51.8091 44.944 51.5C46.869 48.1556 51.1408 47.005 54.485 48.93C55.5534 49.545 56.44 50.4316 57.055 51.5C57.2335 51.8091 57.5631 51.9996 57.92 52H59C59.5522 52 60 51.5522 60 51V3C60 2.44775 59.5522 2 59 2ZM12 4H14V8.382L13.447 8.106C13.1654 7.965 12.8337 7.965 12.552 8.106L12 8.382V4ZM20 34H2V32H20V34ZM20 30H6V18H10V24C9.99975 24.5522 10.4473 25.0002 10.9995 25.0005C11.1549 25.0006 11.308 24.9645 11.447 24.895L13 24.118L14.553 24.894C15.047 25.1409 15.6476 24.9405 15.8945 24.4465C15.9637 24.3079 15.9999 24.155 16 24V18H20V30ZM12 22.382V18H14V22.382L13.447 22.106C13.1654 21.965 12.8337 21.965 12.552 22.106L12 22.382ZM20 16H6V4H10V10C9.99975 10.5522 10.4473 11.0002 10.9995 11.0005C11.1549 11.0006 11.308 10.9645 11.447 10.895L13 10.118L14.553 10.894C15.047 11.1409 15.6476 10.9405 15.8945 10.4465C15.9637 10.3079 15.9999 10.155 16 10V4H20V16ZM26 24.792C26.0126 13.3141 35.3141 4.01263 46.792 4H54V27.841C51.7899 26.87 49.3022 26.7349 47 27.461V25.5C46.9975 23.6319 46.047 21.8927 44.476 20.882C47.1761 18.961 47.8078 15.215 45.8869 12.5149C43.966 9.81475 40.2199 9.18313 37.5197 11.104C34.8196 13.0249 34.188 16.771 36.1089 19.4711C36.6217 20.192 37.2877 20.7906 38.059 21.224C37.7699 21.4554 37.5049 21.7154 37.268 22H36C34.8454 22.0039 33.7954 22.67 33.3 23.713L28.315 22.051L27.682 23.951L29.716 24.629L26 35.161V24.792ZM40 24C40.5522 24 41 24.4478 41 25C41 25.5522 40.5522 26 40 26H36C35.4478 26 35 25.5522 35 25C35 24.4478 35.4478 24 36 24H40ZM37 16C37 13.7909 38.7909 12 41 12C43.2091 12 45 13.7909 45 16C45 18.2091 43.2091 20 41 20C38.7909 20 37 18.2091 37 16ZM36 28V33C32.6879 33.0039 30.0039 35.6879 30 39V40H26.414L31.614 25.26L33.106 25.76C33.4509 27.0767 34.6389 27.9963 36 28ZM32 39C32 36.7909 33.7909 35 36 35H40.2C40.0664 35.6582 39.9994 36.3283 40 37V40H32V39ZM38 33V28H40C41.6541 27.9946 42.9906 26.6495 42.9854 24.9954C42.981 23.6255 42.0478 22.4333 40.719 22.1C42.5803 21.6504 44.4535 22.7948 44.9033 24.6559C44.97 24.9322 45.0025 25.2156 45 25.5V28.353C43.1561 29.422 41.6997 31.0494 40.841 33H38ZM58 49.355C56.2911 47.2394 53.7195 46.0069 51 46C47.9984 46.0079 45.1969 47.507 43.525 50H38.475C35.7351 45.8786 30.173 44.7586 26.0516 47.4985C25.3816 47.9439 24.7746 48.4775 24.247 49.085C24.0875 49.2675 23.9998 49.5016 24 49.744V50H22V2H24V41C24 41.5522 24.4478 42 25 42H58V49.355ZM58 40H42V37C42 32.5817 45.5817 29 50 29C54.4183 29 58 32.5817 58 37V40ZM58 31.026C57.4313 30.2661 56.758 29.5904 56 29.019V4H58V31.026Z" fill="white"/>
</svg>
