<svg width="60" height="60" viewBox="0 0 60 60" fill="none" xmlns="http://www.w3.org/2000/svg">
<path d="M14.2706 55.5656V54.5984H15.2378V55.5656H14.2706Z" fill="white" stroke="white"/>
<path d="M19.1722 42.2951V42.7951H19.6722H36.3935C36.5218 42.7951 36.6448 42.846 36.7355 42.9367C36.8262 43.0274 36.8772 43.1504 36.8772 43.2787V59.0164C36.8772 59.1446 36.8262 59.2676 36.7355 59.3583C36.6448 59.449 36.5218 59.5 36.3935 59.5H0.983728C0.855468 59.5 0.73246 59.449 0.641768 59.3583C0.551073 59.2676 0.500122 59.1446 0.500122 59.0164V27.541C0.500122 27.4127 0.551074 27.2897 0.641767 27.199C0.73246 27.1083 0.855467 27.0574 0.983728 27.0574H18.6886C18.8169 27.0574 18.9399 27.1083 19.0306 27.199C19.1213 27.2897 19.1722 27.4127 19.1722 27.541V42.2951ZM25.5739 43.7623H25.0739V44.2623V48.1967V48.6967H25.5739H29.5083H30.0083V48.1967V44.2623V43.7623H29.5083H25.5739ZM7.86897 28.0246H7.36897V28.5246V32.459V32.959H7.86897H11.8034H12.3034V32.459V28.5246V28.0246H11.8034H7.86897ZM1.96733 28.0246H1.46733V28.5246V42.2951V42.7951H1.96733H17.705H18.205V42.2951V28.5246V28.0246H17.705H13.7706H13.2706V28.5246V33.4426C13.2706 33.5709 13.2197 33.6939 13.129 33.7846C13.0383 33.8753 12.9153 33.9262 12.787 33.9262H6.88536C6.7571 33.9262 6.6341 33.8753 6.5434 33.7846C6.45271 33.6939 6.40176 33.5709 6.40176 33.4426V28.5246V28.0246H5.90176H1.96733ZM7.86897 43.7623H7.36897V44.2623V48.1967V48.6967H7.86897H11.8034H12.3034V48.1967V44.2623V43.7623H11.8034H7.86897ZM1.96733 43.7623H1.46733V44.2623V58.0328V58.5328H1.96733H17.705H18.205V58.0328V44.2623V43.7623H17.705H13.7706H13.2706V44.2623V49.1803C13.2706 49.3086 13.2197 49.4316 13.129 49.5223C13.0383 49.613 12.9153 49.6639 12.787 49.6639H6.88536C6.7571 49.6639 6.6341 49.613 6.5434 49.5223C6.45271 49.4316 6.40176 49.3086 6.40176 49.1803V44.2623V43.7623H5.90176H1.96733ZM35.4099 58.5328H35.9099V58.0328V44.2623V43.7623H35.4099H31.4755H30.9755V44.2623V49.1803C30.9755 49.3086 30.9246 49.4316 30.8339 49.5223C30.7432 49.613 30.6202 49.6639 30.4919 49.6639H24.5903C24.462 49.6639 24.339 49.613 24.2483 49.5223C24.1576 49.4316 24.1067 49.3086 24.1067 49.1803V44.2623V43.7623H23.6067H19.6722H19.1722V44.2623V58.0328V58.5328H19.6722H35.4099Z" fill="white" stroke="white"/>
<path d="M31.9755 55.5656V54.5984H32.9427V55.5656H31.9755Z" fill="white" stroke="white"/>
<path d="M14.2706 39.8279V38.8607H15.2378V39.8279H14.2706Z" fill="white" stroke="white"/>
<path d="M57.9194 12.2733L57.92 12.2735C57.9568 12.2824 57.9946 12.2869 58.0325 12.2869L57.9194 12.2733ZM57.9194 12.2733L56.183 11.8542L55.5657 11.7052V12.3402V58.0328V58.5328H56.0657H58.5165M57.9194 12.2733L58.5165 58.5328M58.5165 58.5328V59.5H39.8444V58.5328H46.2296H46.7296V58.0328V36.3935V35.8935H46.2296H22.1395V34.9262H46.2296H46.7296V34.4262V32.459V31.959H46.2296H22.1395V30.9918H46.2296H46.7296V30.4918V28.5246V28.0246H46.2296H22.1395V27.0574H46.2296H46.7296V26.5574V24.5902V24.0902H46.2296H11.8034C11.6751 24.0902 11.5521 24.0392 11.4614 23.9485C11.3708 23.8578 11.3198 23.7348 11.3198 23.6066V19.6722C11.3198 19.5439 11.3708 19.4209 11.4614 19.3302C11.5521 19.2395 11.6751 19.1885 11.8034 19.1885H47.2132C47.3415 19.1885 47.4645 19.2395 47.5552 19.3302C47.6459 19.4209 47.6968 19.5439 47.6968 19.6722V58.0328V58.5328H48.1968H54.0985H54.5985V58.0328V11.8654V11.4717L54.2158 11.3794L29.6256 5.44378L29.5083 5.41546L29.391 5.44378L4.80085 11.3794L4.41817 11.4717V11.8654V24.0902H3.45095V12.3402V11.7052L2.83366 11.8542L1.09723 12.2732C1.00138 12.2963 0.900797 12.2896 0.808852 12.2541L0.630823 12.7147L0.80885 12.2541C0.717989 12.2189 0.639826 12.1573 0.584504 12.0772C0.527783 11.9899 0.49837 11.8877 0.50007 11.7836L0.500136 11.7836V11.7754V7.86892C0.500136 7.86891 0.500136 7.8689 0.500136 7.86888C0.500155 7.76038 0.536663 7.65503 0.603789 7.56978C0.670925 7.48452 0.764786 7.42432 0.870277 7.39886L0.870284 7.39886L29.3949 0.513615L29.3953 0.513499C29.4696 0.4955 29.5471 0.4955 29.6213 0.513499L29.6218 0.513615L58.1464 7.39886L58.2637 6.91282L58.1464 7.39886C58.2519 7.42432 58.3457 7.48452 58.4128 7.56978C58.48 7.65504 58.5165 7.7604 58.5165 7.86888V11.7807H58.5164L58.5166 11.7886C58.518 11.8793 58.4954 11.9687 58.451 12.0477C58.4083 12.1201 58.3476 12.1802 58.2747 12.2221C58.201 12.2645 58.1176 12.2868 58.0326 12.2869L58.5165 58.5328ZM12.287 22.623V23.123H12.787H46.2296H46.7296V22.623V20.6558V20.1558H46.2296H12.787H12.287V20.6558V22.623ZM29.3949 4.44804L29.3954 4.4479C29.4323 4.43895 29.4701 4.43444 29.5081 4.43446H29.5086C29.5465 4.43444 29.5843 4.43895 29.6212 4.4479L29.6218 4.44804L56.932 11.0402L57.5493 11.1892V10.5541V8.64347V8.2498L57.1666 8.15743L29.6256 1.50948L29.5083 1.48116L29.391 1.50948L1.85003 8.15743L1.46735 8.2498V8.64347V10.554V11.189L2.08467 11.04L29.3949 4.44804Z" fill="white" stroke="white"/>
<path d="M27.5412 11.3033L27.5406 11.3033C27.1474 11.3037 26.7704 11.4601 26.4924 11.7381C26.2144 12.0162 26.058 12.3931 26.0575 12.7863L26.0575 12.7874C26.058 13.1806 26.2144 13.5576 26.4924 13.8356C26.7704 14.1137 27.1474 14.27 27.5406 14.2705H27.5412H31.4756C31.8691 14.2705 32.2464 14.1142 32.5246 13.8359C32.8029 13.5577 32.9592 13.1804 32.9592 12.7869C32.9592 12.3934 32.8029 12.016 32.5246 11.7378C32.2464 11.4596 31.8691 11.3033 31.4756 11.3033L27.5412 11.3033ZM33.2086 14.5199C32.7489 14.9795 32.1256 15.2377 31.4756 15.2377H27.5412C26.8912 15.2377 26.2678 14.9795 25.8082 14.5199C25.3485 14.0603 25.0903 13.4369 25.0903 12.7869C25.0903 12.1369 25.3485 11.5135 25.8082 11.0539C26.2678 10.5943 26.8912 10.3361 27.5412 10.3361H31.4756C32.1256 10.3361 32.7489 10.5943 33.2086 11.0539C33.6682 11.5135 33.9264 12.1369 33.9264 12.7869C33.9264 13.4369 33.6682 14.0603 33.2086 14.5199Z" fill="white" stroke="white"/>
</svg>
