<svg width="74" height="60" viewBox="0 0 74 60" fill="none" xmlns="http://www.w3.org/2000/svg">
<path d="M11.9327 48.0618C11.2267 48.0618 10.5365 48.2712 9.94951 48.6634C9.36248 49.0557 8.90495 49.6132 8.63476 50.2655C8.36458 50.9177 8.29389 51.6355 8.43163 52.3279C8.56937 53.0204 8.90935 53.6564 9.40857 54.1557C9.9078 54.6549 10.5439 54.9949 11.2363 55.1326C11.9288 55.2704 12.6465 55.1997 13.2988 54.9295C13.9511 54.6593 14.5086 54.2018 14.9008 53.6147C15.293 53.0277 15.5024 52.3375 15.5024 51.6315C15.5013 50.6851 15.1249 49.7778 14.4557 49.1085C13.7865 48.4393 12.8791 48.0629 11.9327 48.0618ZM11.9327 52.8214C11.6974 52.8214 11.4673 52.7516 11.2717 52.6209C11.076 52.4901 10.9235 52.3043 10.8334 52.0869C10.7433 51.8694 10.7198 51.6302 10.7657 51.3994C10.8116 51.1686 10.9249 50.9565 11.0913 50.7901C11.2577 50.6237 11.4698 50.5104 11.7006 50.4645C11.9314 50.4186 12.1706 50.4421 12.3881 50.5322C12.6055 50.6223 12.7913 50.7748 12.9221 50.9704C13.0528 51.1661 13.1226 51.3962 13.1226 51.6315C13.1223 51.947 12.9968 52.2494 12.7737 52.4725C12.5506 52.6956 12.2482 52.8211 11.9327 52.8214Z" fill="white"/>
<path d="M61.9083 48.0618C61.2023 48.0618 60.5121 48.2712 59.9251 48.6634C59.3381 49.0557 58.8805 49.6132 58.6104 50.2655C58.3402 50.9177 58.2695 51.6355 58.4072 52.3279C58.545 53.0204 58.8849 53.6564 59.3842 54.1557C59.8834 54.6549 60.5195 54.9949 61.2119 55.1326C61.9044 55.2704 62.6221 55.1997 63.2744 54.9295C63.9266 54.6593 64.4842 54.2018 64.8764 53.6147C65.2686 53.0277 65.478 52.3375 65.478 51.6315C65.4769 50.6851 65.1005 49.7778 64.4313 49.1085C63.7621 48.4393 62.8547 48.0629 61.9083 48.0618ZM61.9083 52.8214C61.673 52.8214 61.4429 52.7516 61.2472 52.6209C61.0516 52.4901 60.8991 52.3043 60.809 52.0869C60.7189 51.8694 60.6954 51.6302 60.7413 51.3994C60.7872 51.1686 60.9005 50.9565 61.0669 50.7901C61.2333 50.6237 61.4454 50.5104 61.6762 50.4645C61.907 50.4186 62.1462 50.4421 62.3637 50.5322C62.5811 50.6223 62.7669 50.7748 62.8977 50.9704C63.0284 51.1661 63.0982 51.3962 63.0982 51.6315C63.0979 51.947 62.9724 52.2494 62.7493 52.4725C62.5262 52.6956 62.2238 52.8211 61.9083 52.8214Z" fill="white"/>
<path d="M72.6057 37.4087L71.0752 37.4063L66.4644 23.9233C66.3842 23.6888 66.2327 23.4852 66.0312 23.3409C65.8297 23.1966 65.5882 23.1189 65.3404 23.1185L52.4003 23.0982L52.4151 13.5791C52.4154 13.4228 52.3849 13.268 52.3253 13.1236C52.2657 12.9791 52.1783 12.8478 52.068 12.7371C51.9576 12.6264 51.8266 12.5386 51.6823 12.4785C51.538 12.4185 51.3833 12.3875 51.227 12.3873L34.3655 12.3609C34.548 11.7126 34.6479 11.0439 34.663 10.3705C34.6651 9.01079 34.3994 7.66394 33.881 6.40688C33.3626 5.14982 32.6017 4.00718 31.6417 3.04418C30.6817 2.08119 29.5415 1.31671 28.2861 0.794392C27.0306 0.272072 25.6846 0.00214172 24.3249 1.26934e-05C22.9651 -0.00211634 21.6183 0.263598 20.3612 0.781984C19.1041 1.30037 17.9615 2.06128 16.9985 3.02126C16.0355 3.98124 15.271 5.1215 14.7487 6.37692C14.2264 7.63235 13.9565 8.97837 13.9543 10.3381C13.9673 11.0115 14.0652 11.6805 14.2457 12.3294L1.25132 12.309C1.09505 12.3088 0.940261 12.3393 0.79579 12.3989C0.651318 12.4584 0.519996 12.5459 0.409323 12.6562C0.298649 12.7665 0.210792 12.8976 0.150768 13.0419C0.0907449 13.1862 0.0597306 13.3409 0.0594964 13.4971L1.57335e-06 51.5738C-0.000252544 51.73 0.0302784 51.8848 0.0898508 52.0293C0.149423 52.1738 0.23687 52.3051 0.347198 52.4158C0.457527 52.5264 0.588575 52.6143 0.73286 52.6743C0.877144 52.7343 1.03184 52.7654 1.18811 52.7656L3.65417 52.7695C3.93697 54.7522 4.92482 56.5666 6.43668 57.8802C7.94854 59.1938 9.88314 59.9186 11.8859 59.9217C13.8887 59.9248 15.8256 59.2061 17.3416 57.8972C18.8575 56.5884 19.851 54.777 20.14 52.7952L53.6297 52.8477C53.9125 54.8304 54.9004 56.6449 56.4122 57.9585C57.924 59.2721 59.8586 59.9968 61.8614 60C63.8643 60.0031 65.8011 59.2844 67.3171 57.9756C68.833 56.6667 69.8266 54.8554 70.1156 52.8736L72.5816 52.8774C72.7379 52.8777 72.8927 52.8472 73.0372 52.7876C73.1816 52.728 73.313 52.6406 73.4236 52.5302C73.5343 52.4199 73.6222 52.2889 73.6822 52.1446C73.7422 52.0003 73.7732 51.8456 73.7735 51.6893L73.794 38.6005C73.7942 38.4442 73.7637 38.2894 73.7041 38.1449C73.6445 38.0004 73.5571 37.8691 73.4467 37.7584C73.3364 37.6478 73.2053 37.5599 73.061 37.4999C72.9167 37.4399 72.762 37.4089 72.6057 37.4087ZM64.4801 25.4538L68.5703 37.3527H52.3891V25.4538H64.4801ZM24.2779 2.39958C26.3921 2.40199 28.4191 3.24293 29.914 4.73792C31.409 6.23291 32.25 8.25987 32.2524 10.3741C32.2524 13.7769 27.1519 21.6345 24.2777 25.6642C21.4037 21.6348 16.3033 13.7785 16.3033 10.3741C16.3057 8.25987 17.1467 6.23291 18.6417 4.73792C20.1367 3.24293 22.1636 2.40199 24.2779 2.39958ZM2.41355 14.7447H15.0438C15.8385 16.6501 17.052 18.92 18.6845 21.5545C20.9765 25.2512 23.2303 28.2709 23.3251 28.3976C23.4359 28.5457 23.5797 28.666 23.7451 28.7488C23.9105 28.8316 24.0929 28.8747 24.2779 28.8747C24.4628 28.8747 24.6453 28.8316 24.8107 28.7488C24.9761 28.666 25.1199 28.5457 25.2307 28.3976C25.3254 28.2709 27.5792 25.2512 29.8713 21.5545C31.5025 18.9241 32.716 16.6542 33.5119 14.7447H50.0093V50.4416H20.1756C19.8898 48.4592 18.8991 46.6463 17.3852 45.335C15.8713 44.0237 13.9356 43.3019 11.9327 43.3019C9.92986 43.3019 7.9941 44.0237 6.4802 45.335C4.9663 46.6463 3.97566 48.4592 3.68986 50.4416H2.41355V14.7447ZM11.9327 57.5809C10.756 57.5809 9.60575 57.232 8.62736 56.5783C7.64897 55.9245 6.88642 54.9954 6.43611 53.9082C5.98581 52.8211 5.86799 51.6249 6.09755 50.4708C6.32712 49.3167 6.89375 48.2566 7.7258 47.4246C8.55785 46.5925 9.61794 46.0259 10.772 45.7963C11.9261 45.5667 13.1223 45.6846 14.2095 46.1349C15.2966 46.5852 16.2258 47.3477 16.8795 48.3261C17.5333 49.3045 17.8822 50.4548 17.8822 51.6315C17.8804 53.2088 17.253 54.7211 16.1377 55.8364C15.0223 56.9518 13.5101 57.5792 11.9327 57.5809ZM61.9083 57.5809C60.7316 57.5809 59.5813 57.232 58.6029 56.5783C57.6245 55.9245 56.862 54.9954 56.4117 53.9082C55.9614 52.8211 55.8436 51.6249 56.0731 50.4708C56.3027 49.3167 56.8693 48.2566 57.7014 47.4246C58.5334 46.5925 59.5935 46.0259 60.7476 45.7963C61.9017 45.5667 63.0979 45.6846 64.185 46.1349C65.2722 46.5852 66.2013 47.3477 66.8551 48.3261C67.5088 49.3045 67.8577 50.4548 67.8577 51.6315C67.856 53.2088 67.2286 54.7211 66.1132 55.8364C64.9979 56.9518 63.4856 57.5792 61.9083 57.5809ZM71.4274 50.4416H70.1511C69.8653 48.4592 68.8747 46.6463 67.3608 45.335C65.8469 44.0237 63.9111 43.3019 61.9083 43.3019C59.9054 43.3019 57.9697 44.0237 56.4558 45.335C54.9419 46.6463 53.9512 48.4592 53.6654 50.4416H52.3891V39.7325H71.4274V50.4416Z" fill="white"/>
<path d="M29.5592 10.0289C29.5592 8.98434 29.2494 7.96329 28.6691 7.09482C28.0888 6.22635 27.264 5.54947 26.299 5.14977C25.3339 4.75007 24.2721 4.64551 23.2476 4.8493C22.2232 5.05309 21.2822 5.55609 20.5436 6.29468C19.805 7.03328 19.3021 7.9743 19.0983 8.99875C18.8945 10.0232 18.9991 11.0851 19.3989 12.0501C19.7986 13.0151 20.4755 13.8399 21.344 14.4202C22.2125 15.0005 23.2335 15.3102 24.278 15.3102C25.6782 15.3086 27.0206 14.7517 28.0107 13.7616C29.0008 12.7715 29.5577 11.4291 29.5592 10.0289ZM21.3766 10.0289C21.3766 9.45502 21.5468 8.89407 21.8657 8.41696C22.1845 7.93984 22.6376 7.56799 23.1678 7.34841C23.698 7.12883 24.2814 7.07139 24.8442 7.18336C25.407 7.29533 25.9239 7.57168 26.3297 7.97745C26.7354 8.38323 27.0118 8.90021 27.1237 9.46302C27.2356 10.0258 27.1782 10.6092 26.9586 11.1394C26.739 11.6695 26.3671 12.1226 25.89 12.4414C25.4128 12.7603 24.8519 12.9304 24.278 12.9304C23.5088 12.9296 22.7712 12.6236 22.2273 12.0796C21.6833 11.5357 21.3774 10.7981 21.3766 10.0289Z" fill="white"/>
<path d="M10.7429 39.7325H39.3003C39.6159 39.7325 39.9186 39.6072 40.1417 39.384C40.3649 39.1609 40.4902 38.8582 40.4902 38.5426C40.4902 38.2271 40.3649 37.9244 40.1417 37.7013C39.9186 37.4781 39.6159 37.3527 39.3003 37.3527H11.9328V36.1629H23.8317C24.1473 36.1629 24.4499 36.0375 24.6731 35.8143C24.8962 35.5912 25.0216 35.2885 25.0216 34.973V31.4033C25.0216 31.0877 24.8962 30.785 24.6731 30.5619C24.4499 30.3387 24.1473 30.2134 23.8317 30.2134C23.5161 30.2134 23.2135 30.3387 22.9903 30.5619C22.7672 30.785 22.6418 31.0877 22.6418 31.4033V33.7831H10.7429C10.4273 33.7831 10.1246 33.9084 9.90149 34.1316C9.67834 34.3547 9.55298 34.6574 9.55298 34.973V38.5426C9.55298 38.8582 9.67834 39.1609 9.90149 39.384C10.1246 39.6072 10.4273 39.7325 10.7429 39.7325Z" fill="white"/>
<path d="M42.8699 39.5838H44.0598C44.3754 39.5838 44.6781 39.4585 44.9012 39.2353C45.1244 39.0122 45.2497 38.7095 45.2497 38.3939C45.2497 38.0784 45.1244 37.7757 44.9012 37.5526C44.6781 37.3294 44.3754 37.204 44.0598 37.204H42.8699C42.5544 37.204 42.2517 37.3294 42.0286 37.5526C41.8054 37.7757 41.6801 38.0784 41.6801 38.3939C41.6801 38.7095 41.8054 39.0122 42.0286 39.2353C42.2517 39.4585 42.5544 39.5838 42.8699 39.5838Z" fill="white"/>
<path d="M42.8699 46.8719H33.3508C33.0352 46.8719 32.7325 46.9973 32.5094 47.2205C32.2863 47.4436 32.1609 47.7463 32.1609 48.0618C32.1609 48.3774 32.2863 48.6801 32.5094 48.9032C32.7325 49.1264 33.0352 49.2517 33.3508 49.2517H42.8699C43.1855 49.2517 43.4882 49.1264 43.7113 48.9032C43.9345 48.6801 44.0598 48.3774 44.0598 48.0618C44.0598 47.7463 43.9345 47.4436 43.7113 47.2205C43.4882 46.9973 43.1855 46.8719 42.8699 46.8719Z" fill="white"/>
<path d="M46.4397 49.2517H47.6295C47.9451 49.2517 48.2478 49.1264 48.4709 48.9032C48.6941 48.6801 48.8194 48.3774 48.8194 48.0618C48.8194 47.7463 48.6941 47.4436 48.4709 47.2205C48.2478 46.9973 47.9451 46.8719 47.6295 46.8719H46.4397C46.1241 46.8719 45.8214 46.9973 45.5983 47.2205C45.3751 47.4436 45.2498 47.7463 45.2498 48.0618C45.2498 48.3774 45.3751 48.6801 45.5983 48.9032C45.8214 49.1264 46.1241 49.2517 46.4397 49.2517Z" fill="white"/>
</svg>
