<svg width="50" height="50" viewBox="0 0 50 50" fill="none" xmlns="http://www.w3.org/2000/svg">
<path d="M18.0665 20.2856C11.7089 20.2856 6.53687 25.4578 6.53687 31.8152C6.53687 38.1727 11.709 43.3449 18.0665 43.3449C24.4239 43.3449 29.5961 38.1727 29.5961 31.8152C29.5961 25.4578 24.424 20.2856 18.0665 20.2856ZM18.0665 41.3919C12.786 41.3919 8.48999 37.0959 8.48999 31.8153C8.48999 26.5349 12.786 22.2389 18.0665 22.2389C23.347 22.2389 27.643 26.5349 27.643 31.8153C27.6431 37.0958 23.347 41.3919 18.0665 41.3919Z" fill="white"/>
<path d="M19.471 31.0122C19.3455 30.9679 19.2256 30.9251 19.1108 30.8839V28.2401C19.3723 28.34 19.5555 28.4823 19.6515 28.6192C19.9612 29.0608 20.5703 29.1676 21.0118 28.8578C21.4533 28.548 21.5602 27.939 21.2504 27.4975C20.8323 26.9018 20.0845 26.4015 19.1108 26.2233V26.1152C19.1108 25.576 18.6735 25.1387 18.1343 25.1387C17.595 25.1387 17.1577 25.576 17.1577 26.1152V26.2945C17.045 26.3212 16.931 26.3518 16.8155 26.3865C15.6711 26.7312 14.8074 27.8415 14.715 29.0867C14.6235 30.3191 15.2784 31.3895 16.4666 31.9498C16.6213 32.0228 16.8581 32.1217 17.1577 32.2394V35.4473C16.7679 35.3141 16.4164 35.1076 16.1812 34.8155C15.8428 34.3954 15.2279 34.3293 14.808 34.6675C14.3879 35.0059 14.3218 35.6206 14.66 36.0406C15.3012 36.8367 16.2378 37.2722 17.1576 37.4659V37.5146C17.1576 38.0539 17.5949 38.4912 18.1342 38.4912C18.6655 38.4912 19.0979 38.0667 19.1104 37.5383C20.7313 37.2979 21.8753 36.2538 22.0575 34.8193C22.2646 33.1894 21.201 31.6238 19.471 31.0122ZM16.6628 29.2312C16.6889 28.8797 16.8885 28.543 17.1576 28.3628V30.1083C16.8016 29.8972 16.6353 29.6027 16.6628 29.2312ZM20.1199 34.5733C20.059 35.0537 19.6984 35.3965 19.1107 35.5498V32.9769C19.8914 33.3675 20.1861 34.0528 20.1199 34.5733Z" fill="white"/>
<path d="M49.0234 31.7478H36.1299C36.067 28.94 34.7815 25.0786 32.581 21.1041C30.7194 17.7419 28.4235 14.6914 26.1149 12.4805C26.3914 12.308 26.5754 12.0012 26.5754 11.6514V6.31914C26.5754 5.77988 26.1381 5.34258 25.5988 5.34258H24.2592C24.3031 5.28516 24.3461 5.22891 24.3876 5.1748C25.3826 3.87588 26.5104 2.40361 26.8423 1.24561C26.9267 0.950781 26.8679 0.633594 26.6833 0.388867C26.4988 0.144043 26.2101 0 25.9034 0H10.2288C9.92217 0 9.6334 0.144043 9.44893 0.38877C9.26445 0.633594 9.20566 0.950879 9.29004 1.24551C9.62187 2.40342 10.7495 3.87568 11.7444 5.17441C11.7859 5.22861 11.8291 5.28496 11.873 5.34248H10.5335C9.99424 5.34248 9.55693 5.77979 9.55693 6.31904V11.6513C9.55693 12.0047 9.74473 12.3143 10.026 12.4857C7.71768 14.7002 5.42002 17.7562 3.55479 21.1248C1.2957 25.2049 0 29.1546 0 31.9615C0 37.045 1.80635 41.6479 5.08643 44.9227C8.36592 48.1968 12.9756 50 18.0661 50C23.7028 50 28.5971 47.8523 31.8897 44.0193V49.0234C31.8897 49.5627 32.327 50 32.8663 50H49.0234C49.5627 50 50 49.5627 50 49.0234V32.7243C50 32.185 49.5627 31.7478 49.0234 31.7478ZM33.8429 39.1339H48.0469V42.6138H33.8429V39.1339ZM48.0469 37.1808H33.8429V33.7008H48.0469V37.1808ZM13.295 3.98682C12.8252 3.37354 12.2536 2.62725 11.8148 1.95312H24.3175C23.8787 2.62734 23.3069 3.37373 22.8371 3.98711C22.3906 4.57002 22.065 4.99873 21.8387 5.34258H14.2936C14.0672 4.99873 13.7415 4.56992 13.295 3.98682ZM11.5101 7.2957H24.6223V10.6748H11.5101V7.2957ZM18.0661 48.0469C8.5791 48.0469 1.95312 41.4324 1.95312 31.9615C1.95312 29.5119 3.19062 25.8146 5.26338 22.071C7.39189 18.2271 10.0892 14.8331 12.6634 12.7596C12.7134 12.7193 12.7582 12.6751 12.7981 12.6278H19.3746L17.9543 15.037C17.6804 15.5017 17.835 16.1004 18.2995 16.3742C18.7643 16.6482 19.363 16.4935 19.6367 16.029L20.7663 14.113L23.1916 19.472C23.3549 19.8327 23.7101 20.0462 24.0818 20.0462C24.2165 20.0461 24.3533 20.0182 24.4839 19.959C24.9752 19.7366 25.1934 19.158 24.9709 18.6667L22.2379 12.6278H23.3454C23.385 12.6744 23.4294 12.718 23.4788 12.7577C26.0539 14.8277 28.7487 18.2147 30.8722 22.05C32.9146 25.7392 34.1105 29.2551 34.1762 31.7477H32.8661C32.3269 31.7477 31.8896 32.185 31.8896 32.7242V40.6882C29.0898 45.3654 24.0544 48.0469 18.0661 48.0469ZM48.0469 48.0469H33.8429V44.5669H48.0469V48.0469Z" fill="white"/>
</svg>
