<svg width="50" height="50" viewBox="0 0 50 50" fill="none" xmlns="http://www.w3.org/2000/svg">
<g clip-path="url(#clip0)">
<path d="M10.7769 32.1693C7.3395 33.7968 5.28735 37.0389 5.28735 40.8421V49.2188C5.28735 49.6502 5.63716 50 6.0686 50H43.9305C44.362 50 44.7118 49.6502 44.7118 49.2188V40.842C44.7118 37.0388 42.6596 33.7966 39.2222 32.1692L29.9895 27.798L29.7533 24.3457C30.5065 23.852 31.1787 23.2447 31.7455 22.5481H32.9485C34.6987 22.5481 36.1226 21.1242 36.1226 19.3739V18.8614C37.3215 18.0607 38.1051 16.7515 38.1051 15.2736C38.1051 13.7958 37.3215 12.4865 36.1226 11.6858V11.123C36.1226 4.98975 31.1329 0 24.9996 0C18.8663 0 13.8765 4.98975 13.8765 11.123V11.6812C12.6391 12.5013 11.894 13.8266 11.894 15.2738C11.894 17.7056 14.0136 19.6839 16.619 19.6839C16.6481 19.6839 16.6769 19.6819 16.706 19.6814C17.3189 21.6232 18.5963 23.2726 20.2703 24.3619L20.0068 27.7995L10.7769 32.1693ZM29.3957 29.2457L32.0418 30.4985L30.2616 34.6212L26.242 31.609L29.3957 29.2457ZM23.6354 39.243H26.3637L26.9331 48.4375H23.0661L23.6354 39.243ZM27.5503 34.5419L26.5305 37.6805H23.4686L22.4252 34.4693L24.9393 32.5854L27.5503 34.5419ZM19.617 34.6212L17.8572 30.5459L20.5295 29.2807L23.6365 31.609L19.617 34.6212ZM6.84985 40.842C6.84985 37.6581 8.56782 34.9439 11.4456 33.5814L16.4443 31.2148L18.5754 36.1502C18.6703 36.3699 18.8605 36.534 19.0918 36.5955C19.1581 36.6132 19.2255 36.6218 19.2926 36.6218C19.4598 36.6218 19.6246 36.5681 19.7612 36.4657L21.1041 35.4594L22.1121 38.5617L21.5005 48.4375H6.84985V40.842ZM43.1493 40.842V48.4375H28.4986L27.8871 38.5617L28.8715 35.5319L30.1176 36.4657C30.2542 36.5681 30.419 36.6218 30.5862 36.6218C30.6533 36.6218 30.7207 36.6132 30.787 36.5955C31.0182 36.534 31.2084 36.3699 31.3034 36.1502L33.455 31.1675L38.5538 33.5814C41.4313 34.9438 43.1493 37.6581 43.1493 40.842ZM32.9484 20.9857H32.7607C32.9718 20.569 33.1504 20.1331 33.293 19.6814C33.3221 19.6819 33.3509 19.6839 33.38 19.6839C33.7839 19.6839 34.176 19.6361 34.5504 19.5468C34.464 20.3545 33.7788 20.9857 32.9484 20.9857ZM33.6315 18.1115C33.6725 17.7697 33.6942 17.4221 33.6942 17.0694V12.4403C35.2912 12.5828 36.5426 13.799 36.5426 15.2738C36.5426 16.7677 35.2582 17.9957 33.6315 18.1115ZM24.9996 1.5625C30.231 1.5625 34.4937 5.78623 34.5585 11.0025C34.2723 10.9337 33.9754 10.8902 33.671 10.8729C33.3466 6.37217 29.5815 2.80938 24.9996 2.80938C20.4177 2.80938 16.6527 6.37197 16.3281 10.8725C16.0283 10.8898 15.7309 10.935 15.4406 11.0045C15.5043 5.78721 19.7674 1.5625 24.9996 1.5625ZM31.7704 9.26709C30.5269 8.82344 29.3602 8.37295 28.4893 7.31201C28.3415 7.13193 28.121 7.02725 27.8881 7.02646C27.8873 7.02646 27.8863 7.02646 27.8854 7.02646C27.6535 7.02646 27.4334 7.12959 27.285 7.30781C25.3115 9.67852 22.5322 10.0247 19.5898 10.3912C19.0421 10.4595 18.4825 10.5306 17.9249 10.6147C18.3642 7.10049 21.3682 4.37188 24.9996 4.37188C28.1509 4.37188 30.8296 6.42715 31.7704 9.26709ZM13.4565 15.2737C13.4565 14.2148 14.1041 13.2491 15.1464 12.7534C15.5103 12.5805 15.8991 12.4766 16.305 12.441V17.0694C16.305 17.4221 16.3267 17.7697 16.3677 18.1115C14.741 17.9957 13.4565 16.7677 13.4565 15.2737ZM17.8674 17.0694V12.2045C18.4999 12.1023 19.1495 12.0206 19.7829 11.9417C22.6454 11.5852 25.5973 11.2175 27.8953 8.95078C28.9675 9.9293 30.2183 10.3738 31.4343 10.8061C31.6592 10.886 31.8889 10.9681 32.1158 11.0529C32.1251 11.2022 32.1315 11.3523 32.1315 11.504V17.0694C32.1315 18.515 31.698 19.8607 30.9558 20.9857H25.7473C25.3159 20.9857 24.9661 21.3355 24.9661 21.767C24.9661 22.1984 25.3159 22.5482 25.7473 22.5482H29.5597C28.3225 23.5798 26.7325 24.2016 24.9995 24.2016C21.0668 24.2016 17.8674 21.0021 17.8674 17.0694ZM24.9996 25.7641C26.1449 25.7641 27.2389 25.541 28.2413 25.1368L28.4379 28.011L24.9394 30.6328L21.5513 28.0938L21.7773 25.1447C22.7744 25.5439 23.8617 25.7641 24.9996 25.7641ZM38.234 39.692C38.6655 39.692 39.0153 40.0418 39.0153 40.4732C39.0153 40.9047 38.6655 41.2545 38.234 41.2545H32.7653C32.3338 41.2545 31.984 40.9047 31.984 40.4732C31.984 40.0418 32.3338 39.692 32.7653 39.692H38.234Z" fill="white"/>
</g>
<defs>
<clipPath id="clip0">
<rect width="50" height="50" fill="white"/>
</clipPath>
</defs>
</svg>
