<svg width="60" height="60" viewBox="0 0 60 60" fill="none" xmlns="http://www.w3.org/2000/svg">
<path d="M53.3805 19.7775C53.4904 19.6895 53.579 19.5779 53.6399 19.451C53.7008 19.3241 53.7323 19.1851 53.7321 19.0443V10.6068C53.732 10.4234 53.6782 10.244 53.5772 10.0908C53.4762 9.9377 53.3325 9.81754 53.1639 9.74527L46.6014 6.93277C46.4588 6.87164 46.3033 6.84686 46.1488 6.86064C45.9943 6.87442 45.8456 6.92633 45.7161 7.01172C45.5865 7.09711 45.4802 7.21331 45.4067 7.34989C45.3331 7.48648 45.2946 7.63919 45.2946 7.79433V14.7937L43.4196 16.0443L41.5446 14.7937V7.79433C41.5445 7.63919 41.506 7.48648 41.4325 7.34989C41.3589 7.21331 41.2526 7.09711 41.1231 7.01172C40.9935 6.92633 40.8449 6.87442 40.6903 6.86064C40.5358 6.84686 40.3803 6.87164 40.2377 6.93277L33.6752 9.74527C33.5066 9.81754 33.3629 9.9377 33.2619 10.0908C33.1609 10.244 33.1071 10.4234 33.1071 10.6068V19.0443C33.107 19.1849 33.1386 19.3237 33.1994 19.4505C33.2603 19.5772 33.3489 19.6886 33.4586 19.7765L34.8883 20.9193H32.5314C31.9594 20.9215 31.4014 21.0971 30.9312 21.423C30.461 21.7488 30.1008 22.2097 29.898 22.7446L27.7699 28.4193H7.79456C7.54592 28.4193 7.30746 28.5181 7.13164 28.6939C6.95583 28.8697 6.85706 29.1082 6.85706 29.3568C6.85706 29.6055 6.95583 29.8439 7.13164 30.0197C7.30746 30.1956 7.54592 30.2943 7.79456 30.2943H16.2321V45.2943H7.79456C7.54592 45.2943 7.30746 45.3931 7.13164 45.5689C6.95583 45.7447 6.85706 45.9832 6.85706 46.2318C6.85706 46.4805 6.95583 46.7189 7.13164 46.8947C7.30746 47.0706 7.54592 47.1693 7.79456 47.1693H20.9196C21.6655 47.1693 22.3808 46.873 22.9083 46.3456C23.4357 45.8181 23.7321 45.1027 23.7321 44.3568H25.6858C26.3573 44.3588 27.0171 44.5336 27.6014 44.8645C28.1858 45.1953 28.6752 45.6711 29.0224 46.2459C29.5366 47.0977 30.2616 47.8026 31.1275 48.2928C31.9933 48.7829 32.9708 49.0418 33.9658 49.0443H37.7946V50.9193C37.7946 51.6652 38.0909 52.3806 38.6183 52.9081C39.1458 53.4355 39.8611 53.7318 40.6071 53.7318H46.2321C46.978 53.7318 47.6933 53.4355 48.2208 52.9081C48.7482 52.3806 49.0446 51.6652 49.0446 50.9193V49.0443H50.9196C51.6655 49.0443 52.3808 48.748 52.9083 48.2206C53.4357 47.6931 53.7321 46.9777 53.7321 46.2318V27.4818C53.7321 26.7359 53.4357 26.0205 52.9083 25.4931C52.3808 24.9656 51.6655 24.6693 50.9196 24.6693H49.0446V23.2462L53.3805 19.7775ZM21.8571 44.3568C21.8571 44.6055 21.7583 44.8439 21.5825 45.0197C21.4067 45.1956 21.1682 45.2943 20.9196 45.2943H18.1071V30.2943H21.8571V44.3568ZM47.1696 50.9193C47.1696 51.168 47.0708 51.4064 46.895 51.5822C46.7192 51.7581 46.4807 51.8568 46.2321 51.8568H40.6071C40.3584 51.8568 40.12 51.7581 39.9441 51.5822C39.7683 51.4064 39.6696 51.168 39.6696 50.9193V49.0443H47.1696V50.9193ZM50.9196 26.5443C51.1682 26.5443 51.4067 26.6431 51.5825 26.8189C51.7583 26.9947 51.8571 27.2332 51.8571 27.4818V30.2943H47.1696C46.9209 30.2943 46.6825 30.3931 46.5066 30.5689C46.3308 30.7447 46.2321 30.9832 46.2321 31.2318C46.2321 31.4805 46.3308 31.7189 46.5066 31.8947C46.6825 32.0706 46.9209 32.1693 47.1696 32.1693H51.8571V35.9193H47.1696C46.9209 35.9193 46.6825 36.0181 46.5066 36.1939C46.3308 36.3697 46.2321 36.6082 46.2321 36.8568C46.2321 37.1055 46.3308 37.3439 46.5066 37.5197C46.6825 37.6956 46.9209 37.7943 47.1696 37.7943H51.8571V41.5443H47.1696C46.9209 41.5443 46.6825 41.6431 46.5066 41.8189C46.3308 41.9947 46.2321 42.2332 46.2321 42.4818C46.2321 42.7305 46.3308 42.9689 46.5066 43.1447C46.6825 43.3206 46.9209 43.4193 47.1696 43.4193H51.8571V46.2318C51.8571 46.4805 51.7583 46.7189 51.5825 46.8947C51.4067 47.0706 51.1682 47.1693 50.9196 47.1693H33.9658C33.2943 47.1676 32.6346 46.9929 32.0503 46.6622C31.4659 46.3315 30.9765 45.8559 30.6292 45.2812C30.1151 44.4293 29.3901 43.7242 28.5243 43.2339C27.6584 42.7436 26.6808 42.4846 25.6858 42.4818H23.7321V30.2943H28.4196C28.6105 30.2944 28.797 30.2362 28.9539 30.1275C29.1109 30.0188 29.231 29.8647 29.298 29.6859L31.653 23.4046C31.7205 23.2261 31.8407 23.0723 31.9975 22.9635C32.1544 22.8547 32.3405 22.796 32.5314 22.7953H37.2321L37.7946 23.2462V24.6693H36.8571C36.6084 24.6693 36.37 24.7681 36.1941 24.9439C36.0183 25.1197 35.9196 25.3582 35.9196 25.6068C35.9196 25.8555 36.0183 26.0939 36.1941 26.2697C36.37 26.4456 36.6084 26.5443 36.8571 26.5443H50.9196ZM47.5211 22.0631C47.4115 22.1509 47.323 22.2621 47.2621 22.3887C47.2013 22.5153 47.1696 22.6539 47.1696 22.7943V24.6693H39.6696V22.7943C39.6695 22.6539 39.6378 22.5153 39.577 22.3887C39.5161 22.2621 39.4276 22.1509 39.318 22.0631L34.9821 18.5953V11.2256L39.6696 9.21746V15.2943C39.6695 15.4486 39.7076 15.6006 39.7804 15.7366C39.8532 15.8727 39.9584 15.9887 40.0867 16.0743L42.8992 17.9493C43.0533 18.0521 43.2344 18.107 43.4196 18.107C43.6048 18.107 43.7858 18.0521 43.9399 17.9493L46.7524 16.0743C46.8807 15.9887 46.986 15.8727 47.0587 15.7366C47.1315 15.6006 47.1696 15.4486 47.1696 15.2943V9.21746L51.8571 11.2256V18.5953L47.5211 22.0631Z" fill="white"/>
</svg>
