<svg width="50" height="50" viewBox="0 0 50 50" fill="none" xmlns="http://www.w3.org/2000/svg">
<g clip-path="url(#clip0)">
<path d="M9.37528 20.8333H32.292C32.5682 20.8333 32.8332 20.7236 33.0285 20.5282C33.2239 20.3329 33.3336 20.0679 33.3336 19.7917C33.3336 19.5154 33.2239 19.2504 33.0285 19.0551C32.8332 18.8597 32.5682 18.75 32.292 18.75H9.37528C9.09902 18.75 8.83407 18.8597 8.63872 19.0551C8.44337 19.2504 8.33362 19.5154 8.33362 19.7917C8.33362 20.0679 8.44337 20.3329 8.63872 20.5282C8.83407 20.7236 9.09902 20.8333 9.37528 20.8333Z" fill="white"/>
<path d="M26.042 23.9585H9.37528C9.09902 23.9585 8.83407 24.0682 8.63872 24.2636C8.44337 24.4589 8.33362 24.7239 8.33362 25.0002C8.33362 25.2764 8.44337 25.5414 8.63872 25.7367C8.83407 25.9321 9.09902 26.0418 9.37528 26.0418H26.042C26.3182 26.0418 26.5832 25.9321 26.7785 25.7367C26.9739 25.5414 27.0836 25.2764 27.0836 25.0002C27.0836 24.7239 26.9739 24.4589 26.7785 24.2636C26.5832 24.0682 26.3182 23.9585 26.042 23.9585Z" fill="white"/>
<path d="M9.37528 15.6248H32.292C32.5682 15.6248 32.8332 15.5151 33.0285 15.3197C33.2239 15.1244 33.3336 14.8594 33.3336 14.5832C33.3336 14.3069 33.2239 14.042 33.0285 13.8466C32.8332 13.6513 32.5682 13.5415 32.292 13.5415H9.37528C9.09902 13.5415 8.83407 13.6513 8.63872 13.8466C8.44337 14.042 8.33362 14.3069 8.33362 14.5832C8.33362 14.8594 8.44337 15.1244 8.63872 15.3197C8.83407 15.5151 9.09902 15.6248 9.37528 15.6248Z" fill="white"/>
<path d="M9.37528 10.4168H32.292C32.5682 10.4168 32.8332 10.3071 33.0285 10.1117C33.2239 9.91638 33.3336 9.65143 33.3336 9.37516C33.3336 9.0989 33.2239 8.83394 33.0285 8.63859C32.8332 8.44324 32.5682 8.3335 32.292 8.3335H9.37528C9.09902 8.3335 8.83407 8.44324 8.63872 8.63859C8.44337 8.83394 8.33362 9.0989 8.33362 9.37516C8.33362 9.65143 8.44337 9.91638 8.63872 10.1117C8.83407 10.3071 9.09902 10.4168 9.37528 10.4168Z" fill="white"/>
<path d="M23.9586 41.6668C23.417 41.6668 22.9795 39.5835 21.042 39.5835C19.1045 39.5835 18.6565 41.6668 18.1149 41.6668C17.5732 41.6668 17.1461 39.5835 15.2086 39.5835C13.2711 39.5835 12.8232 41.6668 12.292 41.6668C11.7607 41.6668 11.3232 39.5835 9.37528 39.5835C9.09902 39.5835 8.83407 39.6932 8.63872 39.8886C8.44337 40.0839 8.33362 40.3489 8.33362 40.6252C8.33362 40.9014 8.44337 41.1664 8.63872 41.3617C8.83407 41.5571 9.09902 41.6668 9.37528 41.6668C9.91695 41.6668 10.344 43.7502 12.292 43.7502C14.2399 43.7502 14.667 41.6668 15.2086 41.6668C15.7503 41.6668 16.1774 43.7502 18.1149 43.7502C20.0524 43.7502 20.5003 41.6668 21.042 41.6668C21.5836 41.6668 22.0107 43.7502 23.9586 43.7502C24.2349 43.7502 24.4998 43.6404 24.6952 43.4451C24.8905 43.2497 25.0003 42.9848 25.0003 42.7085C25.0003 42.4322 24.8905 42.1673 24.6952 41.9719C24.4998 41.7766 24.2349 41.6668 23.9586 41.6668Z" fill="white"/>
<path d="M46.8753 10.4167C47.1516 10.4167 47.4165 10.3069 47.6119 10.1116C47.8072 9.91622 47.917 9.65127 47.917 9.375V5.20833C47.917 3.827 47.3682 2.50224 46.3915 1.52549C45.4147 0.548733 44.09 0 42.7086 0L7.29195 0C5.91062 0 4.58586 0.548733 3.6091 1.52549C2.63235 2.50224 2.08362 3.827 2.08362 5.20833V48.9583C2.08362 49.2346 2.19336 49.4995 2.38872 49.6949C2.58407 49.8903 2.84902 50 3.12528 50H38.542C38.8182 50 39.0832 49.8903 39.2785 49.6949C39.4739 49.4995 39.5836 49.2346 39.5836 48.9583V32.2917L47.4274 18.75C47.6801 18.335 47.8473 17.8736 47.9192 17.3931C47.991 16.9125 47.9661 16.4225 47.8459 15.9517C47.7257 15.4809 47.5125 15.0389 47.219 14.6516C46.9256 14.2644 46.5576 13.9397 46.1368 13.6967C45.7161 13.4537 45.251 13.2972 44.7689 13.2365C44.2868 13.1758 43.7974 13.2121 43.3296 13.3432C42.8617 13.4744 42.4248 13.6977 42.0444 14.0001C41.6641 14.3025 41.3481 14.6779 41.1149 15.1042L39.5836 17.7083V10.4167H46.8753ZM45.8336 5.20833V8.33333H39.5836V5.20833C39.5836 4.37953 39.9129 3.58468 40.4989 2.99862C41.085 2.41257 41.8798 2.08333 42.7086 2.08333C43.5374 2.08333 44.3323 2.41257 44.9183 2.99862C45.5044 3.58468 45.8336 4.37953 45.8336 5.20833ZM37.5003 47.9167H4.16695V5.20833C4.16695 4.37953 4.49619 3.58468 5.08224 2.99862C5.66829 2.41257 6.46315 2.08333 7.29195 2.08333H38.542C37.094 3.97917 37.5003 3.77083 37.5003 21.2812L29.3961 35.3229C29.219 35.625 29.292 35.3229 28.9065 41.5729C28.898 41.7149 28.9186 41.8571 28.9671 41.9908C29.0157 42.1244 29.091 42.2468 29.1886 42.3502C29.2862 42.4537 29.404 42.536 29.5346 42.5923C29.6652 42.6485 29.806 42.6773 29.9482 42.6771C30.3961 42.6771 30.1774 42.6771 35.3857 39.2917C35.6565 39.1146 35.5524 39.2188 37.469 35.8438L37.5003 47.9167ZM31.2503 36.7083C32.1473 36.8391 32.96 37.3088 33.5211 38.0208L31.0732 39.6354L31.2503 36.7083ZM34.792 36.3125C34.0557 35.5453 33.1163 35.0033 32.0836 34.75L40.5315 20.1667L43.2399 21.7292L34.792 36.3125ZM42.917 16.0625C43.1241 15.7034 43.4655 15.4412 43.866 15.3338C44.2665 15.2263 44.6932 15.2824 45.0524 15.4896C45.4115 15.6968 45.6736 16.0382 45.7811 16.4386C45.8885 16.8391 45.8325 17.2659 45.6253 17.625L44.3232 19.8854L41.667 18.3229L42.917 16.0625Z" fill="white"/>
</g>
<defs>
<clipPath id="clip0">
<rect width="50" height="50" fill="white"/>
</clipPath>
</defs>
</svg>
