<svg width="50" height="50" viewBox="0 0 50 50" fill="none" xmlns="http://www.w3.org/2000/svg">
<g clip-path="url(#clip0)">
<path d="M45.9209 3.91406H18.8992C16.65 3.91406 14.8201 5.74395 14.8201 7.99316V12.9585H11.8126C9.81152 12.9585 8.06807 14.3814 7.66709 16.3421L5.925 24.8605H3.79961C1.70449 24.8604 0 26.5649 0 28.6601V40.1948C0 40.7342 0.437207 41.1714 0.976562 41.1714H4.18066C5.05664 44.014 7.70811 46.0856 10.8343 46.0856C13.9605 46.0856 16.612 44.014 17.488 41.1714H30.8927C31.7687 44.014 34.4201 46.0856 37.5464 46.0856C40.6726 46.0856 43.324 44.014 44.2 41.1714H49.0234C49.5628 41.1714 50 40.7342 50 40.1948V7.99316C50 5.74385 48.1701 3.91406 45.9209 3.91406ZM3.79961 26.8136H11.9463C12.4856 26.8136 12.9229 26.3764 12.9229 25.837C12.9229 25.2977 12.4856 24.8604 11.9463 24.8604H7.91855L9.58066 16.7333C9.79648 15.6777 10.7353 14.9115 11.8126 14.9115H14.8201V33.4214C13.6903 32.6295 12.3156 32.1644 10.8343 32.1644C8.36221 32.1644 6.18701 33.4598 4.95186 35.4073H1.95312V28.6601C1.95312 27.6419 2.78145 26.8136 3.79961 26.8136ZM1.95312 39.2183V37.3605H4.10029C3.95244 37.9242 3.87373 38.5156 3.87373 39.125C3.87373 39.1562 3.87393 39.1872 3.87432 39.2183H1.95312ZM10.8343 44.1324C8.07314 44.1324 5.82686 41.886 5.82686 39.1249C5.82686 36.3638 8.07314 34.1175 10.8343 34.1175C13.5954 34.1175 15.8418 36.3638 15.8418 39.1249C15.8418 41.886 13.5954 44.1324 10.8343 44.1324ZM17.7943 39.2183C17.7947 39.1872 17.7949 39.1562 17.7949 39.125C17.7949 37.7971 17.4211 36.5549 16.7732 35.4979V7.99316C16.7732 6.8209 17.727 5.86719 18.8992 5.86719H45.9209C47.0932 5.86719 48.0469 6.8209 48.0469 7.99316V35.4074H43.4289C42.1937 33.4599 40.0185 32.1645 37.5465 32.1645C33.7084 32.1645 30.5858 35.287 30.5858 39.125C30.5858 39.1562 30.586 39.1872 30.5864 39.2183H17.7943ZM37.5465 44.1324C34.7854 44.1324 32.539 41.886 32.539 39.1249C32.539 36.3638 34.7854 34.1175 37.5465 34.1175C40.3076 34.1175 42.5539 36.3638 42.5539 39.1249C42.5539 41.886 40.3076 44.1324 37.5465 44.1324ZM48.0469 39.2183H44.5064C44.5068 39.1872 44.507 39.1562 44.507 39.125C44.507 38.5156 44.4283 37.9242 44.2805 37.3605H48.0469V39.2183Z" fill="white"/>
<path d="M10.8343 36.4609C9.36557 36.4609 8.17065 37.6559 8.17065 39.1246C8.17065 40.5935 9.36557 41.7884 10.8343 41.7884C12.3032 41.7884 13.4981 40.5935 13.4981 39.1246C13.4981 37.656 12.3032 36.4609 10.8343 36.4609ZM10.8343 39.8353C10.4425 39.8353 10.1238 39.5165 10.1238 39.1246C10.1238 38.7328 10.4425 38.4141 10.8343 38.4141C11.2262 38.4141 11.545 38.7328 11.545 39.1246C11.545 39.5165 11.2262 39.8353 10.8343 39.8353Z" fill="white"/>
<path d="M37.5462 36.4609C36.0775 36.4609 34.8826 37.6559 34.8826 39.1246C34.8826 40.5935 36.0775 41.7884 37.5462 41.7884C39.0151 41.7884 40.21 40.5935 40.21 39.1246C40.21 37.656 39.0151 36.4609 37.5462 36.4609ZM37.5462 39.8353C37.1544 39.8353 36.8357 39.5165 36.8357 39.1246C36.8357 38.7328 37.1544 38.4141 37.5462 38.4141C37.9381 38.4141 38.2569 38.7328 38.2569 39.1246C38.2569 39.5165 37.9381 39.8353 37.5462 39.8353Z" fill="white"/>
<path d="M37.315 18.5973C37.315 15.8925 35.1146 13.6919 32.4098 13.6919C29.705 13.6919 27.5044 15.8925 27.5044 18.5973C27.5044 21.3021 29.705 23.5026 32.4098 23.5026C35.1146 23.5026 37.315 21.3021 37.315 18.5973ZM29.4574 18.5973C29.4574 16.9694 30.7818 15.645 32.4097 15.645C34.0375 15.645 35.3618 16.9694 35.3618 18.5973C35.3618 20.2251 34.0374 21.5495 32.4097 21.5495C30.7818 21.5495 29.4574 20.2251 29.4574 18.5973Z" fill="white"/>
<path d="M32.4097 31.879C32.7429 31.879 33.0532 31.7091 33.2326 31.4283L34.4393 29.5401C34.6972 29.1366 35.1019 28.8319 35.5789 28.6821C37.6999 28.0162 39.5978 26.6592 40.923 24.8611C42.2955 22.9986 43.0061 20.7871 42.9779 18.4657C42.9447 15.7291 41.8575 13.1404 39.9166 11.1766C37.9755 9.21243 35.3998 8.09534 32.6639 8.03098C29.791 7.96194 27.0782 9.03039 25.0251 11.0357C22.9715 13.0415 21.8406 15.7268 21.8406 18.597C21.8406 20.8929 22.5644 23.0765 23.9337 24.9117C25.257 26.6851 27.1428 28.0246 29.2441 28.6835C29.7184 28.8322 30.1217 29.1364 30.3797 29.5401L31.5867 31.4285C31.7663 31.7092 32.0765 31.879 32.4097 31.879ZM29.8286 26.8197C26.219 25.688 23.7938 22.3834 23.7938 18.5969C23.7938 16.2571 24.7158 14.068 26.3899 12.4328C28.0134 10.847 30.1435 9.98108 32.4083 9.98108C32.478 9.98108 32.5481 9.98186 32.6179 9.98352C37.1978 10.0913 40.9692 13.9071 41.0248 18.4896C41.0707 22.2644 38.5907 25.6896 34.9939 26.8189C34.0797 27.1059 33.2983 27.6987 32.7936 28.4884L32.4096 29.0892L32.0254 28.4882C31.5207 27.6982 30.7406 27.1057 29.8286 26.8197Z" fill="white"/>
</g>
<defs>
<clipPath id="clip0">
<rect width="50" height="50" fill="white"/>
</clipPath>
</defs>
</svg>
