<svg width="50" height="50" viewBox="0 0 50 50" fill="none" xmlns="http://www.w3.org/2000/svg">
<path d="M48.7578 7.88105L33.1328 0.849805C32.9289 0.758398 32.6953 0.758398 32.4922 0.849805L17.1875 7.73652L1.88281 0.849805C1.64219 0.741992 1.36094 0.763086 1.13828 0.906055C0.915625 1.05059 0.78125 1.29746 0.78125 1.5623V41.4061C0.78125 41.7139 0.961719 41.992 1.24219 42.1186L16.8672 49.1498C17.0711 49.2412 17.3047 49.2412 17.5078 49.1498L32.8125 42.2631L48.1172 49.1498C48.2195 49.1959 48.3281 49.2186 48.4375 49.2186C48.5859 49.2186 48.7336 49.1764 48.8617 49.0936C49.0844 48.949 49.2188 48.7021 49.2188 48.4373V8.59355C49.2188 8.28574 49.0383 8.00762 48.7578 7.88105ZM17.9688 9.09902L32.0312 2.7709V40.9014L17.9688 47.2295V9.09902ZM2.34375 2.77012L16.4062 9.09824V47.2287L2.34375 40.9006V2.77012ZM47.6562 47.2295L33.5938 40.9014V2.7709L47.6562 9.09902V47.2295Z" fill="white"/>
<path d="M14.3633 10.2164L4.98828 6.3101C4.74609 6.20932 4.47109 6.2351 4.25469 6.38119C4.03672 6.52651 3.90625 6.77026 3.90625 7.03119V17.1874C3.90625 17.5031 4.09609 17.7874 4.38672 17.9085L13.7617 21.8148C13.8586 21.8554 13.9609 21.8749 14.0625 21.8749C14.2141 21.8749 14.3656 21.8304 14.4961 21.7437C14.7133 21.5984 14.8438 21.3546 14.8438 21.0937V10.9374C14.8438 10.6218 14.6539 10.3374 14.3633 10.2164ZM13.2812 19.9218L5.46875 16.6664V8.20307L13.2812 11.4585V19.9218Z" fill="white"/>
<path d="M4.38904 21.8228L4.9906 20.3806L14.3648 24.2907L13.7633 25.7329L4.38904 21.8228Z" fill="white"/>
<path d="M4.38831 25.7305L4.98987 24.2883L14.3641 28.1984L13.7625 29.6406L4.38831 25.7305Z" fill="white"/>
<path d="M4.38831 29.6382L4.98987 28.196L14.3641 32.1061L13.7625 33.5483L4.38831 29.6382Z" fill="white"/>
<path d="M4.38831 33.5459L4.98987 32.1037L14.3641 36.0139L13.7625 37.456L4.38831 33.5459Z" fill="white"/>
<path d="M30.1211 28.2562C29.9047 28.1101 29.6289 28.0843 29.3875 28.1851L20.0125 32.0913C19.7211 32.2124 19.5312 32.4968 19.5312 32.8124V42.9687C19.5312 43.2296 19.6617 43.4734 19.8789 43.6187C20.0094 43.7054 20.1602 43.7499 20.3125 43.7499C20.4141 43.7499 20.5164 43.7304 20.6133 43.6898L29.9883 39.7835C30.2789 39.6624 30.4688 39.3781 30.4688 39.0624V28.9062C30.4688 28.6453 30.3383 28.4015 30.1211 28.2562ZM28.9062 38.5413L21.0938 41.7968V33.3335L28.9062 30.0781V38.5413Z" fill="white"/>
<path d="M20.0172 28.1831L29.3914 24.2729L29.993 25.7151L20.6188 29.6253L20.0172 28.1831Z" fill="white"/>
<path d="M20.0164 24.2769L29.3906 20.3667L29.9921 21.8089L20.6179 25.719L20.0164 24.2769Z" fill="white"/>
<path d="M20.0156 20.3706L29.3898 16.4604L29.9914 17.9026L20.6172 21.8128L20.0156 20.3706Z" fill="white"/>
<path d="M20.0148 16.4644L29.389 12.5542L29.9905 13.9964L20.6163 17.9065L20.0148 16.4644Z" fill="white"/>
<path d="M35.6367 17.9085L45.0117 21.8148C45.1086 21.8554 45.2109 21.8749 45.3125 21.8749C45.4641 21.8749 45.6156 21.8304 45.7461 21.7437C45.9633 21.5984 46.0938 21.3546 46.0938 21.0937V10.9374C46.0938 10.6218 45.9039 10.3374 45.6133 10.2164L36.2383 6.3101C35.9969 6.20932 35.7219 6.2351 35.5047 6.38119C35.2867 6.52651 35.1562 6.77026 35.1562 7.03119V17.1874C35.1562 17.5031 35.3461 17.7874 35.6367 17.9085ZM36.7188 8.20307L44.5312 11.4585V19.9218L36.7188 16.6664V8.20307Z" fill="white"/>
<path d="M35.6509 21.8252L36.2524 20.383L45.6266 24.2932L45.0251 25.7353L35.6509 21.8252Z" fill="white"/>
<path d="M35.6509 25.7329L36.2524 24.2907L45.6266 28.2009L45.0251 29.6431L35.6509 25.7329Z" fill="white"/>
<path d="M35.6499 29.6406L36.2515 28.1984L45.6257 32.1086L45.0241 33.5508L35.6499 29.6406Z" fill="white"/>
<path d="M35.6499 33.5483L36.2515 32.1062L45.6257 36.0163L45.0241 37.4585L35.6499 33.5483Z" fill="white"/>
</svg>
